  0
SECTION
  2
HEADER
  9
$ACADVER
  1
AC1009
  9
$INSBASE
 10
0.0
 20
0.0
 30
0.0
  9
$EXTMIN
 10
0.0
 20
0.0
 30
0.0
  9
$EXTMAX
 10
0.0
 20
0.0
 30
0.0
  0
ENDSEC
  0
SECTION
  2
TABLES
  0
TABLE
  2
VPORT
 70
0
  0
ENDTAB
  0
TABLE
  2
LTYPE
 70
1
  0
LTYPE
  2
CONTINUOUS
 70
0
  3
Solid line
 72
65
 73
0
 40
0.0
  0
ENDTAB
  0
TABLE
  2
LAYER
 70
1
  0
LAYER
  2
0
 70
64
 62
7
  6
continuous
  0
ENDTAB
  0
TABLE
  2
STYLE
 70
1
  0
STYLE
  2
STANDARD
 70
0
 40
0
 41
1.0
 50
0.0
 71
0
 42
1
 3
ARIAL.TTF
 4

  0
ENDTAB
  0
TABLE
  2
VIEW
 70
0
  0
ENDTAB
  0
ENDSEC
  0
SECTION
  2
BLOCKS
  0
BLOCK
  8
0
  2
FACEFEAT
 70
0
 10
0.0
 20
0.0
 30
0.0
  3
FACEFEAT
  0
CIRCLE
  8
0
 62
0
 10
118.0
 20
99.0
 30
0.0
 40
1.59999999999998
  0
CIRCLE
  8
0
 62
0
 10
-4.0
 20
30.3333333333333
 30
0.0
 40
1.6
  0
CIRCLE
  8
0
 62
0
 10
149.000000014901
 20
-13.4999996088445
 30
0.0
 40
1.6
  0
CIRCLE
  8
0
 62
0
 10
175.000000014901
 20
84.7499999850989
 30
0.0
 40
1.6
  0
CIRCLE
  8
0
 62
0
 10
149.000000014901
 20
89.5
 30
0.0
 40
1.6
  0
CIRCLE
  8
0
 62
0
 10
-4.0
 20
-4.0
 30
0.0
 40
1.6
  0
CIRCLE
  8
0
 62
0
 10
129.0
 20
-13.4999996088445
 30
0.0
 40
1.6
  0
CIRCLE
  8
0
 62
0
 10
99.0
 20
103.75
 30
0.0
 40
1.59999999999998
  0
CIRCLE
  8
0
 62
0
 10
53.0
 20
99.0
 30
0.0
 40
1.6
  0
CIRCLE
  8
0
 62
0
 10
-4.0
 20
99.0
 30
0.0
 40
1.6
  0
CIRCLE
  8
0
 62
0
 10
72.0
 20
103.75
 30
0.0
 40
1.6
  0
CIRCLE
  8
0
 62
0
 10
23.0
 20
99.0
 30
0.0
 40
1.6
  0
CIRCLE
  8
0
 62
0
 10
61.0000001529329
 20
-13.5
 30
0.0
 40
1.6
  0
CIRCLE
  8
0
 62
0
 10
15.000000205636
 20
-13.5
 30
0.0
 40
1.6
  0
CIRCLE
  8
0
 62
0
 10
94.9999999957425
 20
-8.74999999999999
 30
0.0
 40
1.6
  0
CIRCLE
  8
0
 62
0
 10
137.0
 20
94.25
 30
0.0
 40
1.6
  0
CIRCLE
  8
0
 62
0
 10
157.000000014901
 20
-4.00000001490116
 30
0.0
 40
1.6
  0
CIRCLE
  8
0
 62
0
 10
175.000000014901
 20
25.5833333184322
 30
0.0
 40
1.6
  0
CIRCLE
  8
0
 62
0
 10
-4.0
 20
64.6666666666667
 30
0.0
 40
1.6
  0
CIRCLE
  8
0
 62
0
 10
175.000000014901
 20
55.1666666517655
 30
0.0
 40
1.6
  0
CIRCLE
  8
0
 62
0
 10
175.000000014901
 20
-4.00000001490116
 30
0.0
 40
1.6
  0
LINE
  8
0
 62
0
 10
175.000000014901
 20
88.7500000149012
 30
0.0
 11
153.000000014901
 21
88.7500000149012
 31
0.0
  0
ARC
  8
0
 62
0
 10
175.000000014901
 20
84.7500000149012
 30
0.0
 40
3.99999999999999
 50
-0.0
 51
90.0
  0
LINE
  8
0
 62
0
 10
179.000000014901
 20
-4.00000001490119
 30
0.0
 11
179.000000014901
 21
84.7500000149012
 31
0.0
  0
ARC
  8
0
 62
0
 10
175.000000014901
 20
-4.00000001490118
 30
0.0
 40
3.99999999999999
 50
-90.0
 51
-0.0
  0
LINE
  8
0
 62
0
 10
153.000000014901
 20
-8.000000014901168
 30
0.0
 11
175.000000014901
 21
-8.00000001490117
 31
0.0
  0
LINE
  8
0
 62
0
 10
153.00000001490096
 20
-13.4999996088445
 30
0.0
 11
153.00000001490102
 21
-8.00000001490116
 31
0.0
  0
ARC
  8
0
 62
0
 10
149.000000014901
 20
-13.4999996088445
 30
0.0
 40
4.00000000000001
 50
-89.99999999999959
 51
-0.0
  0
LINE
  8
0
 62
0
 10
129.0
 20
-17.4999996088445
 30
0.0
 11
149.000000014901
 21
-17.499999608844504
 31
0.0
  0
ARC
  8
0
 62
0
 10
129.0
 20
-13.4999996088445
 30
0.0
 40
3.99999999999999
 50
-180.0
 51
-90.0
  0
LINE
  8
0
 62
0
 10
125.0
 20
-12.75
 30
0.0
 11
125.0
 21
-13.4999996088446
 31
0.0
  0
LINE
  8
0
 62
0
 10
65.0
 20
-12.75
 30
0.0
 11
125.0
 21
-12.750000000000005
 31
0.0
  0
LINE
  8
0
 62
0
 10
65.00000015293281
 20
-13.4999991843575
 30
0.0
 11
65.0
 21
-12.75
 31
0.0
  0
ARC
  8
0
 62
0
 10
61.0000001529329
 20
-13.5
 30
0.0
 40
3.99999999999998
 50
-90.00000000000041
 51
1.1675179017869926e-05
  0
LINE
  8
0
 62
0
 10
15.000000205636
 20
-17.5
 30
0.0
 11
61.0000001529329
 21
-17.500000000000007
 31
0.0
  0
ARC
  8
0
 62
0
 10
15.000000205636
 20
-13.5
 30
0.0
 40
4.0
 50
-179.99999618180817
 51
-90.0
  0
LINE
  8
0
 62
0
 10
10.9999998286366
 20
-8.0
 30
0.0
 11
11.000000205635981
 21
-13.5000002741814
 31
0.0
  0
LINE
  8
0
 62
0
 10
-4.00000000000002
 20
-8.0
 30
0.0
 11
10.9999998286366
 21
-8.000000000000007
 31
0.0
  0
ARC
  8
0
 62
0
 10
-4.00000000000001
 20
-4.0
 30
0.0
 40
3.99999999999999
 50
-180.0
 51
-90.00000000000016
  0
LINE
  8
0
 62
0
 10
-8.0
 20
99.0
 30
0.0
 11
-7.999999999999997
 21
-4.0
 31
0.0
  0
ARC
  8
0
 62
0
 10
-3.99999999999998
 20
99.0
 30
0.0
 40
4.00000000000002
 50
90.00000000000031
 51
-180.0
  0
LINE
  8
0
 62
0
 10
23.0
 20
103.0
 30
0.0
 11
-3.9999999999999893
 21
103.0
 31
0.0
  0
ARC
  8
0
 62
0
 10
23.0
 20
99.0
 30
0.0
 40
4.00000000000002
 50
0.0
 51
90.0
  0
LINE
  8
0
 62
0
 10
27.0
 20
93.5
 30
0.0
 11
27.0
 21
99.0
 31
0.0
  0
LINE
  8
0
 62
0
 10
49.0
 20
93.5
 30
0.0
 11
27.0
 21
93.5
 31
0.0
  0
LINE
  8
0
 62
0
 10
49.0
 20
99.0
 30
0.0
 11
49.00000000000001
 21
93.5
 31
0.0
  0
ARC
  8
0
 62
0
 10
53.0
 20
99.0
 30
0.0
 40
4.00000000000002
 50
90.00000000000041
 51
-180.0
  0
LINE
  8
0
 62
0
 10
68.0
 20
103.0
 30
0.0
 11
53.0
 21
103.0
 31
0.0
  0
LINE
  8
0
 62
0
 10
68.0
 20
103.75
 30
0.0
 11
67.99999999999999
 21
103.0
 31
0.0
  0
ARC
  8
0
 62
0
 10
72.0
 20
103.75
 30
0.0
 40
4.0
 50
90.0000000000002
 51
-180.0
  0
LINE
  8
0
 62
0
 10
99.0
 20
107.75
 30
0.0
 11
72.0
 21
107.75
 31
0.0
  0
ARC
  8
0
 62
0
 10
99.0
 20
103.75
 30
0.0
 40
3.99999999999999
 50
-0.0
 51
90.0
  0
LINE
  8
0
 62
0
 10
103.0
 20
103.0
 30
0.0
 11
103.0
 21
103.75
 31
0.0
  0
LINE
  8
0
 62
0
 10
118.0
 20
103.0
 30
0.0
 11
103.0
 21
103.0
 31
0.0
  0
ARC
  8
0
 62
0
 10
118.0
 20
99.0
 30
0.0
 40
4.00000000000004
 50
0.0
 51
90.0
  0
LINE
  8
0
 62
0
 10
122.0
 20
98.25
 30
0.0
 11
122.0
 21
99.0
 31
0.0
  0
LINE
  8
0
 62
0
 10
137.0
 20
98.25
 30
0.0
 11
122.0
 21
98.25000000000001
 31
0.0
  0
ARC
  8
0
 62
0
 10
137.0
 20
94.25
 30
0.0
 40
4.00000000000002
 50
0.0
 51
90.0
  0
LINE
  8
0
 62
0
 10
141.0
 20
93.5
 30
0.0
 11
141.0
 21
94.25
 31
0.0
  0
LINE
  8
0
 62
0
 10
149.000000014901
 20
93.5
 30
0.0
 11
141.0
 21
93.49999999999999
 31
0.0
  0
ARC
  8
0
 62
0
 10
149.000000014901
 20
89.5
 30
0.0
 40
4.00000000000004
 50
0.0
 51
90.0
  0
LINE
  8
0
 62
0
 10
153.000000014901
 20
88.7500000149012
 30
0.0
 11
153.000000014901
 21
89.5
 31
0.0
  0
ENDBLK
  0
ENDSEC
  0
SECTION
  2
ENTITIES
  0
INSERT
  2
FACEFEAT
  8
0
 62
0
 10
0.0
 20
0.0
 30
0.0
  0
ENDSEC
  0
EOF
