  0
SECTION
  2
HEADER
  9
$ACADVER
  1
AC1009
  9
$INSBASE
 10
0.0
 20
0.0
 30
0.0
  9
$EXTMIN
 10
0.0
 20
0.0
 30
0.0
  9
$EXTMAX
 10
0.0
 20
0.0
 30
0.0
  0
ENDSEC
  0
SECTION
  2
TABLES
  0
TABLE
  2
VPORT
 70
0
  0
ENDTAB
  0
TABLE
  2
LTYPE
 70
1
  0
LTYPE
  2
CONTINUOUS
 70
0
  3
Solid line
 72
65
 73
0
 40
0.0
  0
ENDTAB
  0
TABLE
  2
LAYER
 70
1
  0
LAYER
  2
0
 70
64
 62
7
  6
continuous
  0
ENDTAB
  0
TABLE
  2
STYLE
 70
1
  0
STYLE
  2
STANDARD
 70
0
 40
0
 41
1.0
 50
0.0
 71
0
 42
1
 3
ARIAL.TTF
 4

  0
ENDTAB
  0
TABLE
  2
VIEW
 70
0
  0
ENDTAB
  0
ENDSEC
  0
SECTION
  2
BLOCKS
  0
BLOCK
  8
0
  2
FACEFEAT
 70
0
 10
0.0
 20
0.0
 30
0.0
  3
FACEFEAT
  0
LINE
  8
0
 62
0
 10
54.5
 20
7.00000000000004
 30
0.0
 11
54.5
 21
-7.00000000000001
 31
0.0
  0
LINE
  8
0
 62
0
 10
40.5
 20
6.99999999999999
 30
0.0
 11
54.5
 21
7.000000000000035
 31
0.0
  0
LINE
  8
0
 62
0
 10
40.5
 20
-7.00000000000001
 30
0.0
 11
40.5
 21
6.99999999999999
 31
0.0
  0
LINE
  8
0
 62
0
 10
54.5
 20
-7.00000000000001
 30
0.0
 11
40.5
 21
-7.0000000000000115
 31
0.0
  0
LINE
  8
0
 62
0
 10
35.5
 20
7.00000000000004
 30
0.0
 11
35.5
 21
-7.00000000000001
 31
0.0
  0
LINE
  8
0
 62
0
 10
21.5
 20
6.99999999999999
 30
0.0
 11
35.5
 21
7.000000000000035
 31
0.0
  0
LINE
  8
0
 62
0
 10
21.5
 20
-7.00000000000001
 30
0.0
 11
21.5
 21
6.99999999999999
 31
0.0
  0
LINE
  8
0
 62
0
 10
35.5
 20
-7.00000000000001
 30
0.0
 11
21.5
 21
-7.0000000000000115
 31
0.0
  0
CIRCLE
  8
0
 62
0
 10
-4.0
 20
64.6666666666667
 30
0.0
 40
1.6
  0
CIRCLE
  8
0
 62
0
 10
-4.0
 20
-4.0
 30
0.0
 40
1.6
  0
CIRCLE
  8
0
 62
0
 10
129.0
 20
-13.4999996088445
 30
0.0
 40
1.6
  0
CIRCLE
  8
0
 62
0
 10
149.000000014901
 20
-13.4999996088445
 30
0.0
 40
1.6
  0
CIRCLE
  8
0
 62
0
 10
-4.0
 20
30.3333333333333
 30
0.0
 40
1.6
  0
CIRCLE
  8
0
 62
0
 10
15.000000205636
 20
-13.5
 30
0.0
 40
1.6
  0
CIRCLE
  8
0
 62
0
 10
94.9999999957425
 20
-8.74999999999999
 30
0.0
 40
1.6
  0
CIRCLE
  8
0
 62
0
 10
61.0000001529329
 20
-13.5
 30
0.0
 40
1.6
  0
LINE
  8
0
 62
0
 10
130.5
 20
68.75
 30
0.0
 11
130.50000000000003
 21
54.75
 31
0.0
  0
LINE
  8
0
 62
0
 10
116.5
 20
68.75
 30
0.0
 11
130.5
 21
68.75000000000004
 31
0.0
  0
LINE
  8
0
 62
0
 10
116.5
 20
54.75
 30
0.0
 11
116.5
 21
68.75
 31
0.0
  0
LINE
  8
0
 62
0
 10
130.5
 20
54.75
 30
0.0
 11
116.5
 21
54.75
 31
0.0
  0
LINE
  8
0
 62
0
 10
111.5
 20
54.5
 30
0.0
 11
111.50000000000001
 21
40.5
 31
0.0
  0
LINE
  8
0
 62
0
 10
97.5
 20
54.5
 30
0.0
 11
111.5
 21
54.50000000000004
 31
0.0
  0
LINE
  8
0
 62
0
 10
97.5
 20
40.5
 30
0.0
 11
97.5
 21
54.5
 31
0.0
  0
LINE
  8
0
 62
0
 10
111.5
 20
40.5
 30
0.0
 11
97.5
 21
40.5
 31
0.0
  0
LINE
  8
0
 62
0
 10
16.5
 20
2.5
 30
0.0
 11
2.5
 21
2.5000000000000004
 31
0.0
  0
LINE
  8
0
 62
0
 10
16.5
 20
16.5
 30
0.0
 11
16.500000000000004
 21
2.4999999999999893
 31
0.0
  0
LINE
  8
0
 62
0
 10
2.5
 20
16.5
 30
0.0
 11
16.5
 21
16.500000000000032
 31
0.0
  0
LINE
  8
0
 62
0
 10
2.5
 20
2.49999999999999
 30
0.0
 11
2.5000000000000018
 21
16.5
 31
0.0
  0
LINE
  8
0
 62
0
 10
16.5
 20
78.5
 30
0.0
 11
2.5
 21
78.5
 31
0.0
  0
LINE
  8
0
 62
0
 10
16.5
 20
92.5
 30
0.0
 11
16.500000000000004
 21
78.5
 31
0.0
  0
LINE
  8
0
 62
0
 10
2.5
 20
92.5
 30
0.0
 11
16.5
 21
92.50000000000003
 31
0.0
  0
LINE
  8
0
 62
0
 10
2.5
 20
78.5
 30
0.0
 11
2.5000000000000018
 21
92.5
 31
0.0
  0
LINE
  8
0
 62
0
 10
16.5
 20
21.5
 30
0.0
 11
2.5
 21
21.5
 31
0.0
  0
LINE
  8
0
 62
0
 10
16.5
 20
35.5
 30
0.0
 11
16.500000000000004
 21
21.5
 31
0.0
  0
LINE
  8
0
 62
0
 10
2.5
 20
35.5
 30
0.0
 11
16.5
 21
35.500000000000036
 31
0.0
  0
LINE
  8
0
 62
0
 10
2.5
 20
21.5
 30
0.0
 11
2.5000000000000018
 21
35.5
 31
0.0
  0
LINE
  8
0
 62
0
 10
16.5
 20
59.5
 30
0.0
 11
2.5
 21
59.50000000000001
 31
0.0
  0
LINE
  8
0
 62
0
 10
16.5
 20
73.5
 30
0.0
 11
16.500000000000004
 21
59.5
 31
0.0
  0
LINE
  8
0
 62
0
 10
2.5
 20
73.5
 30
0.0
 11
16.5
 21
73.50000000000003
 31
0.0
  0
LINE
  8
0
 62
0
 10
2.5
 20
59.5
 30
0.0
 11
2.5000000000000018
 21
73.5
 31
0.0
  0
LINE
  8
0
 62
0
 10
16.5
 20
40.5
 30
0.0
 11
2.5
 21
40.5
 31
0.0
  0
LINE
  8
0
 62
0
 10
16.5
 20
54.5
 30
0.0
 11
16.500000000000004
 21
40.5
 31
0.0
  0
LINE
  8
0
 62
0
 10
2.5
 20
54.5
 30
0.0
 11
16.5
 21
54.500000000000036
 31
0.0
  0
LINE
  8
0
 62
0
 10
2.5
 20
40.5
 30
0.0
 11
2.5000000000000018
 21
54.5
 31
0.0
  0
CIRCLE
  8
0
 62
0
 10
53.0
 20
99.0
 30
0.0
 40
1.6
  0
CIRCLE
  8
0
 62
0
 10
23.0
 20
99.0
 30
0.0
 40
1.6
  0
CIRCLE
  8
0
 62
0
 10
-4.0
 20
99.0
 30
0.0
 40
1.6
  0
LINE
  8
0
 62
0
 10
35.5
 20
50.0
 30
0.0
 11
21.5
 21
50.0
 31
0.0
  0
LINE
  8
0
 62
0
 10
35.5
 20
64.0
 30
0.0
 11
35.5
 21
50.0
 31
0.0
  0
LINE
  8
0
 62
0
 10
21.5
 20
64.0
 30
0.0
 11
35.5
 21
64.00000000000003
 31
0.0
  0
LINE
  8
0
 62
0
 10
21.5
 20
50.0
 30
0.0
 11
21.5
 21
64.0
 31
0.0
  0
LINE
  8
0
 62
0
 10
35.5
 20
69.0
 30
0.0
 11
21.5
 21
69.00000000000001
 31
0.0
  0
LINE
  8
0
 62
0
 10
35.5
 20
83.0
 30
0.0
 11
35.5
 21
69.0
 31
0.0
  0
LINE
  8
0
 62
0
 10
21.5
 20
83.0
 30
0.0
 11
35.5
 21
83.00000000000003
 31
0.0
  0
LINE
  8
0
 62
0
 10
21.5
 20
69.0
 30
0.0
 11
21.5
 21
83.0
 31
0.0
  0
LINE
  8
0
 62
0
 10
35.5
 20
31.0
 30
0.0
 11
21.5
 21
31.0
 31
0.0
  0
LINE
  8
0
 62
0
 10
35.5
 20
45.0
 30
0.0
 11
35.5
 21
31.0
 31
0.0
  0
LINE
  8
0
 62
0
 10
21.5
 20
45.0
 30
0.0
 11
35.5
 21
45.000000000000036
 31
0.0
  0
LINE
  8
0
 62
0
 10
21.5
 20
31.0
 30
0.0
 11
21.5
 21
45.0
 31
0.0
  0
LINE
  8
0
 62
0
 10
35.5
 20
12.0
 30
0.0
 11
21.5
 21
12.0
 31
0.0
  0
LINE
  8
0
 62
0
 10
35.5
 20
26.0
 30
0.0
 11
35.5
 21
12.0
 31
0.0
  0
LINE
  8
0
 62
0
 10
21.5
 20
26.0
 30
0.0
 11
35.5
 21
26.000000000000036
 31
0.0
  0
LINE
  8
0
 62
0
 10
21.5
 20
12.0
 30
0.0
 11
21.5
 21
26.0
 31
0.0
  0
LINE
  8
0
 62
0
 10
54.5
 20
26.0
 30
0.0
 11
54.5
 21
12.0
 31
0.0
  0
LINE
  8
0
 62
0
 10
40.5
 20
26.0
 30
0.0
 11
54.5
 21
26.000000000000036
 31
0.0
  0
LINE
  8
0
 62
0
 10
40.5
 20
12.0
 30
0.0
 11
40.5
 21
26.0
 31
0.0
  0
LINE
  8
0
 62
0
 10
54.5
 20
12.0
 30
0.0
 11
40.5
 21
11.999999999999998
 31
0.0
  0
LINE
  8
0
 62
0
 10
130.5
 20
49.75
 30
0.0
 11
130.50000000000003
 21
35.75
 31
0.0
  0
LINE
  8
0
 62
0
 10
116.5
 20
49.75
 30
0.0
 11
130.5
 21
49.750000000000036
 31
0.0
  0
LINE
  8
0
 62
0
 10
116.5
 20
35.75
 30
0.0
 11
116.5
 21
49.75
 31
0.0
  0
LINE
  8
0
 62
0
 10
130.5
 20
35.75
 30
0.0
 11
116.5
 21
35.75
 31
0.0
  0
LINE
  8
0
 62
0
 10
149.5
 20
64.0
 30
0.0
 11
149.5
 21
50.0
 31
0.0
  0
LINE
  8
0
 62
0
 10
135.5
 20
64.0
 30
0.0
 11
149.5
 21
64.00000000000003
 31
0.0
  0
LINE
  8
0
 62
0
 10
135.5
 20
50.0
 30
0.0
 11
135.5
 21
64.0
 31
0.0
  0
LINE
  8
0
 62
0
 10
149.5
 20
50.0
 30
0.0
 11
135.5
 21
50.0
 31
0.0
  0
LINE
  8
0
 62
0
 10
92.5
 20
97.2500000000001
 30
0.0
 11
92.50000000000001
 21
83.25
 31
0.0
  0
LINE
  8
0
 62
0
 10
78.5
 20
97.25
 30
0.0
 11
92.5
 21
97.25000000000006
 31
0.0
  0
LINE
  8
0
 62
0
 10
78.5
 20
83.25
 30
0.0
 11
78.5
 21
97.25
 31
0.0
  0
LINE
  8
0
 62
0
 10
92.5
 20
83.25
 30
0.0
 11
78.5
 21
83.25
 31
0.0
  0
LINE
  8
0
 62
0
 10
92.5
 20
40.25
 30
0.0
 11
92.50000000000001
 21
26.25
 31
0.0
  0
LINE
  8
0
 62
0
 10
78.5
 20
40.25
 30
0.0
 11
92.5
 21
40.250000000000036
 31
0.0
  0
LINE
  8
0
 62
0
 10
78.5
 20
26.25
 30
0.0
 11
78.5
 21
40.25
 31
0.0
  0
LINE
  8
0
 62
0
 10
92.5
 20
26.25
 30
0.0
 11
78.5
 21
26.25
 31
0.0
  0
LINE
  8
0
 62
0
 10
92.5
 20
78.25
 30
0.0
 11
92.50000000000001
 21
64.25
 31
0.0
  0
LINE
  8
0
 62
0
 10
78.5
 20
78.25
 30
0.0
 11
92.5
 21
78.25000000000004
 31
0.0
  0
LINE
  8
0
 62
0
 10
78.5
 20
64.25
 30
0.0
 11
78.5
 21
78.25
 31
0.0
  0
LINE
  8
0
 62
0
 10
92.5
 20
64.25
 30
0.0
 11
78.5
 21
64.25
 31
0.0
  0
CIRCLE
  8
0
 62
0
 10
99.0
 20
103.75
 30
0.0
 40
1.59999999999998
  0
CIRCLE
  8
0
 62
0
 10
149.000000014901
 20
89.5
 30
0.0
 40
1.6
  0
LINE
  8
0
 62
0
 10
149.5
 20
83.0
 30
0.0
 11
149.5
 21
69.0
 31
0.0
  0
LINE
  8
0
 62
0
 10
135.5
 20
83.0
 30
0.0
 11
149.5
 21
83.00000000000003
 31
0.0
  0
LINE
  8
0
 62
0
 10
135.5
 20
69.0
 30
0.0
 11
135.5
 21
83.0
 31
0.0
  0
LINE
  8
0
 62
0
 10
149.5
 20
69.0
 30
0.0
 11
135.5
 21
69.0
 31
0.0
  0
LINE
  8
0
 62
0
 10
149.5
 20
45.0
 30
0.0
 11
149.5
 21
31.0
 31
0.0
  0
LINE
  8
0
 62
0
 10
135.5
 20
45.0
 30
0.0
 11
149.5
 21
45.000000000000036
 31
0.0
  0
LINE
  8
0
 62
0
 10
135.5
 20
31.0
 30
0.0
 11
135.5
 21
45.0
 31
0.0
  0
LINE
  8
0
 62
0
 10
149.5
 20
31.0
 30
0.0
 11
135.5
 21
31.0
 31
0.0
  0
LINE
  8
0
 62
0
 10
149.5
 20
26.0
 30
0.0
 11
149.5
 21
12.0
 31
0.0
  0
LINE
  8
0
 62
0
 10
135.5
 20
26.0
 30
0.0
 11
149.5
 21
26.000000000000036
 31
0.0
  0
LINE
  8
0
 62
0
 10
135.5
 20
12.0
 30
0.0
 11
135.5
 21
26.0
 31
0.0
  0
LINE
  8
0
 62
0
 10
149.5
 20
12.0
 30
0.0
 11
135.5
 21
11.999999999999998
 31
0.0
  0
CIRCLE
  8
0
 62
0
 10
137.0
 20
94.25
 30
0.0
 40
1.6
  0
LINE
  8
0
 62
0
 10
111.5
 20
73.5
 30
0.0
 11
111.50000000000001
 21
59.5
 31
0.0
  0
LINE
  8
0
 62
0
 10
97.5
 20
73.5
 30
0.0
 11
111.5
 21
73.50000000000004
 31
0.0
  0
LINE
  8
0
 62
0
 10
97.5
 20
59.5
 30
0.0
 11
97.5
 21
73.5
 31
0.0
  0
LINE
  8
0
 62
0
 10
111.5
 20
59.5
 30
0.0
 11
97.5
 21
59.5
 31
0.0
  0
LINE
  8
0
 62
0
 10
111.5
 20
92.5
 30
0.0
 11
111.50000000000001
 21
78.5
 31
0.0
  0
LINE
  8
0
 62
0
 10
97.5
 20
92.5
 30
0.0
 11
111.5
 21
92.50000000000004
 31
0.0
  0
LINE
  8
0
 62
0
 10
97.5
 20
78.5
 30
0.0
 11
97.5
 21
92.5
 31
0.0
  0
LINE
  8
0
 62
0
 10
111.5
 20
78.5
 30
0.0
 11
97.5
 21
78.5
 31
0.0
  0
LINE
  8
0
 62
0
 10
111.5
 20
35.5
 30
0.0
 11
111.50000000000001
 21
21.5
 31
0.0
  0
LINE
  8
0
 62
0
 10
97.5
 20
35.5
 30
0.0
 11
111.5
 21
35.500000000000036
 31
0.0
  0
LINE
  8
0
 62
0
 10
97.5
 20
21.5
 30
0.0
 11
97.5
 21
35.5
 31
0.0
  0
LINE
  8
0
 62
0
 10
111.5
 20
21.5
 30
0.0
 11
97.5
 21
21.5
 31
0.0
  0
LINE
  8
0
 62
0
 10
54.5
 20
64.0
 30
0.0
 11
54.5
 21
50.0
 31
0.0
  0
LINE
  8
0
 62
0
 10
40.5
 20
64.0
 30
0.0
 11
54.5
 21
64.00000000000003
 31
0.0
  0
LINE
  8
0
 62
0
 10
40.5
 20
50.0
 30
0.0
 11
40.5
 21
64.0
 31
0.0
  0
LINE
  8
0
 62
0
 10
54.5
 20
50.0
 30
0.0
 11
40.5
 21
50.0
 31
0.0
  0
LINE
  8
0
 62
0
 10
54.5
 20
83.0
 30
0.0
 11
54.5
 21
69.0
 31
0.0
  0
LINE
  8
0
 62
0
 10
40.5
 20
83.0
 30
0.0
 11
54.5
 21
83.00000000000003
 31
0.0
  0
LINE
  8
0
 62
0
 10
40.5
 20
69.0
 30
0.0
 11
40.5
 21
83.0
 31
0.0
  0
LINE
  8
0
 62
0
 10
54.5
 20
69.0
 30
0.0
 11
40.5
 21
69.0
 31
0.0
  0
LINE
  8
0
 62
0
 10
73.5
 20
54.5
 30
0.0
 11
73.50000000000001
 21
40.5
 31
0.0
  0
LINE
  8
0
 62
0
 10
59.5
 20
54.5
 30
0.0
 11
73.5
 21
54.500000000000036
 31
0.0
  0
LINE
  8
0
 62
0
 10
59.5
 20
40.5
 30
0.0
 11
59.5
 21
54.5
 31
0.0
  0
LINE
  8
0
 62
0
 10
73.5
 20
40.5
 30
0.0
 11
59.5
 21
40.5
 31
0.0
  0
LINE
  8
0
 62
0
 10
73.5
 20
35.5
 30
0.0
 11
73.50000000000001
 21
21.5
 31
0.0
  0
LINE
  8
0
 62
0
 10
59.5
 20
35.5
 30
0.0
 11
73.5
 21
35.500000000000036
 31
0.0
  0
LINE
  8
0
 62
0
 10
59.5
 20
21.5
 30
0.0
 11
59.5
 21
35.5
 31
0.0
  0
LINE
  8
0
 62
0
 10
73.5
 20
21.5
 30
0.0
 11
59.5
 21
21.5
 31
0.0
  0
CIRCLE
  8
0
 62
0
 10
118.0
 20
99.0
 30
0.0
 40
1.59999999999998
  0
LINE
  8
0
 62
0
 10
73.5
 20
92.5
 30
0.0
 11
73.50000000000001
 21
78.5
 31
0.0
  0
LINE
  8
0
 62
0
 10
59.5
 20
92.5
 30
0.0
 11
73.5
 21
92.50000000000004
 31
0.0
  0
LINE
  8
0
 62
0
 10
59.5
 20
78.5
 30
0.0
 11
59.5
 21
92.5
 31
0.0
  0
LINE
  8
0
 62
0
 10
73.5
 20
78.5
 30
0.0
 11
59.5
 21
78.5
 31
0.0
  0
LINE
  8
0
 62
0
 10
92.5
 20
59.25
 30
0.0
 11
92.50000000000001
 21
45.25
 31
0.0
  0
LINE
  8
0
 62
0
 10
78.5
 20
59.25
 30
0.0
 11
92.5
 21
59.250000000000036
 31
0.0
  0
LINE
  8
0
 62
0
 10
78.5
 20
45.25
 30
0.0
 11
78.5
 21
59.25
 31
0.0
  0
LINE
  8
0
 62
0
 10
92.5
 20
45.25
 30
0.0
 11
78.5
 21
45.25
 31
0.0
  0
CIRCLE
  8
0
 62
0
 10
72.0
 20
103.75
 30
0.0
 40
1.6
  0
LINE
  8
0
 62
0
 10
149.5
 20
7.00000000000004
 30
0.0
 11
149.5
 21
-6.999999999999999
 31
0.0
  0
LINE
  8
0
 62
0
 10
135.5
 20
7.0
 30
0.0
 11
149.5
 21
7.000000000000035
 31
0.0
  0
LINE
  8
0
 62
0
 10
135.5
 20
-7.00000000000001
 30
0.0
 11
135.5
 21
7.000000000000001
 31
0.0
  0
LINE
  8
0
 62
0
 10
149.5
 20
-7.00000000000001
 30
0.0
 11
135.5
 21
-7.000000000000011
 31
0.0
  0
LINE
  8
0
 62
0
 10
54.5
 20
45.0
 30
0.0
 11
54.5
 21
31.0
 31
0.0
  0
LINE
  8
0
 62
0
 10
40.5
 20
45.0
 30
0.0
 11
54.5
 21
45.000000000000036
 31
0.0
  0
LINE
  8
0
 62
0
 10
40.5
 20
31.0
 30
0.0
 11
40.5
 21
45.0
 31
0.0
  0
LINE
  8
0
 62
0
 10
54.5
 20
31.0
 30
0.0
 11
40.5
 21
31.0
 31
0.0
  0
LINE
  8
0
 62
0
 10
130.5
 20
30.75
 30
0.0
 11
130.50000000000003
 21
16.75
 31
0.0
  0
LINE
  8
0
 62
0
 10
116.5
 20
30.75
 30
0.0
 11
130.5
 21
30.750000000000036
 31
0.0
  0
LINE
  8
0
 62
0
 10
116.5
 20
16.75
 30
0.0
 11
116.5
 21
30.75
 31
0.0
  0
LINE
  8
0
 62
0
 10
130.5
 20
16.75
 30
0.0
 11
116.5
 21
16.749999999999996
 31
0.0
  0
LINE
  8
0
 62
0
 10
78.4999999999999
 20
11.75
 30
0.0
 11
92.5
 21
11.75000000000001
 31
0.0
  0
LINE
  8
0
 62
0
 10
78.5
 20
-2.24999999999998
 30
0.0
 11
78.49999999999994
 21
11.75
 31
0.0
  0
LINE
  8
0
 62
0
 10
92.5
 20
-2.24999999999998
 30
0.0
 11
78.5
 21
-2.24999999999998
 31
0.0
  0
LINE
  8
0
 62
0
 10
92.5
 20
11.75
 30
0.0
 11
92.5
 21
-2.2499999999999805
 31
0.0
  0
LINE
  8
0
 62
0
 10
130.5
 20
87.7500000000001
 30
0.0
 11
130.50000000000003
 21
73.75
 31
0.0
  0
LINE
  8
0
 62
0
 10
116.5
 20
87.75
 30
0.0
 11
130.5
 21
87.75000000000006
 31
0.0
  0
LINE
  8
0
 62
0
 10
116.5
 20
73.75
 30
0.0
 11
116.5
 21
87.75
 31
0.0
  0
LINE
  8
0
 62
0
 10
130.5
 20
73.75
 30
0.0
 11
116.5
 21
73.75
 31
0.0
  0
LINE
  8
0
 62
0
 10
59.4999999999999
 20
11.75
 30
0.0
 11
73.5
 21
11.75000000000001
 31
0.0
  0
LINE
  8
0
 62
0
 10
59.5
 20
-2.24999999999998
 30
0.0
 11
59.499999999999964
 21
11.75
 31
0.0
  0
LINE
  8
0
 62
0
 10
73.5
 20
-2.24999999999998
 30
0.0
 11
59.5
 21
-2.24999999999998
 31
0.0
  0
LINE
  8
0
 62
0
 10
73.5
 20
11.75
 30
0.0
 11
73.5
 21
-2.2499999999999805
 31
0.0
  0
LINE
  8
0
 62
0
 10
116.5
 20
11.75
 30
0.0
 11
130.5
 21
11.75000000000001
 31
0.0
  0
LINE
  8
0
 62
0
 10
116.5
 20
-2.25
 30
0.0
 11
116.49999999999996
 21
11.75
 31
0.0
  0
LINE
  8
0
 62
0
 10
130.5
 20
-2.25
 30
0.0
 11
116.5
 21
-2.25
 31
0.0
  0
LINE
  8
0
 62
0
 10
130.5
 20
11.75
 30
0.0
 11
130.5
 21
-2.25
 31
0.0
  0
LINE
  8
0
 62
0
 10
97.5
 20
11.75
 30
0.0
 11
111.5
 21
11.75000000000001
 31
0.0
  0
LINE
  8
0
 62
0
 10
97.5
 20
-2.24999999999998
 30
0.0
 11
97.49999999999996
 21
11.75
 31
0.0
  0
LINE
  8
0
 62
0
 10
111.5
 20
-2.25
 30
0.0
 11
97.5
 21
-2.2499999999999822
 31
0.0
  0
LINE
  8
0
 62
0
 10
111.5
 20
11.75
 30
0.0
 11
111.5
 21
-2.25
 31
0.0
  0
LINE
  8
0
 62
0
 10
73.5
 20
73.5
 30
0.0
 11
73.50000000000001
 21
59.5
 31
0.0
  0
LINE
  8
0
 62
0
 10
59.5
 20
73.5
 30
0.0
 11
73.5
 21
73.50000000000004
 31
0.0
  0
LINE
  8
0
 62
0
 10
59.5
 20
59.5
 30
0.0
 11
59.5
 21
73.5
 31
0.0
  0
LINE
  8
0
 62
0
 10
73.5
 20
59.5
 30
0.0
 11
59.5
 21
59.5
 31
0.0
  0
ARC
  8
0
 62
0
 10
149.000000014901
 20
-13.4999996088445
 30
0.0
 40
4.00000000000001
 50
-89.99999999999959
 51
-0.0
  0
LINE
  8
0
 62
0
 10
129.0
 20
-17.4999996088445
 30
0.0
 11
149.000000014901
 21
-17.499999608844504
 31
0.0
  0
ARC
  8
0
 62
0
 10
129.0
 20
-13.4999996088445
 30
0.0
 40
3.99999999999999
 50
-180.0
 51
-90.0
  0
LINE
  8
0
 62
0
 10
125.0
 20
-12.75
 30
0.0
 11
125.0
 21
-13.4999996088446
 31
0.0
  0
LINE
  8
0
 62
0
 10
65.0
 20
-12.75
 30
0.0
 11
125.0
 21
-12.750000000000005
 31
0.0
  0
LINE
  8
0
 62
0
 10
65.00000015293281
 20
-13.4999991843575
 30
0.0
 11
65.0
 21
-12.75
 31
0.0
  0
ARC
  8
0
 62
0
 10
61.0000001529329
 20
-13.5
 30
0.0
 40
3.99999999999998
 50
-90.00000000000041
 51
1.1675179017869926e-05
  0
LINE
  8
0
 62
0
 10
15.000000205636
 20
-17.5
 30
0.0
 11
61.0000001529329
 21
-17.500000000000007
 31
0.0
  0
ARC
  8
0
 62
0
 10
15.000000205636
 20
-13.5
 30
0.0
 40
4.0
 50
-179.99999618180817
 51
-90.0
  0
LINE
  8
0
 62
0
 10
10.9999998286366
 20
-8.00000000000001
 30
0.0
 11
11.000000205635981
 21
-13.5000002741814
 31
0.0
  0
LINE
  8
0
 62
0
 10
-4.0
 20
-8.0
 30
0.0
 11
10.9999998286366
 21
-8.000000000000007
 31
0.0
  0
ARC
  8
0
 62
0
 10
-4.00000000000001
 20
-4.0
 30
0.0
 40
3.99999999999999
 50
-180.0
 51
-89.99999999999986
  0
LINE
  8
0
 62
0
 10
-8.0
 20
99.0
 30
0.0
 11
-7.999999999999997
 21
-4.0
 31
0.0
  0
ARC
  8
0
 62
0
 10
-3.99999999999998
 20
99.0
 30
0.0
 40
4.00000000000002
 50
90.00000000000031
 51
-180.0
  0
LINE
  8
0
 62
0
 10
23.0
 20
103.0
 30
0.0
 11
-4.0
 21
103.0
 31
0.0
  0
ARC
  8
0
 62
0
 10
23.0
 20
99.0
 30
0.0
 40
4.00000000000002
 50
0.0
 51
90.0
  0
LINE
  8
0
 62
0
 10
27.0
 20
93.5
 30
0.0
 11
27.0
 21
99.0
 31
0.0
  0
LINE
  8
0
 62
0
 10
49.0
 20
93.5
 30
0.0
 11
27.0
 21
93.5
 31
0.0
  0
LINE
  8
0
 62
0
 10
49.0
 20
99.0
 30
0.0
 11
49.00000000000001
 21
93.5
 31
0.0
  0
ARC
  8
0
 62
0
 10
53.0
 20
99.0
 30
0.0
 40
4.00000000000002
 50
90.00000000000041
 51
-180.0
  0
LINE
  8
0
 62
0
 10
68.0
 20
103.0
 30
0.0
 11
53.0
 21
103.0
 31
0.0
  0
LINE
  8
0
 62
0
 10
68.0
 20
103.75
 30
0.0
 11
67.99999999999999
 21
103.0
 31
0.0
  0
ARC
  8
0
 62
0
 10
72.0
 20
103.75
 30
0.0
 40
4.0
 50
90.0000000000002
 51
-180.0
  0
LINE
  8
0
 62
0
 10
99.0
 20
107.75
 30
0.0
 11
72.0
 21
107.75
 31
0.0
  0
ARC
  8
0
 62
0
 10
99.0
 20
103.75
 30
0.0
 40
3.99999999999999
 50
-0.0
 51
90.0
  0
LINE
  8
0
 62
0
 10
103.0
 20
103.0
 30
0.0
 11
103.0
 21
103.75
 31
0.0
  0
LINE
  8
0
 62
0
 10
118.0
 20
103.0
 30
0.0
 11
103.0
 21
103.0
 31
0.0
  0
ARC
  8
0
 62
0
 10
118.0
 20
99.0
 30
0.0
 40
4.00000000000004
 50
0.0
 51
90.0
  0
LINE
  8
0
 62
0
 10
122.0
 20
98.25
 30
0.0
 11
122.0
 21
99.0
 31
0.0
  0
LINE
  8
0
 62
0
 10
137.0
 20
98.25
 30
0.0
 11
122.0
 21
98.25000000000001
 31
0.0
  0
ARC
  8
0
 62
0
 10
137.0
 20
94.25
 30
0.0
 40
4.00000000000002
 50
0.0
 51
90.0
  0
LINE
  8
0
 62
0
 10
141.0
 20
93.5
 30
0.0
 11
141.0
 21
94.25
 31
0.0
  0
LINE
  8
0
 62
0
 10
149.000000014901
 20
93.5
 30
0.0
 11
141.0
 21
93.49999999999999
 31
0.0
  0
ARC
  8
0
 62
0
 10
149.000000014901
 20
89.5
 30
0.0
 40
4.00000000000004
 50
0.0
 51
90.0
  0
LINE
  8
0
 62
0
 10
153.000000014901
 20
-13.4999996088445
 30
0.0
 11
153.000000014901
 21
89.5
 31
0.0
  0
ENDBLK
  0
ENDSEC
  0
SECTION
  2
ENTITIES
  0
INSERT
  2
FACEFEAT
  8
0
 62
0
 10
0.0
 20
0.0
 30
0.0
  0
ENDSEC
  0
EOF
