%TF.GenerationSoftware,KiCad,Pcbnew,(6.0.4-0)*%
%TF.CreationDate,2022-03-31T21:48:39+02:00*%
%TF.ProjectId,PCB,5043422e-6b69-4636-9164-5f7063625858,rev?*%
%TF.SameCoordinates,Original*%
%TF.FileFunction,Profile,NP*%
%FSLAX46Y46*%
G04 Gerber Fmt 4.6, Leading zero omitted, Abs format (unit mm)*
G04 Created by KiCad (PCBNEW (6.0.4-0)) date 2022-03-31 21:48:39*
%MOMM*%
%LPD*%
G01*
G04 APERTURE LIST*
%TA.AperFunction,Profile*%
%ADD10C,0.100000*%
%TD*%
G04 APERTURE END LIST*
D10*
X139500000Y-33750000D02*
X160500000Y-33750000D01*
X196500000Y-140250000D02*
X122500000Y-140250000D01*
X82500000Y-145000000D02*
X82500000Y-135500000D01*
X84500000Y-48000000D02*
X120500000Y-48000000D01*
X63500000Y-38500000D02*
X84500000Y-38500000D01*
X122500000Y-140250000D02*
X122500000Y-145000000D01*
X217500000Y-145000000D02*
X196500000Y-145000000D01*
X236500000Y-52750000D02*
X236500000Y-135500000D01*
X217500000Y-135500000D02*
X217500000Y-145000000D01*
X236500000Y-135500000D02*
X217500000Y-135500000D01*
X217250000Y-48000000D02*
X217500000Y-48000000D01*
X217500000Y-52750000D02*
X236500000Y-52750000D01*
X63500000Y-135500000D02*
X63500000Y-38500000D01*
X160500000Y-33750000D02*
X160500000Y-38500000D01*
X198500000Y-48000000D02*
X217250000Y-48000000D01*
X120500000Y-38500000D02*
X139500000Y-38500000D01*
X160500000Y-38500000D02*
X179500000Y-38500000D01*
X120500000Y-48000000D02*
X120500000Y-38500000D01*
X198500000Y-43250000D02*
X198500000Y-48000000D01*
X217500000Y-48000000D02*
X217500000Y-52750000D01*
X196500000Y-145000000D02*
X196500000Y-140250000D01*
X179500000Y-43250000D02*
X198500000Y-43250000D01*
X82500000Y-135500000D02*
X63500000Y-135500000D01*
X179500000Y-38500000D02*
X179500000Y-43250000D01*
X84500000Y-38500000D02*
X84500000Y-48000000D01*
X139500000Y-38500000D02*
X139500000Y-33750000D01*
X122500000Y-145000000D02*
X82500000Y-145000000D01*
M02*
