%TF.GenerationSoftware,KiCad,Pcbnew,(6.0.4-0)*%
%TF.CreationDate,2022-03-31T21:48:39+02:00*%
%TF.ProjectId,PCB,5043422e-6b69-4636-9164-5f7063625858,rev?*%
%TF.SameCoordinates,Original*%
%TF.FileFunction,Legend,Bot*%
%TF.FilePolarity,Positive*%
%FSLAX46Y46*%
G04 Gerber Fmt 4.6, Leading zero omitted, Abs format (unit mm)*
G04 Created by KiCad (PCBNEW (6.0.4-0)) date 2022-03-31 21:48:39*
%MOMM*%
%LPD*%
G01*
G04 APERTURE LIST*
G04 Aperture macros list*
%AMFreePoly0*
4,1,22,0.500000,-0.750000,0.000000,-0.750000,0.000000,-0.745033,-0.079941,-0.743568,-0.215256,-0.701293,-0.333266,-0.622738,-0.424486,-0.514219,-0.481581,-0.384460,-0.499164,-0.250000,-0.500000,-0.250000,-0.500000,0.250000,-0.499164,0.250000,-0.499963,0.256109,-0.478152,0.396186,-0.417904,0.524511,-0.324060,0.630769,-0.204165,0.706417,-0.067858,0.745374,0.000000,0.744959,0.000000,0.750000,
0.500000,0.750000,0.500000,-0.750000,0.500000,-0.750000,$1*%
%AMFreePoly1*
4,1,20,0.000000,0.744959,0.073905,0.744508,0.209726,0.703889,0.328688,0.626782,0.421226,0.519385,0.479903,0.390333,0.500000,0.250000,0.500000,-0.250000,0.499851,-0.262216,0.476331,-0.402017,0.414519,-0.529596,0.319384,-0.634700,0.198574,-0.708877,0.061801,-0.746166,0.000000,-0.745033,0.000000,-0.750000,-0.500000,-0.750000,-0.500000,0.750000,0.000000,0.750000,0.000000,0.744959,
0.000000,0.744959,$1*%
G04 Aperture macros list end*
%ADD10C,0.150000*%
%ADD11C,0.100000*%
%ADD12C,0.203200*%
%ADD13C,0.120000*%
%ADD14C,0.200000*%
%ADD15C,0.381000*%
%ADD16O,2.500000X2.000000*%
%ADD17O,2.000000X1.600000*%
%ADD18C,1.600000*%
%ADD19O,1.600000X1.600000*%
%ADD20C,4.000000*%
%ADD21C,1.900000*%
%ADD22C,2.000000*%
%ADD23R,2.000000X2.000000*%
%ADD24C,0.800000*%
%ADD25O,3.100000X1.600000*%
%ADD26FreePoly0,0.000000*%
%ADD27FreePoly1,0.000000*%
%ADD28R,3.200000X2.000000*%
%ADD29R,1.752600X1.752600*%
%ADD30C,1.752600*%
%ADD31C,1.397000*%
G04 APERTURE END LIST*
D10*
X225710476Y-96035714D02*
X225710476Y-96702380D01*
X225948571Y-95654761D02*
X226186666Y-96369047D01*
X225567619Y-96369047D01*
X225186666Y-96702380D02*
X225186666Y-95702380D01*
X225091428Y-96321428D02*
X224805714Y-96702380D01*
X224805714Y-96035714D02*
X225186666Y-96416666D01*
X224472380Y-95702380D02*
X223805714Y-95702380D01*
X224234285Y-96702380D01*
X228686666Y-96702380D02*
X229020000Y-96226190D01*
X229258095Y-96702380D02*
X229258095Y-95702380D01*
X228877142Y-95702380D01*
X228781904Y-95750000D01*
X228734285Y-95797619D01*
X228686666Y-95892857D01*
X228686666Y-96035714D01*
X228734285Y-96130952D01*
X228781904Y-96178571D01*
X228877142Y-96226190D01*
X229258095Y-96226190D01*
X228305714Y-95797619D02*
X228258095Y-95750000D01*
X228162857Y-95702380D01*
X227924761Y-95702380D01*
X227829523Y-95750000D01*
X227781904Y-95797619D01*
X227734285Y-95892857D01*
X227734285Y-95988095D01*
X227781904Y-96130952D01*
X228353333Y-96702380D01*
X227734285Y-96702380D01*
X225700476Y-92535714D02*
X225700476Y-93202380D01*
X225938571Y-92154761D02*
X226176666Y-92869047D01*
X225557619Y-92869047D01*
X225176666Y-93202380D02*
X225176666Y-92202380D01*
X225081428Y-92821428D02*
X224795714Y-93202380D01*
X224795714Y-92535714D02*
X225176666Y-92916666D01*
X224462380Y-92202380D02*
X223795714Y-92202380D01*
X224224285Y-93202380D01*
X228676666Y-93202380D02*
X229010000Y-92726190D01*
X229248095Y-93202380D02*
X229248095Y-92202380D01*
X228867142Y-92202380D01*
X228771904Y-92250000D01*
X228724285Y-92297619D01*
X228676666Y-92392857D01*
X228676666Y-92535714D01*
X228724285Y-92630952D01*
X228771904Y-92678571D01*
X228867142Y-92726190D01*
X229248095Y-92726190D01*
X227724285Y-93202380D02*
X228295714Y-93202380D01*
X228010000Y-93202380D02*
X228010000Y-92202380D01*
X228105238Y-92345238D01*
X228200476Y-92440476D01*
X228295714Y-92488095D01*
X72907023Y-112404761D02*
X72764166Y-112452380D01*
X72526071Y-112452380D01*
X72430833Y-112404761D01*
X72383214Y-112357142D01*
X72335595Y-112261904D01*
X72335595Y-112166666D01*
X72383214Y-112071428D01*
X72430833Y-112023809D01*
X72526071Y-111976190D01*
X72716547Y-111928571D01*
X72811785Y-111880952D01*
X72859404Y-111833333D01*
X72907023Y-111738095D01*
X72907023Y-111642857D01*
X72859404Y-111547619D01*
X72811785Y-111500000D01*
X72716547Y-111452380D01*
X72478452Y-111452380D01*
X72335595Y-111500000D01*
X72002261Y-111452380D02*
X71764166Y-112452380D01*
X71573690Y-111738095D01*
X71383214Y-112452380D01*
X71145119Y-111452380D01*
X70764166Y-112452380D02*
X70764166Y-111452380D01*
X70526071Y-111452380D01*
X70383214Y-111500000D01*
X70287976Y-111595238D01*
X70240357Y-111690476D01*
X70192738Y-111880952D01*
X70192738Y-112023809D01*
X70240357Y-112214285D01*
X70287976Y-112309523D01*
X70383214Y-112404761D01*
X70526071Y-112452380D01*
X70764166Y-112452380D01*
X69335595Y-111785714D02*
X69335595Y-112452380D01*
X69573690Y-111404761D02*
X69811785Y-112119047D01*
X69192738Y-112119047D01*
X68287976Y-112452380D02*
X68859404Y-112452380D01*
X68573690Y-112452380D02*
X68573690Y-111452380D01*
X68668928Y-111595238D01*
X68764166Y-111690476D01*
X68859404Y-111738095D01*
X186907023Y-60154761D02*
X186764166Y-60202380D01*
X186526071Y-60202380D01*
X186430833Y-60154761D01*
X186383214Y-60107142D01*
X186335595Y-60011904D01*
X186335595Y-59916666D01*
X186383214Y-59821428D01*
X186430833Y-59773809D01*
X186526071Y-59726190D01*
X186716547Y-59678571D01*
X186811785Y-59630952D01*
X186859404Y-59583333D01*
X186907023Y-59488095D01*
X186907023Y-59392857D01*
X186859404Y-59297619D01*
X186811785Y-59250000D01*
X186716547Y-59202380D01*
X186478452Y-59202380D01*
X186335595Y-59250000D01*
X186002261Y-59202380D02*
X185764166Y-60202380D01*
X185573690Y-59488095D01*
X185383214Y-60202380D01*
X185145119Y-59202380D01*
X184764166Y-60202380D02*
X184764166Y-59202380D01*
X184526071Y-59202380D01*
X184383214Y-59250000D01*
X184287976Y-59345238D01*
X184240357Y-59440476D01*
X184192738Y-59630952D01*
X184192738Y-59773809D01*
X184240357Y-59964285D01*
X184287976Y-60059523D01*
X184383214Y-60154761D01*
X184526071Y-60202380D01*
X184764166Y-60202380D01*
X183240357Y-60202380D02*
X183811785Y-60202380D01*
X183526071Y-60202380D02*
X183526071Y-59202380D01*
X183621309Y-59345238D01*
X183716547Y-59440476D01*
X183811785Y-59488095D01*
X182907023Y-59202380D02*
X182240357Y-59202380D01*
X182668928Y-60202380D01*
D11*
X224462500Y-132545333D02*
X224362500Y-132578666D01*
X224195833Y-132578666D01*
X224129166Y-132545333D01*
X224095833Y-132512000D01*
X224062500Y-132445333D01*
X224062500Y-132378666D01*
X224095833Y-132312000D01*
X224129166Y-132278666D01*
X224195833Y-132245333D01*
X224329166Y-132212000D01*
X224395833Y-132178666D01*
X224429166Y-132145333D01*
X224462500Y-132078666D01*
X224462500Y-132012000D01*
X224429166Y-131945333D01*
X224395833Y-131912000D01*
X224329166Y-131878666D01*
X224162500Y-131878666D01*
X224062500Y-131912000D01*
X223662500Y-132578666D02*
X223729166Y-132545333D01*
X223762500Y-132478666D01*
X223762500Y-131878666D01*
X223462500Y-132112000D02*
X223295833Y-132578666D01*
X223129166Y-132112000D01*
D10*
X230011904Y-127202380D02*
X229440476Y-127202380D01*
X229726190Y-128202380D02*
X229726190Y-127202380D01*
X228535714Y-128202380D02*
X228869047Y-127726190D01*
X229107142Y-128202380D02*
X229107142Y-127202380D01*
X228726190Y-127202380D01*
X228630952Y-127250000D01*
X228583333Y-127297619D01*
X228535714Y-127392857D01*
X228535714Y-127535714D01*
X228583333Y-127630952D01*
X228630952Y-127678571D01*
X228726190Y-127726190D01*
X229107142Y-127726190D01*
X227535714Y-128202380D02*
X227869047Y-127726190D01*
X228107142Y-128202380D02*
X228107142Y-127202380D01*
X227726190Y-127202380D01*
X227630952Y-127250000D01*
X227583333Y-127297619D01*
X227535714Y-127392857D01*
X227535714Y-127535714D01*
X227583333Y-127630952D01*
X227630952Y-127678571D01*
X227726190Y-127726190D01*
X228107142Y-127726190D01*
X227154761Y-128154761D02*
X227011904Y-128202380D01*
X226773809Y-128202380D01*
X226678571Y-128154761D01*
X226630952Y-128107142D01*
X226583333Y-128011904D01*
X226583333Y-127916666D01*
X226630952Y-127821428D01*
X226678571Y-127773809D01*
X226773809Y-127726190D01*
X226964285Y-127678571D01*
X227059523Y-127630952D01*
X227107142Y-127583333D01*
X227154761Y-127488095D01*
X227154761Y-127392857D01*
X227107142Y-127297619D01*
X227059523Y-127250000D01*
X226964285Y-127202380D01*
X226726190Y-127202380D01*
X226583333Y-127250000D01*
D11*
X224495833Y-130354666D02*
X224095833Y-130354666D01*
X224295833Y-131054666D02*
X224295833Y-130354666D01*
X223862500Y-131054666D02*
X223862500Y-130588000D01*
X223862500Y-130354666D02*
X223895833Y-130388000D01*
X223862500Y-130421333D01*
X223829166Y-130388000D01*
X223862500Y-130354666D01*
X223862500Y-130421333D01*
X223529166Y-130588000D02*
X223529166Y-131288000D01*
X223529166Y-130621333D02*
X223462500Y-130588000D01*
X223329166Y-130588000D01*
X223262500Y-130621333D01*
X223229166Y-130654666D01*
X223195833Y-130721333D01*
X223195833Y-130921333D01*
X223229166Y-130988000D01*
X223262500Y-131021333D01*
X223329166Y-131054666D01*
X223462500Y-131054666D01*
X223529166Y-131021333D01*
X231363166Y-131822666D02*
X231596500Y-131489333D01*
X231763166Y-131822666D02*
X231763166Y-131122666D01*
X231496500Y-131122666D01*
X231429833Y-131156000D01*
X231396500Y-131189333D01*
X231363166Y-131256000D01*
X231363166Y-131356000D01*
X231396500Y-131422666D01*
X231429833Y-131456000D01*
X231496500Y-131489333D01*
X231763166Y-131489333D01*
X231096500Y-131189333D02*
X231063166Y-131156000D01*
X230996500Y-131122666D01*
X230829833Y-131122666D01*
X230763166Y-131156000D01*
X230729833Y-131189333D01*
X230696500Y-131256000D01*
X230696500Y-131322666D01*
X230729833Y-131422666D01*
X231129833Y-131822666D01*
X230696500Y-131822666D01*
X228363166Y-131822666D02*
X228596500Y-131489333D01*
X228763166Y-131822666D02*
X228763166Y-131122666D01*
X228496500Y-131122666D01*
X228429833Y-131156000D01*
X228396500Y-131189333D01*
X228363166Y-131256000D01*
X228363166Y-131356000D01*
X228396500Y-131422666D01*
X228429833Y-131456000D01*
X228496500Y-131489333D01*
X228763166Y-131489333D01*
X227696500Y-131822666D02*
X228096500Y-131822666D01*
X227896500Y-131822666D02*
X227896500Y-131122666D01*
X227963166Y-131222666D01*
X228029833Y-131289333D01*
X228096500Y-131322666D01*
D10*
X167907023Y-93404761D02*
X167764166Y-93452380D01*
X167526071Y-93452380D01*
X167430833Y-93404761D01*
X167383214Y-93357142D01*
X167335595Y-93261904D01*
X167335595Y-93166666D01*
X167383214Y-93071428D01*
X167430833Y-93023809D01*
X167526071Y-92976190D01*
X167716547Y-92928571D01*
X167811785Y-92880952D01*
X167859404Y-92833333D01*
X167907023Y-92738095D01*
X167907023Y-92642857D01*
X167859404Y-92547619D01*
X167811785Y-92500000D01*
X167716547Y-92452380D01*
X167478452Y-92452380D01*
X167335595Y-92500000D01*
X167002261Y-92452380D02*
X166764166Y-93452380D01*
X166573690Y-92738095D01*
X166383214Y-93452380D01*
X166145119Y-92452380D01*
X165764166Y-93452380D02*
X165764166Y-92452380D01*
X165526071Y-92452380D01*
X165383214Y-92500000D01*
X165287976Y-92595238D01*
X165240357Y-92690476D01*
X165192738Y-92880952D01*
X165192738Y-93023809D01*
X165240357Y-93214285D01*
X165287976Y-93309523D01*
X165383214Y-93404761D01*
X165526071Y-93452380D01*
X165764166Y-93452380D01*
X164859404Y-92452380D02*
X164240357Y-92452380D01*
X164573690Y-92833333D01*
X164430833Y-92833333D01*
X164335595Y-92880952D01*
X164287976Y-92928571D01*
X164240357Y-93023809D01*
X164240357Y-93261904D01*
X164287976Y-93357142D01*
X164335595Y-93404761D01*
X164430833Y-93452380D01*
X164716547Y-93452380D01*
X164811785Y-93404761D01*
X164859404Y-93357142D01*
X163383214Y-92452380D02*
X163573690Y-92452380D01*
X163668928Y-92500000D01*
X163716547Y-92547619D01*
X163811785Y-92690476D01*
X163859404Y-92880952D01*
X163859404Y-93261904D01*
X163811785Y-93357142D01*
X163764166Y-93404761D01*
X163668928Y-93452380D01*
X163478452Y-93452380D01*
X163383214Y-93404761D01*
X163335595Y-93357142D01*
X163287976Y-93261904D01*
X163287976Y-93023809D01*
X163335595Y-92928571D01*
X163383214Y-92880952D01*
X163478452Y-92833333D01*
X163668928Y-92833333D01*
X163764166Y-92880952D01*
X163811785Y-92928571D01*
X163859404Y-93023809D01*
X167907023Y-74404761D02*
X167764166Y-74452380D01*
X167526071Y-74452380D01*
X167430833Y-74404761D01*
X167383214Y-74357142D01*
X167335595Y-74261904D01*
X167335595Y-74166666D01*
X167383214Y-74071428D01*
X167430833Y-74023809D01*
X167526071Y-73976190D01*
X167716547Y-73928571D01*
X167811785Y-73880952D01*
X167859404Y-73833333D01*
X167907023Y-73738095D01*
X167907023Y-73642857D01*
X167859404Y-73547619D01*
X167811785Y-73500000D01*
X167716547Y-73452380D01*
X167478452Y-73452380D01*
X167335595Y-73500000D01*
X167002261Y-73452380D02*
X166764166Y-74452380D01*
X166573690Y-73738095D01*
X166383214Y-74452380D01*
X166145119Y-73452380D01*
X165764166Y-74452380D02*
X165764166Y-73452380D01*
X165526071Y-73452380D01*
X165383214Y-73500000D01*
X165287976Y-73595238D01*
X165240357Y-73690476D01*
X165192738Y-73880952D01*
X165192738Y-74023809D01*
X165240357Y-74214285D01*
X165287976Y-74309523D01*
X165383214Y-74404761D01*
X165526071Y-74452380D01*
X165764166Y-74452380D01*
X164811785Y-73547619D02*
X164764166Y-73500000D01*
X164668928Y-73452380D01*
X164430833Y-73452380D01*
X164335595Y-73500000D01*
X164287976Y-73547619D01*
X164240357Y-73642857D01*
X164240357Y-73738095D01*
X164287976Y-73880952D01*
X164859404Y-74452380D01*
X164240357Y-74452380D01*
X163383214Y-73452380D02*
X163573690Y-73452380D01*
X163668928Y-73500000D01*
X163716547Y-73547619D01*
X163811785Y-73690476D01*
X163859404Y-73880952D01*
X163859404Y-74261904D01*
X163811785Y-74357142D01*
X163764166Y-74404761D01*
X163668928Y-74452380D01*
X163478452Y-74452380D01*
X163383214Y-74404761D01*
X163335595Y-74357142D01*
X163287976Y-74261904D01*
X163287976Y-74023809D01*
X163335595Y-73928571D01*
X163383214Y-73880952D01*
X163478452Y-73833333D01*
X163668928Y-73833333D01*
X163764166Y-73880952D01*
X163811785Y-73928571D01*
X163859404Y-74023809D01*
X205907023Y-64904761D02*
X205764166Y-64952380D01*
X205526071Y-64952380D01*
X205430833Y-64904761D01*
X205383214Y-64857142D01*
X205335595Y-64761904D01*
X205335595Y-64666666D01*
X205383214Y-64571428D01*
X205430833Y-64523809D01*
X205526071Y-64476190D01*
X205716547Y-64428571D01*
X205811785Y-64380952D01*
X205859404Y-64333333D01*
X205907023Y-64238095D01*
X205907023Y-64142857D01*
X205859404Y-64047619D01*
X205811785Y-64000000D01*
X205716547Y-63952380D01*
X205478452Y-63952380D01*
X205335595Y-64000000D01*
X205002261Y-63952380D02*
X204764166Y-64952380D01*
X204573690Y-64238095D01*
X204383214Y-64952380D01*
X204145119Y-63952380D01*
X203764166Y-64952380D02*
X203764166Y-63952380D01*
X203526071Y-63952380D01*
X203383214Y-64000000D01*
X203287976Y-64095238D01*
X203240357Y-64190476D01*
X203192738Y-64380952D01*
X203192738Y-64523809D01*
X203240357Y-64714285D01*
X203287976Y-64809523D01*
X203383214Y-64904761D01*
X203526071Y-64952380D01*
X203764166Y-64952380D01*
X202240357Y-64952380D02*
X202811785Y-64952380D01*
X202526071Y-64952380D02*
X202526071Y-63952380D01*
X202621309Y-64095238D01*
X202716547Y-64190476D01*
X202811785Y-64238095D01*
X201668928Y-64380952D02*
X201764166Y-64333333D01*
X201811785Y-64285714D01*
X201859404Y-64190476D01*
X201859404Y-64142857D01*
X201811785Y-64047619D01*
X201764166Y-64000000D01*
X201668928Y-63952380D01*
X201478452Y-63952380D01*
X201383214Y-64000000D01*
X201335595Y-64047619D01*
X201287976Y-64142857D01*
X201287976Y-64190476D01*
X201335595Y-64285714D01*
X201383214Y-64333333D01*
X201478452Y-64380952D01*
X201668928Y-64380952D01*
X201764166Y-64428571D01*
X201811785Y-64476190D01*
X201859404Y-64571428D01*
X201859404Y-64761904D01*
X201811785Y-64857142D01*
X201764166Y-64904761D01*
X201668928Y-64952380D01*
X201478452Y-64952380D01*
X201383214Y-64904761D01*
X201335595Y-64857142D01*
X201287976Y-64761904D01*
X201287976Y-64571428D01*
X201335595Y-64476190D01*
X201383214Y-64428571D01*
X201478452Y-64380952D01*
X72907023Y-93404761D02*
X72764166Y-93452380D01*
X72526071Y-93452380D01*
X72430833Y-93404761D01*
X72383214Y-93357142D01*
X72335595Y-93261904D01*
X72335595Y-93166666D01*
X72383214Y-93071428D01*
X72430833Y-93023809D01*
X72526071Y-92976190D01*
X72716547Y-92928571D01*
X72811785Y-92880952D01*
X72859404Y-92833333D01*
X72907023Y-92738095D01*
X72907023Y-92642857D01*
X72859404Y-92547619D01*
X72811785Y-92500000D01*
X72716547Y-92452380D01*
X72478452Y-92452380D01*
X72335595Y-92500000D01*
X72002261Y-92452380D02*
X71764166Y-93452380D01*
X71573690Y-92738095D01*
X71383214Y-93452380D01*
X71145119Y-92452380D01*
X70764166Y-93452380D02*
X70764166Y-92452380D01*
X70526071Y-92452380D01*
X70383214Y-92500000D01*
X70287976Y-92595238D01*
X70240357Y-92690476D01*
X70192738Y-92880952D01*
X70192738Y-93023809D01*
X70240357Y-93214285D01*
X70287976Y-93309523D01*
X70383214Y-93404761D01*
X70526071Y-93452380D01*
X70764166Y-93452380D01*
X69859404Y-92452380D02*
X69240357Y-92452380D01*
X69573690Y-92833333D01*
X69430833Y-92833333D01*
X69335595Y-92880952D01*
X69287976Y-92928571D01*
X69240357Y-93023809D01*
X69240357Y-93261904D01*
X69287976Y-93357142D01*
X69335595Y-93404761D01*
X69430833Y-93452380D01*
X69716547Y-93452380D01*
X69811785Y-93404761D01*
X69859404Y-93357142D01*
X68287976Y-93452380D02*
X68859404Y-93452380D01*
X68573690Y-93452380D02*
X68573690Y-92452380D01*
X68668928Y-92595238D01*
X68764166Y-92690476D01*
X68859404Y-92738095D01*
X110907023Y-83904761D02*
X110764166Y-83952380D01*
X110526071Y-83952380D01*
X110430833Y-83904761D01*
X110383214Y-83857142D01*
X110335595Y-83761904D01*
X110335595Y-83666666D01*
X110383214Y-83571428D01*
X110430833Y-83523809D01*
X110526071Y-83476190D01*
X110716547Y-83428571D01*
X110811785Y-83380952D01*
X110859404Y-83333333D01*
X110907023Y-83238095D01*
X110907023Y-83142857D01*
X110859404Y-83047619D01*
X110811785Y-83000000D01*
X110716547Y-82952380D01*
X110478452Y-82952380D01*
X110335595Y-83000000D01*
X110002261Y-82952380D02*
X109764166Y-83952380D01*
X109573690Y-83238095D01*
X109383214Y-83952380D01*
X109145119Y-82952380D01*
X108764166Y-83952380D02*
X108764166Y-82952380D01*
X108526071Y-82952380D01*
X108383214Y-83000000D01*
X108287976Y-83095238D01*
X108240357Y-83190476D01*
X108192738Y-83380952D01*
X108192738Y-83523809D01*
X108240357Y-83714285D01*
X108287976Y-83809523D01*
X108383214Y-83904761D01*
X108526071Y-83952380D01*
X108764166Y-83952380D01*
X107811785Y-83047619D02*
X107764166Y-83000000D01*
X107668928Y-82952380D01*
X107430833Y-82952380D01*
X107335595Y-83000000D01*
X107287976Y-83047619D01*
X107240357Y-83142857D01*
X107240357Y-83238095D01*
X107287976Y-83380952D01*
X107859404Y-83952380D01*
X107240357Y-83952380D01*
X106907023Y-82952380D02*
X106287976Y-82952380D01*
X106621309Y-83333333D01*
X106478452Y-83333333D01*
X106383214Y-83380952D01*
X106335595Y-83428571D01*
X106287976Y-83523809D01*
X106287976Y-83761904D01*
X106335595Y-83857142D01*
X106383214Y-83904761D01*
X106478452Y-83952380D01*
X106764166Y-83952380D01*
X106859404Y-83904761D01*
X106907023Y-83857142D01*
X205907023Y-140904761D02*
X205764166Y-140952380D01*
X205526071Y-140952380D01*
X205430833Y-140904761D01*
X205383214Y-140857142D01*
X205335595Y-140761904D01*
X205335595Y-140666666D01*
X205383214Y-140571428D01*
X205430833Y-140523809D01*
X205526071Y-140476190D01*
X205716547Y-140428571D01*
X205811785Y-140380952D01*
X205859404Y-140333333D01*
X205907023Y-140238095D01*
X205907023Y-140142857D01*
X205859404Y-140047619D01*
X205811785Y-140000000D01*
X205716547Y-139952380D01*
X205478452Y-139952380D01*
X205335595Y-140000000D01*
X205002261Y-139952380D02*
X204764166Y-140952380D01*
X204573690Y-140238095D01*
X204383214Y-140952380D01*
X204145119Y-139952380D01*
X203764166Y-140952380D02*
X203764166Y-139952380D01*
X203526071Y-139952380D01*
X203383214Y-140000000D01*
X203287976Y-140095238D01*
X203240357Y-140190476D01*
X203192738Y-140380952D01*
X203192738Y-140523809D01*
X203240357Y-140714285D01*
X203287976Y-140809523D01*
X203383214Y-140904761D01*
X203526071Y-140952380D01*
X203764166Y-140952380D01*
X202287976Y-139952380D02*
X202764166Y-139952380D01*
X202811785Y-140428571D01*
X202764166Y-140380952D01*
X202668928Y-140333333D01*
X202430833Y-140333333D01*
X202335595Y-140380952D01*
X202287976Y-140428571D01*
X202240357Y-140523809D01*
X202240357Y-140761904D01*
X202287976Y-140857142D01*
X202335595Y-140904761D01*
X202430833Y-140952380D01*
X202668928Y-140952380D01*
X202764166Y-140904761D01*
X202811785Y-140857142D01*
X201668928Y-140380952D02*
X201764166Y-140333333D01*
X201811785Y-140285714D01*
X201859404Y-140190476D01*
X201859404Y-140142857D01*
X201811785Y-140047619D01*
X201764166Y-140000000D01*
X201668928Y-139952380D01*
X201478452Y-139952380D01*
X201383214Y-140000000D01*
X201335595Y-140047619D01*
X201287976Y-140142857D01*
X201287976Y-140190476D01*
X201335595Y-140285714D01*
X201383214Y-140333333D01*
X201478452Y-140380952D01*
X201668928Y-140380952D01*
X201764166Y-140428571D01*
X201811785Y-140476190D01*
X201859404Y-140571428D01*
X201859404Y-140761904D01*
X201811785Y-140857142D01*
X201764166Y-140904761D01*
X201668928Y-140952380D01*
X201478452Y-140952380D01*
X201383214Y-140904761D01*
X201335595Y-140857142D01*
X201287976Y-140761904D01*
X201287976Y-140571428D01*
X201335595Y-140476190D01*
X201383214Y-140428571D01*
X201478452Y-140380952D01*
X209190476Y-123952380D02*
X209523809Y-123476190D01*
X209761904Y-123952380D02*
X209761904Y-122952380D01*
X209380952Y-122952380D01*
X209285714Y-123000000D01*
X209238095Y-123047619D01*
X209190476Y-123142857D01*
X209190476Y-123285714D01*
X209238095Y-123380952D01*
X209285714Y-123428571D01*
X209380952Y-123476190D01*
X209761904Y-123476190D01*
X208809523Y-123904761D02*
X208666666Y-123952380D01*
X208428571Y-123952380D01*
X208333333Y-123904761D01*
X208285714Y-123857142D01*
X208238095Y-123761904D01*
X208238095Y-123666666D01*
X208285714Y-123571428D01*
X208333333Y-123523809D01*
X208428571Y-123476190D01*
X208619047Y-123428571D01*
X208714285Y-123380952D01*
X208761904Y-123333333D01*
X208809523Y-123238095D01*
X208809523Y-123142857D01*
X208761904Y-123047619D01*
X208714285Y-123000000D01*
X208619047Y-122952380D01*
X208380952Y-122952380D01*
X208238095Y-123000000D01*
X207904761Y-122952380D02*
X207666666Y-123952380D01*
X207476190Y-123238095D01*
X207285714Y-123952380D01*
X207047619Y-122952380D01*
X206666666Y-123952380D02*
X206666666Y-122952380D01*
X206428571Y-122952380D01*
X206285714Y-123000000D01*
X206190476Y-123095238D01*
X206142857Y-123190476D01*
X206095238Y-123380952D01*
X206095238Y-123523809D01*
X206142857Y-123714285D01*
X206190476Y-123809523D01*
X206285714Y-123904761D01*
X206428571Y-123952380D01*
X206666666Y-123952380D01*
X205238095Y-123285714D02*
X205238095Y-123952380D01*
X205476190Y-122904761D02*
X205714285Y-123619047D01*
X205095238Y-123619047D01*
X204571428Y-123380952D02*
X204666666Y-123333333D01*
X204714285Y-123285714D01*
X204761904Y-123190476D01*
X204761904Y-123142857D01*
X204714285Y-123047619D01*
X204666666Y-123000000D01*
X204571428Y-122952380D01*
X204380952Y-122952380D01*
X204285714Y-123000000D01*
X204238095Y-123047619D01*
X204190476Y-123142857D01*
X204190476Y-123190476D01*
X204238095Y-123285714D01*
X204285714Y-123333333D01*
X204380952Y-123380952D01*
X204571428Y-123380952D01*
X204666666Y-123428571D01*
X204714285Y-123476190D01*
X204761904Y-123571428D01*
X204761904Y-123761904D01*
X204714285Y-123857142D01*
X204666666Y-123904761D01*
X204571428Y-123952380D01*
X204380952Y-123952380D01*
X204285714Y-123904761D01*
X204238095Y-123857142D01*
X204190476Y-123761904D01*
X204190476Y-123571428D01*
X204238095Y-123476190D01*
X204285714Y-123428571D01*
X204380952Y-123380952D01*
X167907023Y-55404761D02*
X167764166Y-55452380D01*
X167526071Y-55452380D01*
X167430833Y-55404761D01*
X167383214Y-55357142D01*
X167335595Y-55261904D01*
X167335595Y-55166666D01*
X167383214Y-55071428D01*
X167430833Y-55023809D01*
X167526071Y-54976190D01*
X167716547Y-54928571D01*
X167811785Y-54880952D01*
X167859404Y-54833333D01*
X167907023Y-54738095D01*
X167907023Y-54642857D01*
X167859404Y-54547619D01*
X167811785Y-54500000D01*
X167716547Y-54452380D01*
X167478452Y-54452380D01*
X167335595Y-54500000D01*
X167002261Y-54452380D02*
X166764166Y-55452380D01*
X166573690Y-54738095D01*
X166383214Y-55452380D01*
X166145119Y-54452380D01*
X165764166Y-55452380D02*
X165764166Y-54452380D01*
X165526071Y-54452380D01*
X165383214Y-54500000D01*
X165287976Y-54595238D01*
X165240357Y-54690476D01*
X165192738Y-54880952D01*
X165192738Y-55023809D01*
X165240357Y-55214285D01*
X165287976Y-55309523D01*
X165383214Y-55404761D01*
X165526071Y-55452380D01*
X165764166Y-55452380D01*
X164240357Y-55452380D02*
X164811785Y-55452380D01*
X164526071Y-55452380D02*
X164526071Y-54452380D01*
X164621309Y-54595238D01*
X164716547Y-54690476D01*
X164811785Y-54738095D01*
X163383214Y-54452380D02*
X163573690Y-54452380D01*
X163668928Y-54500000D01*
X163716547Y-54547619D01*
X163811785Y-54690476D01*
X163859404Y-54880952D01*
X163859404Y-55261904D01*
X163811785Y-55357142D01*
X163764166Y-55404761D01*
X163668928Y-55452380D01*
X163478452Y-55452380D01*
X163383214Y-55404761D01*
X163335595Y-55357142D01*
X163287976Y-55261904D01*
X163287976Y-55023809D01*
X163335595Y-54928571D01*
X163383214Y-54880952D01*
X163478452Y-54833333D01*
X163668928Y-54833333D01*
X163764166Y-54880952D01*
X163811785Y-54928571D01*
X163859404Y-55023809D01*
X72907023Y-131404761D02*
X72764166Y-131452380D01*
X72526071Y-131452380D01*
X72430833Y-131404761D01*
X72383214Y-131357142D01*
X72335595Y-131261904D01*
X72335595Y-131166666D01*
X72383214Y-131071428D01*
X72430833Y-131023809D01*
X72526071Y-130976190D01*
X72716547Y-130928571D01*
X72811785Y-130880952D01*
X72859404Y-130833333D01*
X72907023Y-130738095D01*
X72907023Y-130642857D01*
X72859404Y-130547619D01*
X72811785Y-130500000D01*
X72716547Y-130452380D01*
X72478452Y-130452380D01*
X72335595Y-130500000D01*
X72002261Y-130452380D02*
X71764166Y-131452380D01*
X71573690Y-130738095D01*
X71383214Y-131452380D01*
X71145119Y-130452380D01*
X70764166Y-131452380D02*
X70764166Y-130452380D01*
X70526071Y-130452380D01*
X70383214Y-130500000D01*
X70287976Y-130595238D01*
X70240357Y-130690476D01*
X70192738Y-130880952D01*
X70192738Y-131023809D01*
X70240357Y-131214285D01*
X70287976Y-131309523D01*
X70383214Y-131404761D01*
X70526071Y-131452380D01*
X70764166Y-131452380D01*
X69287976Y-130452380D02*
X69764166Y-130452380D01*
X69811785Y-130928571D01*
X69764166Y-130880952D01*
X69668928Y-130833333D01*
X69430833Y-130833333D01*
X69335595Y-130880952D01*
X69287976Y-130928571D01*
X69240357Y-131023809D01*
X69240357Y-131261904D01*
X69287976Y-131357142D01*
X69335595Y-131404761D01*
X69430833Y-131452380D01*
X69668928Y-131452380D01*
X69764166Y-131404761D01*
X69811785Y-131357142D01*
X68287976Y-131452380D02*
X68859404Y-131452380D01*
X68573690Y-131452380D02*
X68573690Y-130452380D01*
X68668928Y-130595238D01*
X68764166Y-130690476D01*
X68859404Y-130738095D01*
X148907023Y-88654761D02*
X148764166Y-88702380D01*
X148526071Y-88702380D01*
X148430833Y-88654761D01*
X148383214Y-88607142D01*
X148335595Y-88511904D01*
X148335595Y-88416666D01*
X148383214Y-88321428D01*
X148430833Y-88273809D01*
X148526071Y-88226190D01*
X148716547Y-88178571D01*
X148811785Y-88130952D01*
X148859404Y-88083333D01*
X148907023Y-87988095D01*
X148907023Y-87892857D01*
X148859404Y-87797619D01*
X148811785Y-87750000D01*
X148716547Y-87702380D01*
X148478452Y-87702380D01*
X148335595Y-87750000D01*
X148002261Y-87702380D02*
X147764166Y-88702380D01*
X147573690Y-87988095D01*
X147383214Y-88702380D01*
X147145119Y-87702380D01*
X146764166Y-88702380D02*
X146764166Y-87702380D01*
X146526071Y-87702380D01*
X146383214Y-87750000D01*
X146287976Y-87845238D01*
X146240357Y-87940476D01*
X146192738Y-88130952D01*
X146192738Y-88273809D01*
X146240357Y-88464285D01*
X146287976Y-88559523D01*
X146383214Y-88654761D01*
X146526071Y-88702380D01*
X146764166Y-88702380D01*
X145859404Y-87702380D02*
X145240357Y-87702380D01*
X145573690Y-88083333D01*
X145430833Y-88083333D01*
X145335595Y-88130952D01*
X145287976Y-88178571D01*
X145240357Y-88273809D01*
X145240357Y-88511904D01*
X145287976Y-88607142D01*
X145335595Y-88654761D01*
X145430833Y-88702380D01*
X145716547Y-88702380D01*
X145811785Y-88654761D01*
X145859404Y-88607142D01*
X144335595Y-87702380D02*
X144811785Y-87702380D01*
X144859404Y-88178571D01*
X144811785Y-88130952D01*
X144716547Y-88083333D01*
X144478452Y-88083333D01*
X144383214Y-88130952D01*
X144335595Y-88178571D01*
X144287976Y-88273809D01*
X144287976Y-88511904D01*
X144335595Y-88607142D01*
X144383214Y-88654761D01*
X144478452Y-88702380D01*
X144716547Y-88702380D01*
X144811785Y-88654761D01*
X144859404Y-88607142D01*
X129907023Y-93404761D02*
X129764166Y-93452380D01*
X129526071Y-93452380D01*
X129430833Y-93404761D01*
X129383214Y-93357142D01*
X129335595Y-93261904D01*
X129335595Y-93166666D01*
X129383214Y-93071428D01*
X129430833Y-93023809D01*
X129526071Y-92976190D01*
X129716547Y-92928571D01*
X129811785Y-92880952D01*
X129859404Y-92833333D01*
X129907023Y-92738095D01*
X129907023Y-92642857D01*
X129859404Y-92547619D01*
X129811785Y-92500000D01*
X129716547Y-92452380D01*
X129478452Y-92452380D01*
X129335595Y-92500000D01*
X129002261Y-92452380D02*
X128764166Y-93452380D01*
X128573690Y-92738095D01*
X128383214Y-93452380D01*
X128145119Y-92452380D01*
X127764166Y-93452380D02*
X127764166Y-92452380D01*
X127526071Y-92452380D01*
X127383214Y-92500000D01*
X127287976Y-92595238D01*
X127240357Y-92690476D01*
X127192738Y-92880952D01*
X127192738Y-93023809D01*
X127240357Y-93214285D01*
X127287976Y-93309523D01*
X127383214Y-93404761D01*
X127526071Y-93452380D01*
X127764166Y-93452380D01*
X126859404Y-92452380D02*
X126240357Y-92452380D01*
X126573690Y-92833333D01*
X126430833Y-92833333D01*
X126335595Y-92880952D01*
X126287976Y-92928571D01*
X126240357Y-93023809D01*
X126240357Y-93261904D01*
X126287976Y-93357142D01*
X126335595Y-93404761D01*
X126430833Y-93452380D01*
X126716547Y-93452380D01*
X126811785Y-93404761D01*
X126859404Y-93357142D01*
X125383214Y-92785714D02*
X125383214Y-93452380D01*
X125621309Y-92404761D02*
X125859404Y-93119047D01*
X125240357Y-93119047D01*
X91907023Y-102904761D02*
X91764166Y-102952380D01*
X91526071Y-102952380D01*
X91430833Y-102904761D01*
X91383214Y-102857142D01*
X91335595Y-102761904D01*
X91335595Y-102666666D01*
X91383214Y-102571428D01*
X91430833Y-102523809D01*
X91526071Y-102476190D01*
X91716547Y-102428571D01*
X91811785Y-102380952D01*
X91859404Y-102333333D01*
X91907023Y-102238095D01*
X91907023Y-102142857D01*
X91859404Y-102047619D01*
X91811785Y-102000000D01*
X91716547Y-101952380D01*
X91478452Y-101952380D01*
X91335595Y-102000000D01*
X91002261Y-101952380D02*
X90764166Y-102952380D01*
X90573690Y-102238095D01*
X90383214Y-102952380D01*
X90145119Y-101952380D01*
X89764166Y-102952380D02*
X89764166Y-101952380D01*
X89526071Y-101952380D01*
X89383214Y-102000000D01*
X89287976Y-102095238D01*
X89240357Y-102190476D01*
X89192738Y-102380952D01*
X89192738Y-102523809D01*
X89240357Y-102714285D01*
X89287976Y-102809523D01*
X89383214Y-102904761D01*
X89526071Y-102952380D01*
X89764166Y-102952380D01*
X88859404Y-101952380D02*
X88240357Y-101952380D01*
X88573690Y-102333333D01*
X88430833Y-102333333D01*
X88335595Y-102380952D01*
X88287976Y-102428571D01*
X88240357Y-102523809D01*
X88240357Y-102761904D01*
X88287976Y-102857142D01*
X88335595Y-102904761D01*
X88430833Y-102952380D01*
X88716547Y-102952380D01*
X88811785Y-102904761D01*
X88859404Y-102857142D01*
X87859404Y-102047619D02*
X87811785Y-102000000D01*
X87716547Y-101952380D01*
X87478452Y-101952380D01*
X87383214Y-102000000D01*
X87335595Y-102047619D01*
X87287976Y-102142857D01*
X87287976Y-102238095D01*
X87335595Y-102380952D01*
X87907023Y-102952380D01*
X87287976Y-102952380D01*
X129907023Y-74404761D02*
X129764166Y-74452380D01*
X129526071Y-74452380D01*
X129430833Y-74404761D01*
X129383214Y-74357142D01*
X129335595Y-74261904D01*
X129335595Y-74166666D01*
X129383214Y-74071428D01*
X129430833Y-74023809D01*
X129526071Y-73976190D01*
X129716547Y-73928571D01*
X129811785Y-73880952D01*
X129859404Y-73833333D01*
X129907023Y-73738095D01*
X129907023Y-73642857D01*
X129859404Y-73547619D01*
X129811785Y-73500000D01*
X129716547Y-73452380D01*
X129478452Y-73452380D01*
X129335595Y-73500000D01*
X129002261Y-73452380D02*
X128764166Y-74452380D01*
X128573690Y-73738095D01*
X128383214Y-74452380D01*
X128145119Y-73452380D01*
X127764166Y-74452380D02*
X127764166Y-73452380D01*
X127526071Y-73452380D01*
X127383214Y-73500000D01*
X127287976Y-73595238D01*
X127240357Y-73690476D01*
X127192738Y-73880952D01*
X127192738Y-74023809D01*
X127240357Y-74214285D01*
X127287976Y-74309523D01*
X127383214Y-74404761D01*
X127526071Y-74452380D01*
X127764166Y-74452380D01*
X126811785Y-73547619D02*
X126764166Y-73500000D01*
X126668928Y-73452380D01*
X126430833Y-73452380D01*
X126335595Y-73500000D01*
X126287976Y-73547619D01*
X126240357Y-73642857D01*
X126240357Y-73738095D01*
X126287976Y-73880952D01*
X126859404Y-74452380D01*
X126240357Y-74452380D01*
X125383214Y-73785714D02*
X125383214Y-74452380D01*
X125621309Y-73404761D02*
X125859404Y-74119047D01*
X125240357Y-74119047D01*
X76190476Y-57452380D02*
X76523809Y-56976190D01*
X76761904Y-57452380D02*
X76761904Y-56452380D01*
X76380952Y-56452380D01*
X76285714Y-56500000D01*
X76238095Y-56547619D01*
X76190476Y-56642857D01*
X76190476Y-56785714D01*
X76238095Y-56880952D01*
X76285714Y-56928571D01*
X76380952Y-56976190D01*
X76761904Y-56976190D01*
X75809523Y-57404761D02*
X75666666Y-57452380D01*
X75428571Y-57452380D01*
X75333333Y-57404761D01*
X75285714Y-57357142D01*
X75238095Y-57261904D01*
X75238095Y-57166666D01*
X75285714Y-57071428D01*
X75333333Y-57023809D01*
X75428571Y-56976190D01*
X75619047Y-56928571D01*
X75714285Y-56880952D01*
X75761904Y-56833333D01*
X75809523Y-56738095D01*
X75809523Y-56642857D01*
X75761904Y-56547619D01*
X75714285Y-56500000D01*
X75619047Y-56452380D01*
X75380952Y-56452380D01*
X75238095Y-56500000D01*
X74904761Y-56452380D02*
X74666666Y-57452380D01*
X74476190Y-56738095D01*
X74285714Y-57452380D01*
X74047619Y-56452380D01*
X73666666Y-57452380D02*
X73666666Y-56452380D01*
X73428571Y-56452380D01*
X73285714Y-56500000D01*
X73190476Y-56595238D01*
X73142857Y-56690476D01*
X73095238Y-56880952D01*
X73095238Y-57023809D01*
X73142857Y-57214285D01*
X73190476Y-57309523D01*
X73285714Y-57404761D01*
X73428571Y-57452380D01*
X73666666Y-57452380D01*
X72142857Y-57452380D02*
X72714285Y-57452380D01*
X72428571Y-57452380D02*
X72428571Y-56452380D01*
X72523809Y-56595238D01*
X72619047Y-56690476D01*
X72714285Y-56738095D01*
X71190476Y-57452380D02*
X71761904Y-57452380D01*
X71476190Y-57452380D02*
X71476190Y-56452380D01*
X71571428Y-56595238D01*
X71666666Y-56690476D01*
X71761904Y-56738095D01*
X148907023Y-107654761D02*
X148764166Y-107702380D01*
X148526071Y-107702380D01*
X148430833Y-107654761D01*
X148383214Y-107607142D01*
X148335595Y-107511904D01*
X148335595Y-107416666D01*
X148383214Y-107321428D01*
X148430833Y-107273809D01*
X148526071Y-107226190D01*
X148716547Y-107178571D01*
X148811785Y-107130952D01*
X148859404Y-107083333D01*
X148907023Y-106988095D01*
X148907023Y-106892857D01*
X148859404Y-106797619D01*
X148811785Y-106750000D01*
X148716547Y-106702380D01*
X148478452Y-106702380D01*
X148335595Y-106750000D01*
X148002261Y-106702380D02*
X147764166Y-107702380D01*
X147573690Y-106988095D01*
X147383214Y-107702380D01*
X147145119Y-106702380D01*
X146764166Y-107702380D02*
X146764166Y-106702380D01*
X146526071Y-106702380D01*
X146383214Y-106750000D01*
X146287976Y-106845238D01*
X146240357Y-106940476D01*
X146192738Y-107130952D01*
X146192738Y-107273809D01*
X146240357Y-107464285D01*
X146287976Y-107559523D01*
X146383214Y-107654761D01*
X146526071Y-107702380D01*
X146764166Y-107702380D01*
X145335595Y-107035714D02*
X145335595Y-107702380D01*
X145573690Y-106654761D02*
X145811785Y-107369047D01*
X145192738Y-107369047D01*
X144335595Y-106702380D02*
X144811785Y-106702380D01*
X144859404Y-107178571D01*
X144811785Y-107130952D01*
X144716547Y-107083333D01*
X144478452Y-107083333D01*
X144383214Y-107130952D01*
X144335595Y-107178571D01*
X144287976Y-107273809D01*
X144287976Y-107511904D01*
X144335595Y-107607142D01*
X144383214Y-107654761D01*
X144478452Y-107702380D01*
X144716547Y-107702380D01*
X144811785Y-107654761D01*
X144859404Y-107607142D01*
X129907023Y-55404761D02*
X129764166Y-55452380D01*
X129526071Y-55452380D01*
X129430833Y-55404761D01*
X129383214Y-55357142D01*
X129335595Y-55261904D01*
X129335595Y-55166666D01*
X129383214Y-55071428D01*
X129430833Y-55023809D01*
X129526071Y-54976190D01*
X129716547Y-54928571D01*
X129811785Y-54880952D01*
X129859404Y-54833333D01*
X129907023Y-54738095D01*
X129907023Y-54642857D01*
X129859404Y-54547619D01*
X129811785Y-54500000D01*
X129716547Y-54452380D01*
X129478452Y-54452380D01*
X129335595Y-54500000D01*
X129002261Y-54452380D02*
X128764166Y-55452380D01*
X128573690Y-54738095D01*
X128383214Y-55452380D01*
X128145119Y-54452380D01*
X127764166Y-55452380D02*
X127764166Y-54452380D01*
X127526071Y-54452380D01*
X127383214Y-54500000D01*
X127287976Y-54595238D01*
X127240357Y-54690476D01*
X127192738Y-54880952D01*
X127192738Y-55023809D01*
X127240357Y-55214285D01*
X127287976Y-55309523D01*
X127383214Y-55404761D01*
X127526071Y-55452380D01*
X127764166Y-55452380D01*
X126240357Y-55452380D02*
X126811785Y-55452380D01*
X126526071Y-55452380D02*
X126526071Y-54452380D01*
X126621309Y-54595238D01*
X126716547Y-54690476D01*
X126811785Y-54738095D01*
X125383214Y-54785714D02*
X125383214Y-55452380D01*
X125621309Y-54404761D02*
X125859404Y-55119047D01*
X125240357Y-55119047D01*
X91907023Y-64904761D02*
X91764166Y-64952380D01*
X91526071Y-64952380D01*
X91430833Y-64904761D01*
X91383214Y-64857142D01*
X91335595Y-64761904D01*
X91335595Y-64666666D01*
X91383214Y-64571428D01*
X91430833Y-64523809D01*
X91526071Y-64476190D01*
X91716547Y-64428571D01*
X91811785Y-64380952D01*
X91859404Y-64333333D01*
X91907023Y-64238095D01*
X91907023Y-64142857D01*
X91859404Y-64047619D01*
X91811785Y-64000000D01*
X91716547Y-63952380D01*
X91478452Y-63952380D01*
X91335595Y-64000000D01*
X91002261Y-63952380D02*
X90764166Y-64952380D01*
X90573690Y-64238095D01*
X90383214Y-64952380D01*
X90145119Y-63952380D01*
X89764166Y-64952380D02*
X89764166Y-63952380D01*
X89526071Y-63952380D01*
X89383214Y-64000000D01*
X89287976Y-64095238D01*
X89240357Y-64190476D01*
X89192738Y-64380952D01*
X89192738Y-64523809D01*
X89240357Y-64714285D01*
X89287976Y-64809523D01*
X89383214Y-64904761D01*
X89526071Y-64952380D01*
X89764166Y-64952380D01*
X88240357Y-64952380D02*
X88811785Y-64952380D01*
X88526071Y-64952380D02*
X88526071Y-63952380D01*
X88621309Y-64095238D01*
X88716547Y-64190476D01*
X88811785Y-64238095D01*
X87859404Y-64047619D02*
X87811785Y-64000000D01*
X87716547Y-63952380D01*
X87478452Y-63952380D01*
X87383214Y-64000000D01*
X87335595Y-64047619D01*
X87287976Y-64142857D01*
X87287976Y-64238095D01*
X87335595Y-64380952D01*
X87907023Y-64952380D01*
X87287976Y-64952380D01*
X186907023Y-136154761D02*
X186764166Y-136202380D01*
X186526071Y-136202380D01*
X186430833Y-136154761D01*
X186383214Y-136107142D01*
X186335595Y-136011904D01*
X186335595Y-135916666D01*
X186383214Y-135821428D01*
X186430833Y-135773809D01*
X186526071Y-135726190D01*
X186716547Y-135678571D01*
X186811785Y-135630952D01*
X186859404Y-135583333D01*
X186907023Y-135488095D01*
X186907023Y-135392857D01*
X186859404Y-135297619D01*
X186811785Y-135250000D01*
X186716547Y-135202380D01*
X186478452Y-135202380D01*
X186335595Y-135250000D01*
X186002261Y-135202380D02*
X185764166Y-136202380D01*
X185573690Y-135488095D01*
X185383214Y-136202380D01*
X185145119Y-135202380D01*
X184764166Y-136202380D02*
X184764166Y-135202380D01*
X184526071Y-135202380D01*
X184383214Y-135250000D01*
X184287976Y-135345238D01*
X184240357Y-135440476D01*
X184192738Y-135630952D01*
X184192738Y-135773809D01*
X184240357Y-135964285D01*
X184287976Y-136059523D01*
X184383214Y-136154761D01*
X184526071Y-136202380D01*
X184764166Y-136202380D01*
X183287976Y-135202380D02*
X183764166Y-135202380D01*
X183811785Y-135678571D01*
X183764166Y-135630952D01*
X183668928Y-135583333D01*
X183430833Y-135583333D01*
X183335595Y-135630952D01*
X183287976Y-135678571D01*
X183240357Y-135773809D01*
X183240357Y-136011904D01*
X183287976Y-136107142D01*
X183335595Y-136154761D01*
X183430833Y-136202380D01*
X183668928Y-136202380D01*
X183764166Y-136154761D01*
X183811785Y-136107142D01*
X182907023Y-135202380D02*
X182240357Y-135202380D01*
X182668928Y-136202380D01*
X186907023Y-98154761D02*
X186764166Y-98202380D01*
X186526071Y-98202380D01*
X186430833Y-98154761D01*
X186383214Y-98107142D01*
X186335595Y-98011904D01*
X186335595Y-97916666D01*
X186383214Y-97821428D01*
X186430833Y-97773809D01*
X186526071Y-97726190D01*
X186716547Y-97678571D01*
X186811785Y-97630952D01*
X186859404Y-97583333D01*
X186907023Y-97488095D01*
X186907023Y-97392857D01*
X186859404Y-97297619D01*
X186811785Y-97250000D01*
X186716547Y-97202380D01*
X186478452Y-97202380D01*
X186335595Y-97250000D01*
X186002261Y-97202380D02*
X185764166Y-98202380D01*
X185573690Y-97488095D01*
X185383214Y-98202380D01*
X185145119Y-97202380D01*
X184764166Y-98202380D02*
X184764166Y-97202380D01*
X184526071Y-97202380D01*
X184383214Y-97250000D01*
X184287976Y-97345238D01*
X184240357Y-97440476D01*
X184192738Y-97630952D01*
X184192738Y-97773809D01*
X184240357Y-97964285D01*
X184287976Y-98059523D01*
X184383214Y-98154761D01*
X184526071Y-98202380D01*
X184764166Y-98202380D01*
X183859404Y-97202380D02*
X183240357Y-97202380D01*
X183573690Y-97583333D01*
X183430833Y-97583333D01*
X183335595Y-97630952D01*
X183287976Y-97678571D01*
X183240357Y-97773809D01*
X183240357Y-98011904D01*
X183287976Y-98107142D01*
X183335595Y-98154761D01*
X183430833Y-98202380D01*
X183716547Y-98202380D01*
X183811785Y-98154761D01*
X183859404Y-98107142D01*
X182907023Y-97202380D02*
X182240357Y-97202380D01*
X182668928Y-98202380D01*
X129907023Y-112404761D02*
X129764166Y-112452380D01*
X129526071Y-112452380D01*
X129430833Y-112404761D01*
X129383214Y-112357142D01*
X129335595Y-112261904D01*
X129335595Y-112166666D01*
X129383214Y-112071428D01*
X129430833Y-112023809D01*
X129526071Y-111976190D01*
X129716547Y-111928571D01*
X129811785Y-111880952D01*
X129859404Y-111833333D01*
X129907023Y-111738095D01*
X129907023Y-111642857D01*
X129859404Y-111547619D01*
X129811785Y-111500000D01*
X129716547Y-111452380D01*
X129478452Y-111452380D01*
X129335595Y-111500000D01*
X129002261Y-111452380D02*
X128764166Y-112452380D01*
X128573690Y-111738095D01*
X128383214Y-112452380D01*
X128145119Y-111452380D01*
X127764166Y-112452380D02*
X127764166Y-111452380D01*
X127526071Y-111452380D01*
X127383214Y-111500000D01*
X127287976Y-111595238D01*
X127240357Y-111690476D01*
X127192738Y-111880952D01*
X127192738Y-112023809D01*
X127240357Y-112214285D01*
X127287976Y-112309523D01*
X127383214Y-112404761D01*
X127526071Y-112452380D01*
X127764166Y-112452380D01*
X126335595Y-111785714D02*
X126335595Y-112452380D01*
X126573690Y-111404761D02*
X126811785Y-112119047D01*
X126192738Y-112119047D01*
X125383214Y-111785714D02*
X125383214Y-112452380D01*
X125621309Y-111404761D02*
X125859404Y-112119047D01*
X125240357Y-112119047D01*
X186907023Y-79154761D02*
X186764166Y-79202380D01*
X186526071Y-79202380D01*
X186430833Y-79154761D01*
X186383214Y-79107142D01*
X186335595Y-79011904D01*
X186335595Y-78916666D01*
X186383214Y-78821428D01*
X186430833Y-78773809D01*
X186526071Y-78726190D01*
X186716547Y-78678571D01*
X186811785Y-78630952D01*
X186859404Y-78583333D01*
X186907023Y-78488095D01*
X186907023Y-78392857D01*
X186859404Y-78297619D01*
X186811785Y-78250000D01*
X186716547Y-78202380D01*
X186478452Y-78202380D01*
X186335595Y-78250000D01*
X186002261Y-78202380D02*
X185764166Y-79202380D01*
X185573690Y-78488095D01*
X185383214Y-79202380D01*
X185145119Y-78202380D01*
X184764166Y-79202380D02*
X184764166Y-78202380D01*
X184526071Y-78202380D01*
X184383214Y-78250000D01*
X184287976Y-78345238D01*
X184240357Y-78440476D01*
X184192738Y-78630952D01*
X184192738Y-78773809D01*
X184240357Y-78964285D01*
X184287976Y-79059523D01*
X184383214Y-79154761D01*
X184526071Y-79202380D01*
X184764166Y-79202380D01*
X183811785Y-78297619D02*
X183764166Y-78250000D01*
X183668928Y-78202380D01*
X183430833Y-78202380D01*
X183335595Y-78250000D01*
X183287976Y-78297619D01*
X183240357Y-78392857D01*
X183240357Y-78488095D01*
X183287976Y-78630952D01*
X183859404Y-79202380D01*
X183240357Y-79202380D01*
X182907023Y-78202380D02*
X182240357Y-78202380D01*
X182668928Y-79202380D01*
X91907023Y-83904761D02*
X91764166Y-83952380D01*
X91526071Y-83952380D01*
X91430833Y-83904761D01*
X91383214Y-83857142D01*
X91335595Y-83761904D01*
X91335595Y-83666666D01*
X91383214Y-83571428D01*
X91430833Y-83523809D01*
X91526071Y-83476190D01*
X91716547Y-83428571D01*
X91811785Y-83380952D01*
X91859404Y-83333333D01*
X91907023Y-83238095D01*
X91907023Y-83142857D01*
X91859404Y-83047619D01*
X91811785Y-83000000D01*
X91716547Y-82952380D01*
X91478452Y-82952380D01*
X91335595Y-83000000D01*
X91002261Y-82952380D02*
X90764166Y-83952380D01*
X90573690Y-83238095D01*
X90383214Y-83952380D01*
X90145119Y-82952380D01*
X89764166Y-83952380D02*
X89764166Y-82952380D01*
X89526071Y-82952380D01*
X89383214Y-83000000D01*
X89287976Y-83095238D01*
X89240357Y-83190476D01*
X89192738Y-83380952D01*
X89192738Y-83523809D01*
X89240357Y-83714285D01*
X89287976Y-83809523D01*
X89383214Y-83904761D01*
X89526071Y-83952380D01*
X89764166Y-83952380D01*
X88811785Y-83047619D02*
X88764166Y-83000000D01*
X88668928Y-82952380D01*
X88430833Y-82952380D01*
X88335595Y-83000000D01*
X88287976Y-83047619D01*
X88240357Y-83142857D01*
X88240357Y-83238095D01*
X88287976Y-83380952D01*
X88859404Y-83952380D01*
X88240357Y-83952380D01*
X87859404Y-83047619D02*
X87811785Y-83000000D01*
X87716547Y-82952380D01*
X87478452Y-82952380D01*
X87383214Y-83000000D01*
X87335595Y-83047619D01*
X87287976Y-83142857D01*
X87287976Y-83238095D01*
X87335595Y-83380952D01*
X87907023Y-83952380D01*
X87287976Y-83952380D01*
X110907023Y-102904761D02*
X110764166Y-102952380D01*
X110526071Y-102952380D01*
X110430833Y-102904761D01*
X110383214Y-102857142D01*
X110335595Y-102761904D01*
X110335595Y-102666666D01*
X110383214Y-102571428D01*
X110430833Y-102523809D01*
X110526071Y-102476190D01*
X110716547Y-102428571D01*
X110811785Y-102380952D01*
X110859404Y-102333333D01*
X110907023Y-102238095D01*
X110907023Y-102142857D01*
X110859404Y-102047619D01*
X110811785Y-102000000D01*
X110716547Y-101952380D01*
X110478452Y-101952380D01*
X110335595Y-102000000D01*
X110002261Y-101952380D02*
X109764166Y-102952380D01*
X109573690Y-102238095D01*
X109383214Y-102952380D01*
X109145119Y-101952380D01*
X108764166Y-102952380D02*
X108764166Y-101952380D01*
X108526071Y-101952380D01*
X108383214Y-102000000D01*
X108287976Y-102095238D01*
X108240357Y-102190476D01*
X108192738Y-102380952D01*
X108192738Y-102523809D01*
X108240357Y-102714285D01*
X108287976Y-102809523D01*
X108383214Y-102904761D01*
X108526071Y-102952380D01*
X108764166Y-102952380D01*
X107859404Y-101952380D02*
X107240357Y-101952380D01*
X107573690Y-102333333D01*
X107430833Y-102333333D01*
X107335595Y-102380952D01*
X107287976Y-102428571D01*
X107240357Y-102523809D01*
X107240357Y-102761904D01*
X107287976Y-102857142D01*
X107335595Y-102904761D01*
X107430833Y-102952380D01*
X107716547Y-102952380D01*
X107811785Y-102904761D01*
X107859404Y-102857142D01*
X106907023Y-101952380D02*
X106287976Y-101952380D01*
X106621309Y-102333333D01*
X106478452Y-102333333D01*
X106383214Y-102380952D01*
X106335595Y-102428571D01*
X106287976Y-102523809D01*
X106287976Y-102761904D01*
X106335595Y-102857142D01*
X106383214Y-102904761D01*
X106478452Y-102952380D01*
X106764166Y-102952380D01*
X106859404Y-102904761D01*
X106907023Y-102857142D01*
X110907023Y-64904761D02*
X110764166Y-64952380D01*
X110526071Y-64952380D01*
X110430833Y-64904761D01*
X110383214Y-64857142D01*
X110335595Y-64761904D01*
X110335595Y-64666666D01*
X110383214Y-64571428D01*
X110430833Y-64523809D01*
X110526071Y-64476190D01*
X110716547Y-64428571D01*
X110811785Y-64380952D01*
X110859404Y-64333333D01*
X110907023Y-64238095D01*
X110907023Y-64142857D01*
X110859404Y-64047619D01*
X110811785Y-64000000D01*
X110716547Y-63952380D01*
X110478452Y-63952380D01*
X110335595Y-64000000D01*
X110002261Y-63952380D02*
X109764166Y-64952380D01*
X109573690Y-64238095D01*
X109383214Y-64952380D01*
X109145119Y-63952380D01*
X108764166Y-64952380D02*
X108764166Y-63952380D01*
X108526071Y-63952380D01*
X108383214Y-64000000D01*
X108287976Y-64095238D01*
X108240357Y-64190476D01*
X108192738Y-64380952D01*
X108192738Y-64523809D01*
X108240357Y-64714285D01*
X108287976Y-64809523D01*
X108383214Y-64904761D01*
X108526071Y-64952380D01*
X108764166Y-64952380D01*
X107240357Y-64952380D02*
X107811785Y-64952380D01*
X107526071Y-64952380D02*
X107526071Y-63952380D01*
X107621309Y-64095238D01*
X107716547Y-64190476D01*
X107811785Y-64238095D01*
X106907023Y-63952380D02*
X106287976Y-63952380D01*
X106621309Y-64333333D01*
X106478452Y-64333333D01*
X106383214Y-64380952D01*
X106335595Y-64428571D01*
X106287976Y-64523809D01*
X106287976Y-64761904D01*
X106335595Y-64857142D01*
X106383214Y-64904761D01*
X106478452Y-64952380D01*
X106764166Y-64952380D01*
X106859404Y-64904761D01*
X106907023Y-64857142D01*
X205907023Y-102904761D02*
X205764166Y-102952380D01*
X205526071Y-102952380D01*
X205430833Y-102904761D01*
X205383214Y-102857142D01*
X205335595Y-102761904D01*
X205335595Y-102666666D01*
X205383214Y-102571428D01*
X205430833Y-102523809D01*
X205526071Y-102476190D01*
X205716547Y-102428571D01*
X205811785Y-102380952D01*
X205859404Y-102333333D01*
X205907023Y-102238095D01*
X205907023Y-102142857D01*
X205859404Y-102047619D01*
X205811785Y-102000000D01*
X205716547Y-101952380D01*
X205478452Y-101952380D01*
X205335595Y-102000000D01*
X205002261Y-101952380D02*
X204764166Y-102952380D01*
X204573690Y-102238095D01*
X204383214Y-102952380D01*
X204145119Y-101952380D01*
X203764166Y-102952380D02*
X203764166Y-101952380D01*
X203526071Y-101952380D01*
X203383214Y-102000000D01*
X203287976Y-102095238D01*
X203240357Y-102190476D01*
X203192738Y-102380952D01*
X203192738Y-102523809D01*
X203240357Y-102714285D01*
X203287976Y-102809523D01*
X203383214Y-102904761D01*
X203526071Y-102952380D01*
X203764166Y-102952380D01*
X202859404Y-101952380D02*
X202240357Y-101952380D01*
X202573690Y-102333333D01*
X202430833Y-102333333D01*
X202335595Y-102380952D01*
X202287976Y-102428571D01*
X202240357Y-102523809D01*
X202240357Y-102761904D01*
X202287976Y-102857142D01*
X202335595Y-102904761D01*
X202430833Y-102952380D01*
X202716547Y-102952380D01*
X202811785Y-102904761D01*
X202859404Y-102857142D01*
X201668928Y-102380952D02*
X201764166Y-102333333D01*
X201811785Y-102285714D01*
X201859404Y-102190476D01*
X201859404Y-102142857D01*
X201811785Y-102047619D01*
X201764166Y-102000000D01*
X201668928Y-101952380D01*
X201478452Y-101952380D01*
X201383214Y-102000000D01*
X201335595Y-102047619D01*
X201287976Y-102142857D01*
X201287976Y-102190476D01*
X201335595Y-102285714D01*
X201383214Y-102333333D01*
X201478452Y-102380952D01*
X201668928Y-102380952D01*
X201764166Y-102428571D01*
X201811785Y-102476190D01*
X201859404Y-102571428D01*
X201859404Y-102761904D01*
X201811785Y-102857142D01*
X201764166Y-102904761D01*
X201668928Y-102952380D01*
X201478452Y-102952380D01*
X201383214Y-102904761D01*
X201335595Y-102857142D01*
X201287976Y-102761904D01*
X201287976Y-102571428D01*
X201335595Y-102476190D01*
X201383214Y-102428571D01*
X201478452Y-102380952D01*
X72907023Y-74404761D02*
X72764166Y-74452380D01*
X72526071Y-74452380D01*
X72430833Y-74404761D01*
X72383214Y-74357142D01*
X72335595Y-74261904D01*
X72335595Y-74166666D01*
X72383214Y-74071428D01*
X72430833Y-74023809D01*
X72526071Y-73976190D01*
X72716547Y-73928571D01*
X72811785Y-73880952D01*
X72859404Y-73833333D01*
X72907023Y-73738095D01*
X72907023Y-73642857D01*
X72859404Y-73547619D01*
X72811785Y-73500000D01*
X72716547Y-73452380D01*
X72478452Y-73452380D01*
X72335595Y-73500000D01*
X72002261Y-73452380D02*
X71764166Y-74452380D01*
X71573690Y-73738095D01*
X71383214Y-74452380D01*
X71145119Y-73452380D01*
X70764166Y-74452380D02*
X70764166Y-73452380D01*
X70526071Y-73452380D01*
X70383214Y-73500000D01*
X70287976Y-73595238D01*
X70240357Y-73690476D01*
X70192738Y-73880952D01*
X70192738Y-74023809D01*
X70240357Y-74214285D01*
X70287976Y-74309523D01*
X70383214Y-74404761D01*
X70526071Y-74452380D01*
X70764166Y-74452380D01*
X69811785Y-73547619D02*
X69764166Y-73500000D01*
X69668928Y-73452380D01*
X69430833Y-73452380D01*
X69335595Y-73500000D01*
X69287976Y-73547619D01*
X69240357Y-73642857D01*
X69240357Y-73738095D01*
X69287976Y-73880952D01*
X69859404Y-74452380D01*
X69240357Y-74452380D01*
X68287976Y-74452380D02*
X68859404Y-74452380D01*
X68573690Y-74452380D02*
X68573690Y-73452380D01*
X68668928Y-73595238D01*
X68764166Y-73690476D01*
X68859404Y-73738095D01*
X167907023Y-112404761D02*
X167764166Y-112452380D01*
X167526071Y-112452380D01*
X167430833Y-112404761D01*
X167383214Y-112357142D01*
X167335595Y-112261904D01*
X167335595Y-112166666D01*
X167383214Y-112071428D01*
X167430833Y-112023809D01*
X167526071Y-111976190D01*
X167716547Y-111928571D01*
X167811785Y-111880952D01*
X167859404Y-111833333D01*
X167907023Y-111738095D01*
X167907023Y-111642857D01*
X167859404Y-111547619D01*
X167811785Y-111500000D01*
X167716547Y-111452380D01*
X167478452Y-111452380D01*
X167335595Y-111500000D01*
X167002261Y-111452380D02*
X166764166Y-112452380D01*
X166573690Y-111738095D01*
X166383214Y-112452380D01*
X166145119Y-111452380D01*
X165764166Y-112452380D02*
X165764166Y-111452380D01*
X165526071Y-111452380D01*
X165383214Y-111500000D01*
X165287976Y-111595238D01*
X165240357Y-111690476D01*
X165192738Y-111880952D01*
X165192738Y-112023809D01*
X165240357Y-112214285D01*
X165287976Y-112309523D01*
X165383214Y-112404761D01*
X165526071Y-112452380D01*
X165764166Y-112452380D01*
X164335595Y-111785714D02*
X164335595Y-112452380D01*
X164573690Y-111404761D02*
X164811785Y-112119047D01*
X164192738Y-112119047D01*
X163383214Y-111452380D02*
X163573690Y-111452380D01*
X163668928Y-111500000D01*
X163716547Y-111547619D01*
X163811785Y-111690476D01*
X163859404Y-111880952D01*
X163859404Y-112261904D01*
X163811785Y-112357142D01*
X163764166Y-112404761D01*
X163668928Y-112452380D01*
X163478452Y-112452380D01*
X163383214Y-112404761D01*
X163335595Y-112357142D01*
X163287976Y-112261904D01*
X163287976Y-112023809D01*
X163335595Y-111928571D01*
X163383214Y-111880952D01*
X163478452Y-111833333D01*
X163668928Y-111833333D01*
X163764166Y-111880952D01*
X163811785Y-111928571D01*
X163859404Y-112023809D01*
X148907023Y-69654761D02*
X148764166Y-69702380D01*
X148526071Y-69702380D01*
X148430833Y-69654761D01*
X148383214Y-69607142D01*
X148335595Y-69511904D01*
X148335595Y-69416666D01*
X148383214Y-69321428D01*
X148430833Y-69273809D01*
X148526071Y-69226190D01*
X148716547Y-69178571D01*
X148811785Y-69130952D01*
X148859404Y-69083333D01*
X148907023Y-68988095D01*
X148907023Y-68892857D01*
X148859404Y-68797619D01*
X148811785Y-68750000D01*
X148716547Y-68702380D01*
X148478452Y-68702380D01*
X148335595Y-68750000D01*
X148002261Y-68702380D02*
X147764166Y-69702380D01*
X147573690Y-68988095D01*
X147383214Y-69702380D01*
X147145119Y-68702380D01*
X146764166Y-69702380D02*
X146764166Y-68702380D01*
X146526071Y-68702380D01*
X146383214Y-68750000D01*
X146287976Y-68845238D01*
X146240357Y-68940476D01*
X146192738Y-69130952D01*
X146192738Y-69273809D01*
X146240357Y-69464285D01*
X146287976Y-69559523D01*
X146383214Y-69654761D01*
X146526071Y-69702380D01*
X146764166Y-69702380D01*
X145811785Y-68797619D02*
X145764166Y-68750000D01*
X145668928Y-68702380D01*
X145430833Y-68702380D01*
X145335595Y-68750000D01*
X145287976Y-68797619D01*
X145240357Y-68892857D01*
X145240357Y-68988095D01*
X145287976Y-69130952D01*
X145859404Y-69702380D01*
X145240357Y-69702380D01*
X144335595Y-68702380D02*
X144811785Y-68702380D01*
X144859404Y-69178571D01*
X144811785Y-69130952D01*
X144716547Y-69083333D01*
X144478452Y-69083333D01*
X144383214Y-69130952D01*
X144335595Y-69178571D01*
X144287976Y-69273809D01*
X144287976Y-69511904D01*
X144335595Y-69607142D01*
X144383214Y-69654761D01*
X144478452Y-69702380D01*
X144716547Y-69702380D01*
X144811785Y-69654761D01*
X144859404Y-69607142D01*
X226883333Y-84672464D02*
X226921428Y-84710559D01*
X227035714Y-84748654D01*
X227111904Y-84748654D01*
X227226190Y-84710559D01*
X227302380Y-84634369D01*
X227340476Y-84558178D01*
X227378571Y-84405797D01*
X227378571Y-84291511D01*
X227340476Y-84139130D01*
X227302380Y-84062940D01*
X227226190Y-83986750D01*
X227111904Y-83948654D01*
X227035714Y-83948654D01*
X226921428Y-83986750D01*
X226883333Y-84024845D01*
X226616666Y-83948654D02*
X226083333Y-83948654D01*
X226426190Y-84748654D01*
X221879476Y-78698654D02*
X221879476Y-77898654D01*
X221689000Y-77898654D01*
X221574714Y-77936750D01*
X221498523Y-78012940D01*
X221460428Y-78089130D01*
X221422333Y-78241511D01*
X221422333Y-78355797D01*
X221460428Y-78508178D01*
X221498523Y-78584369D01*
X221574714Y-78660559D01*
X221689000Y-78698654D01*
X221879476Y-78698654D01*
X221155666Y-77898654D02*
X220622333Y-77898654D01*
X220965190Y-78698654D01*
X233277666Y-65198654D02*
X233011000Y-65998654D01*
X232744333Y-65198654D01*
X232020523Y-65922464D02*
X232058619Y-65960559D01*
X232172904Y-65998654D01*
X232249095Y-65998654D01*
X232363380Y-65960559D01*
X232439571Y-65884369D01*
X232477666Y-65808178D01*
X232515761Y-65655797D01*
X232515761Y-65541511D01*
X232477666Y-65389130D01*
X232439571Y-65312940D01*
X232363380Y-65236750D01*
X232249095Y-65198654D01*
X232172904Y-65198654D01*
X232058619Y-65236750D01*
X232020523Y-65274845D01*
X231220523Y-65922464D02*
X231258619Y-65960559D01*
X231372904Y-65998654D01*
X231449095Y-65998654D01*
X231563380Y-65960559D01*
X231639571Y-65884369D01*
X231677666Y-65808178D01*
X231715761Y-65655797D01*
X231715761Y-65541511D01*
X231677666Y-65389130D01*
X231639571Y-65312940D01*
X231563380Y-65236750D01*
X231449095Y-65198654D01*
X231372904Y-65198654D01*
X231258619Y-65236750D01*
X231220523Y-65274845D01*
X222533333Y-84536750D02*
X222433333Y-84570083D01*
X222400000Y-84603416D01*
X222366666Y-84670083D01*
X222366666Y-84770083D01*
X222400000Y-84836750D01*
X222433333Y-84870083D01*
X222500000Y-84903416D01*
X222766666Y-84903416D01*
X222766666Y-84203416D01*
X222533333Y-84203416D01*
X222466666Y-84236750D01*
X222433333Y-84270083D01*
X222400000Y-84336750D01*
X222400000Y-84403416D01*
X222433333Y-84470083D01*
X222466666Y-84503416D01*
X222533333Y-84536750D01*
X222766666Y-84536750D01*
X222133333Y-84203416D02*
X221666666Y-84203416D01*
X221966666Y-84903416D01*
X232820523Y-60156750D02*
X232896714Y-60118654D01*
X233011000Y-60118654D01*
X233125285Y-60156750D01*
X233201476Y-60232940D01*
X233239571Y-60309130D01*
X233277666Y-60461511D01*
X233277666Y-60575797D01*
X233239571Y-60728178D01*
X233201476Y-60804369D01*
X233125285Y-60880559D01*
X233011000Y-60918654D01*
X232934809Y-60918654D01*
X232820523Y-60880559D01*
X232782428Y-60842464D01*
X232782428Y-60575797D01*
X232934809Y-60575797D01*
X232439571Y-60918654D02*
X232439571Y-60118654D01*
X231982428Y-60918654D01*
X231982428Y-60118654D01*
X231601476Y-60918654D02*
X231601476Y-60118654D01*
X231411000Y-60118654D01*
X231296714Y-60156750D01*
X231220523Y-60232940D01*
X231182428Y-60309130D01*
X231144333Y-60461511D01*
X231144333Y-60575797D01*
X231182428Y-60728178D01*
X231220523Y-60804369D01*
X231296714Y-60880559D01*
X231411000Y-60918654D01*
X231601476Y-60918654D01*
X221879476Y-60918654D02*
X221879476Y-60118654D01*
X221689000Y-60118654D01*
X221574714Y-60156750D01*
X221498523Y-60232940D01*
X221460428Y-60309130D01*
X221422333Y-60461511D01*
X221422333Y-60575797D01*
X221460428Y-60728178D01*
X221498523Y-60804369D01*
X221574714Y-60880559D01*
X221689000Y-60918654D01*
X221879476Y-60918654D01*
X221117571Y-60194845D02*
X221079476Y-60156750D01*
X221003285Y-60118654D01*
X220812809Y-60118654D01*
X220736619Y-60156750D01*
X220698523Y-60194845D01*
X220660428Y-60271035D01*
X220660428Y-60347226D01*
X220698523Y-60461511D01*
X221155666Y-60918654D01*
X220660428Y-60918654D01*
X233314991Y-84451047D02*
X233267851Y-84545328D01*
X233267851Y-84592469D01*
X233291421Y-84663179D01*
X233362132Y-84733890D01*
X233432842Y-84757460D01*
X233479983Y-84757460D01*
X233550693Y-84733890D01*
X233739255Y-84545328D01*
X233244280Y-84050353D01*
X233079289Y-84215345D01*
X233055719Y-84286056D01*
X233055719Y-84333196D01*
X233079289Y-84403907D01*
X233126429Y-84451047D01*
X233197140Y-84474617D01*
X233244280Y-84474617D01*
X233314991Y-84451047D01*
X233479983Y-84286056D01*
X232537174Y-84757460D02*
X232631455Y-84663179D01*
X232702165Y-84639609D01*
X232749306Y-84639609D01*
X232867157Y-84663179D01*
X232985008Y-84733890D01*
X233173570Y-84922452D01*
X233197140Y-84993162D01*
X233197140Y-85040303D01*
X233173570Y-85111014D01*
X233079289Y-85205294D01*
X233008578Y-85228865D01*
X232961438Y-85228865D01*
X232890727Y-85205294D01*
X232772876Y-85087443D01*
X232749306Y-85016733D01*
X232749306Y-84969592D01*
X232772876Y-84898882D01*
X232867157Y-84804601D01*
X232937867Y-84781030D01*
X232985008Y-84781030D01*
X233055719Y-84804601D01*
X232477666Y-70659607D02*
X232744333Y-70659607D01*
X232744333Y-71078654D02*
X232744333Y-70278654D01*
X232363380Y-70278654D01*
X231677666Y-70278654D02*
X232058619Y-70278654D01*
X232096714Y-70659607D01*
X232058619Y-70621511D01*
X231982428Y-70583416D01*
X231791952Y-70583416D01*
X231715761Y-70621511D01*
X231677666Y-70659607D01*
X231639571Y-70735797D01*
X231639571Y-70926273D01*
X231677666Y-71002464D01*
X231715761Y-71040559D01*
X231791952Y-71078654D01*
X231982428Y-71078654D01*
X232058619Y-71040559D01*
X232096714Y-71002464D01*
X229556666Y-84329607D02*
X229823333Y-84329607D01*
X229823333Y-84748654D02*
X229823333Y-83948654D01*
X229442380Y-83948654D01*
X228718571Y-84748654D02*
X229175714Y-84748654D01*
X228947142Y-84748654D02*
X228947142Y-83948654D01*
X229023333Y-84062940D01*
X229099523Y-84139130D01*
X229175714Y-84177226D01*
X232477666Y-75739607D02*
X232744333Y-75739607D01*
X232744333Y-76158654D02*
X232744333Y-75358654D01*
X232363380Y-75358654D01*
X232134809Y-75358654D02*
X231601476Y-75358654D01*
X231944333Y-76158654D01*
X221898523Y-65236750D02*
X221974714Y-65198654D01*
X222089000Y-65198654D01*
X222203285Y-65236750D01*
X222279476Y-65312940D01*
X222317571Y-65389130D01*
X222355666Y-65541511D01*
X222355666Y-65655797D01*
X222317571Y-65808178D01*
X222279476Y-65884369D01*
X222203285Y-65960559D01*
X222089000Y-65998654D01*
X222012809Y-65998654D01*
X221898523Y-65960559D01*
X221860428Y-65922464D01*
X221860428Y-65655797D01*
X222012809Y-65655797D01*
X221517571Y-65998654D02*
X221517571Y-65198654D01*
X221060428Y-65998654D01*
X221060428Y-65198654D01*
X220679476Y-65998654D02*
X220679476Y-65198654D01*
X220489000Y-65198654D01*
X220374714Y-65236750D01*
X220298523Y-65312940D01*
X220260428Y-65389130D01*
X220222333Y-65541511D01*
X220222333Y-65655797D01*
X220260428Y-65808178D01*
X220298523Y-65884369D01*
X220374714Y-65960559D01*
X220489000Y-65998654D01*
X220679476Y-65998654D01*
X221879476Y-68538654D02*
X221879476Y-67738654D01*
X221689000Y-67738654D01*
X221574714Y-67776750D01*
X221498523Y-67852940D01*
X221460428Y-67929130D01*
X221422333Y-68081511D01*
X221422333Y-68195797D01*
X221460428Y-68348178D01*
X221498523Y-68424369D01*
X221574714Y-68500559D01*
X221689000Y-68538654D01*
X221879476Y-68538654D01*
X220660428Y-68538654D02*
X221117571Y-68538654D01*
X220889000Y-68538654D02*
X220889000Y-67738654D01*
X220965190Y-67852940D01*
X221041380Y-67929130D01*
X221117571Y-67967226D01*
X231483333Y-84536750D02*
X231716666Y-84536750D01*
X231716666Y-84903416D02*
X231716666Y-84203416D01*
X231383333Y-84203416D01*
X230983333Y-84203416D02*
X230916666Y-84203416D01*
X230850000Y-84236750D01*
X230816666Y-84270083D01*
X230783333Y-84336750D01*
X230750000Y-84470083D01*
X230750000Y-84636750D01*
X230783333Y-84770083D01*
X230816666Y-84836750D01*
X230850000Y-84870083D01*
X230916666Y-84903416D01*
X230983333Y-84903416D01*
X231050000Y-84870083D01*
X231083333Y-84836750D01*
X231116666Y-84770083D01*
X231150000Y-84636750D01*
X231150000Y-84470083D01*
X231116666Y-84336750D01*
X231083333Y-84270083D01*
X231050000Y-84236750D01*
X230983333Y-84203416D01*
X221422333Y-76082464D02*
X221460428Y-76120559D01*
X221574714Y-76158654D01*
X221650904Y-76158654D01*
X221765190Y-76120559D01*
X221841380Y-76044369D01*
X221879476Y-75968178D01*
X221917571Y-75815797D01*
X221917571Y-75701511D01*
X221879476Y-75549130D01*
X221841380Y-75472940D01*
X221765190Y-75396750D01*
X221650904Y-75358654D01*
X221574714Y-75358654D01*
X221460428Y-75396750D01*
X221422333Y-75434845D01*
X220736619Y-75358654D02*
X220889000Y-75358654D01*
X220965190Y-75396750D01*
X221003285Y-75434845D01*
X221079476Y-75549130D01*
X221117571Y-75701511D01*
X221117571Y-76006273D01*
X221079476Y-76082464D01*
X221041380Y-76120559D01*
X220965190Y-76158654D01*
X220812809Y-76158654D01*
X220736619Y-76120559D01*
X220698523Y-76082464D01*
X220660428Y-76006273D01*
X220660428Y-75815797D01*
X220698523Y-75739607D01*
X220736619Y-75701511D01*
X220812809Y-75663416D01*
X220965190Y-75663416D01*
X221041380Y-75701511D01*
X221079476Y-75739607D01*
X221117571Y-75815797D01*
X221898523Y-62696750D02*
X221974714Y-62658654D01*
X222089000Y-62658654D01*
X222203285Y-62696750D01*
X222279476Y-62772940D01*
X222317571Y-62849130D01*
X222355666Y-63001511D01*
X222355666Y-63115797D01*
X222317571Y-63268178D01*
X222279476Y-63344369D01*
X222203285Y-63420559D01*
X222089000Y-63458654D01*
X222012809Y-63458654D01*
X221898523Y-63420559D01*
X221860428Y-63382464D01*
X221860428Y-63115797D01*
X222012809Y-63115797D01*
X221517571Y-63458654D02*
X221517571Y-62658654D01*
X221060428Y-63458654D01*
X221060428Y-62658654D01*
X220679476Y-63458654D02*
X220679476Y-62658654D01*
X220489000Y-62658654D01*
X220374714Y-62696750D01*
X220298523Y-62772940D01*
X220260428Y-62849130D01*
X220222333Y-63001511D01*
X220222333Y-63115797D01*
X220260428Y-63268178D01*
X220298523Y-63344369D01*
X220374714Y-63420559D01*
X220489000Y-63458654D01*
X220679476Y-63458654D01*
X232477666Y-73199607D02*
X232744333Y-73199607D01*
X232744333Y-73618654D02*
X232744333Y-72818654D01*
X232363380Y-72818654D01*
X231715761Y-72818654D02*
X231868142Y-72818654D01*
X231944333Y-72856750D01*
X231982428Y-72894845D01*
X232058619Y-73009130D01*
X232096714Y-73161511D01*
X232096714Y-73466273D01*
X232058619Y-73542464D01*
X232020523Y-73580559D01*
X231944333Y-73618654D01*
X231791952Y-73618654D01*
X231715761Y-73580559D01*
X231677666Y-73542464D01*
X231639571Y-73466273D01*
X231639571Y-73275797D01*
X231677666Y-73199607D01*
X231715761Y-73161511D01*
X231791952Y-73123416D01*
X231944333Y-73123416D01*
X232020523Y-73161511D01*
X232058619Y-73199607D01*
X232096714Y-73275797D01*
X222340476Y-58378654D02*
X222340476Y-57578654D01*
X222150000Y-57578654D01*
X222035714Y-57616750D01*
X221959523Y-57692940D01*
X221921428Y-57769130D01*
X221883333Y-57921511D01*
X221883333Y-58035797D01*
X221921428Y-58188178D01*
X221959523Y-58264369D01*
X222035714Y-58340559D01*
X222150000Y-58378654D01*
X222340476Y-58378654D01*
X221616666Y-57578654D02*
X221121428Y-57578654D01*
X221388095Y-57883416D01*
X221273809Y-57883416D01*
X221197619Y-57921511D01*
X221159523Y-57959607D01*
X221121428Y-58035797D01*
X221121428Y-58226273D01*
X221159523Y-58302464D01*
X221197619Y-58340559D01*
X221273809Y-58378654D01*
X221502380Y-58378654D01*
X221578571Y-58340559D01*
X221616666Y-58302464D01*
X221879476Y-71078654D02*
X221879476Y-70278654D01*
X221689000Y-70278654D01*
X221574714Y-70316750D01*
X221498523Y-70392940D01*
X221460428Y-70469130D01*
X221422333Y-70621511D01*
X221422333Y-70735797D01*
X221460428Y-70888178D01*
X221498523Y-70964369D01*
X221574714Y-71040559D01*
X221689000Y-71078654D01*
X221879476Y-71078654D01*
X220927095Y-70278654D02*
X220850904Y-70278654D01*
X220774714Y-70316750D01*
X220736619Y-70354845D01*
X220698523Y-70431035D01*
X220660428Y-70583416D01*
X220660428Y-70773892D01*
X220698523Y-70926273D01*
X220736619Y-71002464D01*
X220774714Y-71040559D01*
X220850904Y-71078654D01*
X220927095Y-71078654D01*
X221003285Y-71040559D01*
X221041380Y-71002464D01*
X221079476Y-70926273D01*
X221117571Y-70773892D01*
X221117571Y-70583416D01*
X221079476Y-70431035D01*
X221041380Y-70354845D01*
X221003285Y-70316750D01*
X220927095Y-70278654D01*
X221612809Y-83359607D02*
X221498523Y-83397702D01*
X221460428Y-83435797D01*
X221422333Y-83511988D01*
X221422333Y-83626273D01*
X221460428Y-83702464D01*
X221498523Y-83740559D01*
X221574714Y-83778654D01*
X221879476Y-83778654D01*
X221879476Y-82978654D01*
X221612809Y-82978654D01*
X221536619Y-83016750D01*
X221498523Y-83054845D01*
X221460428Y-83131035D01*
X221460428Y-83207226D01*
X221498523Y-83283416D01*
X221536619Y-83321511D01*
X221612809Y-83359607D01*
X221879476Y-83359607D01*
X220736619Y-83245321D02*
X220736619Y-83778654D01*
X220927095Y-82940559D02*
X221117571Y-83511988D01*
X220622333Y-83511988D01*
X232534809Y-83359607D02*
X232420523Y-83397702D01*
X232382428Y-83435797D01*
X232344333Y-83511988D01*
X232344333Y-83626273D01*
X232382428Y-83702464D01*
X232420523Y-83740559D01*
X232496714Y-83778654D01*
X232801476Y-83778654D01*
X232801476Y-82978654D01*
X232534809Y-82978654D01*
X232458619Y-83016750D01*
X232420523Y-83054845D01*
X232382428Y-83131035D01*
X232382428Y-83207226D01*
X232420523Y-83283416D01*
X232458619Y-83321511D01*
X232534809Y-83359607D01*
X232801476Y-83359607D01*
X232039571Y-83054845D02*
X232001476Y-83016750D01*
X231925285Y-82978654D01*
X231734809Y-82978654D01*
X231658619Y-83016750D01*
X231620523Y-83054845D01*
X231582428Y-83131035D01*
X231582428Y-83207226D01*
X231620523Y-83321511D01*
X232077666Y-83778654D01*
X231582428Y-83778654D01*
X221879476Y-73618654D02*
X221879476Y-72818654D01*
X221689000Y-72818654D01*
X221574714Y-72856750D01*
X221498523Y-72932940D01*
X221460428Y-73009130D01*
X221422333Y-73161511D01*
X221422333Y-73275797D01*
X221460428Y-73428178D01*
X221498523Y-73504369D01*
X221574714Y-73580559D01*
X221689000Y-73618654D01*
X221879476Y-73618654D01*
X220736619Y-73085321D02*
X220736619Y-73618654D01*
X220927095Y-72780559D02*
X221117571Y-73351988D01*
X220622333Y-73351988D01*
X220114297Y-84521758D02*
X220208578Y-84568898D01*
X220255719Y-84568898D01*
X220326429Y-84545328D01*
X220397140Y-84474617D01*
X220420710Y-84403907D01*
X220420710Y-84356766D01*
X220397140Y-84286056D01*
X220208578Y-84097494D01*
X219713603Y-84592469D01*
X219878595Y-84757460D01*
X219949306Y-84781030D01*
X219996446Y-84781030D01*
X220067157Y-84757460D01*
X220114297Y-84710320D01*
X220137867Y-84639609D01*
X220137867Y-84592469D01*
X220114297Y-84521758D01*
X219949306Y-84356766D01*
X220444280Y-85323146D02*
X220208578Y-85087443D01*
X220420710Y-84828171D01*
X220420710Y-84875311D01*
X220444280Y-84946022D01*
X220562132Y-85063873D01*
X220632842Y-85087443D01*
X220679983Y-85087443D01*
X220750693Y-85063873D01*
X220868544Y-84946022D01*
X220892115Y-84875311D01*
X220892115Y-84828171D01*
X220868544Y-84757460D01*
X220750693Y-84639609D01*
X220679983Y-84616039D01*
X220632842Y-84616039D01*
X232534809Y-78279607D02*
X232420523Y-78317702D01*
X232382428Y-78355797D01*
X232344333Y-78431988D01*
X232344333Y-78546273D01*
X232382428Y-78622464D01*
X232420523Y-78660559D01*
X232496714Y-78698654D01*
X232801476Y-78698654D01*
X232801476Y-77898654D01*
X232534809Y-77898654D01*
X232458619Y-77936750D01*
X232420523Y-77974845D01*
X232382428Y-78051035D01*
X232382428Y-78127226D01*
X232420523Y-78203416D01*
X232458619Y-78241511D01*
X232534809Y-78279607D01*
X232801476Y-78279607D01*
X231582428Y-78698654D02*
X232039571Y-78698654D01*
X231811000Y-78698654D02*
X231811000Y-77898654D01*
X231887190Y-78012940D01*
X231963380Y-78089130D01*
X232039571Y-78127226D01*
X221841380Y-80819607D02*
X221574714Y-80819607D01*
X221460428Y-81238654D02*
X221841380Y-81238654D01*
X221841380Y-80438654D01*
X221460428Y-80438654D01*
X220774714Y-80438654D02*
X220927095Y-80438654D01*
X221003285Y-80476750D01*
X221041380Y-80514845D01*
X221117571Y-80629130D01*
X221155666Y-80781511D01*
X221155666Y-81086273D01*
X221117571Y-81162464D01*
X221079476Y-81200559D01*
X221003285Y-81238654D01*
X220850904Y-81238654D01*
X220774714Y-81200559D01*
X220736619Y-81162464D01*
X220698523Y-81086273D01*
X220698523Y-80895797D01*
X220736619Y-80819607D01*
X220774714Y-80781511D01*
X220850904Y-80743416D01*
X221003285Y-80743416D01*
X221079476Y-80781511D01*
X221117571Y-80819607D01*
X221155666Y-80895797D01*
X232477666Y-68119607D02*
X232744333Y-68119607D01*
X232744333Y-68538654D02*
X232744333Y-67738654D01*
X232363380Y-67738654D01*
X231715761Y-68005321D02*
X231715761Y-68538654D01*
X231906238Y-67700559D02*
X232096714Y-68271988D01*
X231601476Y-68271988D01*
X232534809Y-80819607D02*
X232420523Y-80857702D01*
X232382428Y-80895797D01*
X232344333Y-80971988D01*
X232344333Y-81086273D01*
X232382428Y-81162464D01*
X232420523Y-81200559D01*
X232496714Y-81238654D01*
X232801476Y-81238654D01*
X232801476Y-80438654D01*
X232534809Y-80438654D01*
X232458619Y-80476750D01*
X232420523Y-80514845D01*
X232382428Y-80591035D01*
X232382428Y-80667226D01*
X232420523Y-80743416D01*
X232458619Y-80781511D01*
X232534809Y-80819607D01*
X232801476Y-80819607D01*
X232077666Y-80438654D02*
X231582428Y-80438654D01*
X231849095Y-80743416D01*
X231734809Y-80743416D01*
X231658619Y-80781511D01*
X231620523Y-80819607D01*
X231582428Y-80895797D01*
X231582428Y-81086273D01*
X231620523Y-81162464D01*
X231658619Y-81200559D01*
X231734809Y-81238654D01*
X231963380Y-81238654D01*
X232039571Y-81200559D01*
X232077666Y-81162464D01*
X232534809Y-57959607D02*
X232420523Y-57997702D01*
X232382428Y-58035797D01*
X232344333Y-58111988D01*
X232344333Y-58226273D01*
X232382428Y-58302464D01*
X232420523Y-58340559D01*
X232496714Y-58378654D01*
X232801476Y-58378654D01*
X232801476Y-57578654D01*
X232534809Y-57578654D01*
X232458619Y-57616750D01*
X232420523Y-57654845D01*
X232382428Y-57731035D01*
X232382428Y-57807226D01*
X232420523Y-57883416D01*
X232458619Y-57921511D01*
X232534809Y-57959607D01*
X232801476Y-57959607D01*
X231849095Y-57578654D02*
X231772904Y-57578654D01*
X231696714Y-57616750D01*
X231658619Y-57654845D01*
X231620523Y-57731035D01*
X231582428Y-57883416D01*
X231582428Y-58073892D01*
X231620523Y-58226273D01*
X231658619Y-58302464D01*
X231696714Y-58340559D01*
X231772904Y-58378654D01*
X231849095Y-58378654D01*
X231925285Y-58340559D01*
X231963380Y-58302464D01*
X232001476Y-58226273D01*
X232039571Y-58073892D01*
X232039571Y-57883416D01*
X232001476Y-57731035D01*
X231963380Y-57654845D01*
X231925285Y-57616750D01*
X231849095Y-57578654D01*
X224800476Y-84748654D02*
X224800476Y-83948654D01*
X224610000Y-83948654D01*
X224495714Y-83986750D01*
X224419523Y-84062940D01*
X224381428Y-84139130D01*
X224343333Y-84291511D01*
X224343333Y-84405797D01*
X224381428Y-84558178D01*
X224419523Y-84634369D01*
X224495714Y-84710559D01*
X224610000Y-84748654D01*
X224800476Y-84748654D01*
X223619523Y-83948654D02*
X224000476Y-83948654D01*
X224038571Y-84329607D01*
X224000476Y-84291511D01*
X223924285Y-84253416D01*
X223733809Y-84253416D01*
X223657619Y-84291511D01*
X223619523Y-84329607D01*
X223581428Y-84405797D01*
X223581428Y-84596273D01*
X223619523Y-84672464D01*
X223657619Y-84710559D01*
X223733809Y-84748654D01*
X223924285Y-84748654D01*
X224000476Y-84710559D01*
X224038571Y-84672464D01*
X232323333Y-63400559D02*
X232209047Y-63438654D01*
X232018571Y-63438654D01*
X231942380Y-63400559D01*
X231904285Y-63362464D01*
X231866190Y-63286273D01*
X231866190Y-63210083D01*
X231904285Y-63133892D01*
X231942380Y-63095797D01*
X232018571Y-63057702D01*
X232170952Y-63019607D01*
X232247142Y-62981511D01*
X232285238Y-62943416D01*
X232323333Y-62867226D01*
X232323333Y-62791035D01*
X232285238Y-62714845D01*
X232247142Y-62676750D01*
X232170952Y-62638654D01*
X231980476Y-62638654D01*
X231866190Y-62676750D01*
X231637619Y-62638654D02*
X231180476Y-62638654D01*
X231409047Y-63438654D02*
X231409047Y-62638654D01*
D12*
X226664285Y-68358178D02*
X226664285Y-68758178D01*
X227292857Y-68929607D02*
X227292857Y-68358178D01*
X226092857Y-68358178D01*
X226092857Y-68929607D01*
X227292857Y-69615321D02*
X227235714Y-69501035D01*
X227121428Y-69443892D01*
X226092857Y-69443892D01*
X227292857Y-70072464D02*
X226492857Y-70072464D01*
X226092857Y-70072464D02*
X226150000Y-70015321D01*
X226207142Y-70072464D01*
X226150000Y-70129607D01*
X226092857Y-70072464D01*
X226207142Y-70072464D01*
X226492857Y-70472464D02*
X226492857Y-70929607D01*
X226092857Y-70643892D02*
X227121428Y-70643892D01*
X227235714Y-70701035D01*
X227292857Y-70815321D01*
X227292857Y-70929607D01*
X227235714Y-71786750D02*
X227292857Y-71672464D01*
X227292857Y-71443892D01*
X227235714Y-71329607D01*
X227121428Y-71272464D01*
X226664285Y-71272464D01*
X226550000Y-71329607D01*
X226492857Y-71443892D01*
X226492857Y-71672464D01*
X226550000Y-71786750D01*
X226664285Y-71843892D01*
X226778571Y-71843892D01*
X226892857Y-71272464D01*
X226835714Y-72358178D02*
X226835714Y-73272464D01*
X227178571Y-74529607D02*
X227235714Y-74472464D01*
X227292857Y-74301035D01*
X227292857Y-74186750D01*
X227235714Y-74015321D01*
X227121428Y-73901035D01*
X227007142Y-73843892D01*
X226778571Y-73786750D01*
X226607142Y-73786750D01*
X226378571Y-73843892D01*
X226264285Y-73901035D01*
X226150000Y-74015321D01*
X226092857Y-74186750D01*
X226092857Y-74301035D01*
X226150000Y-74472464D01*
X226207142Y-74529607D01*
X227292857Y-75672464D02*
X227292857Y-74986750D01*
X227292857Y-75329607D02*
X226092857Y-75329607D01*
X226264285Y-75215321D01*
X226378571Y-75101035D01*
X226435714Y-74986750D01*
D10*
X228067542Y-123054895D02*
X227912723Y-123054895D01*
X227835314Y-123093600D01*
X227757904Y-123171009D01*
X227719200Y-123325828D01*
X227719200Y-123596761D01*
X227757904Y-123751580D01*
X227835314Y-123828990D01*
X227912723Y-123867695D01*
X228067542Y-123867695D01*
X228144952Y-123828990D01*
X228222361Y-123751580D01*
X228261066Y-123596761D01*
X228261066Y-123325828D01*
X228222361Y-123171009D01*
X228144952Y-123093600D01*
X228067542Y-123054895D01*
X226983809Y-123867695D02*
X227370857Y-123867695D01*
X227370857Y-123054895D01*
X226712876Y-123441942D02*
X226441942Y-123441942D01*
X226325828Y-123867695D02*
X226712876Y-123867695D01*
X226712876Y-123054895D01*
X226325828Y-123054895D01*
X225977485Y-123867695D02*
X225977485Y-123054895D01*
X225783961Y-123054895D01*
X225667847Y-123093600D01*
X225590438Y-123171009D01*
X225551733Y-123248419D01*
X225513028Y-123403238D01*
X225513028Y-123519352D01*
X225551733Y-123674171D01*
X225590438Y-123751580D01*
X225667847Y-123828990D01*
X225783961Y-123867695D01*
X225977485Y-123867695D01*
X224738933Y-123867695D02*
X225203390Y-123867695D01*
X224971161Y-123867695D02*
X224971161Y-123054895D01*
X225048571Y-123171009D01*
X225125980Y-123248419D01*
X225203390Y-123287123D01*
X186907023Y-117154761D02*
X186764166Y-117202380D01*
X186526071Y-117202380D01*
X186430833Y-117154761D01*
X186383214Y-117107142D01*
X186335595Y-117011904D01*
X186335595Y-116916666D01*
X186383214Y-116821428D01*
X186430833Y-116773809D01*
X186526071Y-116726190D01*
X186716547Y-116678571D01*
X186811785Y-116630952D01*
X186859404Y-116583333D01*
X186907023Y-116488095D01*
X186907023Y-116392857D01*
X186859404Y-116297619D01*
X186811785Y-116250000D01*
X186716547Y-116202380D01*
X186478452Y-116202380D01*
X186335595Y-116250000D01*
X186002261Y-116202380D02*
X185764166Y-117202380D01*
X185573690Y-116488095D01*
X185383214Y-117202380D01*
X185145119Y-116202380D01*
X184764166Y-117202380D02*
X184764166Y-116202380D01*
X184526071Y-116202380D01*
X184383214Y-116250000D01*
X184287976Y-116345238D01*
X184240357Y-116440476D01*
X184192738Y-116630952D01*
X184192738Y-116773809D01*
X184240357Y-116964285D01*
X184287976Y-117059523D01*
X184383214Y-117154761D01*
X184526071Y-117202380D01*
X184764166Y-117202380D01*
X183335595Y-116535714D02*
X183335595Y-117202380D01*
X183573690Y-116154761D02*
X183811785Y-116869047D01*
X183192738Y-116869047D01*
X182907023Y-116202380D02*
X182240357Y-116202380D01*
X182668928Y-117202380D01*
X148907023Y-136154761D02*
X148764166Y-136202380D01*
X148526071Y-136202380D01*
X148430833Y-136154761D01*
X148383214Y-136107142D01*
X148335595Y-136011904D01*
X148335595Y-135916666D01*
X148383214Y-135821428D01*
X148430833Y-135773809D01*
X148526071Y-135726190D01*
X148716547Y-135678571D01*
X148811785Y-135630952D01*
X148859404Y-135583333D01*
X148907023Y-135488095D01*
X148907023Y-135392857D01*
X148859404Y-135297619D01*
X148811785Y-135250000D01*
X148716547Y-135202380D01*
X148478452Y-135202380D01*
X148335595Y-135250000D01*
X148002261Y-135202380D02*
X147764166Y-136202380D01*
X147573690Y-135488095D01*
X147383214Y-136202380D01*
X147145119Y-135202380D01*
X146764166Y-136202380D02*
X146764166Y-135202380D01*
X146526071Y-135202380D01*
X146383214Y-135250000D01*
X146287976Y-135345238D01*
X146240357Y-135440476D01*
X146192738Y-135630952D01*
X146192738Y-135773809D01*
X146240357Y-135964285D01*
X146287976Y-136059523D01*
X146383214Y-136154761D01*
X146526071Y-136202380D01*
X146764166Y-136202380D01*
X145287976Y-135202380D02*
X145764166Y-135202380D01*
X145811785Y-135678571D01*
X145764166Y-135630952D01*
X145668928Y-135583333D01*
X145430833Y-135583333D01*
X145335595Y-135630952D01*
X145287976Y-135678571D01*
X145240357Y-135773809D01*
X145240357Y-136011904D01*
X145287976Y-136107142D01*
X145335595Y-136154761D01*
X145430833Y-136202380D01*
X145668928Y-136202380D01*
X145764166Y-136154761D01*
X145811785Y-136107142D01*
X144335595Y-135202380D02*
X144811785Y-135202380D01*
X144859404Y-135678571D01*
X144811785Y-135630952D01*
X144716547Y-135583333D01*
X144478452Y-135583333D01*
X144383214Y-135630952D01*
X144335595Y-135678571D01*
X144287976Y-135773809D01*
X144287976Y-136011904D01*
X144335595Y-136107142D01*
X144383214Y-136154761D01*
X144478452Y-136202380D01*
X144716547Y-136202380D01*
X144811785Y-136154761D01*
X144859404Y-136107142D01*
X148907023Y-50654761D02*
X148764166Y-50702380D01*
X148526071Y-50702380D01*
X148430833Y-50654761D01*
X148383214Y-50607142D01*
X148335595Y-50511904D01*
X148335595Y-50416666D01*
X148383214Y-50321428D01*
X148430833Y-50273809D01*
X148526071Y-50226190D01*
X148716547Y-50178571D01*
X148811785Y-50130952D01*
X148859404Y-50083333D01*
X148907023Y-49988095D01*
X148907023Y-49892857D01*
X148859404Y-49797619D01*
X148811785Y-49750000D01*
X148716547Y-49702380D01*
X148478452Y-49702380D01*
X148335595Y-49750000D01*
X148002261Y-49702380D02*
X147764166Y-50702380D01*
X147573690Y-49988095D01*
X147383214Y-50702380D01*
X147145119Y-49702380D01*
X146764166Y-50702380D02*
X146764166Y-49702380D01*
X146526071Y-49702380D01*
X146383214Y-49750000D01*
X146287976Y-49845238D01*
X146240357Y-49940476D01*
X146192738Y-50130952D01*
X146192738Y-50273809D01*
X146240357Y-50464285D01*
X146287976Y-50559523D01*
X146383214Y-50654761D01*
X146526071Y-50702380D01*
X146764166Y-50702380D01*
X145240357Y-50702380D02*
X145811785Y-50702380D01*
X145526071Y-50702380D02*
X145526071Y-49702380D01*
X145621309Y-49845238D01*
X145716547Y-49940476D01*
X145811785Y-49988095D01*
X144335595Y-49702380D02*
X144811785Y-49702380D01*
X144859404Y-50178571D01*
X144811785Y-50130952D01*
X144716547Y-50083333D01*
X144478452Y-50083333D01*
X144383214Y-50130952D01*
X144335595Y-50178571D01*
X144287976Y-50273809D01*
X144287976Y-50511904D01*
X144335595Y-50607142D01*
X144383214Y-50654761D01*
X144478452Y-50702380D01*
X144716547Y-50702380D01*
X144811785Y-50654761D01*
X144859404Y-50607142D01*
X110907023Y-140904761D02*
X110764166Y-140952380D01*
X110526071Y-140952380D01*
X110430833Y-140904761D01*
X110383214Y-140857142D01*
X110335595Y-140761904D01*
X110335595Y-140666666D01*
X110383214Y-140571428D01*
X110430833Y-140523809D01*
X110526071Y-140476190D01*
X110716547Y-140428571D01*
X110811785Y-140380952D01*
X110859404Y-140333333D01*
X110907023Y-140238095D01*
X110907023Y-140142857D01*
X110859404Y-140047619D01*
X110811785Y-140000000D01*
X110716547Y-139952380D01*
X110478452Y-139952380D01*
X110335595Y-140000000D01*
X110002261Y-139952380D02*
X109764166Y-140952380D01*
X109573690Y-140238095D01*
X109383214Y-140952380D01*
X109145119Y-139952380D01*
X108764166Y-140952380D02*
X108764166Y-139952380D01*
X108526071Y-139952380D01*
X108383214Y-140000000D01*
X108287976Y-140095238D01*
X108240357Y-140190476D01*
X108192738Y-140380952D01*
X108192738Y-140523809D01*
X108240357Y-140714285D01*
X108287976Y-140809523D01*
X108383214Y-140904761D01*
X108526071Y-140952380D01*
X108764166Y-140952380D01*
X107287976Y-139952380D02*
X107764166Y-139952380D01*
X107811785Y-140428571D01*
X107764166Y-140380952D01*
X107668928Y-140333333D01*
X107430833Y-140333333D01*
X107335595Y-140380952D01*
X107287976Y-140428571D01*
X107240357Y-140523809D01*
X107240357Y-140761904D01*
X107287976Y-140857142D01*
X107335595Y-140904761D01*
X107430833Y-140952380D01*
X107668928Y-140952380D01*
X107764166Y-140904761D01*
X107811785Y-140857142D01*
X106907023Y-139952380D02*
X106287976Y-139952380D01*
X106621309Y-140333333D01*
X106478452Y-140333333D01*
X106383214Y-140380952D01*
X106335595Y-140428571D01*
X106287976Y-140523809D01*
X106287976Y-140761904D01*
X106335595Y-140857142D01*
X106383214Y-140904761D01*
X106478452Y-140952380D01*
X106764166Y-140952380D01*
X106859404Y-140904761D01*
X106907023Y-140857142D01*
X205907023Y-83904761D02*
X205764166Y-83952380D01*
X205526071Y-83952380D01*
X205430833Y-83904761D01*
X205383214Y-83857142D01*
X205335595Y-83761904D01*
X205335595Y-83666666D01*
X205383214Y-83571428D01*
X205430833Y-83523809D01*
X205526071Y-83476190D01*
X205716547Y-83428571D01*
X205811785Y-83380952D01*
X205859404Y-83333333D01*
X205907023Y-83238095D01*
X205907023Y-83142857D01*
X205859404Y-83047619D01*
X205811785Y-83000000D01*
X205716547Y-82952380D01*
X205478452Y-82952380D01*
X205335595Y-83000000D01*
X205002261Y-82952380D02*
X204764166Y-83952380D01*
X204573690Y-83238095D01*
X204383214Y-83952380D01*
X204145119Y-82952380D01*
X203764166Y-83952380D02*
X203764166Y-82952380D01*
X203526071Y-82952380D01*
X203383214Y-83000000D01*
X203287976Y-83095238D01*
X203240357Y-83190476D01*
X203192738Y-83380952D01*
X203192738Y-83523809D01*
X203240357Y-83714285D01*
X203287976Y-83809523D01*
X203383214Y-83904761D01*
X203526071Y-83952380D01*
X203764166Y-83952380D01*
X202811785Y-83047619D02*
X202764166Y-83000000D01*
X202668928Y-82952380D01*
X202430833Y-82952380D01*
X202335595Y-83000000D01*
X202287976Y-83047619D01*
X202240357Y-83142857D01*
X202240357Y-83238095D01*
X202287976Y-83380952D01*
X202859404Y-83952380D01*
X202240357Y-83952380D01*
X201668928Y-83380952D02*
X201764166Y-83333333D01*
X201811785Y-83285714D01*
X201859404Y-83190476D01*
X201859404Y-83142857D01*
X201811785Y-83047619D01*
X201764166Y-83000000D01*
X201668928Y-82952380D01*
X201478452Y-82952380D01*
X201383214Y-83000000D01*
X201335595Y-83047619D01*
X201287976Y-83142857D01*
X201287976Y-83190476D01*
X201335595Y-83285714D01*
X201383214Y-83333333D01*
X201478452Y-83380952D01*
X201668928Y-83380952D01*
X201764166Y-83428571D01*
X201811785Y-83476190D01*
X201859404Y-83571428D01*
X201859404Y-83761904D01*
X201811785Y-83857142D01*
X201764166Y-83904761D01*
X201668928Y-83952380D01*
X201478452Y-83952380D01*
X201383214Y-83904761D01*
X201335595Y-83857142D01*
X201287976Y-83761904D01*
X201287976Y-83571428D01*
X201335595Y-83476190D01*
X201383214Y-83428571D01*
X201478452Y-83380952D01*
X91907023Y-121904761D02*
X91764166Y-121952380D01*
X91526071Y-121952380D01*
X91430833Y-121904761D01*
X91383214Y-121857142D01*
X91335595Y-121761904D01*
X91335595Y-121666666D01*
X91383214Y-121571428D01*
X91430833Y-121523809D01*
X91526071Y-121476190D01*
X91716547Y-121428571D01*
X91811785Y-121380952D01*
X91859404Y-121333333D01*
X91907023Y-121238095D01*
X91907023Y-121142857D01*
X91859404Y-121047619D01*
X91811785Y-121000000D01*
X91716547Y-120952380D01*
X91478452Y-120952380D01*
X91335595Y-121000000D01*
X91002261Y-120952380D02*
X90764166Y-121952380D01*
X90573690Y-121238095D01*
X90383214Y-121952380D01*
X90145119Y-120952380D01*
X89764166Y-121952380D02*
X89764166Y-120952380D01*
X89526071Y-120952380D01*
X89383214Y-121000000D01*
X89287976Y-121095238D01*
X89240357Y-121190476D01*
X89192738Y-121380952D01*
X89192738Y-121523809D01*
X89240357Y-121714285D01*
X89287976Y-121809523D01*
X89383214Y-121904761D01*
X89526071Y-121952380D01*
X89764166Y-121952380D01*
X88335595Y-121285714D02*
X88335595Y-121952380D01*
X88573690Y-120904761D02*
X88811785Y-121619047D01*
X88192738Y-121619047D01*
X87859404Y-121047619D02*
X87811785Y-121000000D01*
X87716547Y-120952380D01*
X87478452Y-120952380D01*
X87383214Y-121000000D01*
X87335595Y-121047619D01*
X87287976Y-121142857D01*
X87287976Y-121238095D01*
X87335595Y-121380952D01*
X87907023Y-121952380D01*
X87287976Y-121952380D01*
X133190476Y-138202380D02*
X133523809Y-137726190D01*
X133761904Y-138202380D02*
X133761904Y-137202380D01*
X133380952Y-137202380D01*
X133285714Y-137250000D01*
X133238095Y-137297619D01*
X133190476Y-137392857D01*
X133190476Y-137535714D01*
X133238095Y-137630952D01*
X133285714Y-137678571D01*
X133380952Y-137726190D01*
X133761904Y-137726190D01*
X132809523Y-138154761D02*
X132666666Y-138202380D01*
X132428571Y-138202380D01*
X132333333Y-138154761D01*
X132285714Y-138107142D01*
X132238095Y-138011904D01*
X132238095Y-137916666D01*
X132285714Y-137821428D01*
X132333333Y-137773809D01*
X132428571Y-137726190D01*
X132619047Y-137678571D01*
X132714285Y-137630952D01*
X132761904Y-137583333D01*
X132809523Y-137488095D01*
X132809523Y-137392857D01*
X132761904Y-137297619D01*
X132714285Y-137250000D01*
X132619047Y-137202380D01*
X132380952Y-137202380D01*
X132238095Y-137250000D01*
X131904761Y-137202380D02*
X131666666Y-138202380D01*
X131476190Y-137488095D01*
X131285714Y-138202380D01*
X131047619Y-137202380D01*
X130666666Y-138202380D02*
X130666666Y-137202380D01*
X130428571Y-137202380D01*
X130285714Y-137250000D01*
X130190476Y-137345238D01*
X130142857Y-137440476D01*
X130095238Y-137630952D01*
X130095238Y-137773809D01*
X130142857Y-137964285D01*
X130190476Y-138059523D01*
X130285714Y-138154761D01*
X130428571Y-138202380D01*
X130666666Y-138202380D01*
X129190476Y-137202380D02*
X129666666Y-137202380D01*
X129714285Y-137678571D01*
X129666666Y-137630952D01*
X129571428Y-137583333D01*
X129333333Y-137583333D01*
X129238095Y-137630952D01*
X129190476Y-137678571D01*
X129142857Y-137773809D01*
X129142857Y-138011904D01*
X129190476Y-138107142D01*
X129238095Y-138154761D01*
X129333333Y-138202380D01*
X129571428Y-138202380D01*
X129666666Y-138154761D01*
X129714285Y-138107142D01*
X128285714Y-137535714D02*
X128285714Y-138202380D01*
X128523809Y-137154761D02*
X128761904Y-137869047D01*
X128142857Y-137869047D01*
X110907023Y-121904761D02*
X110764166Y-121952380D01*
X110526071Y-121952380D01*
X110430833Y-121904761D01*
X110383214Y-121857142D01*
X110335595Y-121761904D01*
X110335595Y-121666666D01*
X110383214Y-121571428D01*
X110430833Y-121523809D01*
X110526071Y-121476190D01*
X110716547Y-121428571D01*
X110811785Y-121380952D01*
X110859404Y-121333333D01*
X110907023Y-121238095D01*
X110907023Y-121142857D01*
X110859404Y-121047619D01*
X110811785Y-121000000D01*
X110716547Y-120952380D01*
X110478452Y-120952380D01*
X110335595Y-121000000D01*
X110002261Y-120952380D02*
X109764166Y-121952380D01*
X109573690Y-121238095D01*
X109383214Y-121952380D01*
X109145119Y-120952380D01*
X108764166Y-121952380D02*
X108764166Y-120952380D01*
X108526071Y-120952380D01*
X108383214Y-121000000D01*
X108287976Y-121095238D01*
X108240357Y-121190476D01*
X108192738Y-121380952D01*
X108192738Y-121523809D01*
X108240357Y-121714285D01*
X108287976Y-121809523D01*
X108383214Y-121904761D01*
X108526071Y-121952380D01*
X108764166Y-121952380D01*
X107335595Y-121285714D02*
X107335595Y-121952380D01*
X107573690Y-120904761D02*
X107811785Y-121619047D01*
X107192738Y-121619047D01*
X106907023Y-120952380D02*
X106287976Y-120952380D01*
X106621309Y-121333333D01*
X106478452Y-121333333D01*
X106383214Y-121380952D01*
X106335595Y-121428571D01*
X106287976Y-121523809D01*
X106287976Y-121761904D01*
X106335595Y-121857142D01*
X106383214Y-121904761D01*
X106478452Y-121952380D01*
X106764166Y-121952380D01*
X106859404Y-121904761D01*
X106907023Y-121857142D01*
X167907023Y-136154761D02*
X167764166Y-136202380D01*
X167526071Y-136202380D01*
X167430833Y-136154761D01*
X167383214Y-136107142D01*
X167335595Y-136011904D01*
X167335595Y-135916666D01*
X167383214Y-135821428D01*
X167430833Y-135773809D01*
X167526071Y-135726190D01*
X167716547Y-135678571D01*
X167811785Y-135630952D01*
X167859404Y-135583333D01*
X167907023Y-135488095D01*
X167907023Y-135392857D01*
X167859404Y-135297619D01*
X167811785Y-135250000D01*
X167716547Y-135202380D01*
X167478452Y-135202380D01*
X167335595Y-135250000D01*
X167002261Y-135202380D02*
X166764166Y-136202380D01*
X166573690Y-135488095D01*
X166383214Y-136202380D01*
X166145119Y-135202380D01*
X165764166Y-136202380D02*
X165764166Y-135202380D01*
X165526071Y-135202380D01*
X165383214Y-135250000D01*
X165287976Y-135345238D01*
X165240357Y-135440476D01*
X165192738Y-135630952D01*
X165192738Y-135773809D01*
X165240357Y-135964285D01*
X165287976Y-136059523D01*
X165383214Y-136154761D01*
X165526071Y-136202380D01*
X165764166Y-136202380D01*
X164287976Y-135202380D02*
X164764166Y-135202380D01*
X164811785Y-135678571D01*
X164764166Y-135630952D01*
X164668928Y-135583333D01*
X164430833Y-135583333D01*
X164335595Y-135630952D01*
X164287976Y-135678571D01*
X164240357Y-135773809D01*
X164240357Y-136011904D01*
X164287976Y-136107142D01*
X164335595Y-136154761D01*
X164430833Y-136202380D01*
X164668928Y-136202380D01*
X164764166Y-136154761D01*
X164811785Y-136107142D01*
X163383214Y-135202380D02*
X163573690Y-135202380D01*
X163668928Y-135250000D01*
X163716547Y-135297619D01*
X163811785Y-135440476D01*
X163859404Y-135630952D01*
X163859404Y-136011904D01*
X163811785Y-136107142D01*
X163764166Y-136154761D01*
X163668928Y-136202380D01*
X163478452Y-136202380D01*
X163383214Y-136154761D01*
X163335595Y-136107142D01*
X163287976Y-136011904D01*
X163287976Y-135773809D01*
X163335595Y-135678571D01*
X163383214Y-135630952D01*
X163478452Y-135583333D01*
X163668928Y-135583333D01*
X163764166Y-135630952D01*
X163811785Y-135678571D01*
X163859404Y-135773809D01*
X91907023Y-140904761D02*
X91764166Y-140952380D01*
X91526071Y-140952380D01*
X91430833Y-140904761D01*
X91383214Y-140857142D01*
X91335595Y-140761904D01*
X91335595Y-140666666D01*
X91383214Y-140571428D01*
X91430833Y-140523809D01*
X91526071Y-140476190D01*
X91716547Y-140428571D01*
X91811785Y-140380952D01*
X91859404Y-140333333D01*
X91907023Y-140238095D01*
X91907023Y-140142857D01*
X91859404Y-140047619D01*
X91811785Y-140000000D01*
X91716547Y-139952380D01*
X91478452Y-139952380D01*
X91335595Y-140000000D01*
X91002261Y-139952380D02*
X90764166Y-140952380D01*
X90573690Y-140238095D01*
X90383214Y-140952380D01*
X90145119Y-139952380D01*
X89764166Y-140952380D02*
X89764166Y-139952380D01*
X89526071Y-139952380D01*
X89383214Y-140000000D01*
X89287976Y-140095238D01*
X89240357Y-140190476D01*
X89192738Y-140380952D01*
X89192738Y-140523809D01*
X89240357Y-140714285D01*
X89287976Y-140809523D01*
X89383214Y-140904761D01*
X89526071Y-140952380D01*
X89764166Y-140952380D01*
X88287976Y-139952380D02*
X88764166Y-139952380D01*
X88811785Y-140428571D01*
X88764166Y-140380952D01*
X88668928Y-140333333D01*
X88430833Y-140333333D01*
X88335595Y-140380952D01*
X88287976Y-140428571D01*
X88240357Y-140523809D01*
X88240357Y-140761904D01*
X88287976Y-140857142D01*
X88335595Y-140904761D01*
X88430833Y-140952380D01*
X88668928Y-140952380D01*
X88764166Y-140904761D01*
X88811785Y-140857142D01*
X87859404Y-140047619D02*
X87811785Y-140000000D01*
X87716547Y-139952380D01*
X87478452Y-139952380D01*
X87383214Y-140000000D01*
X87335595Y-140047619D01*
X87287976Y-140142857D01*
X87287976Y-140238095D01*
X87335595Y-140380952D01*
X87907023Y-140952380D01*
X87287976Y-140952380D01*
X228214285Y-110702380D02*
X228214285Y-111416666D01*
X228261904Y-111559523D01*
X228357142Y-111654761D01*
X228500000Y-111702380D01*
X228595238Y-111702380D01*
X227738095Y-111702380D02*
X227738095Y-110702380D01*
X227357142Y-110702380D01*
X227261904Y-110750000D01*
X227214285Y-110797619D01*
X227166666Y-110892857D01*
X227166666Y-111035714D01*
X227214285Y-111130952D01*
X227261904Y-111178571D01*
X227357142Y-111226190D01*
X227738095Y-111226190D01*
X226976190Y-111797619D02*
X226214285Y-111797619D01*
X225404761Y-111702380D02*
X225738095Y-111226190D01*
X225976190Y-111702380D02*
X225976190Y-110702380D01*
X225595238Y-110702380D01*
X225500000Y-110750000D01*
X225452380Y-110797619D01*
X225404761Y-110892857D01*
X225404761Y-111035714D01*
X225452380Y-111130952D01*
X225500000Y-111178571D01*
X225595238Y-111226190D01*
X225976190Y-111226190D01*
X224500000Y-110702380D02*
X224976190Y-110702380D01*
X225023809Y-111178571D01*
X224976190Y-111130952D01*
X224880952Y-111083333D01*
X224642857Y-111083333D01*
X224547619Y-111130952D01*
X224500000Y-111178571D01*
X224452380Y-111273809D01*
X224452380Y-111511904D01*
X224500000Y-111607142D01*
X224547619Y-111654761D01*
X224642857Y-111702380D01*
X224880952Y-111702380D01*
X224976190Y-111654761D01*
X225023809Y-111607142D01*
X228119047Y-102702380D02*
X228119047Y-103416666D01*
X228166666Y-103559523D01*
X228261904Y-103654761D01*
X228404761Y-103702380D01*
X228500000Y-103702380D01*
X227642857Y-103702380D02*
X227642857Y-102702380D01*
X227261904Y-102702380D01*
X227166666Y-102750000D01*
X227119047Y-102797619D01*
X227071428Y-102892857D01*
X227071428Y-103035714D01*
X227119047Y-103130952D01*
X227166666Y-103178571D01*
X227261904Y-103226190D01*
X227642857Y-103226190D01*
X226880952Y-103797619D02*
X226119047Y-103797619D01*
X225404761Y-103702380D02*
X225880952Y-103702380D01*
X225880952Y-102702380D01*
X225119047Y-102797619D02*
X225071428Y-102750000D01*
X224976190Y-102702380D01*
X224738095Y-102702380D01*
X224642857Y-102750000D01*
X224595238Y-102797619D01*
X224547619Y-102892857D01*
X224547619Y-102988095D01*
X224595238Y-103130952D01*
X225166666Y-103702380D01*
X224547619Y-103702380D01*
X228214285Y-106452380D02*
X228214285Y-107166666D01*
X228261904Y-107309523D01*
X228357142Y-107404761D01*
X228500000Y-107452380D01*
X228595238Y-107452380D01*
X227738095Y-107452380D02*
X227738095Y-106452380D01*
X227357142Y-106452380D01*
X227261904Y-106500000D01*
X227214285Y-106547619D01*
X227166666Y-106642857D01*
X227166666Y-106785714D01*
X227214285Y-106880952D01*
X227261904Y-106928571D01*
X227357142Y-106976190D01*
X227738095Y-106976190D01*
X226976190Y-107547619D02*
X226214285Y-107547619D01*
X225404761Y-107452380D02*
X225738095Y-106976190D01*
X225976190Y-107452380D02*
X225976190Y-106452380D01*
X225595238Y-106452380D01*
X225500000Y-106500000D01*
X225452380Y-106547619D01*
X225404761Y-106642857D01*
X225404761Y-106785714D01*
X225452380Y-106880952D01*
X225500000Y-106928571D01*
X225595238Y-106976190D01*
X225976190Y-106976190D01*
X224547619Y-106452380D02*
X224738095Y-106452380D01*
X224833333Y-106500000D01*
X224880952Y-106547619D01*
X224976190Y-106690476D01*
X225023809Y-106880952D01*
X225023809Y-107261904D01*
X224976190Y-107357142D01*
X224928571Y-107404761D01*
X224833333Y-107452380D01*
X224642857Y-107452380D01*
X224547619Y-107404761D01*
X224500000Y-107357142D01*
X224452380Y-107261904D01*
X224452380Y-107023809D01*
X224500000Y-106928571D01*
X224547619Y-106880952D01*
X224642857Y-106833333D01*
X224833333Y-106833333D01*
X224928571Y-106880952D01*
X224976190Y-106928571D01*
X225023809Y-107023809D01*
X228214285Y-118702380D02*
X228214285Y-119416666D01*
X228261904Y-119559523D01*
X228357142Y-119654761D01*
X228500000Y-119702380D01*
X228595238Y-119702380D01*
X227738095Y-119702380D02*
X227738095Y-118702380D01*
X227357142Y-118702380D01*
X227261904Y-118750000D01*
X227214285Y-118797619D01*
X227166666Y-118892857D01*
X227166666Y-119035714D01*
X227214285Y-119130952D01*
X227261904Y-119178571D01*
X227357142Y-119226190D01*
X227738095Y-119226190D01*
X226976190Y-119797619D02*
X226214285Y-119797619D01*
X225404761Y-119702380D02*
X225738095Y-119226190D01*
X225976190Y-119702380D02*
X225976190Y-118702380D01*
X225595238Y-118702380D01*
X225500000Y-118750000D01*
X225452380Y-118797619D01*
X225404761Y-118892857D01*
X225404761Y-119035714D01*
X225452380Y-119130952D01*
X225500000Y-119178571D01*
X225595238Y-119226190D01*
X225976190Y-119226190D01*
X225071428Y-118702380D02*
X224452380Y-118702380D01*
X224785714Y-119083333D01*
X224642857Y-119083333D01*
X224547619Y-119130952D01*
X224500000Y-119178571D01*
X224452380Y-119273809D01*
X224452380Y-119511904D01*
X224500000Y-119607142D01*
X224547619Y-119654761D01*
X224642857Y-119702380D01*
X224928571Y-119702380D01*
X225023809Y-119654761D01*
X225071428Y-119607142D01*
X228119047Y-98702380D02*
X228119047Y-99416666D01*
X228166666Y-99559523D01*
X228261904Y-99654761D01*
X228404761Y-99702380D01*
X228500000Y-99702380D01*
X227642857Y-99702380D02*
X227642857Y-98702380D01*
X227261904Y-98702380D01*
X227166666Y-98750000D01*
X227119047Y-98797619D01*
X227071428Y-98892857D01*
X227071428Y-99035714D01*
X227119047Y-99130952D01*
X227166666Y-99178571D01*
X227261904Y-99226190D01*
X227642857Y-99226190D01*
X226880952Y-99797619D02*
X226119047Y-99797619D01*
X225404761Y-99702380D02*
X225880952Y-99702380D01*
X225880952Y-98702380D01*
X224547619Y-99702380D02*
X225119047Y-99702380D01*
X224833333Y-99702380D02*
X224833333Y-98702380D01*
X224928571Y-98845238D01*
X225023809Y-98940476D01*
X225119047Y-98988095D01*
X228214285Y-114702380D02*
X228214285Y-115416666D01*
X228261904Y-115559523D01*
X228357142Y-115654761D01*
X228500000Y-115702380D01*
X228595238Y-115702380D01*
X227738095Y-115702380D02*
X227738095Y-114702380D01*
X227357142Y-114702380D01*
X227261904Y-114750000D01*
X227214285Y-114797619D01*
X227166666Y-114892857D01*
X227166666Y-115035714D01*
X227214285Y-115130952D01*
X227261904Y-115178571D01*
X227357142Y-115226190D01*
X227738095Y-115226190D01*
X226976190Y-115797619D02*
X226214285Y-115797619D01*
X225404761Y-115702380D02*
X225738095Y-115226190D01*
X225976190Y-115702380D02*
X225976190Y-114702380D01*
X225595238Y-114702380D01*
X225500000Y-114750000D01*
X225452380Y-114797619D01*
X225404761Y-114892857D01*
X225404761Y-115035714D01*
X225452380Y-115130952D01*
X225500000Y-115178571D01*
X225595238Y-115226190D01*
X225976190Y-115226190D01*
X224547619Y-115035714D02*
X224547619Y-115702380D01*
X224785714Y-114654761D02*
X225023809Y-115369047D01*
X224404761Y-115369047D01*
D13*
X223250000Y-94880000D02*
X229790000Y-94880000D01*
X229790000Y-97620000D02*
X223250000Y-97620000D01*
X223250000Y-97620000D02*
X223250000Y-94880000D01*
X229790000Y-94880000D02*
X229790000Y-97620000D01*
X230560000Y-96250000D02*
X229790000Y-96250000D01*
X222480000Y-96250000D02*
X223250000Y-96250000D01*
X229780000Y-94120000D02*
X223240000Y-94120000D01*
X223240000Y-94120000D02*
X223240000Y-91380000D01*
X222470000Y-92750000D02*
X223240000Y-92750000D01*
X223240000Y-91380000D02*
X229780000Y-91380000D01*
X230550000Y-92750000D02*
X229780000Y-92750000D01*
X229780000Y-91380000D02*
X229780000Y-94120000D01*
D10*
X74762000Y-98380000D02*
X74762000Y-96856000D01*
D12*
X72476000Y-96856000D02*
X72476000Y-98380000D01*
X75524000Y-98380000D02*
X75524000Y-96856000D01*
X75524000Y-96856000D02*
X72476000Y-96856000D01*
X72476000Y-98380000D02*
X75524000Y-98380000D01*
D14*
X67000000Y-99000000D02*
X81000000Y-99000000D01*
X81000000Y-99000000D02*
X81000000Y-113000000D01*
X81000000Y-113000000D02*
X67000000Y-113000000D01*
X67000000Y-113000000D02*
X67000000Y-99000000D01*
D12*
X186476000Y-46130000D02*
X189524000Y-46130000D01*
D10*
X188762000Y-46130000D02*
X188762000Y-44606000D01*
D12*
X189524000Y-46130000D02*
X189524000Y-44606000D01*
X186476000Y-44606000D02*
X186476000Y-46130000D01*
X189524000Y-44606000D02*
X186476000Y-44606000D01*
D14*
X181000000Y-46750000D02*
X195000000Y-46750000D01*
X195000000Y-46750000D02*
X195000000Y-60750000D01*
X195000000Y-60750000D02*
X181000000Y-60750000D01*
X181000000Y-60750000D02*
X181000000Y-46750000D01*
D10*
X234596500Y-128450000D02*
X234596500Y-134550000D01*
X222496500Y-128450000D02*
X222496500Y-134550000D01*
X234596500Y-134550000D02*
X222496500Y-134550000D01*
X234596500Y-128450000D02*
X222496500Y-128450000D01*
D12*
X167476000Y-79380000D02*
X170524000Y-79380000D01*
X167476000Y-77856000D02*
X167476000Y-79380000D01*
X170524000Y-79380000D02*
X170524000Y-77856000D01*
D10*
X169762000Y-79380000D02*
X169762000Y-77856000D01*
D12*
X170524000Y-77856000D02*
X167476000Y-77856000D01*
D14*
X162000000Y-80000000D02*
X176000000Y-80000000D01*
X176000000Y-80000000D02*
X176000000Y-94000000D01*
X176000000Y-94000000D02*
X162000000Y-94000000D01*
X162000000Y-94000000D02*
X162000000Y-80000000D01*
D12*
X167476000Y-58856000D02*
X167476000Y-60380000D01*
X170524000Y-58856000D02*
X167476000Y-58856000D01*
D10*
X169762000Y-60380000D02*
X169762000Y-58856000D01*
D12*
X170524000Y-60380000D02*
X170524000Y-58856000D01*
X167476000Y-60380000D02*
X170524000Y-60380000D01*
D14*
X162000000Y-61000000D02*
X176000000Y-61000000D01*
X176000000Y-61000000D02*
X176000000Y-75000000D01*
X176000000Y-75000000D02*
X162000000Y-75000000D01*
X162000000Y-75000000D02*
X162000000Y-61000000D01*
D10*
X207762000Y-50880000D02*
X207762000Y-49356000D01*
D12*
X205476000Y-50880000D02*
X208524000Y-50880000D01*
X208524000Y-50880000D02*
X208524000Y-49356000D01*
X205476000Y-49356000D02*
X205476000Y-50880000D01*
X208524000Y-49356000D02*
X205476000Y-49356000D01*
D14*
X200000000Y-51500000D02*
X214000000Y-51500000D01*
X214000000Y-51500000D02*
X214000000Y-65500000D01*
X214000000Y-65500000D02*
X200000000Y-65500000D01*
X200000000Y-65500000D02*
X200000000Y-51500000D01*
D12*
X75524000Y-77856000D02*
X72476000Y-77856000D01*
X72476000Y-77856000D02*
X72476000Y-79380000D01*
D10*
X74762000Y-79380000D02*
X74762000Y-77856000D01*
D12*
X75524000Y-79380000D02*
X75524000Y-77856000D01*
X72476000Y-79380000D02*
X75524000Y-79380000D01*
D14*
X67000000Y-80000000D02*
X81000000Y-80000000D01*
X81000000Y-80000000D02*
X81000000Y-94000000D01*
X81000000Y-94000000D02*
X67000000Y-94000000D01*
X67000000Y-94000000D02*
X67000000Y-80000000D01*
D12*
X113524000Y-68356000D02*
X110476000Y-68356000D01*
X110476000Y-68356000D02*
X110476000Y-69880000D01*
X110476000Y-69880000D02*
X113524000Y-69880000D01*
D10*
X112762000Y-69880000D02*
X112762000Y-68356000D01*
D12*
X113524000Y-69880000D02*
X113524000Y-68356000D01*
D14*
X105000000Y-70500000D02*
X119000000Y-70500000D01*
X119000000Y-70500000D02*
X119000000Y-84500000D01*
X119000000Y-84500000D02*
X105000000Y-84500000D01*
X105000000Y-84500000D02*
X105000000Y-70500000D01*
D12*
X205476000Y-125356000D02*
X205476000Y-126880000D01*
D10*
X207762000Y-126880000D02*
X207762000Y-125356000D01*
D12*
X208524000Y-125356000D02*
X205476000Y-125356000D01*
X208524000Y-126880000D02*
X208524000Y-125356000D01*
X205476000Y-126880000D02*
X208524000Y-126880000D01*
D14*
X200000000Y-127500000D02*
X214000000Y-127500000D01*
X214000000Y-127500000D02*
X214000000Y-141500000D01*
X214000000Y-141500000D02*
X200000000Y-141500000D01*
X200000000Y-141500000D02*
X200000000Y-127500000D01*
D12*
X205536000Y-108012000D02*
X208584000Y-108012000D01*
D13*
X207000000Y-115000000D02*
X207000000Y-116000000D01*
X206500000Y-115500000D02*
X207500000Y-115500000D01*
D10*
X207822000Y-108012000D02*
X207822000Y-106488000D01*
D12*
X208584000Y-108012000D02*
X208584000Y-106488000D01*
X205536000Y-106488000D02*
X205536000Y-108012000D01*
X208584000Y-106488000D02*
X205536000Y-106488000D01*
D14*
X200400000Y-109300000D02*
X213600000Y-109300000D01*
X213600000Y-109300000D02*
X213600000Y-121700000D01*
X213600000Y-121700000D02*
X200400000Y-121700000D01*
X200400000Y-121700000D02*
X200400000Y-109300000D01*
D13*
X210000000Y-115500000D02*
G75*
G03*
X210000000Y-115500000I-3000000J0D01*
G01*
D10*
X169762000Y-41380000D02*
X169762000Y-39856000D01*
D12*
X170524000Y-41380000D02*
X170524000Y-39856000D01*
X167476000Y-39856000D02*
X167476000Y-41380000D01*
X167476000Y-41380000D02*
X170524000Y-41380000D01*
X170524000Y-39856000D02*
X167476000Y-39856000D01*
D14*
X162000000Y-42000000D02*
X176000000Y-42000000D01*
X176000000Y-42000000D02*
X176000000Y-56000000D01*
X176000000Y-56000000D02*
X162000000Y-56000000D01*
X162000000Y-56000000D02*
X162000000Y-42000000D01*
D12*
X72476000Y-115856000D02*
X72476000Y-117380000D01*
X75524000Y-117380000D02*
X75524000Y-115856000D01*
X75524000Y-115856000D02*
X72476000Y-115856000D01*
D10*
X74762000Y-117380000D02*
X74762000Y-115856000D01*
D12*
X72476000Y-117380000D02*
X75524000Y-117380000D01*
D14*
X67000000Y-118000000D02*
X81000000Y-118000000D01*
X81000000Y-118000000D02*
X81000000Y-132000000D01*
X81000000Y-132000000D02*
X67000000Y-132000000D01*
X67000000Y-132000000D02*
X67000000Y-118000000D01*
D12*
X148476000Y-74630000D02*
X151524000Y-74630000D01*
D10*
X150762000Y-74630000D02*
X150762000Y-73106000D01*
D12*
X148476000Y-73106000D02*
X148476000Y-74630000D01*
X151524000Y-74630000D02*
X151524000Y-73106000D01*
X151524000Y-73106000D02*
X148476000Y-73106000D01*
D14*
X143000000Y-75250000D02*
X157000000Y-75250000D01*
X157000000Y-75250000D02*
X157000000Y-89250000D01*
X157000000Y-89250000D02*
X143000000Y-89250000D01*
X143000000Y-89250000D02*
X143000000Y-75250000D01*
D10*
X131762000Y-79380000D02*
X131762000Y-77856000D01*
D12*
X129476000Y-79380000D02*
X132524000Y-79380000D01*
X132524000Y-77856000D02*
X129476000Y-77856000D01*
X129476000Y-77856000D02*
X129476000Y-79380000D01*
X132524000Y-79380000D02*
X132524000Y-77856000D01*
D14*
X124000000Y-80000000D02*
X138000000Y-80000000D01*
X138000000Y-80000000D02*
X138000000Y-94000000D01*
X138000000Y-94000000D02*
X124000000Y-94000000D01*
X124000000Y-94000000D02*
X124000000Y-80000000D01*
D12*
X94524000Y-88880000D02*
X94524000Y-87356000D01*
D10*
X93762000Y-88880000D02*
X93762000Y-87356000D01*
D12*
X91476000Y-87356000D02*
X91476000Y-88880000D01*
X94524000Y-87356000D02*
X91476000Y-87356000D01*
X91476000Y-88880000D02*
X94524000Y-88880000D01*
D14*
X86000000Y-89500000D02*
X100000000Y-89500000D01*
X100000000Y-89500000D02*
X100000000Y-103500000D01*
X100000000Y-103500000D02*
X86000000Y-103500000D01*
X86000000Y-103500000D02*
X86000000Y-89500000D01*
D10*
X131762000Y-60380000D02*
X131762000Y-58856000D01*
D12*
X129476000Y-58856000D02*
X129476000Y-60380000D01*
X132524000Y-60380000D02*
X132524000Y-58856000D01*
X132524000Y-58856000D02*
X129476000Y-58856000D01*
X129476000Y-60380000D02*
X132524000Y-60380000D01*
D14*
X124000000Y-61000000D02*
X138000000Y-61000000D01*
X138000000Y-61000000D02*
X138000000Y-75000000D01*
X138000000Y-75000000D02*
X124000000Y-75000000D01*
X124000000Y-75000000D02*
X124000000Y-61000000D01*
D12*
X72536000Y-41512000D02*
X75584000Y-41512000D01*
D13*
X74000000Y-48500000D02*
X74000000Y-49500000D01*
D12*
X72536000Y-39988000D02*
X72536000Y-41512000D01*
D13*
X73500000Y-49000000D02*
X74500000Y-49000000D01*
D12*
X75584000Y-39988000D02*
X72536000Y-39988000D01*
D10*
X74822000Y-41512000D02*
X74822000Y-39988000D01*
D12*
X75584000Y-41512000D02*
X75584000Y-39988000D01*
D14*
X67400000Y-42800000D02*
X80600000Y-42800000D01*
X80600000Y-42800000D02*
X80600000Y-55200000D01*
X80600000Y-55200000D02*
X67400000Y-55200000D01*
X67400000Y-55200000D02*
X67400000Y-42800000D01*
D13*
X77000000Y-49000000D02*
G75*
G03*
X77000000Y-49000000I-3000000J0D01*
G01*
D12*
X151524000Y-92106000D02*
X148476000Y-92106000D01*
D10*
X150762000Y-93630000D02*
X150762000Y-92106000D01*
D12*
X151524000Y-93630000D02*
X151524000Y-92106000D01*
X148476000Y-92106000D02*
X148476000Y-93630000D01*
X148476000Y-93630000D02*
X151524000Y-93630000D01*
D14*
X143000000Y-94250000D02*
X157000000Y-94250000D01*
X157000000Y-94250000D02*
X157000000Y-108250000D01*
X157000000Y-108250000D02*
X143000000Y-108250000D01*
X143000000Y-108250000D02*
X143000000Y-94250000D01*
D12*
X129476000Y-41380000D02*
X132524000Y-41380000D01*
X129476000Y-39856000D02*
X129476000Y-41380000D01*
X132524000Y-39856000D02*
X129476000Y-39856000D01*
D10*
X131762000Y-41380000D02*
X131762000Y-39856000D01*
D12*
X132524000Y-41380000D02*
X132524000Y-39856000D01*
D14*
X124000000Y-42000000D02*
X138000000Y-42000000D01*
X138000000Y-42000000D02*
X138000000Y-56000000D01*
X138000000Y-56000000D02*
X124000000Y-56000000D01*
X124000000Y-56000000D02*
X124000000Y-42000000D01*
D12*
X94524000Y-49356000D02*
X91476000Y-49356000D01*
X91476000Y-49356000D02*
X91476000Y-50880000D01*
X91476000Y-50880000D02*
X94524000Y-50880000D01*
D10*
X93762000Y-50880000D02*
X93762000Y-49356000D01*
D12*
X94524000Y-50880000D02*
X94524000Y-49356000D01*
D14*
X86000000Y-51500000D02*
X100000000Y-51500000D01*
X100000000Y-51500000D02*
X100000000Y-65500000D01*
X100000000Y-65500000D02*
X86000000Y-65500000D01*
X86000000Y-65500000D02*
X86000000Y-51500000D01*
D12*
X189524000Y-122130000D02*
X189524000Y-120606000D01*
X186476000Y-120606000D02*
X186476000Y-122130000D01*
D10*
X188762000Y-122130000D02*
X188762000Y-120606000D01*
D12*
X186476000Y-122130000D02*
X189524000Y-122130000D01*
X189524000Y-120606000D02*
X186476000Y-120606000D01*
D14*
X181000000Y-122750000D02*
X195000000Y-122750000D01*
X195000000Y-122750000D02*
X195000000Y-136750000D01*
X195000000Y-136750000D02*
X181000000Y-136750000D01*
X181000000Y-136750000D02*
X181000000Y-122750000D01*
D12*
X189524000Y-84130000D02*
X189524000Y-82606000D01*
X186476000Y-84130000D02*
X189524000Y-84130000D01*
X186476000Y-82606000D02*
X186476000Y-84130000D01*
X189524000Y-82606000D02*
X186476000Y-82606000D01*
D10*
X188762000Y-84130000D02*
X188762000Y-82606000D01*
D14*
X181000000Y-84750000D02*
X195000000Y-84750000D01*
X195000000Y-84750000D02*
X195000000Y-98750000D01*
X195000000Y-98750000D02*
X181000000Y-98750000D01*
X181000000Y-98750000D02*
X181000000Y-84750000D01*
D10*
X131762000Y-98380000D02*
X131762000Y-96856000D01*
D12*
X132524000Y-98380000D02*
X132524000Y-96856000D01*
X129476000Y-96856000D02*
X129476000Y-98380000D01*
X129476000Y-98380000D02*
X132524000Y-98380000D01*
X132524000Y-96856000D02*
X129476000Y-96856000D01*
D14*
X124000000Y-99000000D02*
X138000000Y-99000000D01*
X138000000Y-99000000D02*
X138000000Y-113000000D01*
X138000000Y-113000000D02*
X124000000Y-113000000D01*
X124000000Y-113000000D02*
X124000000Y-99000000D01*
D12*
X186476000Y-65130000D02*
X189524000Y-65130000D01*
X189524000Y-63606000D02*
X186476000Y-63606000D01*
X186476000Y-63606000D02*
X186476000Y-65130000D01*
X189524000Y-65130000D02*
X189524000Y-63606000D01*
D10*
X188762000Y-65130000D02*
X188762000Y-63606000D01*
D14*
X181000000Y-65750000D02*
X195000000Y-65750000D01*
X195000000Y-65750000D02*
X195000000Y-79750000D01*
X195000000Y-79750000D02*
X181000000Y-79750000D01*
X181000000Y-79750000D02*
X181000000Y-65750000D01*
D12*
X91476000Y-68356000D02*
X91476000Y-69880000D01*
D10*
X93762000Y-69880000D02*
X93762000Y-68356000D01*
D12*
X94524000Y-69880000D02*
X94524000Y-68356000D01*
X94524000Y-68356000D02*
X91476000Y-68356000D01*
X91476000Y-69880000D02*
X94524000Y-69880000D01*
D14*
X86000000Y-70500000D02*
X100000000Y-70500000D01*
X100000000Y-70500000D02*
X100000000Y-84500000D01*
X100000000Y-84500000D02*
X86000000Y-84500000D01*
X86000000Y-84500000D02*
X86000000Y-70500000D01*
D12*
X110476000Y-88880000D02*
X113524000Y-88880000D01*
X113524000Y-87356000D02*
X110476000Y-87356000D01*
X113524000Y-88880000D02*
X113524000Y-87356000D01*
X110476000Y-87356000D02*
X110476000Y-88880000D01*
D10*
X112762000Y-88880000D02*
X112762000Y-87356000D01*
D14*
X105000000Y-89500000D02*
X119000000Y-89500000D01*
X119000000Y-89500000D02*
X119000000Y-103500000D01*
X119000000Y-103500000D02*
X105000000Y-103500000D01*
X105000000Y-103500000D02*
X105000000Y-89500000D01*
D12*
X110476000Y-49356000D02*
X110476000Y-50880000D01*
X110476000Y-50880000D02*
X113524000Y-50880000D01*
D10*
X112762000Y-50880000D02*
X112762000Y-49356000D01*
D12*
X113524000Y-50880000D02*
X113524000Y-49356000D01*
X113524000Y-49356000D02*
X110476000Y-49356000D01*
D14*
X105000000Y-51500000D02*
X119000000Y-51500000D01*
X119000000Y-51500000D02*
X119000000Y-65500000D01*
X119000000Y-65500000D02*
X105000000Y-65500000D01*
X105000000Y-65500000D02*
X105000000Y-51500000D01*
D10*
X207762000Y-88880000D02*
X207762000Y-87356000D01*
D12*
X208524000Y-87356000D02*
X205476000Y-87356000D01*
X205476000Y-87356000D02*
X205476000Y-88880000D01*
X205476000Y-88880000D02*
X208524000Y-88880000D01*
X208524000Y-88880000D02*
X208524000Y-87356000D01*
D14*
X200000000Y-89500000D02*
X214000000Y-89500000D01*
X214000000Y-89500000D02*
X214000000Y-103500000D01*
X214000000Y-103500000D02*
X200000000Y-103500000D01*
X200000000Y-103500000D02*
X200000000Y-89500000D01*
D12*
X75524000Y-58856000D02*
X72476000Y-58856000D01*
X72476000Y-58856000D02*
X72476000Y-60380000D01*
X75524000Y-60380000D02*
X75524000Y-58856000D01*
X72476000Y-60380000D02*
X75524000Y-60380000D01*
D10*
X74762000Y-60380000D02*
X74762000Y-58856000D01*
D14*
X67000000Y-61000000D02*
X81000000Y-61000000D01*
X81000000Y-61000000D02*
X81000000Y-75000000D01*
X81000000Y-75000000D02*
X67000000Y-75000000D01*
X67000000Y-75000000D02*
X67000000Y-61000000D01*
D12*
X167476000Y-98380000D02*
X170524000Y-98380000D01*
X170524000Y-96856000D02*
X167476000Y-96856000D01*
X170524000Y-98380000D02*
X170524000Y-96856000D01*
X167476000Y-96856000D02*
X167476000Y-98380000D01*
D10*
X169762000Y-98380000D02*
X169762000Y-96856000D01*
D14*
X162000000Y-99000000D02*
X176000000Y-99000000D01*
X176000000Y-99000000D02*
X176000000Y-113000000D01*
X176000000Y-113000000D02*
X162000000Y-113000000D01*
X162000000Y-113000000D02*
X162000000Y-99000000D01*
D12*
X151524000Y-55630000D02*
X151524000Y-54106000D01*
X151524000Y-54106000D02*
X148476000Y-54106000D01*
X148476000Y-55630000D02*
X151524000Y-55630000D01*
D10*
X150762000Y-55630000D02*
X150762000Y-54106000D01*
D12*
X148476000Y-54106000D02*
X148476000Y-55630000D01*
D14*
X143000000Y-56250000D02*
X157000000Y-56250000D01*
X157000000Y-56250000D02*
X157000000Y-70250000D01*
X157000000Y-70250000D02*
X143000000Y-70250000D01*
X143000000Y-70250000D02*
X143000000Y-56250000D01*
D15*
X220400000Y-56746750D02*
X220400000Y-59286750D01*
X217860000Y-54206750D02*
X217860000Y-87226750D01*
X220400000Y-56746750D02*
X217860000Y-56746750D01*
X235640000Y-87226750D02*
X235640000Y-54206750D01*
X220400000Y-59286750D02*
X217860000Y-59286750D01*
X217860000Y-87226750D02*
X235640000Y-87226750D01*
X235640000Y-54206750D02*
X217860000Y-54206750D01*
G36*
X232694635Y-63435780D02*
G01*
X232594635Y-63435780D01*
X232594635Y-63235780D01*
X232694635Y-63235780D01*
X232694635Y-63435780D01*
G37*
D10*
X232694635Y-63435780D02*
X232594635Y-63435780D01*
X232594635Y-63235780D01*
X232694635Y-63235780D01*
X232694635Y-63435780D01*
G36*
X232894635Y-63135780D02*
G01*
X232794635Y-63135780D01*
X232794635Y-63035780D01*
X232894635Y-63035780D01*
X232894635Y-63135780D01*
G37*
X232894635Y-63135780D02*
X232794635Y-63135780D01*
X232794635Y-63035780D01*
X232894635Y-63035780D01*
X232894635Y-63135780D01*
G36*
X233094635Y-63435780D02*
G01*
X232994635Y-63435780D01*
X232994635Y-62635780D01*
X233094635Y-62635780D01*
X233094635Y-63435780D01*
G37*
X233094635Y-63435780D02*
X232994635Y-63435780D01*
X232994635Y-62635780D01*
X233094635Y-62635780D01*
X233094635Y-63435780D01*
G36*
X233094635Y-62735780D02*
G01*
X232594635Y-62735780D01*
X232594635Y-62635780D01*
X233094635Y-62635780D01*
X233094635Y-62735780D01*
G37*
X233094635Y-62735780D02*
X232594635Y-62735780D01*
X232594635Y-62635780D01*
X233094635Y-62635780D01*
X233094635Y-62735780D01*
G36*
X232694635Y-62935780D02*
G01*
X232594635Y-62935780D01*
X232594635Y-62635780D01*
X232694635Y-62635780D01*
X232694635Y-62935780D01*
G37*
X232694635Y-62935780D02*
X232594635Y-62935780D01*
X232594635Y-62635780D01*
X232694635Y-62635780D01*
X232694635Y-62935780D01*
D13*
X232500000Y-126770000D02*
X232500000Y-88770000D01*
X220500000Y-88770000D02*
X220500000Y-126770000D01*
X232500000Y-88770000D02*
X220500000Y-88770000D01*
X232500000Y-126770000D02*
X220500000Y-126770000D01*
D12*
X189524000Y-101606000D02*
X186476000Y-101606000D01*
X186476000Y-103130000D02*
X189524000Y-103130000D01*
D10*
X188762000Y-103130000D02*
X188762000Y-101606000D01*
D12*
X189524000Y-103130000D02*
X189524000Y-101606000D01*
X186476000Y-101606000D02*
X186476000Y-103130000D01*
D14*
X181000000Y-103750000D02*
X195000000Y-103750000D01*
X195000000Y-103750000D02*
X195000000Y-117750000D01*
X195000000Y-117750000D02*
X181000000Y-117750000D01*
X181000000Y-117750000D02*
X181000000Y-103750000D01*
D12*
X148476000Y-122130000D02*
X151524000Y-122130000D01*
X148476000Y-120606000D02*
X148476000Y-122130000D01*
X151524000Y-122130000D02*
X151524000Y-120606000D01*
X151524000Y-120606000D02*
X148476000Y-120606000D01*
D10*
X150762000Y-122130000D02*
X150762000Y-120606000D01*
D14*
X143000000Y-122750000D02*
X157000000Y-122750000D01*
X157000000Y-122750000D02*
X157000000Y-136750000D01*
X157000000Y-136750000D02*
X143000000Y-136750000D01*
X143000000Y-136750000D02*
X143000000Y-122750000D01*
D10*
X150762000Y-36630000D02*
X150762000Y-35106000D01*
D12*
X148476000Y-36630000D02*
X151524000Y-36630000D01*
X151524000Y-36630000D02*
X151524000Y-35106000D01*
X148476000Y-35106000D02*
X148476000Y-36630000D01*
X151524000Y-35106000D02*
X148476000Y-35106000D01*
D14*
X143000000Y-37250000D02*
X157000000Y-37250000D01*
X157000000Y-37250000D02*
X157000000Y-51250000D01*
X157000000Y-51250000D02*
X143000000Y-51250000D01*
X143000000Y-51250000D02*
X143000000Y-37250000D01*
D12*
X110476000Y-125356000D02*
X110476000Y-126880000D01*
D10*
X112762000Y-126880000D02*
X112762000Y-125356000D01*
D12*
X113524000Y-125356000D02*
X110476000Y-125356000D01*
X110476000Y-126880000D02*
X113524000Y-126880000D01*
X113524000Y-126880000D02*
X113524000Y-125356000D01*
D14*
X105000000Y-127500000D02*
X119000000Y-127500000D01*
X119000000Y-127500000D02*
X119000000Y-141500000D01*
X119000000Y-141500000D02*
X105000000Y-141500000D01*
X105000000Y-141500000D02*
X105000000Y-127500000D01*
D12*
X208524000Y-69880000D02*
X208524000Y-68356000D01*
X205476000Y-69880000D02*
X208524000Y-69880000D01*
D10*
X207762000Y-69880000D02*
X207762000Y-68356000D01*
D12*
X205476000Y-68356000D02*
X205476000Y-69880000D01*
X208524000Y-68356000D02*
X205476000Y-68356000D01*
D14*
X200000000Y-70500000D02*
X214000000Y-70500000D01*
X214000000Y-70500000D02*
X214000000Y-84500000D01*
X214000000Y-84500000D02*
X200000000Y-84500000D01*
X200000000Y-84500000D02*
X200000000Y-70500000D01*
D12*
X94524000Y-107880000D02*
X94524000Y-106356000D01*
X91476000Y-106356000D02*
X91476000Y-107880000D01*
D10*
X93762000Y-107880000D02*
X93762000Y-106356000D01*
D12*
X91476000Y-107880000D02*
X94524000Y-107880000D01*
X94524000Y-106356000D02*
X91476000Y-106356000D01*
D14*
X86000000Y-108500000D02*
X100000000Y-108500000D01*
X100000000Y-108500000D02*
X100000000Y-122500000D01*
X100000000Y-122500000D02*
X86000000Y-122500000D01*
X86000000Y-122500000D02*
X86000000Y-108500000D01*
D13*
X131000000Y-129250000D02*
X131000000Y-130250000D01*
D12*
X129536000Y-120738000D02*
X129536000Y-122262000D01*
X132584000Y-122262000D02*
X132584000Y-120738000D01*
D13*
X130500000Y-129750000D02*
X131500000Y-129750000D01*
D12*
X132584000Y-120738000D02*
X129536000Y-120738000D01*
D10*
X131822000Y-122262000D02*
X131822000Y-120738000D01*
D12*
X129536000Y-122262000D02*
X132584000Y-122262000D01*
D14*
X124400000Y-123550000D02*
X137600000Y-123550000D01*
X137600000Y-123550000D02*
X137600000Y-135950000D01*
X137600000Y-135950000D02*
X124400000Y-135950000D01*
X124400000Y-135950000D02*
X124400000Y-123550000D01*
D13*
X134000000Y-129750000D02*
G75*
G03*
X134000000Y-129750000I-3000000J0D01*
G01*
D10*
X112762000Y-107880000D02*
X112762000Y-106356000D01*
D12*
X113524000Y-106356000D02*
X110476000Y-106356000D01*
X110476000Y-106356000D02*
X110476000Y-107880000D01*
X110476000Y-107880000D02*
X113524000Y-107880000D01*
X113524000Y-107880000D02*
X113524000Y-106356000D01*
D14*
X105000000Y-108500000D02*
X119000000Y-108500000D01*
X119000000Y-108500000D02*
X119000000Y-122500000D01*
X119000000Y-122500000D02*
X105000000Y-122500000D01*
X105000000Y-122500000D02*
X105000000Y-108500000D01*
D12*
X170524000Y-122130000D02*
X170524000Y-120606000D01*
X167476000Y-120606000D02*
X167476000Y-122130000D01*
D10*
X169762000Y-122130000D02*
X169762000Y-120606000D01*
D12*
X167476000Y-122130000D02*
X170524000Y-122130000D01*
X170524000Y-120606000D02*
X167476000Y-120606000D01*
D14*
X162000000Y-122750000D02*
X176000000Y-122750000D01*
X176000000Y-122750000D02*
X176000000Y-136750000D01*
X176000000Y-136750000D02*
X162000000Y-136750000D01*
X162000000Y-136750000D02*
X162000000Y-122750000D01*
D12*
X91476000Y-125356000D02*
X91476000Y-126880000D01*
X94524000Y-126880000D02*
X94524000Y-125356000D01*
D10*
X93762000Y-126880000D02*
X93762000Y-125356000D01*
D12*
X94524000Y-125356000D02*
X91476000Y-125356000D01*
X91476000Y-126880000D02*
X94524000Y-126880000D01*
D14*
X86000000Y-127500000D02*
X100000000Y-127500000D01*
X100000000Y-127500000D02*
X100000000Y-141500000D01*
X100000000Y-141500000D02*
X86000000Y-141500000D01*
X86000000Y-141500000D02*
X86000000Y-127500000D01*
D13*
X225800000Y-114000000D02*
X227200000Y-114000000D01*
X227900000Y-113300000D02*
X227900000Y-112700000D01*
X227200000Y-112000000D02*
X225800000Y-112000000D01*
X225100000Y-112700000D02*
X225100000Y-113300000D01*
X227200000Y-114000000D02*
G75*
G03*
X227900000Y-113300000I0J700000D01*
G01*
X227900000Y-112700000D02*
G75*
G03*
X227200000Y-112000000I-700000J0D01*
G01*
X225800000Y-112000000D02*
G75*
G03*
X225100000Y-112700000I-1J-699999D01*
G01*
X225100000Y-113300000D02*
G75*
G03*
X225800000Y-114000000I699999J-1D01*
G01*
X225800000Y-106000000D02*
X227200000Y-106000000D01*
X227900000Y-105300000D02*
X227900000Y-104700000D01*
X227200000Y-104000000D02*
X225800000Y-104000000D01*
X225100000Y-104700000D02*
X225100000Y-105300000D01*
X225800000Y-104000000D02*
G75*
G03*
X225100000Y-104700000I-1J-699999D01*
G01*
X225100000Y-105300000D02*
G75*
G03*
X225800000Y-106000000I699999J-1D01*
G01*
X227900000Y-104700000D02*
G75*
G03*
X227200000Y-104000000I-700000J0D01*
G01*
X227200000Y-106000000D02*
G75*
G03*
X227900000Y-105300000I0J700000D01*
G01*
X227900000Y-109300000D02*
X227900000Y-108700000D01*
X225800000Y-110000000D02*
X227200000Y-110000000D01*
X227200000Y-108000000D02*
X225800000Y-108000000D01*
X225100000Y-108700000D02*
X225100000Y-109300000D01*
X225800000Y-108000000D02*
G75*
G03*
X225100000Y-108700000I-1J-699999D01*
G01*
X225100000Y-109300000D02*
G75*
G03*
X225800000Y-110000000I699999J-1D01*
G01*
X227200000Y-110000000D02*
G75*
G03*
X227900000Y-109300000I0J700000D01*
G01*
X227900000Y-108700000D02*
G75*
G03*
X227200000Y-108000000I-700000J0D01*
G01*
X227200000Y-120000000D02*
X225800000Y-120000000D01*
X225100000Y-120700000D02*
X225100000Y-121300000D01*
X227900000Y-121300000D02*
X227900000Y-120700000D01*
X225800000Y-122000000D02*
X227200000Y-122000000D01*
X227200000Y-122000000D02*
G75*
G03*
X227900000Y-121300000I0J700000D01*
G01*
X227900000Y-120700000D02*
G75*
G03*
X227200000Y-120000000I-700000J0D01*
G01*
X225800000Y-120000000D02*
G75*
G03*
X225100000Y-120700000I-1J-699999D01*
G01*
X225100000Y-121300000D02*
G75*
G03*
X225800000Y-122000000I699999J-1D01*
G01*
X227200000Y-100000000D02*
X225800000Y-100000000D01*
X225100000Y-100700000D02*
X225100000Y-101300000D01*
X225800000Y-102000000D02*
X227200000Y-102000000D01*
X227900000Y-101300000D02*
X227900000Y-100700000D01*
X225100000Y-101300000D02*
G75*
G03*
X225800000Y-102000000I699999J-1D01*
G01*
X227200000Y-102000000D02*
G75*
G03*
X227900000Y-101300000I0J700000D01*
G01*
X227900000Y-100700000D02*
G75*
G03*
X227200000Y-100000000I-700000J0D01*
G01*
X225800000Y-100000000D02*
G75*
G03*
X225100000Y-100700000I-1J-699999D01*
G01*
X225800000Y-118000000D02*
X227200000Y-118000000D01*
X227900000Y-117300000D02*
X227900000Y-116700000D01*
X225100000Y-116700000D02*
X225100000Y-117300000D01*
X227200000Y-116000000D02*
X225800000Y-116000000D01*
X227200000Y-118000000D02*
G75*
G03*
X227900000Y-117300000I0J700000D01*
G01*
X225100000Y-117300000D02*
G75*
G03*
X225800000Y-118000000I699999J-1D01*
G01*
X225800000Y-116000000D02*
G75*
G03*
X225100000Y-116700000I-1J-699999D01*
G01*
X227900000Y-116700000D02*
G75*
G03*
X227200000Y-116000000I-700000J0D01*
G01*
D16*
X77810000Y-103460000D03*
X71460000Y-100920000D03*
X191810000Y-51210000D03*
X185460000Y-48670000D03*
D17*
X228412500Y-129220000D03*
X231412500Y-129220000D03*
D16*
X172810000Y-84460000D03*
X166460000Y-81920000D03*
X172810000Y-65460000D03*
X166460000Y-62920000D03*
X210810000Y-55960000D03*
X204460000Y-53420000D03*
X77810000Y-84460000D03*
X71460000Y-81920000D03*
X115810000Y-74960000D03*
X109460000Y-72420000D03*
X210810000Y-131960000D03*
X204460000Y-129420000D03*
X172810000Y-46460000D03*
X166460000Y-43920000D03*
X77810000Y-122460000D03*
X71460000Y-119920000D03*
X153810000Y-79710000D03*
X147460000Y-77170000D03*
X134810000Y-84460000D03*
X128460000Y-81920000D03*
X96810000Y-93960000D03*
X90460000Y-91420000D03*
X134810000Y-65460000D03*
X128460000Y-62920000D03*
X153810000Y-98710000D03*
X147460000Y-96170000D03*
X134810000Y-46460000D03*
X128460000Y-43920000D03*
X96810000Y-55960000D03*
X90460000Y-53420000D03*
X191810000Y-127210000D03*
X185460000Y-124670000D03*
X191810000Y-89210000D03*
X185460000Y-86670000D03*
X134810000Y-103460000D03*
X128460000Y-100920000D03*
X191810000Y-70210000D03*
X185460000Y-67670000D03*
X96810000Y-74960000D03*
X90460000Y-72420000D03*
X115810000Y-93960000D03*
X109460000Y-91420000D03*
X115810000Y-55960000D03*
X109460000Y-53420000D03*
X210810000Y-93960000D03*
X204460000Y-91420000D03*
X77810000Y-65460000D03*
X71460000Y-62920000D03*
X172810000Y-103460000D03*
X166460000Y-100920000D03*
X153810000Y-60710000D03*
X147460000Y-58170000D03*
X191810000Y-108210000D03*
X185460000Y-105670000D03*
X153810000Y-127210000D03*
X147460000Y-124670000D03*
X153810000Y-41710000D03*
X147460000Y-39170000D03*
X115810000Y-131960000D03*
X109460000Y-129420000D03*
X210810000Y-74960000D03*
X204460000Y-72420000D03*
X96810000Y-112960000D03*
X90460000Y-110420000D03*
X115810000Y-112960000D03*
X109460000Y-110420000D03*
X172810000Y-127210000D03*
X166460000Y-124670000D03*
X96810000Y-131960000D03*
X90460000Y-129420000D03*
%LPC*%
D18*
X221420000Y-96250000D03*
D19*
X231580000Y-96250000D03*
D18*
X221420000Y-92750000D03*
D19*
X231580000Y-92750000D03*
D20*
X74000000Y-106000000D03*
D21*
X68920000Y-106000000D03*
X79080000Y-106000000D03*
D16*
X70190000Y-103460000D03*
X76540000Y-100920000D03*
D22*
X70190000Y-97618000D03*
D23*
X77810000Y-97618000D03*
D21*
X193080000Y-53750000D03*
D20*
X188000000Y-53750000D03*
D21*
X182920000Y-53750000D03*
D16*
X184190000Y-51210000D03*
X190540000Y-48670000D03*
D22*
X184190000Y-45368000D03*
D23*
X191810000Y-45368000D03*
D24*
X226012500Y-131500000D03*
X233012500Y-131500000D03*
D25*
X223862500Y-129200000D03*
X223862500Y-133800000D03*
D17*
X228412500Y-133800000D03*
X231412500Y-133800000D03*
D20*
X169000000Y-87000000D03*
D21*
X163920000Y-87000000D03*
X174080000Y-87000000D03*
D16*
X165190000Y-84460000D03*
X171540000Y-81920000D03*
D22*
X165190000Y-78618000D03*
D23*
X172810000Y-78618000D03*
D20*
X169000000Y-68000000D03*
D21*
X174080000Y-68000000D03*
X163920000Y-68000000D03*
D16*
X165190000Y-65460000D03*
X171540000Y-62920000D03*
D22*
X165190000Y-59618000D03*
D23*
X172810000Y-59618000D03*
D21*
X212080000Y-58500000D03*
D20*
X207000000Y-58500000D03*
D21*
X201920000Y-58500000D03*
D16*
X203190000Y-55960000D03*
X209540000Y-53420000D03*
D22*
X203190000Y-50118000D03*
D23*
X210810000Y-50118000D03*
D21*
X68920000Y-87000000D03*
D20*
X74000000Y-87000000D03*
D21*
X79080000Y-87000000D03*
D16*
X70190000Y-84460000D03*
X76540000Y-81920000D03*
D22*
X70190000Y-78618000D03*
D23*
X77810000Y-78618000D03*
D26*
X225850000Y-105000000D03*
D27*
X227150000Y-105000000D03*
D20*
X112000000Y-77500000D03*
D21*
X106920000Y-77500000D03*
X117080000Y-77500000D03*
D16*
X108190000Y-74960000D03*
X114540000Y-72420000D03*
D22*
X108190000Y-69118000D03*
D23*
X115810000Y-69118000D03*
D26*
X225850000Y-113000000D03*
D27*
X227150000Y-113000000D03*
D21*
X201920000Y-134500000D03*
D20*
X207000000Y-134500000D03*
D21*
X212080000Y-134500000D03*
D16*
X203190000Y-131960000D03*
X209540000Y-129420000D03*
D22*
X203190000Y-126118000D03*
D23*
X210810000Y-126118000D03*
D22*
X214000000Y-118000000D03*
X214000000Y-113000000D03*
X203250000Y-107250000D03*
D23*
X210870000Y-107250000D03*
D22*
X199500000Y-113000000D03*
X199500000Y-118000000D03*
D23*
X199500000Y-115500000D03*
D28*
X207000000Y-109900000D03*
X207000000Y-121100000D03*
D21*
X174080000Y-49000000D03*
X163920000Y-49000000D03*
D20*
X169000000Y-49000000D03*
D16*
X165190000Y-46460000D03*
X171540000Y-43920000D03*
D22*
X165190000Y-40618000D03*
D23*
X172810000Y-40618000D03*
D26*
X225850000Y-101000000D03*
D27*
X227150000Y-101000000D03*
D21*
X68920000Y-125000000D03*
D20*
X74000000Y-125000000D03*
D21*
X79080000Y-125000000D03*
D16*
X70190000Y-122460000D03*
X76540000Y-119920000D03*
D22*
X70190000Y-116618000D03*
D23*
X77810000Y-116618000D03*
D21*
X155080000Y-82250000D03*
D20*
X150000000Y-82250000D03*
D21*
X144920000Y-82250000D03*
D16*
X146190000Y-79710000D03*
X152540000Y-77170000D03*
D22*
X146190000Y-73868000D03*
D23*
X153810000Y-73868000D03*
D21*
X125920000Y-87000000D03*
X136080000Y-87000000D03*
D20*
X131000000Y-87000000D03*
D16*
X127190000Y-84460000D03*
X133540000Y-81920000D03*
D22*
X127190000Y-78618000D03*
D23*
X134810000Y-78618000D03*
D21*
X98080000Y-96500000D03*
X87920000Y-96500000D03*
D20*
X93000000Y-96500000D03*
D16*
X89190000Y-93960000D03*
X95540000Y-91420000D03*
D22*
X89190000Y-88118000D03*
D23*
X96810000Y-88118000D03*
D20*
X131000000Y-68000000D03*
D21*
X125920000Y-68000000D03*
X136080000Y-68000000D03*
D16*
X127190000Y-65460000D03*
X133540000Y-62920000D03*
D22*
X127190000Y-59618000D03*
D23*
X134810000Y-59618000D03*
D22*
X81000000Y-51500000D03*
X81000000Y-46500000D03*
X70250000Y-40750000D03*
D23*
X77870000Y-40750000D03*
D22*
X66500000Y-46500000D03*
X66500000Y-51500000D03*
D23*
X66500000Y-49000000D03*
D28*
X74000000Y-43400000D03*
X74000000Y-54600000D03*
D20*
X150000000Y-101250000D03*
D21*
X144920000Y-101250000D03*
X155080000Y-101250000D03*
D16*
X146190000Y-98710000D03*
X152540000Y-96170000D03*
D22*
X146190000Y-92868000D03*
D23*
X153810000Y-92868000D03*
D21*
X125920000Y-49000000D03*
X136080000Y-49000000D03*
D20*
X131000000Y-49000000D03*
D16*
X127190000Y-46460000D03*
X133540000Y-43920000D03*
D22*
X127190000Y-40618000D03*
D23*
X134810000Y-40618000D03*
D21*
X98080000Y-58500000D03*
D20*
X93000000Y-58500000D03*
D21*
X87920000Y-58500000D03*
D16*
X89190000Y-55960000D03*
X95540000Y-53420000D03*
D22*
X89190000Y-50118000D03*
D23*
X96810000Y-50118000D03*
D21*
X182920000Y-129750000D03*
X193080000Y-129750000D03*
D20*
X188000000Y-129750000D03*
D16*
X184190000Y-127210000D03*
X190540000Y-124670000D03*
D22*
X184190000Y-121368000D03*
D23*
X191810000Y-121368000D03*
D21*
X193080000Y-91750000D03*
X182920000Y-91750000D03*
D20*
X188000000Y-91750000D03*
D16*
X184190000Y-89210000D03*
X190540000Y-86670000D03*
D22*
X184190000Y-83368000D03*
D23*
X191810000Y-83368000D03*
D21*
X125920000Y-106000000D03*
X136080000Y-106000000D03*
D20*
X131000000Y-106000000D03*
D16*
X127190000Y-103460000D03*
X133540000Y-100920000D03*
D22*
X127190000Y-97618000D03*
D23*
X134810000Y-97618000D03*
D20*
X188000000Y-72750000D03*
D21*
X193080000Y-72750000D03*
X182920000Y-72750000D03*
D16*
X184190000Y-70210000D03*
X190540000Y-67670000D03*
D22*
X184190000Y-64368000D03*
D23*
X191810000Y-64368000D03*
D26*
X225850000Y-109000000D03*
D27*
X227150000Y-109000000D03*
D21*
X87920000Y-77500000D03*
X98080000Y-77500000D03*
D20*
X93000000Y-77500000D03*
D16*
X89190000Y-74960000D03*
X95540000Y-72420000D03*
D22*
X89190000Y-69118000D03*
D23*
X96810000Y-69118000D03*
D21*
X117080000Y-96500000D03*
D20*
X112000000Y-96500000D03*
D21*
X106920000Y-96500000D03*
D16*
X108190000Y-93960000D03*
X114540000Y-91420000D03*
D22*
X108190000Y-88118000D03*
D23*
X115810000Y-88118000D03*
D21*
X117080000Y-58500000D03*
X106920000Y-58500000D03*
D20*
X112000000Y-58500000D03*
D16*
X108190000Y-55960000D03*
X114540000Y-53420000D03*
D22*
X108190000Y-50118000D03*
D23*
X115810000Y-50118000D03*
D26*
X225850000Y-121000000D03*
D27*
X227150000Y-121000000D03*
D21*
X201920000Y-96500000D03*
D20*
X207000000Y-96500000D03*
D21*
X212080000Y-96500000D03*
D16*
X203190000Y-93960000D03*
X209540000Y-91420000D03*
D22*
X203190000Y-88118000D03*
D23*
X210810000Y-88118000D03*
D21*
X79080000Y-68000000D03*
D20*
X74000000Y-68000000D03*
D21*
X68920000Y-68000000D03*
D16*
X70190000Y-65460000D03*
X76540000Y-62920000D03*
D22*
X70190000Y-59618000D03*
D23*
X77810000Y-59618000D03*
D20*
X169000000Y-106000000D03*
D21*
X163920000Y-106000000D03*
X174080000Y-106000000D03*
D16*
X165190000Y-103460000D03*
X171540000Y-100920000D03*
D22*
X165190000Y-97618000D03*
D23*
X172810000Y-97618000D03*
D20*
X150000000Y-63250000D03*
D21*
X155080000Y-63250000D03*
X144920000Y-63250000D03*
D16*
X146190000Y-60710000D03*
X152540000Y-58170000D03*
D22*
X146190000Y-54868000D03*
D23*
X153810000Y-54868000D03*
D29*
X219130000Y-58016750D03*
D30*
X219130000Y-60556750D03*
X219130000Y-63096750D03*
X219130000Y-65636750D03*
X219130000Y-68176750D03*
X219130000Y-70716750D03*
X219130000Y-73256750D03*
X219130000Y-75796750D03*
X219130000Y-78336750D03*
X219130000Y-80876750D03*
X219130000Y-83416750D03*
X219130000Y-85956750D03*
X234370000Y-85956750D03*
X234370000Y-83416750D03*
X234370000Y-80876750D03*
X234370000Y-78336750D03*
X234370000Y-75796750D03*
X234370000Y-73256750D03*
X234370000Y-70716750D03*
X234370000Y-68176750D03*
X234370000Y-65636750D03*
X234370000Y-63096750D03*
X234370000Y-60556750D03*
X234370000Y-58016750D03*
X221670000Y-85956750D03*
X224210000Y-85956750D03*
X226750000Y-85956750D03*
X229290000Y-85956750D03*
X231830000Y-85956750D03*
D31*
X222690000Y-125500000D03*
X225230000Y-125500000D03*
X227770000Y-125500000D03*
X230310000Y-125500000D03*
D21*
X182920000Y-110750000D03*
D20*
X188000000Y-110750000D03*
D21*
X193080000Y-110750000D03*
D16*
X184190000Y-108210000D03*
X190540000Y-105670000D03*
D22*
X184190000Y-102368000D03*
D23*
X191810000Y-102368000D03*
D20*
X150000000Y-129750000D03*
D21*
X155080000Y-129750000D03*
X144920000Y-129750000D03*
D16*
X146190000Y-127210000D03*
X152540000Y-124670000D03*
D22*
X146190000Y-121368000D03*
D23*
X153810000Y-121368000D03*
D20*
X150000000Y-44250000D03*
D21*
X144920000Y-44250000D03*
X155080000Y-44250000D03*
D16*
X146190000Y-41710000D03*
X152540000Y-39170000D03*
D22*
X146190000Y-35868000D03*
D23*
X153810000Y-35868000D03*
D20*
X112000000Y-134500000D03*
D21*
X106920000Y-134500000D03*
X117080000Y-134500000D03*
D16*
X108190000Y-131960000D03*
X114540000Y-129420000D03*
D22*
X108190000Y-126118000D03*
D23*
X115810000Y-126118000D03*
D21*
X201920000Y-77500000D03*
X212080000Y-77500000D03*
D20*
X207000000Y-77500000D03*
D16*
X203190000Y-74960000D03*
X209540000Y-72420000D03*
D22*
X203190000Y-69118000D03*
D23*
X210810000Y-69118000D03*
D20*
X93000000Y-115500000D03*
D21*
X87920000Y-115500000D03*
X98080000Y-115500000D03*
D16*
X89190000Y-112960000D03*
X95540000Y-110420000D03*
D22*
X89190000Y-107118000D03*
D23*
X96810000Y-107118000D03*
D22*
X138000000Y-132250000D03*
X138000000Y-127250000D03*
X127250000Y-121500000D03*
D23*
X134870000Y-121500000D03*
D22*
X123500000Y-127250000D03*
X123500000Y-132250000D03*
D23*
X123500000Y-129750000D03*
D28*
X131000000Y-135350000D03*
X131000000Y-124150000D03*
D20*
X112000000Y-115500000D03*
D21*
X106920000Y-115500000D03*
X117080000Y-115500000D03*
D16*
X108190000Y-112960000D03*
X114540000Y-110420000D03*
D22*
X108190000Y-107118000D03*
D23*
X115810000Y-107118000D03*
D21*
X163920000Y-129750000D03*
D20*
X169000000Y-129750000D03*
D21*
X174080000Y-129750000D03*
D16*
X165190000Y-127210000D03*
X171540000Y-124670000D03*
D22*
X165190000Y-121368000D03*
D23*
X172810000Y-121368000D03*
D26*
X225850000Y-117000000D03*
D27*
X227150000Y-117000000D03*
D21*
X98080000Y-134500000D03*
X87920000Y-134500000D03*
D20*
X93000000Y-134500000D03*
D16*
X89190000Y-131960000D03*
X95540000Y-129420000D03*
D22*
X89190000Y-126118000D03*
D23*
X96810000Y-126118000D03*
D26*
X225850000Y-113000000D03*
D27*
X227150000Y-113000000D03*
D26*
X225850000Y-105000000D03*
D27*
X227150000Y-105000000D03*
D26*
X225850000Y-109000000D03*
D27*
X227150000Y-109000000D03*
D26*
X225850000Y-121000000D03*
D27*
X227150000Y-121000000D03*
D26*
X225850000Y-101000000D03*
D27*
X227150000Y-101000000D03*
D26*
X225850000Y-117000000D03*
D27*
X227150000Y-117000000D03*
M02*
