M48
; DRILL file {KiCad (6.0.4-0)} date 2022 March 31, Thursday 21:48:41
; FORMAT={-:-/ absolute / metric / decimal}
; #@! TF.CreationDate,2022-03-31T21:48:41+02:00
; #@! TF.GenerationSoftware,Kicad,Pcbnew,(6.0.4-0)
; #@! TF.FileFunction,Plated,1,2,PTH
FMAT,2
METRIC
; #@! TA.AperFunction,Plated,PTH,ViaDrill
T1C0.400
; #@! TA.AperFunction,Plated,PTH,ComponentDrill
T2C0.800
; #@! TA.AperFunction,Plated,PTH,ComponentDrill
T3C0.813
; #@! TA.AperFunction,Plated,PTH,ComponentDrill
T4C0.900
; #@! TA.AperFunction,Plated,PTH,ComponentDrill
T5C1.000
; #@! TA.AperFunction,Plated,PTH,ComponentDrill
T6C1.092
; #@! TA.AperFunction,Plated,PTH,ComponentDrill
T7C1.500
%
G90
G05
T1
X196.0Y-125.75
X196.427Y-93.96
X197.0Y-125.75
X198.0Y-124.0
X198.0Y-125.75
X198.25Y-82.75
X199.29Y-93.96
X199.5Y-82.75
X213.0Y-105.75
X213.101Y-88.75
X213.826Y-73.5
X214.75Y-72.525
X215.0Y-88.75
X215.0Y-105.75
X219.0Y-106.25
X219.0Y-108.25
X220.25Y-106.25
X220.25Y-108.25
X220.25Y-121.0
X222.25Y-110.5
X223.25Y-111.75
X223.25Y-118.5
X223.262Y-108.988
X224.5Y-105.0
X224.5Y-111.75
X226.0Y-103.0
X228.5Y-101.0
X228.5Y-105.0
X228.5Y-109.0
X228.5Y-113.0
X228.5Y-117.0
X228.5Y-121.0
T2
X221.42Y-92.75
X221.42Y-96.25
X231.58Y-92.75
X231.58Y-96.25
T3
X222.69Y-125.5
X225.23Y-125.5
X227.77Y-125.5
X230.31Y-125.5
T5
X66.5Y-46.5
X66.5Y-49.0
X66.5Y-51.5
X70.19Y-59.618
X70.19Y-78.618
X70.19Y-97.618
X70.19Y-116.618
X70.25Y-40.75
X77.81Y-59.618
X77.81Y-78.618
X77.81Y-97.618
X77.81Y-116.618
X77.87Y-40.75
X81.0Y-46.5
X81.0Y-51.5
X89.19Y-50.118
X89.19Y-69.118
X89.19Y-88.118
X89.19Y-107.118
X89.19Y-126.118
X96.81Y-50.118
X96.81Y-69.118
X96.81Y-88.118
X96.81Y-107.118
X96.81Y-126.118
X108.19Y-50.118
X108.19Y-69.118
X108.19Y-88.118
X108.19Y-107.118
X108.19Y-126.118
X115.81Y-50.118
X115.81Y-69.118
X115.81Y-88.118
X115.81Y-107.118
X115.81Y-126.118
X123.5Y-127.25
X123.5Y-129.75
X123.5Y-132.25
X127.19Y-40.618
X127.19Y-59.618
X127.19Y-78.618
X127.19Y-97.618
X127.25Y-121.5
X134.81Y-40.618
X134.81Y-59.618
X134.81Y-78.618
X134.81Y-97.618
X134.87Y-121.5
X138.0Y-127.25
X138.0Y-132.25
X146.19Y-35.868
X146.19Y-54.868
X146.19Y-73.868
X146.19Y-92.868
X146.19Y-121.368
X153.81Y-35.868
X153.81Y-54.868
X153.81Y-73.868
X153.81Y-92.868
X153.81Y-121.368
X165.19Y-40.618
X165.19Y-59.618
X165.19Y-78.618
X165.19Y-97.618
X165.19Y-121.368
X172.81Y-40.618
X172.81Y-59.618
X172.81Y-78.618
X172.81Y-97.618
X172.81Y-121.368
X184.19Y-45.368
X184.19Y-64.368
X184.19Y-83.368
X184.19Y-102.368
X184.19Y-121.368
X191.81Y-45.368
X191.81Y-64.368
X191.81Y-83.368
X191.81Y-102.368
X191.81Y-121.368
X199.5Y-113.0
X199.5Y-115.5
X199.5Y-118.0
X203.19Y-50.118
X203.19Y-69.118
X203.19Y-88.118
X203.19Y-126.118
X203.25Y-107.25
X210.81Y-50.118
X210.81Y-69.118
X210.81Y-88.118
X210.81Y-126.118
X210.87Y-107.25
X214.0Y-113.0
X214.0Y-118.0
T6
X219.13Y-58.017
X219.13Y-60.557
X219.13Y-63.097
X219.13Y-65.637
X219.13Y-68.177
X219.13Y-70.717
X219.13Y-73.257
X219.13Y-75.797
X219.13Y-78.337
X219.13Y-80.877
X219.13Y-83.417
X219.13Y-85.957
X221.67Y-85.957
X224.21Y-85.957
X226.75Y-85.957
X229.29Y-85.957
X231.83Y-85.957
X234.37Y-58.017
X234.37Y-60.557
X234.37Y-63.097
X234.37Y-65.637
X234.37Y-68.177
X234.37Y-70.717
X234.37Y-73.257
X234.37Y-75.797
X234.37Y-78.337
X234.37Y-80.877
X234.37Y-83.417
X234.37Y-85.957
T2
X69.99Y-65.46G85X70.39Y-65.46
G05
X69.99Y-84.46G85X70.39Y-84.46
G05
X69.99Y-103.46G85X70.39Y-103.46
G05
X69.99Y-122.46G85X70.39Y-122.46
G05
X71.26Y-62.92G85X71.66Y-62.92
G05
X71.26Y-81.92G85X71.66Y-81.92
G05
X71.26Y-100.92G85X71.66Y-100.92
G05
X71.26Y-119.92G85X71.66Y-119.92
G05
X76.34Y-62.92G85X76.74Y-62.92
G05
X76.34Y-81.92G85X76.74Y-81.92
G05
X76.34Y-100.92G85X76.74Y-100.92
G05
X76.34Y-119.92G85X76.74Y-119.92
G05
X77.61Y-65.46G85X78.01Y-65.46
G05
X77.61Y-84.46G85X78.01Y-84.46
G05
X77.61Y-103.46G85X78.01Y-103.46
G05
X77.61Y-122.46G85X78.01Y-122.46
G05
X88.99Y-55.96G85X89.39Y-55.96
G05
X88.99Y-74.96G85X89.39Y-74.96
G05
X88.99Y-93.96G85X89.39Y-93.96
G05
X88.99Y-112.96G85X89.39Y-112.96
G05
X88.99Y-131.96G85X89.39Y-131.96
G05
X90.26Y-53.42G85X90.66Y-53.42
G05
X90.26Y-72.42G85X90.66Y-72.42
G05
X90.26Y-91.42G85X90.66Y-91.42
G05
X90.26Y-110.42G85X90.66Y-110.42
G05
X90.26Y-129.42G85X90.66Y-129.42
G05
X95.34Y-53.42G85X95.74Y-53.42
G05
X95.34Y-72.42G85X95.74Y-72.42
G05
X95.34Y-91.42G85X95.74Y-91.42
G05
X95.34Y-110.42G85X95.74Y-110.42
G05
X95.34Y-129.42G85X95.74Y-129.42
G05
X96.61Y-55.96G85X97.01Y-55.96
G05
X96.61Y-74.96G85X97.01Y-74.96
G05
X96.61Y-93.96G85X97.01Y-93.96
G05
X96.61Y-112.96G85X97.01Y-112.96
G05
X96.61Y-131.96G85X97.01Y-131.96
G05
X107.99Y-55.96G85X108.39Y-55.96
G05
X107.99Y-74.96G85X108.39Y-74.96
G05
X107.99Y-93.96G85X108.39Y-93.96
G05
X107.99Y-112.96G85X108.39Y-112.96
G05
X107.99Y-131.96G85X108.39Y-131.96
G05
X109.26Y-53.42G85X109.66Y-53.42
G05
X109.26Y-72.42G85X109.66Y-72.42
G05
X109.26Y-91.42G85X109.66Y-91.42
G05
X109.26Y-110.42G85X109.66Y-110.42
G05
X109.26Y-129.42G85X109.66Y-129.42
G05
X114.34Y-53.42G85X114.74Y-53.42
G05
X114.34Y-72.42G85X114.74Y-72.42
G05
X114.34Y-91.42G85X114.74Y-91.42
G05
X114.34Y-110.42G85X114.74Y-110.42
G05
X114.34Y-129.42G85X114.74Y-129.42
G05
X115.61Y-55.96G85X116.01Y-55.96
G05
X115.61Y-74.96G85X116.01Y-74.96
G05
X115.61Y-93.96G85X116.01Y-93.96
G05
X115.61Y-112.96G85X116.01Y-112.96
G05
X115.61Y-131.96G85X116.01Y-131.96
G05
X126.99Y-46.46G85X127.39Y-46.46
G05
X126.99Y-65.46G85X127.39Y-65.46
G05
X126.99Y-84.46G85X127.39Y-84.46
G05
X126.99Y-103.46G85X127.39Y-103.46
G05
X128.26Y-43.92G85X128.66Y-43.92
G05
X128.26Y-62.92G85X128.66Y-62.92
G05
X128.26Y-81.92G85X128.66Y-81.92
G05
X128.26Y-100.92G85X128.66Y-100.92
G05
X133.34Y-43.92G85X133.74Y-43.92
G05
X133.34Y-62.92G85X133.74Y-62.92
G05
X133.34Y-81.92G85X133.74Y-81.92
G05
X133.34Y-100.92G85X133.74Y-100.92
G05
X134.61Y-46.46G85X135.01Y-46.46
G05
X134.61Y-65.46G85X135.01Y-65.46
G05
X134.61Y-84.46G85X135.01Y-84.46
G05
X134.61Y-103.46G85X135.01Y-103.46
G05
X145.99Y-41.71G85X146.39Y-41.71
G05
X145.99Y-60.71G85X146.39Y-60.71
G05
X145.99Y-79.71G85X146.39Y-79.71
G05
X145.99Y-98.71G85X146.39Y-98.71
G05
X145.99Y-127.21G85X146.39Y-127.21
G05
X147.26Y-39.17G85X147.66Y-39.17
G05
X147.26Y-58.17G85X147.66Y-58.17
G05
X147.26Y-77.17G85X147.66Y-77.17
G05
X147.26Y-96.17G85X147.66Y-96.17
G05
X147.26Y-124.67G85X147.66Y-124.67
G05
X152.34Y-39.17G85X152.74Y-39.17
G05
X152.34Y-58.17G85X152.74Y-58.17
G05
X152.34Y-77.17G85X152.74Y-77.17
G05
X152.34Y-96.17G85X152.74Y-96.17
G05
X152.34Y-124.67G85X152.74Y-124.67
G05
X153.61Y-41.71G85X154.01Y-41.71
G05
X153.61Y-60.71G85X154.01Y-60.71
G05
X153.61Y-79.71G85X154.01Y-79.71
G05
X153.61Y-98.71G85X154.01Y-98.71
G05
X153.61Y-127.21G85X154.01Y-127.21
G05
X164.99Y-46.46G85X165.39Y-46.46
G05
X164.99Y-65.46G85X165.39Y-65.46
G05
X164.99Y-84.46G85X165.39Y-84.46
G05
X164.99Y-103.46G85X165.39Y-103.46
G05
X164.99Y-127.21G85X165.39Y-127.21
G05
X166.26Y-43.92G85X166.66Y-43.92
G05
X166.26Y-62.92G85X166.66Y-62.92
G05
X166.26Y-81.92G85X166.66Y-81.92
G05
X166.26Y-100.92G85X166.66Y-100.92
G05
X166.26Y-124.67G85X166.66Y-124.67
G05
X171.34Y-43.92G85X171.74Y-43.92
G05
X171.34Y-62.92G85X171.74Y-62.92
G05
X171.34Y-81.92G85X171.74Y-81.92
G05
X171.34Y-100.92G85X171.74Y-100.92
G05
X171.34Y-124.67G85X171.74Y-124.67
G05
X172.61Y-46.46G85X173.01Y-46.46
G05
X172.61Y-65.46G85X173.01Y-65.46
G05
X172.61Y-84.46G85X173.01Y-84.46
G05
X172.61Y-103.46G85X173.01Y-103.46
G05
X172.61Y-127.21G85X173.01Y-127.21
G05
X183.99Y-51.21G85X184.39Y-51.21
G05
X183.99Y-70.21G85X184.39Y-70.21
G05
X183.99Y-89.21G85X184.39Y-89.21
G05
X183.99Y-108.21G85X184.39Y-108.21
G05
X183.99Y-127.21G85X184.39Y-127.21
G05
X185.26Y-48.67G85X185.66Y-48.67
G05
X185.26Y-67.67G85X185.66Y-67.67
G05
X185.26Y-86.67G85X185.66Y-86.67
G05
X185.26Y-105.67G85X185.66Y-105.67
G05
X185.26Y-124.67G85X185.66Y-124.67
G05
X190.34Y-48.67G85X190.74Y-48.67
G05
X190.34Y-67.67G85X190.74Y-67.67
G05
X190.34Y-86.67G85X190.74Y-86.67
G05
X190.34Y-105.67G85X190.74Y-105.67
G05
X190.34Y-124.67G85X190.74Y-124.67
G05
X191.61Y-51.21G85X192.01Y-51.21
G05
X191.61Y-70.21G85X192.01Y-70.21
G05
X191.61Y-89.21G85X192.01Y-89.21
G05
X191.61Y-108.21G85X192.01Y-108.21
G05
X191.61Y-127.21G85X192.01Y-127.21
G05
X202.99Y-55.96G85X203.39Y-55.96
G05
X202.99Y-74.96G85X203.39Y-74.96
G05
X202.99Y-93.96G85X203.39Y-93.96
G05
X202.99Y-131.96G85X203.39Y-131.96
G05
X204.26Y-53.42G85X204.66Y-53.42
G05
X204.26Y-72.42G85X204.66Y-72.42
G05
X204.26Y-91.42G85X204.66Y-91.42
G05
X204.26Y-129.42G85X204.66Y-129.42
G05
X209.34Y-53.42G85X209.74Y-53.42
G05
X209.34Y-72.42G85X209.74Y-72.42
G05
X209.34Y-91.42G85X209.74Y-91.42
G05
X209.34Y-129.42G85X209.74Y-129.42
G05
X210.61Y-55.96G85X211.01Y-55.96
G05
X210.61Y-74.96G85X211.01Y-74.96
G05
X210.61Y-93.96G85X211.01Y-93.96
G05
X210.61Y-131.96G85X211.01Y-131.96
G05
T4
X224.612Y-129.2G85X223.112Y-129.2
G05
X224.612Y-133.8G85X223.112Y-133.8
G05
X228.612Y-129.22G85X228.212Y-129.22
G05
X228.612Y-133.8G85X228.212Y-133.8
G05
X231.612Y-129.22G85X231.212Y-129.22
G05
X231.612Y-133.8G85X231.212Y-133.8
G05
T7
X73.35Y-43.4G85X74.65Y-43.4
G05
X73.35Y-54.6G85X74.65Y-54.6
G05
X130.35Y-124.15G85X131.65Y-124.15
G05
X130.35Y-135.35G85X131.65Y-135.35
G05
X206.35Y-109.9G85X207.65Y-109.9
G05
X206.35Y-121.1G85X207.65Y-121.1
G05
T0
M30
