M48
; DRILL file {KiCad (6.0.4-0)} date 2022 March 31, Thursday 21:48:41
; FORMAT={-:-/ absolute / metric / decimal}
; #@! TF.CreationDate,2022-03-31T21:48:41+02:00
; #@! TF.GenerationSoftware,Kicad,Pcbnew,(6.0.4-0)
; #@! TF.FileFunction,NonPlated,1,2,NPTH
FMAT,2
METRIC
; #@! TA.AperFunction,NonPlated,NPTH,ComponentDrill
T1C0.800
; #@! TA.AperFunction,NonPlated,NPTH,ComponentDrill
T2C1.900
; #@! TA.AperFunction,NonPlated,NPTH,ComponentDrill
T3C4.000
%
G90
G05
T1
X226.012Y-131.5
X233.012Y-131.5
T2
X68.92Y-68.0
X68.92Y-87.0
X68.92Y-106.0
X68.92Y-125.0
X79.08Y-68.0
X79.08Y-87.0
X79.08Y-106.0
X79.08Y-125.0
X87.92Y-58.5
X87.92Y-77.5
X87.92Y-96.5
X87.92Y-115.5
X87.92Y-134.5
X98.08Y-58.5
X98.08Y-77.5
X98.08Y-96.5
X98.08Y-115.5
X98.08Y-134.5
X106.92Y-58.5
X106.92Y-77.5
X106.92Y-96.5
X106.92Y-115.5
X106.92Y-134.5
X117.08Y-58.5
X117.08Y-77.5
X117.08Y-96.5
X117.08Y-115.5
X117.08Y-134.5
X125.92Y-49.0
X125.92Y-68.0
X125.92Y-87.0
X125.92Y-106.0
X136.08Y-49.0
X136.08Y-68.0
X136.08Y-87.0
X136.08Y-106.0
X144.92Y-44.25
X144.92Y-63.25
X144.92Y-82.25
X144.92Y-101.25
X144.92Y-129.75
X155.08Y-44.25
X155.08Y-63.25
X155.08Y-82.25
X155.08Y-101.25
X155.08Y-129.75
X163.92Y-49.0
X163.92Y-68.0
X163.92Y-87.0
X163.92Y-106.0
X163.92Y-129.75
X174.08Y-49.0
X174.08Y-68.0
X174.08Y-87.0
X174.08Y-106.0
X174.08Y-129.75
X182.92Y-53.75
X182.92Y-72.75
X182.92Y-91.75
X182.92Y-110.75
X182.92Y-129.75
X193.08Y-53.75
X193.08Y-72.75
X193.08Y-91.75
X193.08Y-110.75
X193.08Y-129.75
X201.92Y-58.5
X201.92Y-77.5
X201.92Y-96.5
X201.92Y-134.5
X212.08Y-58.5
X212.08Y-77.5
X212.08Y-96.5
X212.08Y-134.5
T3
X74.0Y-68.0
X74.0Y-87.0
X74.0Y-106.0
X74.0Y-125.0
X93.0Y-58.5
X93.0Y-77.5
X93.0Y-96.5
X93.0Y-115.5
X93.0Y-134.5
X112.0Y-58.5
X112.0Y-77.5
X112.0Y-96.5
X112.0Y-115.5
X112.0Y-134.5
X131.0Y-49.0
X131.0Y-68.0
X131.0Y-87.0
X131.0Y-106.0
X150.0Y-44.25
X150.0Y-63.25
X150.0Y-82.25
X150.0Y-101.25
X150.0Y-129.75
X169.0Y-49.0
X169.0Y-68.0
X169.0Y-87.0
X169.0Y-106.0
X169.0Y-129.75
X188.0Y-53.75
X188.0Y-72.75
X188.0Y-91.75
X188.0Y-110.75
X188.0Y-129.75
X207.0Y-58.5
X207.0Y-77.5
X207.0Y-96.5
X207.0Y-134.5
T0
M30
