%TF.GenerationSoftware,KiCad,Pcbnew,(6.0.4-0)*%
%TF.CreationDate,2022-03-31T21:48:39+02:00*%
%TF.ProjectId,PCB,5043422e-6b69-4636-9164-5f7063625858,rev?*%
%TF.SameCoordinates,Original*%
%TF.FileFunction,Legend,Top*%
%TF.FilePolarity,Positive*%
%FSLAX46Y46*%
G04 Gerber Fmt 4.6, Leading zero omitted, Abs format (unit mm)*
G04 Created by KiCad (PCBNEW (6.0.4-0)) date 2022-03-31 21:48:39*
%MOMM*%
%LPD*%
G01*
G04 APERTURE LIST*
G04 Aperture macros list*
%AMFreePoly0*
4,1,22,0.500000,-0.750000,0.000000,-0.750000,0.000000,-0.745033,-0.079941,-0.743568,-0.215256,-0.701293,-0.333266,-0.622738,-0.424486,-0.514219,-0.481581,-0.384460,-0.499164,-0.250000,-0.500000,-0.250000,-0.500000,0.250000,-0.499164,0.250000,-0.499963,0.256109,-0.478152,0.396186,-0.417904,0.524511,-0.324060,0.630769,-0.204165,0.706417,-0.067858,0.745374,0.000000,0.744959,0.000000,0.750000,
0.500000,0.750000,0.500000,-0.750000,0.500000,-0.750000,$1*%
%AMFreePoly1*
4,1,20,0.000000,0.744959,0.073905,0.744508,0.209726,0.703889,0.328688,0.626782,0.421226,0.519385,0.479903,0.390333,0.500000,0.250000,0.500000,-0.250000,0.499851,-0.262216,0.476331,-0.402017,0.414519,-0.529596,0.319384,-0.634700,0.198574,-0.708877,0.061801,-0.746166,0.000000,-0.745033,0.000000,-0.750000,-0.500000,-0.750000,-0.500000,0.750000,0.000000,0.750000,0.000000,0.744959,
0.000000,0.744959,$1*%
G04 Aperture macros list end*
%ADD10C,0.200000*%
%ADD11C,0.150000*%
%ADD12C,0.100000*%
%ADD13C,0.203200*%
%ADD14C,0.120000*%
%ADD15C,0.381000*%
%ADD16O,2.500000X2.000000*%
%ADD17O,2.000000X1.600000*%
%ADD18C,1.600000*%
%ADD19O,1.600000X1.600000*%
%ADD20C,4.000000*%
%ADD21C,1.900000*%
%ADD22C,2.000000*%
%ADD23R,2.000000X2.000000*%
%ADD24C,0.800000*%
%ADD25O,3.100000X1.600000*%
%ADD26FreePoly0,0.000000*%
%ADD27FreePoly1,0.000000*%
%ADD28R,3.200000X2.000000*%
%ADD29R,1.752600X1.752600*%
%ADD30C,1.752600*%
%ADD31C,1.397000*%
G04 APERTURE END LIST*
D10*
X221880952Y-89702380D02*
X221880952Y-90416666D01*
X221833333Y-90559523D01*
X221738095Y-90654761D01*
X221595238Y-90702380D01*
X221500000Y-90702380D01*
X222833333Y-90702380D02*
X222357142Y-90702380D01*
X222357142Y-89702380D01*
X223738095Y-90607142D02*
X223690476Y-90654761D01*
X223547619Y-90702380D01*
X223452380Y-90702380D01*
X223309523Y-90654761D01*
X223214285Y-90559523D01*
X223166666Y-90464285D01*
X223119047Y-90273809D01*
X223119047Y-90130952D01*
X223166666Y-89940476D01*
X223214285Y-89845238D01*
X223309523Y-89750000D01*
X223452380Y-89702380D01*
X223547619Y-89702380D01*
X223690476Y-89750000D01*
X223738095Y-89797619D01*
X224452380Y-89702380D02*
X224452380Y-90416666D01*
X224404761Y-90559523D01*
X224309523Y-90654761D01*
X224166666Y-90702380D01*
X224071428Y-90702380D01*
X225404761Y-90702380D02*
X224928571Y-90702380D01*
X224928571Y-89702380D01*
X226309523Y-90607142D02*
X226261904Y-90654761D01*
X226119047Y-90702380D01*
X226023809Y-90702380D01*
X225880952Y-90654761D01*
X225785714Y-90559523D01*
X225738095Y-90464285D01*
X225690476Y-90273809D01*
X225690476Y-90130952D01*
X225738095Y-89940476D01*
X225785714Y-89845238D01*
X225880952Y-89750000D01*
X226023809Y-89702380D01*
X226119047Y-89702380D01*
X226261904Y-89750000D01*
X226309523Y-89797619D01*
X227023809Y-89702380D02*
X227023809Y-90416666D01*
X226976190Y-90559523D01*
X226880952Y-90654761D01*
X226738095Y-90702380D01*
X226642857Y-90702380D01*
X227976190Y-90702380D02*
X227500000Y-90702380D01*
X227500000Y-89702380D01*
X228880952Y-90607142D02*
X228833333Y-90654761D01*
X228690476Y-90702380D01*
X228595238Y-90702380D01*
X228452380Y-90654761D01*
X228357142Y-90559523D01*
X228309523Y-90464285D01*
X228261904Y-90273809D01*
X228261904Y-90130952D01*
X228309523Y-89940476D01*
X228357142Y-89845238D01*
X228452380Y-89750000D01*
X228595238Y-89702380D01*
X228690476Y-89702380D01*
X228833333Y-89750000D01*
X228880952Y-89797619D01*
X229595238Y-89702380D02*
X229595238Y-90416666D01*
X229547619Y-90559523D01*
X229452380Y-90654761D01*
X229309523Y-90702380D01*
X229214285Y-90702380D01*
X230547619Y-90702380D02*
X230071428Y-90702380D01*
X230071428Y-89702380D01*
X231452380Y-90607142D02*
X231404761Y-90654761D01*
X231261904Y-90702380D01*
X231166666Y-90702380D01*
X231023809Y-90654761D01*
X230928571Y-90559523D01*
X230880952Y-90464285D01*
X230833333Y-90273809D01*
X230833333Y-90130952D01*
X230880952Y-89940476D01*
X230928571Y-89845238D01*
X231023809Y-89750000D01*
X231166666Y-89702380D01*
X231261904Y-89702380D01*
X231404761Y-89750000D01*
X231452380Y-89797619D01*
D11*
X224333333Y-96702380D02*
X224000000Y-96226190D01*
X223761904Y-96702380D02*
X223761904Y-95702380D01*
X224142857Y-95702380D01*
X224238095Y-95750000D01*
X224285714Y-95797619D01*
X224333333Y-95892857D01*
X224333333Y-96035714D01*
X224285714Y-96130952D01*
X224238095Y-96178571D01*
X224142857Y-96226190D01*
X223761904Y-96226190D01*
X224714285Y-95797619D02*
X224761904Y-95750000D01*
X224857142Y-95702380D01*
X225095238Y-95702380D01*
X225190476Y-95750000D01*
X225238095Y-95797619D01*
X225285714Y-95892857D01*
X225285714Y-95988095D01*
X225238095Y-96130952D01*
X224666666Y-96702380D01*
X225285714Y-96702380D01*
X227309523Y-96035714D02*
X227309523Y-96702380D01*
X227071428Y-95654761D02*
X226833333Y-96369047D01*
X227452380Y-96369047D01*
X227833333Y-96702380D02*
X227833333Y-95702380D01*
X227928571Y-96321428D02*
X228214285Y-96702380D01*
X228214285Y-96035714D02*
X227833333Y-96416666D01*
X228547619Y-95702380D02*
X229214285Y-95702380D01*
X228785714Y-96702380D01*
X224333333Y-93202380D02*
X224000000Y-92726190D01*
X223761904Y-93202380D02*
X223761904Y-92202380D01*
X224142857Y-92202380D01*
X224238095Y-92250000D01*
X224285714Y-92297619D01*
X224333333Y-92392857D01*
X224333333Y-92535714D01*
X224285714Y-92630952D01*
X224238095Y-92678571D01*
X224142857Y-92726190D01*
X223761904Y-92726190D01*
X225285714Y-93202380D02*
X224714285Y-93202380D01*
X225000000Y-93202380D02*
X225000000Y-92202380D01*
X224904761Y-92345238D01*
X224809523Y-92440476D01*
X224714285Y-92488095D01*
X227309523Y-92535714D02*
X227309523Y-93202380D01*
X227071428Y-92154761D02*
X226833333Y-92869047D01*
X227452380Y-92869047D01*
X227833333Y-93202380D02*
X227833333Y-92202380D01*
X227928571Y-92821428D02*
X228214285Y-93202380D01*
X228214285Y-92535714D02*
X227833333Y-92916666D01*
X228547619Y-92202380D02*
X229214285Y-92202380D01*
X228785714Y-93202380D01*
X75092976Y-112404761D02*
X75235833Y-112452380D01*
X75473928Y-112452380D01*
X75569166Y-112404761D01*
X75616785Y-112357142D01*
X75664404Y-112261904D01*
X75664404Y-112166666D01*
X75616785Y-112071428D01*
X75569166Y-112023809D01*
X75473928Y-111976190D01*
X75283452Y-111928571D01*
X75188214Y-111880952D01*
X75140595Y-111833333D01*
X75092976Y-111738095D01*
X75092976Y-111642857D01*
X75140595Y-111547619D01*
X75188214Y-111500000D01*
X75283452Y-111452380D01*
X75521547Y-111452380D01*
X75664404Y-111500000D01*
X75997738Y-111452380D02*
X76235833Y-112452380D01*
X76426309Y-111738095D01*
X76616785Y-112452380D01*
X76854880Y-111452380D01*
X77235833Y-112452380D02*
X77235833Y-111452380D01*
X77473928Y-111452380D01*
X77616785Y-111500000D01*
X77712023Y-111595238D01*
X77759642Y-111690476D01*
X77807261Y-111880952D01*
X77807261Y-112023809D01*
X77759642Y-112214285D01*
X77712023Y-112309523D01*
X77616785Y-112404761D01*
X77473928Y-112452380D01*
X77235833Y-112452380D01*
X78664404Y-111785714D02*
X78664404Y-112452380D01*
X78426309Y-111404761D02*
X78188214Y-112119047D01*
X78807261Y-112119047D01*
X79712023Y-112452380D02*
X79140595Y-112452380D01*
X79426309Y-112452380D02*
X79426309Y-111452380D01*
X79331071Y-111595238D01*
X79235833Y-111690476D01*
X79140595Y-111738095D01*
X189092976Y-60154761D02*
X189235833Y-60202380D01*
X189473928Y-60202380D01*
X189569166Y-60154761D01*
X189616785Y-60107142D01*
X189664404Y-60011904D01*
X189664404Y-59916666D01*
X189616785Y-59821428D01*
X189569166Y-59773809D01*
X189473928Y-59726190D01*
X189283452Y-59678571D01*
X189188214Y-59630952D01*
X189140595Y-59583333D01*
X189092976Y-59488095D01*
X189092976Y-59392857D01*
X189140595Y-59297619D01*
X189188214Y-59250000D01*
X189283452Y-59202380D01*
X189521547Y-59202380D01*
X189664404Y-59250000D01*
X189997738Y-59202380D02*
X190235833Y-60202380D01*
X190426309Y-59488095D01*
X190616785Y-60202380D01*
X190854880Y-59202380D01*
X191235833Y-60202380D02*
X191235833Y-59202380D01*
X191473928Y-59202380D01*
X191616785Y-59250000D01*
X191712023Y-59345238D01*
X191759642Y-59440476D01*
X191807261Y-59630952D01*
X191807261Y-59773809D01*
X191759642Y-59964285D01*
X191712023Y-60059523D01*
X191616785Y-60154761D01*
X191473928Y-60202380D01*
X191235833Y-60202380D01*
X192759642Y-60202380D02*
X192188214Y-60202380D01*
X192473928Y-60202380D02*
X192473928Y-59202380D01*
X192378690Y-59345238D01*
X192283452Y-59440476D01*
X192188214Y-59488095D01*
X193092976Y-59202380D02*
X193759642Y-59202380D01*
X193331071Y-60202380D01*
X226484595Y-127202380D02*
X227056023Y-127202380D01*
X226770309Y-128202380D02*
X226770309Y-127202380D01*
X227960785Y-128202380D02*
X227627452Y-127726190D01*
X227389357Y-128202380D02*
X227389357Y-127202380D01*
X227770309Y-127202380D01*
X227865547Y-127250000D01*
X227913166Y-127297619D01*
X227960785Y-127392857D01*
X227960785Y-127535714D01*
X227913166Y-127630952D01*
X227865547Y-127678571D01*
X227770309Y-127726190D01*
X227389357Y-127726190D01*
X228960785Y-128202380D02*
X228627452Y-127726190D01*
X228389357Y-128202380D02*
X228389357Y-127202380D01*
X228770309Y-127202380D01*
X228865547Y-127250000D01*
X228913166Y-127297619D01*
X228960785Y-127392857D01*
X228960785Y-127535714D01*
X228913166Y-127630952D01*
X228865547Y-127678571D01*
X228770309Y-127726190D01*
X228389357Y-127726190D01*
X229341738Y-128154761D02*
X229484595Y-128202380D01*
X229722690Y-128202380D01*
X229817928Y-128154761D01*
X229865547Y-128107142D01*
X229913166Y-128011904D01*
X229913166Y-127916666D01*
X229865547Y-127821428D01*
X229817928Y-127773809D01*
X229722690Y-127726190D01*
X229532214Y-127678571D01*
X229436976Y-127630952D01*
X229389357Y-127583333D01*
X229341738Y-127488095D01*
X229341738Y-127392857D01*
X229389357Y-127297619D01*
X229436976Y-127250000D01*
X229532214Y-127202380D01*
X229770309Y-127202380D01*
X229913166Y-127250000D01*
D12*
X228245833Y-131816666D02*
X228012500Y-131483333D01*
X227845833Y-131816666D02*
X227845833Y-131116666D01*
X228112500Y-131116666D01*
X228179166Y-131150000D01*
X228212500Y-131183333D01*
X228245833Y-131250000D01*
X228245833Y-131350000D01*
X228212500Y-131416666D01*
X228179166Y-131450000D01*
X228112500Y-131483333D01*
X227845833Y-131483333D01*
X228912500Y-131816666D02*
X228512500Y-131816666D01*
X228712500Y-131816666D02*
X228712500Y-131116666D01*
X228645833Y-131216666D01*
X228579166Y-131283333D01*
X228512500Y-131316666D01*
X223245166Y-131884666D02*
X223645166Y-131884666D01*
X223445166Y-132584666D02*
X223445166Y-131884666D01*
X223878500Y-132584666D02*
X223878500Y-132118000D01*
X223878500Y-131884666D02*
X223845166Y-131918000D01*
X223878500Y-131951333D01*
X223911833Y-131918000D01*
X223878500Y-131884666D01*
X223878500Y-131951333D01*
X224211833Y-132118000D02*
X224211833Y-132818000D01*
X224211833Y-132151333D02*
X224278500Y-132118000D01*
X224411833Y-132118000D01*
X224478500Y-132151333D01*
X224511833Y-132184666D01*
X224545166Y-132251333D01*
X224545166Y-132451333D01*
X224511833Y-132518000D01*
X224478500Y-132551333D01*
X224411833Y-132584666D01*
X224278500Y-132584666D01*
X224211833Y-132551333D01*
X231245833Y-131816666D02*
X231012500Y-131483333D01*
X230845833Y-131816666D02*
X230845833Y-131116666D01*
X231112500Y-131116666D01*
X231179166Y-131150000D01*
X231212500Y-131183333D01*
X231245833Y-131250000D01*
X231245833Y-131350000D01*
X231212500Y-131416666D01*
X231179166Y-131450000D01*
X231112500Y-131483333D01*
X230845833Y-131483333D01*
X231512500Y-131183333D02*
X231545833Y-131150000D01*
X231612500Y-131116666D01*
X231779166Y-131116666D01*
X231845833Y-131150000D01*
X231879166Y-131183333D01*
X231912500Y-131250000D01*
X231912500Y-131316666D01*
X231879166Y-131416666D01*
X231479166Y-131816666D01*
X231912500Y-131816666D01*
X223278500Y-131027333D02*
X223378500Y-131060666D01*
X223545166Y-131060666D01*
X223611833Y-131027333D01*
X223645166Y-130994000D01*
X223678500Y-130927333D01*
X223678500Y-130860666D01*
X223645166Y-130794000D01*
X223611833Y-130760666D01*
X223545166Y-130727333D01*
X223411833Y-130694000D01*
X223345166Y-130660666D01*
X223311833Y-130627333D01*
X223278500Y-130560666D01*
X223278500Y-130494000D01*
X223311833Y-130427333D01*
X223345166Y-130394000D01*
X223411833Y-130360666D01*
X223578500Y-130360666D01*
X223678500Y-130394000D01*
X224078500Y-131060666D02*
X224011833Y-131027333D01*
X223978500Y-130960666D01*
X223978500Y-130360666D01*
X224278500Y-130594000D02*
X224445166Y-131060666D01*
X224611833Y-130594000D01*
D11*
X170092976Y-93404761D02*
X170235833Y-93452380D01*
X170473928Y-93452380D01*
X170569166Y-93404761D01*
X170616785Y-93357142D01*
X170664404Y-93261904D01*
X170664404Y-93166666D01*
X170616785Y-93071428D01*
X170569166Y-93023809D01*
X170473928Y-92976190D01*
X170283452Y-92928571D01*
X170188214Y-92880952D01*
X170140595Y-92833333D01*
X170092976Y-92738095D01*
X170092976Y-92642857D01*
X170140595Y-92547619D01*
X170188214Y-92500000D01*
X170283452Y-92452380D01*
X170521547Y-92452380D01*
X170664404Y-92500000D01*
X170997738Y-92452380D02*
X171235833Y-93452380D01*
X171426309Y-92738095D01*
X171616785Y-93452380D01*
X171854880Y-92452380D01*
X172235833Y-93452380D02*
X172235833Y-92452380D01*
X172473928Y-92452380D01*
X172616785Y-92500000D01*
X172712023Y-92595238D01*
X172759642Y-92690476D01*
X172807261Y-92880952D01*
X172807261Y-93023809D01*
X172759642Y-93214285D01*
X172712023Y-93309523D01*
X172616785Y-93404761D01*
X172473928Y-93452380D01*
X172235833Y-93452380D01*
X173140595Y-92452380D02*
X173759642Y-92452380D01*
X173426309Y-92833333D01*
X173569166Y-92833333D01*
X173664404Y-92880952D01*
X173712023Y-92928571D01*
X173759642Y-93023809D01*
X173759642Y-93261904D01*
X173712023Y-93357142D01*
X173664404Y-93404761D01*
X173569166Y-93452380D01*
X173283452Y-93452380D01*
X173188214Y-93404761D01*
X173140595Y-93357142D01*
X174616785Y-92452380D02*
X174426309Y-92452380D01*
X174331071Y-92500000D01*
X174283452Y-92547619D01*
X174188214Y-92690476D01*
X174140595Y-92880952D01*
X174140595Y-93261904D01*
X174188214Y-93357142D01*
X174235833Y-93404761D01*
X174331071Y-93452380D01*
X174521547Y-93452380D01*
X174616785Y-93404761D01*
X174664404Y-93357142D01*
X174712023Y-93261904D01*
X174712023Y-93023809D01*
X174664404Y-92928571D01*
X174616785Y-92880952D01*
X174521547Y-92833333D01*
X174331071Y-92833333D01*
X174235833Y-92880952D01*
X174188214Y-92928571D01*
X174140595Y-93023809D01*
X170092976Y-74404761D02*
X170235833Y-74452380D01*
X170473928Y-74452380D01*
X170569166Y-74404761D01*
X170616785Y-74357142D01*
X170664404Y-74261904D01*
X170664404Y-74166666D01*
X170616785Y-74071428D01*
X170569166Y-74023809D01*
X170473928Y-73976190D01*
X170283452Y-73928571D01*
X170188214Y-73880952D01*
X170140595Y-73833333D01*
X170092976Y-73738095D01*
X170092976Y-73642857D01*
X170140595Y-73547619D01*
X170188214Y-73500000D01*
X170283452Y-73452380D01*
X170521547Y-73452380D01*
X170664404Y-73500000D01*
X170997738Y-73452380D02*
X171235833Y-74452380D01*
X171426309Y-73738095D01*
X171616785Y-74452380D01*
X171854880Y-73452380D01*
X172235833Y-74452380D02*
X172235833Y-73452380D01*
X172473928Y-73452380D01*
X172616785Y-73500000D01*
X172712023Y-73595238D01*
X172759642Y-73690476D01*
X172807261Y-73880952D01*
X172807261Y-74023809D01*
X172759642Y-74214285D01*
X172712023Y-74309523D01*
X172616785Y-74404761D01*
X172473928Y-74452380D01*
X172235833Y-74452380D01*
X173188214Y-73547619D02*
X173235833Y-73500000D01*
X173331071Y-73452380D01*
X173569166Y-73452380D01*
X173664404Y-73500000D01*
X173712023Y-73547619D01*
X173759642Y-73642857D01*
X173759642Y-73738095D01*
X173712023Y-73880952D01*
X173140595Y-74452380D01*
X173759642Y-74452380D01*
X174616785Y-73452380D02*
X174426309Y-73452380D01*
X174331071Y-73500000D01*
X174283452Y-73547619D01*
X174188214Y-73690476D01*
X174140595Y-73880952D01*
X174140595Y-74261904D01*
X174188214Y-74357142D01*
X174235833Y-74404761D01*
X174331071Y-74452380D01*
X174521547Y-74452380D01*
X174616785Y-74404761D01*
X174664404Y-74357142D01*
X174712023Y-74261904D01*
X174712023Y-74023809D01*
X174664404Y-73928571D01*
X174616785Y-73880952D01*
X174521547Y-73833333D01*
X174331071Y-73833333D01*
X174235833Y-73880952D01*
X174188214Y-73928571D01*
X174140595Y-74023809D01*
X208092976Y-64904761D02*
X208235833Y-64952380D01*
X208473928Y-64952380D01*
X208569166Y-64904761D01*
X208616785Y-64857142D01*
X208664404Y-64761904D01*
X208664404Y-64666666D01*
X208616785Y-64571428D01*
X208569166Y-64523809D01*
X208473928Y-64476190D01*
X208283452Y-64428571D01*
X208188214Y-64380952D01*
X208140595Y-64333333D01*
X208092976Y-64238095D01*
X208092976Y-64142857D01*
X208140595Y-64047619D01*
X208188214Y-64000000D01*
X208283452Y-63952380D01*
X208521547Y-63952380D01*
X208664404Y-64000000D01*
X208997738Y-63952380D02*
X209235833Y-64952380D01*
X209426309Y-64238095D01*
X209616785Y-64952380D01*
X209854880Y-63952380D01*
X210235833Y-64952380D02*
X210235833Y-63952380D01*
X210473928Y-63952380D01*
X210616785Y-64000000D01*
X210712023Y-64095238D01*
X210759642Y-64190476D01*
X210807261Y-64380952D01*
X210807261Y-64523809D01*
X210759642Y-64714285D01*
X210712023Y-64809523D01*
X210616785Y-64904761D01*
X210473928Y-64952380D01*
X210235833Y-64952380D01*
X211759642Y-64952380D02*
X211188214Y-64952380D01*
X211473928Y-64952380D02*
X211473928Y-63952380D01*
X211378690Y-64095238D01*
X211283452Y-64190476D01*
X211188214Y-64238095D01*
X212331071Y-64380952D02*
X212235833Y-64333333D01*
X212188214Y-64285714D01*
X212140595Y-64190476D01*
X212140595Y-64142857D01*
X212188214Y-64047619D01*
X212235833Y-64000000D01*
X212331071Y-63952380D01*
X212521547Y-63952380D01*
X212616785Y-64000000D01*
X212664404Y-64047619D01*
X212712023Y-64142857D01*
X212712023Y-64190476D01*
X212664404Y-64285714D01*
X212616785Y-64333333D01*
X212521547Y-64380952D01*
X212331071Y-64380952D01*
X212235833Y-64428571D01*
X212188214Y-64476190D01*
X212140595Y-64571428D01*
X212140595Y-64761904D01*
X212188214Y-64857142D01*
X212235833Y-64904761D01*
X212331071Y-64952380D01*
X212521547Y-64952380D01*
X212616785Y-64904761D01*
X212664404Y-64857142D01*
X212712023Y-64761904D01*
X212712023Y-64571428D01*
X212664404Y-64476190D01*
X212616785Y-64428571D01*
X212521547Y-64380952D01*
X75092976Y-93404761D02*
X75235833Y-93452380D01*
X75473928Y-93452380D01*
X75569166Y-93404761D01*
X75616785Y-93357142D01*
X75664404Y-93261904D01*
X75664404Y-93166666D01*
X75616785Y-93071428D01*
X75569166Y-93023809D01*
X75473928Y-92976190D01*
X75283452Y-92928571D01*
X75188214Y-92880952D01*
X75140595Y-92833333D01*
X75092976Y-92738095D01*
X75092976Y-92642857D01*
X75140595Y-92547619D01*
X75188214Y-92500000D01*
X75283452Y-92452380D01*
X75521547Y-92452380D01*
X75664404Y-92500000D01*
X75997738Y-92452380D02*
X76235833Y-93452380D01*
X76426309Y-92738095D01*
X76616785Y-93452380D01*
X76854880Y-92452380D01*
X77235833Y-93452380D02*
X77235833Y-92452380D01*
X77473928Y-92452380D01*
X77616785Y-92500000D01*
X77712023Y-92595238D01*
X77759642Y-92690476D01*
X77807261Y-92880952D01*
X77807261Y-93023809D01*
X77759642Y-93214285D01*
X77712023Y-93309523D01*
X77616785Y-93404761D01*
X77473928Y-93452380D01*
X77235833Y-93452380D01*
X78140595Y-92452380D02*
X78759642Y-92452380D01*
X78426309Y-92833333D01*
X78569166Y-92833333D01*
X78664404Y-92880952D01*
X78712023Y-92928571D01*
X78759642Y-93023809D01*
X78759642Y-93261904D01*
X78712023Y-93357142D01*
X78664404Y-93404761D01*
X78569166Y-93452380D01*
X78283452Y-93452380D01*
X78188214Y-93404761D01*
X78140595Y-93357142D01*
X79712023Y-93452380D02*
X79140595Y-93452380D01*
X79426309Y-93452380D02*
X79426309Y-92452380D01*
X79331071Y-92595238D01*
X79235833Y-92690476D01*
X79140595Y-92738095D01*
X224785714Y-102652380D02*
X224785714Y-103366666D01*
X224738095Y-103509523D01*
X224642857Y-103604761D01*
X224500000Y-103652380D01*
X224404761Y-103652380D01*
X225261904Y-103652380D02*
X225261904Y-102652380D01*
X225642857Y-102652380D01*
X225738095Y-102700000D01*
X225785714Y-102747619D01*
X225833333Y-102842857D01*
X225833333Y-102985714D01*
X225785714Y-103080952D01*
X225738095Y-103128571D01*
X225642857Y-103176190D01*
X225261904Y-103176190D01*
X226023809Y-103747619D02*
X226785714Y-103747619D01*
X227595238Y-103652380D02*
X227261904Y-103176190D01*
X227023809Y-103652380D02*
X227023809Y-102652380D01*
X227404761Y-102652380D01*
X227500000Y-102700000D01*
X227547619Y-102747619D01*
X227595238Y-102842857D01*
X227595238Y-102985714D01*
X227547619Y-103080952D01*
X227500000Y-103128571D01*
X227404761Y-103176190D01*
X227023809Y-103176190D01*
X227976190Y-102747619D02*
X228023809Y-102700000D01*
X228119047Y-102652380D01*
X228357142Y-102652380D01*
X228452380Y-102700000D01*
X228500000Y-102747619D01*
X228547619Y-102842857D01*
X228547619Y-102938095D01*
X228500000Y-103080952D01*
X227928571Y-103652380D01*
X228547619Y-103652380D01*
X113092976Y-83904761D02*
X113235833Y-83952380D01*
X113473928Y-83952380D01*
X113569166Y-83904761D01*
X113616785Y-83857142D01*
X113664404Y-83761904D01*
X113664404Y-83666666D01*
X113616785Y-83571428D01*
X113569166Y-83523809D01*
X113473928Y-83476190D01*
X113283452Y-83428571D01*
X113188214Y-83380952D01*
X113140595Y-83333333D01*
X113092976Y-83238095D01*
X113092976Y-83142857D01*
X113140595Y-83047619D01*
X113188214Y-83000000D01*
X113283452Y-82952380D01*
X113521547Y-82952380D01*
X113664404Y-83000000D01*
X113997738Y-82952380D02*
X114235833Y-83952380D01*
X114426309Y-83238095D01*
X114616785Y-83952380D01*
X114854880Y-82952380D01*
X115235833Y-83952380D02*
X115235833Y-82952380D01*
X115473928Y-82952380D01*
X115616785Y-83000000D01*
X115712023Y-83095238D01*
X115759642Y-83190476D01*
X115807261Y-83380952D01*
X115807261Y-83523809D01*
X115759642Y-83714285D01*
X115712023Y-83809523D01*
X115616785Y-83904761D01*
X115473928Y-83952380D01*
X115235833Y-83952380D01*
X116188214Y-83047619D02*
X116235833Y-83000000D01*
X116331071Y-82952380D01*
X116569166Y-82952380D01*
X116664404Y-83000000D01*
X116712023Y-83047619D01*
X116759642Y-83142857D01*
X116759642Y-83238095D01*
X116712023Y-83380952D01*
X116140595Y-83952380D01*
X116759642Y-83952380D01*
X117092976Y-82952380D02*
X117712023Y-82952380D01*
X117378690Y-83333333D01*
X117521547Y-83333333D01*
X117616785Y-83380952D01*
X117664404Y-83428571D01*
X117712023Y-83523809D01*
X117712023Y-83761904D01*
X117664404Y-83857142D01*
X117616785Y-83904761D01*
X117521547Y-83952380D01*
X117235833Y-83952380D01*
X117140595Y-83904761D01*
X117092976Y-83857142D01*
X224880952Y-110652380D02*
X224880952Y-111366666D01*
X224833333Y-111509523D01*
X224738095Y-111604761D01*
X224595238Y-111652380D01*
X224500000Y-111652380D01*
X225357142Y-111652380D02*
X225357142Y-110652380D01*
X225738095Y-110652380D01*
X225833333Y-110700000D01*
X225880952Y-110747619D01*
X225928571Y-110842857D01*
X225928571Y-110985714D01*
X225880952Y-111080952D01*
X225833333Y-111128571D01*
X225738095Y-111176190D01*
X225357142Y-111176190D01*
X226119047Y-111747619D02*
X226880952Y-111747619D01*
X227595238Y-111652380D02*
X227119047Y-111652380D01*
X227119047Y-110652380D01*
X228404761Y-110652380D02*
X227928571Y-110652380D01*
X227880952Y-111128571D01*
X227928571Y-111080952D01*
X228023809Y-111033333D01*
X228261904Y-111033333D01*
X228357142Y-111080952D01*
X228404761Y-111128571D01*
X228452380Y-111223809D01*
X228452380Y-111461904D01*
X228404761Y-111557142D01*
X228357142Y-111604761D01*
X228261904Y-111652380D01*
X228023809Y-111652380D01*
X227928571Y-111604761D01*
X227880952Y-111557142D01*
X208092976Y-140904761D02*
X208235833Y-140952380D01*
X208473928Y-140952380D01*
X208569166Y-140904761D01*
X208616785Y-140857142D01*
X208664404Y-140761904D01*
X208664404Y-140666666D01*
X208616785Y-140571428D01*
X208569166Y-140523809D01*
X208473928Y-140476190D01*
X208283452Y-140428571D01*
X208188214Y-140380952D01*
X208140595Y-140333333D01*
X208092976Y-140238095D01*
X208092976Y-140142857D01*
X208140595Y-140047619D01*
X208188214Y-140000000D01*
X208283452Y-139952380D01*
X208521547Y-139952380D01*
X208664404Y-140000000D01*
X208997738Y-139952380D02*
X209235833Y-140952380D01*
X209426309Y-140238095D01*
X209616785Y-140952380D01*
X209854880Y-139952380D01*
X210235833Y-140952380D02*
X210235833Y-139952380D01*
X210473928Y-139952380D01*
X210616785Y-140000000D01*
X210712023Y-140095238D01*
X210759642Y-140190476D01*
X210807261Y-140380952D01*
X210807261Y-140523809D01*
X210759642Y-140714285D01*
X210712023Y-140809523D01*
X210616785Y-140904761D01*
X210473928Y-140952380D01*
X210235833Y-140952380D01*
X211712023Y-139952380D02*
X211235833Y-139952380D01*
X211188214Y-140428571D01*
X211235833Y-140380952D01*
X211331071Y-140333333D01*
X211569166Y-140333333D01*
X211664404Y-140380952D01*
X211712023Y-140428571D01*
X211759642Y-140523809D01*
X211759642Y-140761904D01*
X211712023Y-140857142D01*
X211664404Y-140904761D01*
X211569166Y-140952380D01*
X211331071Y-140952380D01*
X211235833Y-140904761D01*
X211188214Y-140857142D01*
X212331071Y-140380952D02*
X212235833Y-140333333D01*
X212188214Y-140285714D01*
X212140595Y-140190476D01*
X212140595Y-140142857D01*
X212188214Y-140047619D01*
X212235833Y-140000000D01*
X212331071Y-139952380D01*
X212521547Y-139952380D01*
X212616785Y-140000000D01*
X212664404Y-140047619D01*
X212712023Y-140142857D01*
X212712023Y-140190476D01*
X212664404Y-140285714D01*
X212616785Y-140333333D01*
X212521547Y-140380952D01*
X212331071Y-140380952D01*
X212235833Y-140428571D01*
X212188214Y-140476190D01*
X212140595Y-140571428D01*
X212140595Y-140761904D01*
X212188214Y-140857142D01*
X212235833Y-140904761D01*
X212331071Y-140952380D01*
X212521547Y-140952380D01*
X212616785Y-140904761D01*
X212664404Y-140857142D01*
X212712023Y-140761904D01*
X212712023Y-140571428D01*
X212664404Y-140476190D01*
X212616785Y-140428571D01*
X212521547Y-140380952D01*
X204809523Y-123952380D02*
X204476190Y-123476190D01*
X204238095Y-123952380D02*
X204238095Y-122952380D01*
X204619047Y-122952380D01*
X204714285Y-123000000D01*
X204761904Y-123047619D01*
X204809523Y-123142857D01*
X204809523Y-123285714D01*
X204761904Y-123380952D01*
X204714285Y-123428571D01*
X204619047Y-123476190D01*
X204238095Y-123476190D01*
X205190476Y-123904761D02*
X205333333Y-123952380D01*
X205571428Y-123952380D01*
X205666666Y-123904761D01*
X205714285Y-123857142D01*
X205761904Y-123761904D01*
X205761904Y-123666666D01*
X205714285Y-123571428D01*
X205666666Y-123523809D01*
X205571428Y-123476190D01*
X205380952Y-123428571D01*
X205285714Y-123380952D01*
X205238095Y-123333333D01*
X205190476Y-123238095D01*
X205190476Y-123142857D01*
X205238095Y-123047619D01*
X205285714Y-123000000D01*
X205380952Y-122952380D01*
X205619047Y-122952380D01*
X205761904Y-123000000D01*
X206095238Y-122952380D02*
X206333333Y-123952380D01*
X206523809Y-123238095D01*
X206714285Y-123952380D01*
X206952380Y-122952380D01*
X207333333Y-123952380D02*
X207333333Y-122952380D01*
X207571428Y-122952380D01*
X207714285Y-123000000D01*
X207809523Y-123095238D01*
X207857142Y-123190476D01*
X207904761Y-123380952D01*
X207904761Y-123523809D01*
X207857142Y-123714285D01*
X207809523Y-123809523D01*
X207714285Y-123904761D01*
X207571428Y-123952380D01*
X207333333Y-123952380D01*
X208761904Y-123285714D02*
X208761904Y-123952380D01*
X208523809Y-122904761D02*
X208285714Y-123619047D01*
X208904761Y-123619047D01*
X209428571Y-123380952D02*
X209333333Y-123333333D01*
X209285714Y-123285714D01*
X209238095Y-123190476D01*
X209238095Y-123142857D01*
X209285714Y-123047619D01*
X209333333Y-123000000D01*
X209428571Y-122952380D01*
X209619047Y-122952380D01*
X209714285Y-123000000D01*
X209761904Y-123047619D01*
X209809523Y-123142857D01*
X209809523Y-123190476D01*
X209761904Y-123285714D01*
X209714285Y-123333333D01*
X209619047Y-123380952D01*
X209428571Y-123380952D01*
X209333333Y-123428571D01*
X209285714Y-123476190D01*
X209238095Y-123571428D01*
X209238095Y-123761904D01*
X209285714Y-123857142D01*
X209333333Y-123904761D01*
X209428571Y-123952380D01*
X209619047Y-123952380D01*
X209714285Y-123904761D01*
X209761904Y-123857142D01*
X209809523Y-123761904D01*
X209809523Y-123571428D01*
X209761904Y-123476190D01*
X209714285Y-123428571D01*
X209619047Y-123380952D01*
X170092976Y-55404761D02*
X170235833Y-55452380D01*
X170473928Y-55452380D01*
X170569166Y-55404761D01*
X170616785Y-55357142D01*
X170664404Y-55261904D01*
X170664404Y-55166666D01*
X170616785Y-55071428D01*
X170569166Y-55023809D01*
X170473928Y-54976190D01*
X170283452Y-54928571D01*
X170188214Y-54880952D01*
X170140595Y-54833333D01*
X170092976Y-54738095D01*
X170092976Y-54642857D01*
X170140595Y-54547619D01*
X170188214Y-54500000D01*
X170283452Y-54452380D01*
X170521547Y-54452380D01*
X170664404Y-54500000D01*
X170997738Y-54452380D02*
X171235833Y-55452380D01*
X171426309Y-54738095D01*
X171616785Y-55452380D01*
X171854880Y-54452380D01*
X172235833Y-55452380D02*
X172235833Y-54452380D01*
X172473928Y-54452380D01*
X172616785Y-54500000D01*
X172712023Y-54595238D01*
X172759642Y-54690476D01*
X172807261Y-54880952D01*
X172807261Y-55023809D01*
X172759642Y-55214285D01*
X172712023Y-55309523D01*
X172616785Y-55404761D01*
X172473928Y-55452380D01*
X172235833Y-55452380D01*
X173759642Y-55452380D02*
X173188214Y-55452380D01*
X173473928Y-55452380D02*
X173473928Y-54452380D01*
X173378690Y-54595238D01*
X173283452Y-54690476D01*
X173188214Y-54738095D01*
X174616785Y-54452380D02*
X174426309Y-54452380D01*
X174331071Y-54500000D01*
X174283452Y-54547619D01*
X174188214Y-54690476D01*
X174140595Y-54880952D01*
X174140595Y-55261904D01*
X174188214Y-55357142D01*
X174235833Y-55404761D01*
X174331071Y-55452380D01*
X174521547Y-55452380D01*
X174616785Y-55404761D01*
X174664404Y-55357142D01*
X174712023Y-55261904D01*
X174712023Y-55023809D01*
X174664404Y-54928571D01*
X174616785Y-54880952D01*
X174521547Y-54833333D01*
X174331071Y-54833333D01*
X174235833Y-54880952D01*
X174188214Y-54928571D01*
X174140595Y-55023809D01*
X224785714Y-98652380D02*
X224785714Y-99366666D01*
X224738095Y-99509523D01*
X224642857Y-99604761D01*
X224500000Y-99652380D01*
X224404761Y-99652380D01*
X225261904Y-99652380D02*
X225261904Y-98652380D01*
X225642857Y-98652380D01*
X225738095Y-98700000D01*
X225785714Y-98747619D01*
X225833333Y-98842857D01*
X225833333Y-98985714D01*
X225785714Y-99080952D01*
X225738095Y-99128571D01*
X225642857Y-99176190D01*
X225261904Y-99176190D01*
X226023809Y-99747619D02*
X226785714Y-99747619D01*
X227595238Y-99652380D02*
X227261904Y-99176190D01*
X227023809Y-99652380D02*
X227023809Y-98652380D01*
X227404761Y-98652380D01*
X227500000Y-98700000D01*
X227547619Y-98747619D01*
X227595238Y-98842857D01*
X227595238Y-98985714D01*
X227547619Y-99080952D01*
X227500000Y-99128571D01*
X227404761Y-99176190D01*
X227023809Y-99176190D01*
X228547619Y-99652380D02*
X227976190Y-99652380D01*
X228261904Y-99652380D02*
X228261904Y-98652380D01*
X228166666Y-98795238D01*
X228071428Y-98890476D01*
X227976190Y-98938095D01*
X75092976Y-131404761D02*
X75235833Y-131452380D01*
X75473928Y-131452380D01*
X75569166Y-131404761D01*
X75616785Y-131357142D01*
X75664404Y-131261904D01*
X75664404Y-131166666D01*
X75616785Y-131071428D01*
X75569166Y-131023809D01*
X75473928Y-130976190D01*
X75283452Y-130928571D01*
X75188214Y-130880952D01*
X75140595Y-130833333D01*
X75092976Y-130738095D01*
X75092976Y-130642857D01*
X75140595Y-130547619D01*
X75188214Y-130500000D01*
X75283452Y-130452380D01*
X75521547Y-130452380D01*
X75664404Y-130500000D01*
X75997738Y-130452380D02*
X76235833Y-131452380D01*
X76426309Y-130738095D01*
X76616785Y-131452380D01*
X76854880Y-130452380D01*
X77235833Y-131452380D02*
X77235833Y-130452380D01*
X77473928Y-130452380D01*
X77616785Y-130500000D01*
X77712023Y-130595238D01*
X77759642Y-130690476D01*
X77807261Y-130880952D01*
X77807261Y-131023809D01*
X77759642Y-131214285D01*
X77712023Y-131309523D01*
X77616785Y-131404761D01*
X77473928Y-131452380D01*
X77235833Y-131452380D01*
X78712023Y-130452380D02*
X78235833Y-130452380D01*
X78188214Y-130928571D01*
X78235833Y-130880952D01*
X78331071Y-130833333D01*
X78569166Y-130833333D01*
X78664404Y-130880952D01*
X78712023Y-130928571D01*
X78759642Y-131023809D01*
X78759642Y-131261904D01*
X78712023Y-131357142D01*
X78664404Y-131404761D01*
X78569166Y-131452380D01*
X78331071Y-131452380D01*
X78235833Y-131404761D01*
X78188214Y-131357142D01*
X79712023Y-131452380D02*
X79140595Y-131452380D01*
X79426309Y-131452380D02*
X79426309Y-130452380D01*
X79331071Y-130595238D01*
X79235833Y-130690476D01*
X79140595Y-130738095D01*
X151092976Y-88654761D02*
X151235833Y-88702380D01*
X151473928Y-88702380D01*
X151569166Y-88654761D01*
X151616785Y-88607142D01*
X151664404Y-88511904D01*
X151664404Y-88416666D01*
X151616785Y-88321428D01*
X151569166Y-88273809D01*
X151473928Y-88226190D01*
X151283452Y-88178571D01*
X151188214Y-88130952D01*
X151140595Y-88083333D01*
X151092976Y-87988095D01*
X151092976Y-87892857D01*
X151140595Y-87797619D01*
X151188214Y-87750000D01*
X151283452Y-87702380D01*
X151521547Y-87702380D01*
X151664404Y-87750000D01*
X151997738Y-87702380D02*
X152235833Y-88702380D01*
X152426309Y-87988095D01*
X152616785Y-88702380D01*
X152854880Y-87702380D01*
X153235833Y-88702380D02*
X153235833Y-87702380D01*
X153473928Y-87702380D01*
X153616785Y-87750000D01*
X153712023Y-87845238D01*
X153759642Y-87940476D01*
X153807261Y-88130952D01*
X153807261Y-88273809D01*
X153759642Y-88464285D01*
X153712023Y-88559523D01*
X153616785Y-88654761D01*
X153473928Y-88702380D01*
X153235833Y-88702380D01*
X154140595Y-87702380D02*
X154759642Y-87702380D01*
X154426309Y-88083333D01*
X154569166Y-88083333D01*
X154664404Y-88130952D01*
X154712023Y-88178571D01*
X154759642Y-88273809D01*
X154759642Y-88511904D01*
X154712023Y-88607142D01*
X154664404Y-88654761D01*
X154569166Y-88702380D01*
X154283452Y-88702380D01*
X154188214Y-88654761D01*
X154140595Y-88607142D01*
X155664404Y-87702380D02*
X155188214Y-87702380D01*
X155140595Y-88178571D01*
X155188214Y-88130952D01*
X155283452Y-88083333D01*
X155521547Y-88083333D01*
X155616785Y-88130952D01*
X155664404Y-88178571D01*
X155712023Y-88273809D01*
X155712023Y-88511904D01*
X155664404Y-88607142D01*
X155616785Y-88654761D01*
X155521547Y-88702380D01*
X155283452Y-88702380D01*
X155188214Y-88654761D01*
X155140595Y-88607142D01*
X132092976Y-93404761D02*
X132235833Y-93452380D01*
X132473928Y-93452380D01*
X132569166Y-93404761D01*
X132616785Y-93357142D01*
X132664404Y-93261904D01*
X132664404Y-93166666D01*
X132616785Y-93071428D01*
X132569166Y-93023809D01*
X132473928Y-92976190D01*
X132283452Y-92928571D01*
X132188214Y-92880952D01*
X132140595Y-92833333D01*
X132092976Y-92738095D01*
X132092976Y-92642857D01*
X132140595Y-92547619D01*
X132188214Y-92500000D01*
X132283452Y-92452380D01*
X132521547Y-92452380D01*
X132664404Y-92500000D01*
X132997738Y-92452380D02*
X133235833Y-93452380D01*
X133426309Y-92738095D01*
X133616785Y-93452380D01*
X133854880Y-92452380D01*
X134235833Y-93452380D02*
X134235833Y-92452380D01*
X134473928Y-92452380D01*
X134616785Y-92500000D01*
X134712023Y-92595238D01*
X134759642Y-92690476D01*
X134807261Y-92880952D01*
X134807261Y-93023809D01*
X134759642Y-93214285D01*
X134712023Y-93309523D01*
X134616785Y-93404761D01*
X134473928Y-93452380D01*
X134235833Y-93452380D01*
X135140595Y-92452380D02*
X135759642Y-92452380D01*
X135426309Y-92833333D01*
X135569166Y-92833333D01*
X135664404Y-92880952D01*
X135712023Y-92928571D01*
X135759642Y-93023809D01*
X135759642Y-93261904D01*
X135712023Y-93357142D01*
X135664404Y-93404761D01*
X135569166Y-93452380D01*
X135283452Y-93452380D01*
X135188214Y-93404761D01*
X135140595Y-93357142D01*
X136616785Y-92785714D02*
X136616785Y-93452380D01*
X136378690Y-92404761D02*
X136140595Y-93119047D01*
X136759642Y-93119047D01*
X94092976Y-102904761D02*
X94235833Y-102952380D01*
X94473928Y-102952380D01*
X94569166Y-102904761D01*
X94616785Y-102857142D01*
X94664404Y-102761904D01*
X94664404Y-102666666D01*
X94616785Y-102571428D01*
X94569166Y-102523809D01*
X94473928Y-102476190D01*
X94283452Y-102428571D01*
X94188214Y-102380952D01*
X94140595Y-102333333D01*
X94092976Y-102238095D01*
X94092976Y-102142857D01*
X94140595Y-102047619D01*
X94188214Y-102000000D01*
X94283452Y-101952380D01*
X94521547Y-101952380D01*
X94664404Y-102000000D01*
X94997738Y-101952380D02*
X95235833Y-102952380D01*
X95426309Y-102238095D01*
X95616785Y-102952380D01*
X95854880Y-101952380D01*
X96235833Y-102952380D02*
X96235833Y-101952380D01*
X96473928Y-101952380D01*
X96616785Y-102000000D01*
X96712023Y-102095238D01*
X96759642Y-102190476D01*
X96807261Y-102380952D01*
X96807261Y-102523809D01*
X96759642Y-102714285D01*
X96712023Y-102809523D01*
X96616785Y-102904761D01*
X96473928Y-102952380D01*
X96235833Y-102952380D01*
X97140595Y-101952380D02*
X97759642Y-101952380D01*
X97426309Y-102333333D01*
X97569166Y-102333333D01*
X97664404Y-102380952D01*
X97712023Y-102428571D01*
X97759642Y-102523809D01*
X97759642Y-102761904D01*
X97712023Y-102857142D01*
X97664404Y-102904761D01*
X97569166Y-102952380D01*
X97283452Y-102952380D01*
X97188214Y-102904761D01*
X97140595Y-102857142D01*
X98140595Y-102047619D02*
X98188214Y-102000000D01*
X98283452Y-101952380D01*
X98521547Y-101952380D01*
X98616785Y-102000000D01*
X98664404Y-102047619D01*
X98712023Y-102142857D01*
X98712023Y-102238095D01*
X98664404Y-102380952D01*
X98092976Y-102952380D01*
X98712023Y-102952380D01*
X132092976Y-74404761D02*
X132235833Y-74452380D01*
X132473928Y-74452380D01*
X132569166Y-74404761D01*
X132616785Y-74357142D01*
X132664404Y-74261904D01*
X132664404Y-74166666D01*
X132616785Y-74071428D01*
X132569166Y-74023809D01*
X132473928Y-73976190D01*
X132283452Y-73928571D01*
X132188214Y-73880952D01*
X132140595Y-73833333D01*
X132092976Y-73738095D01*
X132092976Y-73642857D01*
X132140595Y-73547619D01*
X132188214Y-73500000D01*
X132283452Y-73452380D01*
X132521547Y-73452380D01*
X132664404Y-73500000D01*
X132997738Y-73452380D02*
X133235833Y-74452380D01*
X133426309Y-73738095D01*
X133616785Y-74452380D01*
X133854880Y-73452380D01*
X134235833Y-74452380D02*
X134235833Y-73452380D01*
X134473928Y-73452380D01*
X134616785Y-73500000D01*
X134712023Y-73595238D01*
X134759642Y-73690476D01*
X134807261Y-73880952D01*
X134807261Y-74023809D01*
X134759642Y-74214285D01*
X134712023Y-74309523D01*
X134616785Y-74404761D01*
X134473928Y-74452380D01*
X134235833Y-74452380D01*
X135188214Y-73547619D02*
X135235833Y-73500000D01*
X135331071Y-73452380D01*
X135569166Y-73452380D01*
X135664404Y-73500000D01*
X135712023Y-73547619D01*
X135759642Y-73642857D01*
X135759642Y-73738095D01*
X135712023Y-73880952D01*
X135140595Y-74452380D01*
X135759642Y-74452380D01*
X136616785Y-73785714D02*
X136616785Y-74452380D01*
X136378690Y-73404761D02*
X136140595Y-74119047D01*
X136759642Y-74119047D01*
X71809523Y-57452380D02*
X71476190Y-56976190D01*
X71238095Y-57452380D02*
X71238095Y-56452380D01*
X71619047Y-56452380D01*
X71714285Y-56500000D01*
X71761904Y-56547619D01*
X71809523Y-56642857D01*
X71809523Y-56785714D01*
X71761904Y-56880952D01*
X71714285Y-56928571D01*
X71619047Y-56976190D01*
X71238095Y-56976190D01*
X72190476Y-57404761D02*
X72333333Y-57452380D01*
X72571428Y-57452380D01*
X72666666Y-57404761D01*
X72714285Y-57357142D01*
X72761904Y-57261904D01*
X72761904Y-57166666D01*
X72714285Y-57071428D01*
X72666666Y-57023809D01*
X72571428Y-56976190D01*
X72380952Y-56928571D01*
X72285714Y-56880952D01*
X72238095Y-56833333D01*
X72190476Y-56738095D01*
X72190476Y-56642857D01*
X72238095Y-56547619D01*
X72285714Y-56500000D01*
X72380952Y-56452380D01*
X72619047Y-56452380D01*
X72761904Y-56500000D01*
X73095238Y-56452380D02*
X73333333Y-57452380D01*
X73523809Y-56738095D01*
X73714285Y-57452380D01*
X73952380Y-56452380D01*
X74333333Y-57452380D02*
X74333333Y-56452380D01*
X74571428Y-56452380D01*
X74714285Y-56500000D01*
X74809523Y-56595238D01*
X74857142Y-56690476D01*
X74904761Y-56880952D01*
X74904761Y-57023809D01*
X74857142Y-57214285D01*
X74809523Y-57309523D01*
X74714285Y-57404761D01*
X74571428Y-57452380D01*
X74333333Y-57452380D01*
X75857142Y-57452380D02*
X75285714Y-57452380D01*
X75571428Y-57452380D02*
X75571428Y-56452380D01*
X75476190Y-56595238D01*
X75380952Y-56690476D01*
X75285714Y-56738095D01*
X76809523Y-57452380D02*
X76238095Y-57452380D01*
X76523809Y-57452380D02*
X76523809Y-56452380D01*
X76428571Y-56595238D01*
X76333333Y-56690476D01*
X76238095Y-56738095D01*
X151092976Y-107654761D02*
X151235833Y-107702380D01*
X151473928Y-107702380D01*
X151569166Y-107654761D01*
X151616785Y-107607142D01*
X151664404Y-107511904D01*
X151664404Y-107416666D01*
X151616785Y-107321428D01*
X151569166Y-107273809D01*
X151473928Y-107226190D01*
X151283452Y-107178571D01*
X151188214Y-107130952D01*
X151140595Y-107083333D01*
X151092976Y-106988095D01*
X151092976Y-106892857D01*
X151140595Y-106797619D01*
X151188214Y-106750000D01*
X151283452Y-106702380D01*
X151521547Y-106702380D01*
X151664404Y-106750000D01*
X151997738Y-106702380D02*
X152235833Y-107702380D01*
X152426309Y-106988095D01*
X152616785Y-107702380D01*
X152854880Y-106702380D01*
X153235833Y-107702380D02*
X153235833Y-106702380D01*
X153473928Y-106702380D01*
X153616785Y-106750000D01*
X153712023Y-106845238D01*
X153759642Y-106940476D01*
X153807261Y-107130952D01*
X153807261Y-107273809D01*
X153759642Y-107464285D01*
X153712023Y-107559523D01*
X153616785Y-107654761D01*
X153473928Y-107702380D01*
X153235833Y-107702380D01*
X154664404Y-107035714D02*
X154664404Y-107702380D01*
X154426309Y-106654761D02*
X154188214Y-107369047D01*
X154807261Y-107369047D01*
X155664404Y-106702380D02*
X155188214Y-106702380D01*
X155140595Y-107178571D01*
X155188214Y-107130952D01*
X155283452Y-107083333D01*
X155521547Y-107083333D01*
X155616785Y-107130952D01*
X155664404Y-107178571D01*
X155712023Y-107273809D01*
X155712023Y-107511904D01*
X155664404Y-107607142D01*
X155616785Y-107654761D01*
X155521547Y-107702380D01*
X155283452Y-107702380D01*
X155188214Y-107654761D01*
X155140595Y-107607142D01*
X132092976Y-55404761D02*
X132235833Y-55452380D01*
X132473928Y-55452380D01*
X132569166Y-55404761D01*
X132616785Y-55357142D01*
X132664404Y-55261904D01*
X132664404Y-55166666D01*
X132616785Y-55071428D01*
X132569166Y-55023809D01*
X132473928Y-54976190D01*
X132283452Y-54928571D01*
X132188214Y-54880952D01*
X132140595Y-54833333D01*
X132092976Y-54738095D01*
X132092976Y-54642857D01*
X132140595Y-54547619D01*
X132188214Y-54500000D01*
X132283452Y-54452380D01*
X132521547Y-54452380D01*
X132664404Y-54500000D01*
X132997738Y-54452380D02*
X133235833Y-55452380D01*
X133426309Y-54738095D01*
X133616785Y-55452380D01*
X133854880Y-54452380D01*
X134235833Y-55452380D02*
X134235833Y-54452380D01*
X134473928Y-54452380D01*
X134616785Y-54500000D01*
X134712023Y-54595238D01*
X134759642Y-54690476D01*
X134807261Y-54880952D01*
X134807261Y-55023809D01*
X134759642Y-55214285D01*
X134712023Y-55309523D01*
X134616785Y-55404761D01*
X134473928Y-55452380D01*
X134235833Y-55452380D01*
X135759642Y-55452380D02*
X135188214Y-55452380D01*
X135473928Y-55452380D02*
X135473928Y-54452380D01*
X135378690Y-54595238D01*
X135283452Y-54690476D01*
X135188214Y-54738095D01*
X136616785Y-54785714D02*
X136616785Y-55452380D01*
X136378690Y-54404761D02*
X136140595Y-55119047D01*
X136759642Y-55119047D01*
X94092976Y-64904761D02*
X94235833Y-64952380D01*
X94473928Y-64952380D01*
X94569166Y-64904761D01*
X94616785Y-64857142D01*
X94664404Y-64761904D01*
X94664404Y-64666666D01*
X94616785Y-64571428D01*
X94569166Y-64523809D01*
X94473928Y-64476190D01*
X94283452Y-64428571D01*
X94188214Y-64380952D01*
X94140595Y-64333333D01*
X94092976Y-64238095D01*
X94092976Y-64142857D01*
X94140595Y-64047619D01*
X94188214Y-64000000D01*
X94283452Y-63952380D01*
X94521547Y-63952380D01*
X94664404Y-64000000D01*
X94997738Y-63952380D02*
X95235833Y-64952380D01*
X95426309Y-64238095D01*
X95616785Y-64952380D01*
X95854880Y-63952380D01*
X96235833Y-64952380D02*
X96235833Y-63952380D01*
X96473928Y-63952380D01*
X96616785Y-64000000D01*
X96712023Y-64095238D01*
X96759642Y-64190476D01*
X96807261Y-64380952D01*
X96807261Y-64523809D01*
X96759642Y-64714285D01*
X96712023Y-64809523D01*
X96616785Y-64904761D01*
X96473928Y-64952380D01*
X96235833Y-64952380D01*
X97759642Y-64952380D02*
X97188214Y-64952380D01*
X97473928Y-64952380D02*
X97473928Y-63952380D01*
X97378690Y-64095238D01*
X97283452Y-64190476D01*
X97188214Y-64238095D01*
X98140595Y-64047619D02*
X98188214Y-64000000D01*
X98283452Y-63952380D01*
X98521547Y-63952380D01*
X98616785Y-64000000D01*
X98664404Y-64047619D01*
X98712023Y-64142857D01*
X98712023Y-64238095D01*
X98664404Y-64380952D01*
X98092976Y-64952380D01*
X98712023Y-64952380D01*
X189092976Y-136154761D02*
X189235833Y-136202380D01*
X189473928Y-136202380D01*
X189569166Y-136154761D01*
X189616785Y-136107142D01*
X189664404Y-136011904D01*
X189664404Y-135916666D01*
X189616785Y-135821428D01*
X189569166Y-135773809D01*
X189473928Y-135726190D01*
X189283452Y-135678571D01*
X189188214Y-135630952D01*
X189140595Y-135583333D01*
X189092976Y-135488095D01*
X189092976Y-135392857D01*
X189140595Y-135297619D01*
X189188214Y-135250000D01*
X189283452Y-135202380D01*
X189521547Y-135202380D01*
X189664404Y-135250000D01*
X189997738Y-135202380D02*
X190235833Y-136202380D01*
X190426309Y-135488095D01*
X190616785Y-136202380D01*
X190854880Y-135202380D01*
X191235833Y-136202380D02*
X191235833Y-135202380D01*
X191473928Y-135202380D01*
X191616785Y-135250000D01*
X191712023Y-135345238D01*
X191759642Y-135440476D01*
X191807261Y-135630952D01*
X191807261Y-135773809D01*
X191759642Y-135964285D01*
X191712023Y-136059523D01*
X191616785Y-136154761D01*
X191473928Y-136202380D01*
X191235833Y-136202380D01*
X192712023Y-135202380D02*
X192235833Y-135202380D01*
X192188214Y-135678571D01*
X192235833Y-135630952D01*
X192331071Y-135583333D01*
X192569166Y-135583333D01*
X192664404Y-135630952D01*
X192712023Y-135678571D01*
X192759642Y-135773809D01*
X192759642Y-136011904D01*
X192712023Y-136107142D01*
X192664404Y-136154761D01*
X192569166Y-136202380D01*
X192331071Y-136202380D01*
X192235833Y-136154761D01*
X192188214Y-136107142D01*
X193092976Y-135202380D02*
X193759642Y-135202380D01*
X193331071Y-136202380D01*
X189092976Y-98154761D02*
X189235833Y-98202380D01*
X189473928Y-98202380D01*
X189569166Y-98154761D01*
X189616785Y-98107142D01*
X189664404Y-98011904D01*
X189664404Y-97916666D01*
X189616785Y-97821428D01*
X189569166Y-97773809D01*
X189473928Y-97726190D01*
X189283452Y-97678571D01*
X189188214Y-97630952D01*
X189140595Y-97583333D01*
X189092976Y-97488095D01*
X189092976Y-97392857D01*
X189140595Y-97297619D01*
X189188214Y-97250000D01*
X189283452Y-97202380D01*
X189521547Y-97202380D01*
X189664404Y-97250000D01*
X189997738Y-97202380D02*
X190235833Y-98202380D01*
X190426309Y-97488095D01*
X190616785Y-98202380D01*
X190854880Y-97202380D01*
X191235833Y-98202380D02*
X191235833Y-97202380D01*
X191473928Y-97202380D01*
X191616785Y-97250000D01*
X191712023Y-97345238D01*
X191759642Y-97440476D01*
X191807261Y-97630952D01*
X191807261Y-97773809D01*
X191759642Y-97964285D01*
X191712023Y-98059523D01*
X191616785Y-98154761D01*
X191473928Y-98202380D01*
X191235833Y-98202380D01*
X192140595Y-97202380D02*
X192759642Y-97202380D01*
X192426309Y-97583333D01*
X192569166Y-97583333D01*
X192664404Y-97630952D01*
X192712023Y-97678571D01*
X192759642Y-97773809D01*
X192759642Y-98011904D01*
X192712023Y-98107142D01*
X192664404Y-98154761D01*
X192569166Y-98202380D01*
X192283452Y-98202380D01*
X192188214Y-98154761D01*
X192140595Y-98107142D01*
X193092976Y-97202380D02*
X193759642Y-97202380D01*
X193331071Y-98202380D01*
X132092976Y-112404761D02*
X132235833Y-112452380D01*
X132473928Y-112452380D01*
X132569166Y-112404761D01*
X132616785Y-112357142D01*
X132664404Y-112261904D01*
X132664404Y-112166666D01*
X132616785Y-112071428D01*
X132569166Y-112023809D01*
X132473928Y-111976190D01*
X132283452Y-111928571D01*
X132188214Y-111880952D01*
X132140595Y-111833333D01*
X132092976Y-111738095D01*
X132092976Y-111642857D01*
X132140595Y-111547619D01*
X132188214Y-111500000D01*
X132283452Y-111452380D01*
X132521547Y-111452380D01*
X132664404Y-111500000D01*
X132997738Y-111452380D02*
X133235833Y-112452380D01*
X133426309Y-111738095D01*
X133616785Y-112452380D01*
X133854880Y-111452380D01*
X134235833Y-112452380D02*
X134235833Y-111452380D01*
X134473928Y-111452380D01*
X134616785Y-111500000D01*
X134712023Y-111595238D01*
X134759642Y-111690476D01*
X134807261Y-111880952D01*
X134807261Y-112023809D01*
X134759642Y-112214285D01*
X134712023Y-112309523D01*
X134616785Y-112404761D01*
X134473928Y-112452380D01*
X134235833Y-112452380D01*
X135664404Y-111785714D02*
X135664404Y-112452380D01*
X135426309Y-111404761D02*
X135188214Y-112119047D01*
X135807261Y-112119047D01*
X136616785Y-111785714D02*
X136616785Y-112452380D01*
X136378690Y-111404761D02*
X136140595Y-112119047D01*
X136759642Y-112119047D01*
X189092976Y-79154761D02*
X189235833Y-79202380D01*
X189473928Y-79202380D01*
X189569166Y-79154761D01*
X189616785Y-79107142D01*
X189664404Y-79011904D01*
X189664404Y-78916666D01*
X189616785Y-78821428D01*
X189569166Y-78773809D01*
X189473928Y-78726190D01*
X189283452Y-78678571D01*
X189188214Y-78630952D01*
X189140595Y-78583333D01*
X189092976Y-78488095D01*
X189092976Y-78392857D01*
X189140595Y-78297619D01*
X189188214Y-78250000D01*
X189283452Y-78202380D01*
X189521547Y-78202380D01*
X189664404Y-78250000D01*
X189997738Y-78202380D02*
X190235833Y-79202380D01*
X190426309Y-78488095D01*
X190616785Y-79202380D01*
X190854880Y-78202380D01*
X191235833Y-79202380D02*
X191235833Y-78202380D01*
X191473928Y-78202380D01*
X191616785Y-78250000D01*
X191712023Y-78345238D01*
X191759642Y-78440476D01*
X191807261Y-78630952D01*
X191807261Y-78773809D01*
X191759642Y-78964285D01*
X191712023Y-79059523D01*
X191616785Y-79154761D01*
X191473928Y-79202380D01*
X191235833Y-79202380D01*
X192188214Y-78297619D02*
X192235833Y-78250000D01*
X192331071Y-78202380D01*
X192569166Y-78202380D01*
X192664404Y-78250000D01*
X192712023Y-78297619D01*
X192759642Y-78392857D01*
X192759642Y-78488095D01*
X192712023Y-78630952D01*
X192140595Y-79202380D01*
X192759642Y-79202380D01*
X193092976Y-78202380D02*
X193759642Y-78202380D01*
X193331071Y-79202380D01*
X224880952Y-106652380D02*
X224880952Y-107366666D01*
X224833333Y-107509523D01*
X224738095Y-107604761D01*
X224595238Y-107652380D01*
X224500000Y-107652380D01*
X225357142Y-107652380D02*
X225357142Y-106652380D01*
X225738095Y-106652380D01*
X225833333Y-106700000D01*
X225880952Y-106747619D01*
X225928571Y-106842857D01*
X225928571Y-106985714D01*
X225880952Y-107080952D01*
X225833333Y-107128571D01*
X225738095Y-107176190D01*
X225357142Y-107176190D01*
X226119047Y-107747619D02*
X226880952Y-107747619D01*
X227595238Y-107652380D02*
X227119047Y-107652380D01*
X227119047Y-106652380D01*
X228357142Y-106652380D02*
X228166666Y-106652380D01*
X228071428Y-106700000D01*
X228023809Y-106747619D01*
X227928571Y-106890476D01*
X227880952Y-107080952D01*
X227880952Y-107461904D01*
X227928571Y-107557142D01*
X227976190Y-107604761D01*
X228071428Y-107652380D01*
X228261904Y-107652380D01*
X228357142Y-107604761D01*
X228404761Y-107557142D01*
X228452380Y-107461904D01*
X228452380Y-107223809D01*
X228404761Y-107128571D01*
X228357142Y-107080952D01*
X228261904Y-107033333D01*
X228071428Y-107033333D01*
X227976190Y-107080952D01*
X227928571Y-107128571D01*
X227880952Y-107223809D01*
X94092976Y-83904761D02*
X94235833Y-83952380D01*
X94473928Y-83952380D01*
X94569166Y-83904761D01*
X94616785Y-83857142D01*
X94664404Y-83761904D01*
X94664404Y-83666666D01*
X94616785Y-83571428D01*
X94569166Y-83523809D01*
X94473928Y-83476190D01*
X94283452Y-83428571D01*
X94188214Y-83380952D01*
X94140595Y-83333333D01*
X94092976Y-83238095D01*
X94092976Y-83142857D01*
X94140595Y-83047619D01*
X94188214Y-83000000D01*
X94283452Y-82952380D01*
X94521547Y-82952380D01*
X94664404Y-83000000D01*
X94997738Y-82952380D02*
X95235833Y-83952380D01*
X95426309Y-83238095D01*
X95616785Y-83952380D01*
X95854880Y-82952380D01*
X96235833Y-83952380D02*
X96235833Y-82952380D01*
X96473928Y-82952380D01*
X96616785Y-83000000D01*
X96712023Y-83095238D01*
X96759642Y-83190476D01*
X96807261Y-83380952D01*
X96807261Y-83523809D01*
X96759642Y-83714285D01*
X96712023Y-83809523D01*
X96616785Y-83904761D01*
X96473928Y-83952380D01*
X96235833Y-83952380D01*
X97188214Y-83047619D02*
X97235833Y-83000000D01*
X97331071Y-82952380D01*
X97569166Y-82952380D01*
X97664404Y-83000000D01*
X97712023Y-83047619D01*
X97759642Y-83142857D01*
X97759642Y-83238095D01*
X97712023Y-83380952D01*
X97140595Y-83952380D01*
X97759642Y-83952380D01*
X98140595Y-83047619D02*
X98188214Y-83000000D01*
X98283452Y-82952380D01*
X98521547Y-82952380D01*
X98616785Y-83000000D01*
X98664404Y-83047619D01*
X98712023Y-83142857D01*
X98712023Y-83238095D01*
X98664404Y-83380952D01*
X98092976Y-83952380D01*
X98712023Y-83952380D01*
X113092976Y-102904761D02*
X113235833Y-102952380D01*
X113473928Y-102952380D01*
X113569166Y-102904761D01*
X113616785Y-102857142D01*
X113664404Y-102761904D01*
X113664404Y-102666666D01*
X113616785Y-102571428D01*
X113569166Y-102523809D01*
X113473928Y-102476190D01*
X113283452Y-102428571D01*
X113188214Y-102380952D01*
X113140595Y-102333333D01*
X113092976Y-102238095D01*
X113092976Y-102142857D01*
X113140595Y-102047619D01*
X113188214Y-102000000D01*
X113283452Y-101952380D01*
X113521547Y-101952380D01*
X113664404Y-102000000D01*
X113997738Y-101952380D02*
X114235833Y-102952380D01*
X114426309Y-102238095D01*
X114616785Y-102952380D01*
X114854880Y-101952380D01*
X115235833Y-102952380D02*
X115235833Y-101952380D01*
X115473928Y-101952380D01*
X115616785Y-102000000D01*
X115712023Y-102095238D01*
X115759642Y-102190476D01*
X115807261Y-102380952D01*
X115807261Y-102523809D01*
X115759642Y-102714285D01*
X115712023Y-102809523D01*
X115616785Y-102904761D01*
X115473928Y-102952380D01*
X115235833Y-102952380D01*
X116140595Y-101952380D02*
X116759642Y-101952380D01*
X116426309Y-102333333D01*
X116569166Y-102333333D01*
X116664404Y-102380952D01*
X116712023Y-102428571D01*
X116759642Y-102523809D01*
X116759642Y-102761904D01*
X116712023Y-102857142D01*
X116664404Y-102904761D01*
X116569166Y-102952380D01*
X116283452Y-102952380D01*
X116188214Y-102904761D01*
X116140595Y-102857142D01*
X117092976Y-101952380D02*
X117712023Y-101952380D01*
X117378690Y-102333333D01*
X117521547Y-102333333D01*
X117616785Y-102380952D01*
X117664404Y-102428571D01*
X117712023Y-102523809D01*
X117712023Y-102761904D01*
X117664404Y-102857142D01*
X117616785Y-102904761D01*
X117521547Y-102952380D01*
X117235833Y-102952380D01*
X117140595Y-102904761D01*
X117092976Y-102857142D01*
X113092976Y-64904761D02*
X113235833Y-64952380D01*
X113473928Y-64952380D01*
X113569166Y-64904761D01*
X113616785Y-64857142D01*
X113664404Y-64761904D01*
X113664404Y-64666666D01*
X113616785Y-64571428D01*
X113569166Y-64523809D01*
X113473928Y-64476190D01*
X113283452Y-64428571D01*
X113188214Y-64380952D01*
X113140595Y-64333333D01*
X113092976Y-64238095D01*
X113092976Y-64142857D01*
X113140595Y-64047619D01*
X113188214Y-64000000D01*
X113283452Y-63952380D01*
X113521547Y-63952380D01*
X113664404Y-64000000D01*
X113997738Y-63952380D02*
X114235833Y-64952380D01*
X114426309Y-64238095D01*
X114616785Y-64952380D01*
X114854880Y-63952380D01*
X115235833Y-64952380D02*
X115235833Y-63952380D01*
X115473928Y-63952380D01*
X115616785Y-64000000D01*
X115712023Y-64095238D01*
X115759642Y-64190476D01*
X115807261Y-64380952D01*
X115807261Y-64523809D01*
X115759642Y-64714285D01*
X115712023Y-64809523D01*
X115616785Y-64904761D01*
X115473928Y-64952380D01*
X115235833Y-64952380D01*
X116759642Y-64952380D02*
X116188214Y-64952380D01*
X116473928Y-64952380D02*
X116473928Y-63952380D01*
X116378690Y-64095238D01*
X116283452Y-64190476D01*
X116188214Y-64238095D01*
X117092976Y-63952380D02*
X117712023Y-63952380D01*
X117378690Y-64333333D01*
X117521547Y-64333333D01*
X117616785Y-64380952D01*
X117664404Y-64428571D01*
X117712023Y-64523809D01*
X117712023Y-64761904D01*
X117664404Y-64857142D01*
X117616785Y-64904761D01*
X117521547Y-64952380D01*
X117235833Y-64952380D01*
X117140595Y-64904761D01*
X117092976Y-64857142D01*
X224880952Y-118652380D02*
X224880952Y-119366666D01*
X224833333Y-119509523D01*
X224738095Y-119604761D01*
X224595238Y-119652380D01*
X224500000Y-119652380D01*
X225357142Y-119652380D02*
X225357142Y-118652380D01*
X225738095Y-118652380D01*
X225833333Y-118700000D01*
X225880952Y-118747619D01*
X225928571Y-118842857D01*
X225928571Y-118985714D01*
X225880952Y-119080952D01*
X225833333Y-119128571D01*
X225738095Y-119176190D01*
X225357142Y-119176190D01*
X226119047Y-119747619D02*
X226880952Y-119747619D01*
X227595238Y-119652380D02*
X227119047Y-119652380D01*
X227119047Y-118652380D01*
X227833333Y-118652380D02*
X228452380Y-118652380D01*
X228119047Y-119033333D01*
X228261904Y-119033333D01*
X228357142Y-119080952D01*
X228404761Y-119128571D01*
X228452380Y-119223809D01*
X228452380Y-119461904D01*
X228404761Y-119557142D01*
X228357142Y-119604761D01*
X228261904Y-119652380D01*
X227976190Y-119652380D01*
X227880952Y-119604761D01*
X227833333Y-119557142D01*
X208092976Y-102904761D02*
X208235833Y-102952380D01*
X208473928Y-102952380D01*
X208569166Y-102904761D01*
X208616785Y-102857142D01*
X208664404Y-102761904D01*
X208664404Y-102666666D01*
X208616785Y-102571428D01*
X208569166Y-102523809D01*
X208473928Y-102476190D01*
X208283452Y-102428571D01*
X208188214Y-102380952D01*
X208140595Y-102333333D01*
X208092976Y-102238095D01*
X208092976Y-102142857D01*
X208140595Y-102047619D01*
X208188214Y-102000000D01*
X208283452Y-101952380D01*
X208521547Y-101952380D01*
X208664404Y-102000000D01*
X208997738Y-101952380D02*
X209235833Y-102952380D01*
X209426309Y-102238095D01*
X209616785Y-102952380D01*
X209854880Y-101952380D01*
X210235833Y-102952380D02*
X210235833Y-101952380D01*
X210473928Y-101952380D01*
X210616785Y-102000000D01*
X210712023Y-102095238D01*
X210759642Y-102190476D01*
X210807261Y-102380952D01*
X210807261Y-102523809D01*
X210759642Y-102714285D01*
X210712023Y-102809523D01*
X210616785Y-102904761D01*
X210473928Y-102952380D01*
X210235833Y-102952380D01*
X211140595Y-101952380D02*
X211759642Y-101952380D01*
X211426309Y-102333333D01*
X211569166Y-102333333D01*
X211664404Y-102380952D01*
X211712023Y-102428571D01*
X211759642Y-102523809D01*
X211759642Y-102761904D01*
X211712023Y-102857142D01*
X211664404Y-102904761D01*
X211569166Y-102952380D01*
X211283452Y-102952380D01*
X211188214Y-102904761D01*
X211140595Y-102857142D01*
X212331071Y-102380952D02*
X212235833Y-102333333D01*
X212188214Y-102285714D01*
X212140595Y-102190476D01*
X212140595Y-102142857D01*
X212188214Y-102047619D01*
X212235833Y-102000000D01*
X212331071Y-101952380D01*
X212521547Y-101952380D01*
X212616785Y-102000000D01*
X212664404Y-102047619D01*
X212712023Y-102142857D01*
X212712023Y-102190476D01*
X212664404Y-102285714D01*
X212616785Y-102333333D01*
X212521547Y-102380952D01*
X212331071Y-102380952D01*
X212235833Y-102428571D01*
X212188214Y-102476190D01*
X212140595Y-102571428D01*
X212140595Y-102761904D01*
X212188214Y-102857142D01*
X212235833Y-102904761D01*
X212331071Y-102952380D01*
X212521547Y-102952380D01*
X212616785Y-102904761D01*
X212664404Y-102857142D01*
X212712023Y-102761904D01*
X212712023Y-102571428D01*
X212664404Y-102476190D01*
X212616785Y-102428571D01*
X212521547Y-102380952D01*
X75092976Y-74404761D02*
X75235833Y-74452380D01*
X75473928Y-74452380D01*
X75569166Y-74404761D01*
X75616785Y-74357142D01*
X75664404Y-74261904D01*
X75664404Y-74166666D01*
X75616785Y-74071428D01*
X75569166Y-74023809D01*
X75473928Y-73976190D01*
X75283452Y-73928571D01*
X75188214Y-73880952D01*
X75140595Y-73833333D01*
X75092976Y-73738095D01*
X75092976Y-73642857D01*
X75140595Y-73547619D01*
X75188214Y-73500000D01*
X75283452Y-73452380D01*
X75521547Y-73452380D01*
X75664404Y-73500000D01*
X75997738Y-73452380D02*
X76235833Y-74452380D01*
X76426309Y-73738095D01*
X76616785Y-74452380D01*
X76854880Y-73452380D01*
X77235833Y-74452380D02*
X77235833Y-73452380D01*
X77473928Y-73452380D01*
X77616785Y-73500000D01*
X77712023Y-73595238D01*
X77759642Y-73690476D01*
X77807261Y-73880952D01*
X77807261Y-74023809D01*
X77759642Y-74214285D01*
X77712023Y-74309523D01*
X77616785Y-74404761D01*
X77473928Y-74452380D01*
X77235833Y-74452380D01*
X78188214Y-73547619D02*
X78235833Y-73500000D01*
X78331071Y-73452380D01*
X78569166Y-73452380D01*
X78664404Y-73500000D01*
X78712023Y-73547619D01*
X78759642Y-73642857D01*
X78759642Y-73738095D01*
X78712023Y-73880952D01*
X78140595Y-74452380D01*
X78759642Y-74452380D01*
X79712023Y-74452380D02*
X79140595Y-74452380D01*
X79426309Y-74452380D02*
X79426309Y-73452380D01*
X79331071Y-73595238D01*
X79235833Y-73690476D01*
X79140595Y-73738095D01*
X170092976Y-112404761D02*
X170235833Y-112452380D01*
X170473928Y-112452380D01*
X170569166Y-112404761D01*
X170616785Y-112357142D01*
X170664404Y-112261904D01*
X170664404Y-112166666D01*
X170616785Y-112071428D01*
X170569166Y-112023809D01*
X170473928Y-111976190D01*
X170283452Y-111928571D01*
X170188214Y-111880952D01*
X170140595Y-111833333D01*
X170092976Y-111738095D01*
X170092976Y-111642857D01*
X170140595Y-111547619D01*
X170188214Y-111500000D01*
X170283452Y-111452380D01*
X170521547Y-111452380D01*
X170664404Y-111500000D01*
X170997738Y-111452380D02*
X171235833Y-112452380D01*
X171426309Y-111738095D01*
X171616785Y-112452380D01*
X171854880Y-111452380D01*
X172235833Y-112452380D02*
X172235833Y-111452380D01*
X172473928Y-111452380D01*
X172616785Y-111500000D01*
X172712023Y-111595238D01*
X172759642Y-111690476D01*
X172807261Y-111880952D01*
X172807261Y-112023809D01*
X172759642Y-112214285D01*
X172712023Y-112309523D01*
X172616785Y-112404761D01*
X172473928Y-112452380D01*
X172235833Y-112452380D01*
X173664404Y-111785714D02*
X173664404Y-112452380D01*
X173426309Y-111404761D02*
X173188214Y-112119047D01*
X173807261Y-112119047D01*
X174616785Y-111452380D02*
X174426309Y-111452380D01*
X174331071Y-111500000D01*
X174283452Y-111547619D01*
X174188214Y-111690476D01*
X174140595Y-111880952D01*
X174140595Y-112261904D01*
X174188214Y-112357142D01*
X174235833Y-112404761D01*
X174331071Y-112452380D01*
X174521547Y-112452380D01*
X174616785Y-112404761D01*
X174664404Y-112357142D01*
X174712023Y-112261904D01*
X174712023Y-112023809D01*
X174664404Y-111928571D01*
X174616785Y-111880952D01*
X174521547Y-111833333D01*
X174331071Y-111833333D01*
X174235833Y-111880952D01*
X174188214Y-111928571D01*
X174140595Y-112023809D01*
X151092976Y-69654761D02*
X151235833Y-69702380D01*
X151473928Y-69702380D01*
X151569166Y-69654761D01*
X151616785Y-69607142D01*
X151664404Y-69511904D01*
X151664404Y-69416666D01*
X151616785Y-69321428D01*
X151569166Y-69273809D01*
X151473928Y-69226190D01*
X151283452Y-69178571D01*
X151188214Y-69130952D01*
X151140595Y-69083333D01*
X151092976Y-68988095D01*
X151092976Y-68892857D01*
X151140595Y-68797619D01*
X151188214Y-68750000D01*
X151283452Y-68702380D01*
X151521547Y-68702380D01*
X151664404Y-68750000D01*
X151997738Y-68702380D02*
X152235833Y-69702380D01*
X152426309Y-68988095D01*
X152616785Y-69702380D01*
X152854880Y-68702380D01*
X153235833Y-69702380D02*
X153235833Y-68702380D01*
X153473928Y-68702380D01*
X153616785Y-68750000D01*
X153712023Y-68845238D01*
X153759642Y-68940476D01*
X153807261Y-69130952D01*
X153807261Y-69273809D01*
X153759642Y-69464285D01*
X153712023Y-69559523D01*
X153616785Y-69654761D01*
X153473928Y-69702380D01*
X153235833Y-69702380D01*
X154188214Y-68797619D02*
X154235833Y-68750000D01*
X154331071Y-68702380D01*
X154569166Y-68702380D01*
X154664404Y-68750000D01*
X154712023Y-68797619D01*
X154759642Y-68892857D01*
X154759642Y-68988095D01*
X154712023Y-69130952D01*
X154140595Y-69702380D01*
X154759642Y-69702380D01*
X155664404Y-68702380D02*
X155188214Y-68702380D01*
X155140595Y-69178571D01*
X155188214Y-69130952D01*
X155283452Y-69083333D01*
X155521547Y-69083333D01*
X155616785Y-69130952D01*
X155664404Y-69178571D01*
X155712023Y-69273809D01*
X155712023Y-69511904D01*
X155664404Y-69607142D01*
X155616785Y-69654761D01*
X155521547Y-69702380D01*
X155283452Y-69702380D01*
X155188214Y-69654761D01*
X155140595Y-69607142D01*
D13*
X226664285Y-75615321D02*
X226664285Y-75215321D01*
X227292857Y-75043892D02*
X227292857Y-75615321D01*
X226092857Y-75615321D01*
X226092857Y-75043892D01*
X227292857Y-74358178D02*
X227235714Y-74472464D01*
X227121428Y-74529607D01*
X226092857Y-74529607D01*
X227292857Y-73901035D02*
X226492857Y-73901035D01*
X226092857Y-73901035D02*
X226150000Y-73958178D01*
X226207142Y-73901035D01*
X226150000Y-73843892D01*
X226092857Y-73901035D01*
X226207142Y-73901035D01*
X226492857Y-73501035D02*
X226492857Y-73043892D01*
X226092857Y-73329607D02*
X227121428Y-73329607D01*
X227235714Y-73272464D01*
X227292857Y-73158178D01*
X227292857Y-73043892D01*
X227235714Y-72186750D02*
X227292857Y-72301035D01*
X227292857Y-72529607D01*
X227235714Y-72643892D01*
X227121428Y-72701035D01*
X226664285Y-72701035D01*
X226550000Y-72643892D01*
X226492857Y-72529607D01*
X226492857Y-72301035D01*
X226550000Y-72186750D01*
X226664285Y-72129607D01*
X226778571Y-72129607D01*
X226892857Y-72701035D01*
X226835714Y-71615321D02*
X226835714Y-70701035D01*
X227178571Y-69443892D02*
X227235714Y-69501035D01*
X227292857Y-69672464D01*
X227292857Y-69786750D01*
X227235714Y-69958178D01*
X227121428Y-70072464D01*
X227007142Y-70129607D01*
X226778571Y-70186750D01*
X226607142Y-70186750D01*
X226378571Y-70129607D01*
X226264285Y-70072464D01*
X226150000Y-69958178D01*
X226092857Y-69786750D01*
X226092857Y-69672464D01*
X226150000Y-69501035D01*
X226207142Y-69443892D01*
X227292857Y-68301035D02*
X227292857Y-68986750D01*
X227292857Y-68643892D02*
X226092857Y-68643892D01*
X226264285Y-68758178D01*
X226378571Y-68872464D01*
X226435714Y-68986750D01*
D11*
X220679476Y-65236750D02*
X220603285Y-65198654D01*
X220489000Y-65198654D01*
X220374714Y-65236750D01*
X220298523Y-65312940D01*
X220260428Y-65389130D01*
X220222333Y-65541511D01*
X220222333Y-65655797D01*
X220260428Y-65808178D01*
X220298523Y-65884369D01*
X220374714Y-65960559D01*
X220489000Y-65998654D01*
X220565190Y-65998654D01*
X220679476Y-65960559D01*
X220717571Y-65922464D01*
X220717571Y-65655797D01*
X220565190Y-65655797D01*
X221060428Y-65998654D02*
X221060428Y-65198654D01*
X221517571Y-65998654D01*
X221517571Y-65198654D01*
X221898523Y-65998654D02*
X221898523Y-65198654D01*
X222089000Y-65198654D01*
X222203285Y-65236750D01*
X222279476Y-65312940D01*
X222317571Y-65389130D01*
X222355666Y-65541511D01*
X222355666Y-65655797D01*
X222317571Y-65808178D01*
X222279476Y-65884369D01*
X222203285Y-65960559D01*
X222089000Y-65998654D01*
X221898523Y-65998654D01*
X221966666Y-84536750D02*
X222066666Y-84570083D01*
X222100000Y-84603416D01*
X222133333Y-84670083D01*
X222133333Y-84770083D01*
X222100000Y-84836750D01*
X222066666Y-84870083D01*
X222000000Y-84903416D01*
X221733333Y-84903416D01*
X221733333Y-84203416D01*
X221966666Y-84203416D01*
X222033333Y-84236750D01*
X222066666Y-84270083D01*
X222100000Y-84336750D01*
X222100000Y-84403416D01*
X222066666Y-84470083D01*
X222033333Y-84503416D01*
X221966666Y-84536750D01*
X221733333Y-84536750D01*
X222366666Y-84203416D02*
X222833333Y-84203416D01*
X222533333Y-84903416D01*
X231949786Y-63390559D02*
X232064072Y-63428654D01*
X232254548Y-63428654D01*
X232330739Y-63390559D01*
X232368834Y-63352464D01*
X232406929Y-63276273D01*
X232406929Y-63200083D01*
X232368834Y-63123892D01*
X232330739Y-63085797D01*
X232254548Y-63047702D01*
X232102167Y-63009607D01*
X232025977Y-62971511D01*
X231987881Y-62933416D01*
X231949786Y-62857226D01*
X231949786Y-62781035D01*
X231987881Y-62704845D01*
X232025977Y-62666750D01*
X232102167Y-62628654D01*
X232292643Y-62628654D01*
X232406929Y-62666750D01*
X232635500Y-62628654D02*
X233092643Y-62628654D01*
X232864072Y-63428654D02*
X232864072Y-62628654D01*
X220736619Y-80819607D02*
X221003285Y-80819607D01*
X221117571Y-81238654D02*
X220736619Y-81238654D01*
X220736619Y-80438654D01*
X221117571Y-80438654D01*
X221803285Y-80438654D02*
X221650904Y-80438654D01*
X221574714Y-80476750D01*
X221536619Y-80514845D01*
X221460428Y-80629130D01*
X221422333Y-80781511D01*
X221422333Y-81086273D01*
X221460428Y-81162464D01*
X221498523Y-81200559D01*
X221574714Y-81238654D01*
X221727095Y-81238654D01*
X221803285Y-81200559D01*
X221841380Y-81162464D01*
X221879476Y-81086273D01*
X221879476Y-80895797D01*
X221841380Y-80819607D01*
X221803285Y-80781511D01*
X221727095Y-80743416D01*
X221574714Y-80743416D01*
X221498523Y-80781511D01*
X221460428Y-80819607D01*
X221422333Y-80895797D01*
X231944333Y-75739607D02*
X231677666Y-75739607D01*
X231677666Y-76158654D02*
X231677666Y-75358654D01*
X232058619Y-75358654D01*
X232287190Y-75358654D02*
X232820523Y-75358654D01*
X232477666Y-76158654D01*
X220698523Y-78698654D02*
X220698523Y-77898654D01*
X220889000Y-77898654D01*
X221003285Y-77936750D01*
X221079476Y-78012940D01*
X221117571Y-78089130D01*
X221155666Y-78241511D01*
X221155666Y-78355797D01*
X221117571Y-78508178D01*
X221079476Y-78584369D01*
X221003285Y-78660559D01*
X220889000Y-78698654D01*
X220698523Y-78698654D01*
X221422333Y-77898654D02*
X221955666Y-77898654D01*
X221612809Y-78698654D01*
X221155666Y-76082464D02*
X221117571Y-76120559D01*
X221003285Y-76158654D01*
X220927095Y-76158654D01*
X220812809Y-76120559D01*
X220736619Y-76044369D01*
X220698523Y-75968178D01*
X220660428Y-75815797D01*
X220660428Y-75701511D01*
X220698523Y-75549130D01*
X220736619Y-75472940D01*
X220812809Y-75396750D01*
X220927095Y-75358654D01*
X221003285Y-75358654D01*
X221117571Y-75396750D01*
X221155666Y-75434845D01*
X221841380Y-75358654D02*
X221689000Y-75358654D01*
X221612809Y-75396750D01*
X221574714Y-75434845D01*
X221498523Y-75549130D01*
X221460428Y-75701511D01*
X221460428Y-76006273D01*
X221498523Y-76082464D01*
X221536619Y-76120559D01*
X221612809Y-76158654D01*
X221765190Y-76158654D01*
X221841380Y-76120559D01*
X221879476Y-76082464D01*
X221917571Y-76006273D01*
X221917571Y-75815797D01*
X221879476Y-75739607D01*
X221841380Y-75701511D01*
X221765190Y-75663416D01*
X221612809Y-75663416D01*
X221536619Y-75701511D01*
X221498523Y-75739607D01*
X221460428Y-75815797D01*
X231887190Y-78279607D02*
X232001476Y-78317702D01*
X232039571Y-78355797D01*
X232077666Y-78431988D01*
X232077666Y-78546273D01*
X232039571Y-78622464D01*
X232001476Y-78660559D01*
X231925285Y-78698654D01*
X231620523Y-78698654D01*
X231620523Y-77898654D01*
X231887190Y-77898654D01*
X231963380Y-77936750D01*
X232001476Y-77974845D01*
X232039571Y-78051035D01*
X232039571Y-78127226D01*
X232001476Y-78203416D01*
X231963380Y-78241511D01*
X231887190Y-78279607D01*
X231620523Y-78279607D01*
X232839571Y-78698654D02*
X232382428Y-78698654D01*
X232611000Y-78698654D02*
X232611000Y-77898654D01*
X232534809Y-78012940D01*
X232458619Y-78089130D01*
X232382428Y-78127226D01*
X231601476Y-60156750D02*
X231525285Y-60118654D01*
X231411000Y-60118654D01*
X231296714Y-60156750D01*
X231220523Y-60232940D01*
X231182428Y-60309130D01*
X231144333Y-60461511D01*
X231144333Y-60575797D01*
X231182428Y-60728178D01*
X231220523Y-60804369D01*
X231296714Y-60880559D01*
X231411000Y-60918654D01*
X231487190Y-60918654D01*
X231601476Y-60880559D01*
X231639571Y-60842464D01*
X231639571Y-60575797D01*
X231487190Y-60575797D01*
X231982428Y-60918654D02*
X231982428Y-60118654D01*
X232439571Y-60918654D01*
X232439571Y-60118654D01*
X232820523Y-60918654D02*
X232820523Y-60118654D01*
X233011000Y-60118654D01*
X233125285Y-60156750D01*
X233201476Y-60232940D01*
X233239571Y-60309130D01*
X233277666Y-60461511D01*
X233277666Y-60575797D01*
X233239571Y-60728178D01*
X233201476Y-60804369D01*
X233125285Y-60880559D01*
X233011000Y-60918654D01*
X232820523Y-60918654D01*
X231944333Y-70659607D02*
X231677666Y-70659607D01*
X231677666Y-71078654D02*
X231677666Y-70278654D01*
X232058619Y-70278654D01*
X232744333Y-70278654D02*
X232363380Y-70278654D01*
X232325285Y-70659607D01*
X232363380Y-70621511D01*
X232439571Y-70583416D01*
X232630047Y-70583416D01*
X232706238Y-70621511D01*
X232744333Y-70659607D01*
X232782428Y-70735797D01*
X232782428Y-70926273D01*
X232744333Y-71002464D01*
X232706238Y-71040559D01*
X232630047Y-71078654D01*
X232439571Y-71078654D01*
X232363380Y-71040559D01*
X232325285Y-71002464D01*
X231887190Y-57959607D02*
X232001476Y-57997702D01*
X232039571Y-58035797D01*
X232077666Y-58111988D01*
X232077666Y-58226273D01*
X232039571Y-58302464D01*
X232001476Y-58340559D01*
X231925285Y-58378654D01*
X231620523Y-58378654D01*
X231620523Y-57578654D01*
X231887190Y-57578654D01*
X231963380Y-57616750D01*
X232001476Y-57654845D01*
X232039571Y-57731035D01*
X232039571Y-57807226D01*
X232001476Y-57883416D01*
X231963380Y-57921511D01*
X231887190Y-57959607D01*
X231620523Y-57959607D01*
X232572904Y-57578654D02*
X232649095Y-57578654D01*
X232725285Y-57616750D01*
X232763380Y-57654845D01*
X232801476Y-57731035D01*
X232839571Y-57883416D01*
X232839571Y-58073892D01*
X232801476Y-58226273D01*
X232763380Y-58302464D01*
X232725285Y-58340559D01*
X232649095Y-58378654D01*
X232572904Y-58378654D01*
X232496714Y-58340559D01*
X232458619Y-58302464D01*
X232420523Y-58226273D01*
X232382428Y-58073892D01*
X232382428Y-57883416D01*
X232420523Y-57731035D01*
X232458619Y-57654845D01*
X232496714Y-57616750D01*
X232572904Y-57578654D01*
X220679476Y-62696750D02*
X220603285Y-62658654D01*
X220489000Y-62658654D01*
X220374714Y-62696750D01*
X220298523Y-62772940D01*
X220260428Y-62849130D01*
X220222333Y-63001511D01*
X220222333Y-63115797D01*
X220260428Y-63268178D01*
X220298523Y-63344369D01*
X220374714Y-63420559D01*
X220489000Y-63458654D01*
X220565190Y-63458654D01*
X220679476Y-63420559D01*
X220717571Y-63382464D01*
X220717571Y-63115797D01*
X220565190Y-63115797D01*
X221060428Y-63458654D02*
X221060428Y-62658654D01*
X221517571Y-63458654D01*
X221517571Y-62658654D01*
X221898523Y-63458654D02*
X221898523Y-62658654D01*
X222089000Y-62658654D01*
X222203285Y-62696750D01*
X222279476Y-62772940D01*
X222317571Y-62849130D01*
X222355666Y-63001511D01*
X222355666Y-63115797D01*
X222317571Y-63268178D01*
X222279476Y-63344369D01*
X222203285Y-63420559D01*
X222089000Y-63458654D01*
X221898523Y-63458654D01*
X220698523Y-60918654D02*
X220698523Y-60118654D01*
X220889000Y-60118654D01*
X221003285Y-60156750D01*
X221079476Y-60232940D01*
X221117571Y-60309130D01*
X221155666Y-60461511D01*
X221155666Y-60575797D01*
X221117571Y-60728178D01*
X221079476Y-60804369D01*
X221003285Y-60880559D01*
X220889000Y-60918654D01*
X220698523Y-60918654D01*
X221460428Y-60194845D02*
X221498523Y-60156750D01*
X221574714Y-60118654D01*
X221765190Y-60118654D01*
X221841380Y-60156750D01*
X221879476Y-60194845D01*
X221917571Y-60271035D01*
X221917571Y-60347226D01*
X221879476Y-60461511D01*
X221422333Y-60918654D01*
X221917571Y-60918654D01*
X231887190Y-83359607D02*
X232001476Y-83397702D01*
X232039571Y-83435797D01*
X232077666Y-83511988D01*
X232077666Y-83626273D01*
X232039571Y-83702464D01*
X232001476Y-83740559D01*
X231925285Y-83778654D01*
X231620523Y-83778654D01*
X231620523Y-82978654D01*
X231887190Y-82978654D01*
X231963380Y-83016750D01*
X232001476Y-83054845D01*
X232039571Y-83131035D01*
X232039571Y-83207226D01*
X232001476Y-83283416D01*
X231963380Y-83321511D01*
X231887190Y-83359607D01*
X231620523Y-83359607D01*
X232382428Y-83054845D02*
X232420523Y-83016750D01*
X232496714Y-82978654D01*
X232687190Y-82978654D01*
X232763380Y-83016750D01*
X232801476Y-83054845D01*
X232839571Y-83131035D01*
X232839571Y-83207226D01*
X232801476Y-83321511D01*
X232344333Y-83778654D01*
X232839571Y-83778654D01*
X220514991Y-84922452D02*
X220467851Y-84828171D01*
X220467851Y-84781030D01*
X220491421Y-84710320D01*
X220562132Y-84639609D01*
X220632842Y-84616039D01*
X220679983Y-84616039D01*
X220750693Y-84639609D01*
X220939255Y-84828171D01*
X220444280Y-85323146D01*
X220279289Y-85158154D01*
X220255719Y-85087443D01*
X220255719Y-85040303D01*
X220279289Y-84969592D01*
X220326429Y-84922452D01*
X220397140Y-84898882D01*
X220444280Y-84898882D01*
X220514991Y-84922452D01*
X220679983Y-85087443D01*
X219713603Y-84592469D02*
X219949306Y-84828171D01*
X220208578Y-84616039D01*
X220161438Y-84616039D01*
X220090727Y-84592469D01*
X219972876Y-84474617D01*
X219949306Y-84403907D01*
X219949306Y-84356766D01*
X219972876Y-84286056D01*
X220090727Y-84168205D01*
X220161438Y-84144634D01*
X220208578Y-84144634D01*
X220279289Y-84168205D01*
X220397140Y-84286056D01*
X220420710Y-84356766D01*
X220420710Y-84403907D01*
X220698523Y-68538654D02*
X220698523Y-67738654D01*
X220889000Y-67738654D01*
X221003285Y-67776750D01*
X221079476Y-67852940D01*
X221117571Y-67929130D01*
X221155666Y-68081511D01*
X221155666Y-68195797D01*
X221117571Y-68348178D01*
X221079476Y-68424369D01*
X221003285Y-68500559D01*
X220889000Y-68538654D01*
X220698523Y-68538654D01*
X221917571Y-68538654D02*
X221460428Y-68538654D01*
X221689000Y-68538654D02*
X221689000Y-67738654D01*
X221612809Y-67852940D01*
X221536619Y-67929130D01*
X221460428Y-67967226D01*
X231887190Y-80819607D02*
X232001476Y-80857702D01*
X232039571Y-80895797D01*
X232077666Y-80971988D01*
X232077666Y-81086273D01*
X232039571Y-81162464D01*
X232001476Y-81200559D01*
X231925285Y-81238654D01*
X231620523Y-81238654D01*
X231620523Y-80438654D01*
X231887190Y-80438654D01*
X231963380Y-80476750D01*
X232001476Y-80514845D01*
X232039571Y-80591035D01*
X232039571Y-80667226D01*
X232001476Y-80743416D01*
X231963380Y-80781511D01*
X231887190Y-80819607D01*
X231620523Y-80819607D01*
X232344333Y-80438654D02*
X232839571Y-80438654D01*
X232572904Y-80743416D01*
X232687190Y-80743416D01*
X232763380Y-80781511D01*
X232801476Y-80819607D01*
X232839571Y-80895797D01*
X232839571Y-81086273D01*
X232801476Y-81162464D01*
X232763380Y-81200559D01*
X232687190Y-81238654D01*
X232458619Y-81238654D01*
X232382428Y-81200559D01*
X232344333Y-81162464D01*
X232914297Y-84851741D02*
X233008578Y-84804601D01*
X233055719Y-84804601D01*
X233126429Y-84828171D01*
X233197140Y-84898882D01*
X233220710Y-84969592D01*
X233220710Y-85016733D01*
X233197140Y-85087443D01*
X233008578Y-85276005D01*
X232513603Y-84781030D01*
X232678595Y-84616039D01*
X232749306Y-84592469D01*
X232796446Y-84592469D01*
X232867157Y-84616039D01*
X232914297Y-84663179D01*
X232937867Y-84733890D01*
X232937867Y-84781030D01*
X232914297Y-84851741D01*
X232749306Y-85016733D01*
X233220710Y-84073924D02*
X233126429Y-84168205D01*
X233102859Y-84238915D01*
X233102859Y-84286056D01*
X233126429Y-84403907D01*
X233197140Y-84521758D01*
X233385702Y-84710320D01*
X233456412Y-84733890D01*
X233503553Y-84733890D01*
X233574264Y-84710320D01*
X233668544Y-84616039D01*
X233692115Y-84545328D01*
X233692115Y-84498188D01*
X233668544Y-84427477D01*
X233550693Y-84309626D01*
X233479983Y-84286056D01*
X233432842Y-84286056D01*
X233362132Y-84309626D01*
X233267851Y-84403907D01*
X233244280Y-84474617D01*
X233244280Y-84521758D01*
X233267851Y-84592469D01*
X226616666Y-84672464D02*
X226578571Y-84710559D01*
X226464285Y-84748654D01*
X226388095Y-84748654D01*
X226273809Y-84710559D01*
X226197619Y-84634369D01*
X226159523Y-84558178D01*
X226121428Y-84405797D01*
X226121428Y-84291511D01*
X226159523Y-84139130D01*
X226197619Y-84062940D01*
X226273809Y-83986750D01*
X226388095Y-83948654D01*
X226464285Y-83948654D01*
X226578571Y-83986750D01*
X226616666Y-84024845D01*
X226883333Y-83948654D02*
X227416666Y-83948654D01*
X227073809Y-84748654D01*
X220698523Y-73618654D02*
X220698523Y-72818654D01*
X220889000Y-72818654D01*
X221003285Y-72856750D01*
X221079476Y-72932940D01*
X221117571Y-73009130D01*
X221155666Y-73161511D01*
X221155666Y-73275797D01*
X221117571Y-73428178D01*
X221079476Y-73504369D01*
X221003285Y-73580559D01*
X220889000Y-73618654D01*
X220698523Y-73618654D01*
X221841380Y-73085321D02*
X221841380Y-73618654D01*
X221650904Y-72780559D02*
X221460428Y-73351988D01*
X221955666Y-73351988D01*
X231016666Y-84536750D02*
X230783333Y-84536750D01*
X230783333Y-84903416D02*
X230783333Y-84203416D01*
X231116666Y-84203416D01*
X231516666Y-84203416D02*
X231583333Y-84203416D01*
X231650000Y-84236750D01*
X231683333Y-84270083D01*
X231716666Y-84336750D01*
X231750000Y-84470083D01*
X231750000Y-84636750D01*
X231716666Y-84770083D01*
X231683333Y-84836750D01*
X231650000Y-84870083D01*
X231583333Y-84903416D01*
X231516666Y-84903416D01*
X231450000Y-84870083D01*
X231416666Y-84836750D01*
X231383333Y-84770083D01*
X231350000Y-84636750D01*
X231350000Y-84470083D01*
X231383333Y-84336750D01*
X231416666Y-84270083D01*
X231450000Y-84236750D01*
X231516666Y-84203416D01*
X220965190Y-83359607D02*
X221079476Y-83397702D01*
X221117571Y-83435797D01*
X221155666Y-83511988D01*
X221155666Y-83626273D01*
X221117571Y-83702464D01*
X221079476Y-83740559D01*
X221003285Y-83778654D01*
X220698523Y-83778654D01*
X220698523Y-82978654D01*
X220965190Y-82978654D01*
X221041380Y-83016750D01*
X221079476Y-83054845D01*
X221117571Y-83131035D01*
X221117571Y-83207226D01*
X221079476Y-83283416D01*
X221041380Y-83321511D01*
X220965190Y-83359607D01*
X220698523Y-83359607D01*
X221841380Y-83245321D02*
X221841380Y-83778654D01*
X221650904Y-82940559D02*
X221460428Y-83511988D01*
X221955666Y-83511988D01*
X231944333Y-68119607D02*
X231677666Y-68119607D01*
X231677666Y-68538654D02*
X231677666Y-67738654D01*
X232058619Y-67738654D01*
X232706238Y-68005321D02*
X232706238Y-68538654D01*
X232515761Y-67700559D02*
X232325285Y-68271988D01*
X232820523Y-68271988D01*
X229023333Y-84329607D02*
X228756666Y-84329607D01*
X228756666Y-84748654D02*
X228756666Y-83948654D01*
X229137619Y-83948654D01*
X229861428Y-84748654D02*
X229404285Y-84748654D01*
X229632857Y-84748654D02*
X229632857Y-83948654D01*
X229556666Y-84062940D01*
X229480476Y-84139130D01*
X229404285Y-84177226D01*
X221159523Y-58378654D02*
X221159523Y-57578654D01*
X221350000Y-57578654D01*
X221464285Y-57616750D01*
X221540476Y-57692940D01*
X221578571Y-57769130D01*
X221616666Y-57921511D01*
X221616666Y-58035797D01*
X221578571Y-58188178D01*
X221540476Y-58264369D01*
X221464285Y-58340559D01*
X221350000Y-58378654D01*
X221159523Y-58378654D01*
X221883333Y-57578654D02*
X222378571Y-57578654D01*
X222111904Y-57883416D01*
X222226190Y-57883416D01*
X222302380Y-57921511D01*
X222340476Y-57959607D01*
X222378571Y-58035797D01*
X222378571Y-58226273D01*
X222340476Y-58302464D01*
X222302380Y-58340559D01*
X222226190Y-58378654D01*
X221997619Y-58378654D01*
X221921428Y-58340559D01*
X221883333Y-58302464D01*
X231944333Y-73199607D02*
X231677666Y-73199607D01*
X231677666Y-73618654D02*
X231677666Y-72818654D01*
X232058619Y-72818654D01*
X232706238Y-72818654D02*
X232553857Y-72818654D01*
X232477666Y-72856750D01*
X232439571Y-72894845D01*
X232363380Y-73009130D01*
X232325285Y-73161511D01*
X232325285Y-73466273D01*
X232363380Y-73542464D01*
X232401476Y-73580559D01*
X232477666Y-73618654D01*
X232630047Y-73618654D01*
X232706238Y-73580559D01*
X232744333Y-73542464D01*
X232782428Y-73466273D01*
X232782428Y-73275797D01*
X232744333Y-73199607D01*
X232706238Y-73161511D01*
X232630047Y-73123416D01*
X232477666Y-73123416D01*
X232401476Y-73161511D01*
X232363380Y-73199607D01*
X232325285Y-73275797D01*
X231144333Y-65198654D02*
X231411000Y-65998654D01*
X231677666Y-65198654D01*
X232401476Y-65922464D02*
X232363380Y-65960559D01*
X232249095Y-65998654D01*
X232172904Y-65998654D01*
X232058619Y-65960559D01*
X231982428Y-65884369D01*
X231944333Y-65808178D01*
X231906238Y-65655797D01*
X231906238Y-65541511D01*
X231944333Y-65389130D01*
X231982428Y-65312940D01*
X232058619Y-65236750D01*
X232172904Y-65198654D01*
X232249095Y-65198654D01*
X232363380Y-65236750D01*
X232401476Y-65274845D01*
X233201476Y-65922464D02*
X233163380Y-65960559D01*
X233049095Y-65998654D01*
X232972904Y-65998654D01*
X232858619Y-65960559D01*
X232782428Y-65884369D01*
X232744333Y-65808178D01*
X232706238Y-65655797D01*
X232706238Y-65541511D01*
X232744333Y-65389130D01*
X232782428Y-65312940D01*
X232858619Y-65236750D01*
X232972904Y-65198654D01*
X233049095Y-65198654D01*
X233163380Y-65236750D01*
X233201476Y-65274845D01*
X220698523Y-71078654D02*
X220698523Y-70278654D01*
X220889000Y-70278654D01*
X221003285Y-70316750D01*
X221079476Y-70392940D01*
X221117571Y-70469130D01*
X221155666Y-70621511D01*
X221155666Y-70735797D01*
X221117571Y-70888178D01*
X221079476Y-70964369D01*
X221003285Y-71040559D01*
X220889000Y-71078654D01*
X220698523Y-71078654D01*
X221650904Y-70278654D02*
X221727095Y-70278654D01*
X221803285Y-70316750D01*
X221841380Y-70354845D01*
X221879476Y-70431035D01*
X221917571Y-70583416D01*
X221917571Y-70773892D01*
X221879476Y-70926273D01*
X221841380Y-71002464D01*
X221803285Y-71040559D01*
X221727095Y-71078654D01*
X221650904Y-71078654D01*
X221574714Y-71040559D01*
X221536619Y-71002464D01*
X221498523Y-70926273D01*
X221460428Y-70773892D01*
X221460428Y-70583416D01*
X221498523Y-70431035D01*
X221536619Y-70354845D01*
X221574714Y-70316750D01*
X221650904Y-70278654D01*
X223619523Y-84748654D02*
X223619523Y-83948654D01*
X223810000Y-83948654D01*
X223924285Y-83986750D01*
X224000476Y-84062940D01*
X224038571Y-84139130D01*
X224076666Y-84291511D01*
X224076666Y-84405797D01*
X224038571Y-84558178D01*
X224000476Y-84634369D01*
X223924285Y-84710559D01*
X223810000Y-84748654D01*
X223619523Y-84748654D01*
X224800476Y-83948654D02*
X224419523Y-83948654D01*
X224381428Y-84329607D01*
X224419523Y-84291511D01*
X224495714Y-84253416D01*
X224686190Y-84253416D01*
X224762380Y-84291511D01*
X224800476Y-84329607D01*
X224838571Y-84405797D01*
X224838571Y-84596273D01*
X224800476Y-84672464D01*
X224762380Y-84710559D01*
X224686190Y-84748654D01*
X224495714Y-84748654D01*
X224419523Y-84710559D01*
X224381428Y-84672464D01*
X224932457Y-123054895D02*
X225087276Y-123054895D01*
X225164685Y-123093600D01*
X225242095Y-123171009D01*
X225280800Y-123325828D01*
X225280800Y-123596761D01*
X225242095Y-123751580D01*
X225164685Y-123828990D01*
X225087276Y-123867695D01*
X224932457Y-123867695D01*
X224855047Y-123828990D01*
X224777638Y-123751580D01*
X224738933Y-123596761D01*
X224738933Y-123325828D01*
X224777638Y-123171009D01*
X224855047Y-123093600D01*
X224932457Y-123054895D01*
X226016190Y-123867695D02*
X225629142Y-123867695D01*
X225629142Y-123054895D01*
X226287123Y-123441942D02*
X226558057Y-123441942D01*
X226674171Y-123867695D02*
X226287123Y-123867695D01*
X226287123Y-123054895D01*
X226674171Y-123054895D01*
X227022514Y-123867695D02*
X227022514Y-123054895D01*
X227216038Y-123054895D01*
X227332152Y-123093600D01*
X227409561Y-123171009D01*
X227448266Y-123248419D01*
X227486971Y-123403238D01*
X227486971Y-123519352D01*
X227448266Y-123674171D01*
X227409561Y-123751580D01*
X227332152Y-123828990D01*
X227216038Y-123867695D01*
X227022514Y-123867695D01*
X228261066Y-123867695D02*
X227796609Y-123867695D01*
X228028838Y-123867695D02*
X228028838Y-123054895D01*
X227951428Y-123171009D01*
X227874019Y-123248419D01*
X227796609Y-123287123D01*
X189092976Y-117154761D02*
X189235833Y-117202380D01*
X189473928Y-117202380D01*
X189569166Y-117154761D01*
X189616785Y-117107142D01*
X189664404Y-117011904D01*
X189664404Y-116916666D01*
X189616785Y-116821428D01*
X189569166Y-116773809D01*
X189473928Y-116726190D01*
X189283452Y-116678571D01*
X189188214Y-116630952D01*
X189140595Y-116583333D01*
X189092976Y-116488095D01*
X189092976Y-116392857D01*
X189140595Y-116297619D01*
X189188214Y-116250000D01*
X189283452Y-116202380D01*
X189521547Y-116202380D01*
X189664404Y-116250000D01*
X189997738Y-116202380D02*
X190235833Y-117202380D01*
X190426309Y-116488095D01*
X190616785Y-117202380D01*
X190854880Y-116202380D01*
X191235833Y-117202380D02*
X191235833Y-116202380D01*
X191473928Y-116202380D01*
X191616785Y-116250000D01*
X191712023Y-116345238D01*
X191759642Y-116440476D01*
X191807261Y-116630952D01*
X191807261Y-116773809D01*
X191759642Y-116964285D01*
X191712023Y-117059523D01*
X191616785Y-117154761D01*
X191473928Y-117202380D01*
X191235833Y-117202380D01*
X192664404Y-116535714D02*
X192664404Y-117202380D01*
X192426309Y-116154761D02*
X192188214Y-116869047D01*
X192807261Y-116869047D01*
X193092976Y-116202380D02*
X193759642Y-116202380D01*
X193331071Y-117202380D01*
X151092976Y-136154761D02*
X151235833Y-136202380D01*
X151473928Y-136202380D01*
X151569166Y-136154761D01*
X151616785Y-136107142D01*
X151664404Y-136011904D01*
X151664404Y-135916666D01*
X151616785Y-135821428D01*
X151569166Y-135773809D01*
X151473928Y-135726190D01*
X151283452Y-135678571D01*
X151188214Y-135630952D01*
X151140595Y-135583333D01*
X151092976Y-135488095D01*
X151092976Y-135392857D01*
X151140595Y-135297619D01*
X151188214Y-135250000D01*
X151283452Y-135202380D01*
X151521547Y-135202380D01*
X151664404Y-135250000D01*
X151997738Y-135202380D02*
X152235833Y-136202380D01*
X152426309Y-135488095D01*
X152616785Y-136202380D01*
X152854880Y-135202380D01*
X153235833Y-136202380D02*
X153235833Y-135202380D01*
X153473928Y-135202380D01*
X153616785Y-135250000D01*
X153712023Y-135345238D01*
X153759642Y-135440476D01*
X153807261Y-135630952D01*
X153807261Y-135773809D01*
X153759642Y-135964285D01*
X153712023Y-136059523D01*
X153616785Y-136154761D01*
X153473928Y-136202380D01*
X153235833Y-136202380D01*
X154712023Y-135202380D02*
X154235833Y-135202380D01*
X154188214Y-135678571D01*
X154235833Y-135630952D01*
X154331071Y-135583333D01*
X154569166Y-135583333D01*
X154664404Y-135630952D01*
X154712023Y-135678571D01*
X154759642Y-135773809D01*
X154759642Y-136011904D01*
X154712023Y-136107142D01*
X154664404Y-136154761D01*
X154569166Y-136202380D01*
X154331071Y-136202380D01*
X154235833Y-136154761D01*
X154188214Y-136107142D01*
X155664404Y-135202380D02*
X155188214Y-135202380D01*
X155140595Y-135678571D01*
X155188214Y-135630952D01*
X155283452Y-135583333D01*
X155521547Y-135583333D01*
X155616785Y-135630952D01*
X155664404Y-135678571D01*
X155712023Y-135773809D01*
X155712023Y-136011904D01*
X155664404Y-136107142D01*
X155616785Y-136154761D01*
X155521547Y-136202380D01*
X155283452Y-136202380D01*
X155188214Y-136154761D01*
X155140595Y-136107142D01*
X151092976Y-50654761D02*
X151235833Y-50702380D01*
X151473928Y-50702380D01*
X151569166Y-50654761D01*
X151616785Y-50607142D01*
X151664404Y-50511904D01*
X151664404Y-50416666D01*
X151616785Y-50321428D01*
X151569166Y-50273809D01*
X151473928Y-50226190D01*
X151283452Y-50178571D01*
X151188214Y-50130952D01*
X151140595Y-50083333D01*
X151092976Y-49988095D01*
X151092976Y-49892857D01*
X151140595Y-49797619D01*
X151188214Y-49750000D01*
X151283452Y-49702380D01*
X151521547Y-49702380D01*
X151664404Y-49750000D01*
X151997738Y-49702380D02*
X152235833Y-50702380D01*
X152426309Y-49988095D01*
X152616785Y-50702380D01*
X152854880Y-49702380D01*
X153235833Y-50702380D02*
X153235833Y-49702380D01*
X153473928Y-49702380D01*
X153616785Y-49750000D01*
X153712023Y-49845238D01*
X153759642Y-49940476D01*
X153807261Y-50130952D01*
X153807261Y-50273809D01*
X153759642Y-50464285D01*
X153712023Y-50559523D01*
X153616785Y-50654761D01*
X153473928Y-50702380D01*
X153235833Y-50702380D01*
X154759642Y-50702380D02*
X154188214Y-50702380D01*
X154473928Y-50702380D02*
X154473928Y-49702380D01*
X154378690Y-49845238D01*
X154283452Y-49940476D01*
X154188214Y-49988095D01*
X155664404Y-49702380D02*
X155188214Y-49702380D01*
X155140595Y-50178571D01*
X155188214Y-50130952D01*
X155283452Y-50083333D01*
X155521547Y-50083333D01*
X155616785Y-50130952D01*
X155664404Y-50178571D01*
X155712023Y-50273809D01*
X155712023Y-50511904D01*
X155664404Y-50607142D01*
X155616785Y-50654761D01*
X155521547Y-50702380D01*
X155283452Y-50702380D01*
X155188214Y-50654761D01*
X155140595Y-50607142D01*
X113092976Y-140904761D02*
X113235833Y-140952380D01*
X113473928Y-140952380D01*
X113569166Y-140904761D01*
X113616785Y-140857142D01*
X113664404Y-140761904D01*
X113664404Y-140666666D01*
X113616785Y-140571428D01*
X113569166Y-140523809D01*
X113473928Y-140476190D01*
X113283452Y-140428571D01*
X113188214Y-140380952D01*
X113140595Y-140333333D01*
X113092976Y-140238095D01*
X113092976Y-140142857D01*
X113140595Y-140047619D01*
X113188214Y-140000000D01*
X113283452Y-139952380D01*
X113521547Y-139952380D01*
X113664404Y-140000000D01*
X113997738Y-139952380D02*
X114235833Y-140952380D01*
X114426309Y-140238095D01*
X114616785Y-140952380D01*
X114854880Y-139952380D01*
X115235833Y-140952380D02*
X115235833Y-139952380D01*
X115473928Y-139952380D01*
X115616785Y-140000000D01*
X115712023Y-140095238D01*
X115759642Y-140190476D01*
X115807261Y-140380952D01*
X115807261Y-140523809D01*
X115759642Y-140714285D01*
X115712023Y-140809523D01*
X115616785Y-140904761D01*
X115473928Y-140952380D01*
X115235833Y-140952380D01*
X116712023Y-139952380D02*
X116235833Y-139952380D01*
X116188214Y-140428571D01*
X116235833Y-140380952D01*
X116331071Y-140333333D01*
X116569166Y-140333333D01*
X116664404Y-140380952D01*
X116712023Y-140428571D01*
X116759642Y-140523809D01*
X116759642Y-140761904D01*
X116712023Y-140857142D01*
X116664404Y-140904761D01*
X116569166Y-140952380D01*
X116331071Y-140952380D01*
X116235833Y-140904761D01*
X116188214Y-140857142D01*
X117092976Y-139952380D02*
X117712023Y-139952380D01*
X117378690Y-140333333D01*
X117521547Y-140333333D01*
X117616785Y-140380952D01*
X117664404Y-140428571D01*
X117712023Y-140523809D01*
X117712023Y-140761904D01*
X117664404Y-140857142D01*
X117616785Y-140904761D01*
X117521547Y-140952380D01*
X117235833Y-140952380D01*
X117140595Y-140904761D01*
X117092976Y-140857142D01*
X208092976Y-83904761D02*
X208235833Y-83952380D01*
X208473928Y-83952380D01*
X208569166Y-83904761D01*
X208616785Y-83857142D01*
X208664404Y-83761904D01*
X208664404Y-83666666D01*
X208616785Y-83571428D01*
X208569166Y-83523809D01*
X208473928Y-83476190D01*
X208283452Y-83428571D01*
X208188214Y-83380952D01*
X208140595Y-83333333D01*
X208092976Y-83238095D01*
X208092976Y-83142857D01*
X208140595Y-83047619D01*
X208188214Y-83000000D01*
X208283452Y-82952380D01*
X208521547Y-82952380D01*
X208664404Y-83000000D01*
X208997738Y-82952380D02*
X209235833Y-83952380D01*
X209426309Y-83238095D01*
X209616785Y-83952380D01*
X209854880Y-82952380D01*
X210235833Y-83952380D02*
X210235833Y-82952380D01*
X210473928Y-82952380D01*
X210616785Y-83000000D01*
X210712023Y-83095238D01*
X210759642Y-83190476D01*
X210807261Y-83380952D01*
X210807261Y-83523809D01*
X210759642Y-83714285D01*
X210712023Y-83809523D01*
X210616785Y-83904761D01*
X210473928Y-83952380D01*
X210235833Y-83952380D01*
X211188214Y-83047619D02*
X211235833Y-83000000D01*
X211331071Y-82952380D01*
X211569166Y-82952380D01*
X211664404Y-83000000D01*
X211712023Y-83047619D01*
X211759642Y-83142857D01*
X211759642Y-83238095D01*
X211712023Y-83380952D01*
X211140595Y-83952380D01*
X211759642Y-83952380D01*
X212331071Y-83380952D02*
X212235833Y-83333333D01*
X212188214Y-83285714D01*
X212140595Y-83190476D01*
X212140595Y-83142857D01*
X212188214Y-83047619D01*
X212235833Y-83000000D01*
X212331071Y-82952380D01*
X212521547Y-82952380D01*
X212616785Y-83000000D01*
X212664404Y-83047619D01*
X212712023Y-83142857D01*
X212712023Y-83190476D01*
X212664404Y-83285714D01*
X212616785Y-83333333D01*
X212521547Y-83380952D01*
X212331071Y-83380952D01*
X212235833Y-83428571D01*
X212188214Y-83476190D01*
X212140595Y-83571428D01*
X212140595Y-83761904D01*
X212188214Y-83857142D01*
X212235833Y-83904761D01*
X212331071Y-83952380D01*
X212521547Y-83952380D01*
X212616785Y-83904761D01*
X212664404Y-83857142D01*
X212712023Y-83761904D01*
X212712023Y-83571428D01*
X212664404Y-83476190D01*
X212616785Y-83428571D01*
X212521547Y-83380952D01*
X94092976Y-121904761D02*
X94235833Y-121952380D01*
X94473928Y-121952380D01*
X94569166Y-121904761D01*
X94616785Y-121857142D01*
X94664404Y-121761904D01*
X94664404Y-121666666D01*
X94616785Y-121571428D01*
X94569166Y-121523809D01*
X94473928Y-121476190D01*
X94283452Y-121428571D01*
X94188214Y-121380952D01*
X94140595Y-121333333D01*
X94092976Y-121238095D01*
X94092976Y-121142857D01*
X94140595Y-121047619D01*
X94188214Y-121000000D01*
X94283452Y-120952380D01*
X94521547Y-120952380D01*
X94664404Y-121000000D01*
X94997738Y-120952380D02*
X95235833Y-121952380D01*
X95426309Y-121238095D01*
X95616785Y-121952380D01*
X95854880Y-120952380D01*
X96235833Y-121952380D02*
X96235833Y-120952380D01*
X96473928Y-120952380D01*
X96616785Y-121000000D01*
X96712023Y-121095238D01*
X96759642Y-121190476D01*
X96807261Y-121380952D01*
X96807261Y-121523809D01*
X96759642Y-121714285D01*
X96712023Y-121809523D01*
X96616785Y-121904761D01*
X96473928Y-121952380D01*
X96235833Y-121952380D01*
X97664404Y-121285714D02*
X97664404Y-121952380D01*
X97426309Y-120904761D02*
X97188214Y-121619047D01*
X97807261Y-121619047D01*
X98140595Y-121047619D02*
X98188214Y-121000000D01*
X98283452Y-120952380D01*
X98521547Y-120952380D01*
X98616785Y-121000000D01*
X98664404Y-121047619D01*
X98712023Y-121142857D01*
X98712023Y-121238095D01*
X98664404Y-121380952D01*
X98092976Y-121952380D01*
X98712023Y-121952380D01*
X128809523Y-138202380D02*
X128476190Y-137726190D01*
X128238095Y-138202380D02*
X128238095Y-137202380D01*
X128619047Y-137202380D01*
X128714285Y-137250000D01*
X128761904Y-137297619D01*
X128809523Y-137392857D01*
X128809523Y-137535714D01*
X128761904Y-137630952D01*
X128714285Y-137678571D01*
X128619047Y-137726190D01*
X128238095Y-137726190D01*
X129190476Y-138154761D02*
X129333333Y-138202380D01*
X129571428Y-138202380D01*
X129666666Y-138154761D01*
X129714285Y-138107142D01*
X129761904Y-138011904D01*
X129761904Y-137916666D01*
X129714285Y-137821428D01*
X129666666Y-137773809D01*
X129571428Y-137726190D01*
X129380952Y-137678571D01*
X129285714Y-137630952D01*
X129238095Y-137583333D01*
X129190476Y-137488095D01*
X129190476Y-137392857D01*
X129238095Y-137297619D01*
X129285714Y-137250000D01*
X129380952Y-137202380D01*
X129619047Y-137202380D01*
X129761904Y-137250000D01*
X130095238Y-137202380D02*
X130333333Y-138202380D01*
X130523809Y-137488095D01*
X130714285Y-138202380D01*
X130952380Y-137202380D01*
X131333333Y-138202380D02*
X131333333Y-137202380D01*
X131571428Y-137202380D01*
X131714285Y-137250000D01*
X131809523Y-137345238D01*
X131857142Y-137440476D01*
X131904761Y-137630952D01*
X131904761Y-137773809D01*
X131857142Y-137964285D01*
X131809523Y-138059523D01*
X131714285Y-138154761D01*
X131571428Y-138202380D01*
X131333333Y-138202380D01*
X132809523Y-137202380D02*
X132333333Y-137202380D01*
X132285714Y-137678571D01*
X132333333Y-137630952D01*
X132428571Y-137583333D01*
X132666666Y-137583333D01*
X132761904Y-137630952D01*
X132809523Y-137678571D01*
X132857142Y-137773809D01*
X132857142Y-138011904D01*
X132809523Y-138107142D01*
X132761904Y-138154761D01*
X132666666Y-138202380D01*
X132428571Y-138202380D01*
X132333333Y-138154761D01*
X132285714Y-138107142D01*
X133714285Y-137535714D02*
X133714285Y-138202380D01*
X133476190Y-137154761D02*
X133238095Y-137869047D01*
X133857142Y-137869047D01*
X113092976Y-121904761D02*
X113235833Y-121952380D01*
X113473928Y-121952380D01*
X113569166Y-121904761D01*
X113616785Y-121857142D01*
X113664404Y-121761904D01*
X113664404Y-121666666D01*
X113616785Y-121571428D01*
X113569166Y-121523809D01*
X113473928Y-121476190D01*
X113283452Y-121428571D01*
X113188214Y-121380952D01*
X113140595Y-121333333D01*
X113092976Y-121238095D01*
X113092976Y-121142857D01*
X113140595Y-121047619D01*
X113188214Y-121000000D01*
X113283452Y-120952380D01*
X113521547Y-120952380D01*
X113664404Y-121000000D01*
X113997738Y-120952380D02*
X114235833Y-121952380D01*
X114426309Y-121238095D01*
X114616785Y-121952380D01*
X114854880Y-120952380D01*
X115235833Y-121952380D02*
X115235833Y-120952380D01*
X115473928Y-120952380D01*
X115616785Y-121000000D01*
X115712023Y-121095238D01*
X115759642Y-121190476D01*
X115807261Y-121380952D01*
X115807261Y-121523809D01*
X115759642Y-121714285D01*
X115712023Y-121809523D01*
X115616785Y-121904761D01*
X115473928Y-121952380D01*
X115235833Y-121952380D01*
X116664404Y-121285714D02*
X116664404Y-121952380D01*
X116426309Y-120904761D02*
X116188214Y-121619047D01*
X116807261Y-121619047D01*
X117092976Y-120952380D02*
X117712023Y-120952380D01*
X117378690Y-121333333D01*
X117521547Y-121333333D01*
X117616785Y-121380952D01*
X117664404Y-121428571D01*
X117712023Y-121523809D01*
X117712023Y-121761904D01*
X117664404Y-121857142D01*
X117616785Y-121904761D01*
X117521547Y-121952380D01*
X117235833Y-121952380D01*
X117140595Y-121904761D01*
X117092976Y-121857142D01*
X170092976Y-136154761D02*
X170235833Y-136202380D01*
X170473928Y-136202380D01*
X170569166Y-136154761D01*
X170616785Y-136107142D01*
X170664404Y-136011904D01*
X170664404Y-135916666D01*
X170616785Y-135821428D01*
X170569166Y-135773809D01*
X170473928Y-135726190D01*
X170283452Y-135678571D01*
X170188214Y-135630952D01*
X170140595Y-135583333D01*
X170092976Y-135488095D01*
X170092976Y-135392857D01*
X170140595Y-135297619D01*
X170188214Y-135250000D01*
X170283452Y-135202380D01*
X170521547Y-135202380D01*
X170664404Y-135250000D01*
X170997738Y-135202380D02*
X171235833Y-136202380D01*
X171426309Y-135488095D01*
X171616785Y-136202380D01*
X171854880Y-135202380D01*
X172235833Y-136202380D02*
X172235833Y-135202380D01*
X172473928Y-135202380D01*
X172616785Y-135250000D01*
X172712023Y-135345238D01*
X172759642Y-135440476D01*
X172807261Y-135630952D01*
X172807261Y-135773809D01*
X172759642Y-135964285D01*
X172712023Y-136059523D01*
X172616785Y-136154761D01*
X172473928Y-136202380D01*
X172235833Y-136202380D01*
X173712023Y-135202380D02*
X173235833Y-135202380D01*
X173188214Y-135678571D01*
X173235833Y-135630952D01*
X173331071Y-135583333D01*
X173569166Y-135583333D01*
X173664404Y-135630952D01*
X173712023Y-135678571D01*
X173759642Y-135773809D01*
X173759642Y-136011904D01*
X173712023Y-136107142D01*
X173664404Y-136154761D01*
X173569166Y-136202380D01*
X173331071Y-136202380D01*
X173235833Y-136154761D01*
X173188214Y-136107142D01*
X174616785Y-135202380D02*
X174426309Y-135202380D01*
X174331071Y-135250000D01*
X174283452Y-135297619D01*
X174188214Y-135440476D01*
X174140595Y-135630952D01*
X174140595Y-136011904D01*
X174188214Y-136107142D01*
X174235833Y-136154761D01*
X174331071Y-136202380D01*
X174521547Y-136202380D01*
X174616785Y-136154761D01*
X174664404Y-136107142D01*
X174712023Y-136011904D01*
X174712023Y-135773809D01*
X174664404Y-135678571D01*
X174616785Y-135630952D01*
X174521547Y-135583333D01*
X174331071Y-135583333D01*
X174235833Y-135630952D01*
X174188214Y-135678571D01*
X174140595Y-135773809D01*
X224880952Y-114652380D02*
X224880952Y-115366666D01*
X224833333Y-115509523D01*
X224738095Y-115604761D01*
X224595238Y-115652380D01*
X224500000Y-115652380D01*
X225357142Y-115652380D02*
X225357142Y-114652380D01*
X225738095Y-114652380D01*
X225833333Y-114700000D01*
X225880952Y-114747619D01*
X225928571Y-114842857D01*
X225928571Y-114985714D01*
X225880952Y-115080952D01*
X225833333Y-115128571D01*
X225738095Y-115176190D01*
X225357142Y-115176190D01*
X226119047Y-115747619D02*
X226880952Y-115747619D01*
X227595238Y-115652380D02*
X227119047Y-115652380D01*
X227119047Y-114652380D01*
X228357142Y-114985714D02*
X228357142Y-115652380D01*
X228119047Y-114604761D02*
X227880952Y-115319047D01*
X228500000Y-115319047D01*
X94092976Y-140904761D02*
X94235833Y-140952380D01*
X94473928Y-140952380D01*
X94569166Y-140904761D01*
X94616785Y-140857142D01*
X94664404Y-140761904D01*
X94664404Y-140666666D01*
X94616785Y-140571428D01*
X94569166Y-140523809D01*
X94473928Y-140476190D01*
X94283452Y-140428571D01*
X94188214Y-140380952D01*
X94140595Y-140333333D01*
X94092976Y-140238095D01*
X94092976Y-140142857D01*
X94140595Y-140047619D01*
X94188214Y-140000000D01*
X94283452Y-139952380D01*
X94521547Y-139952380D01*
X94664404Y-140000000D01*
X94997738Y-139952380D02*
X95235833Y-140952380D01*
X95426309Y-140238095D01*
X95616785Y-140952380D01*
X95854880Y-139952380D01*
X96235833Y-140952380D02*
X96235833Y-139952380D01*
X96473928Y-139952380D01*
X96616785Y-140000000D01*
X96712023Y-140095238D01*
X96759642Y-140190476D01*
X96807261Y-140380952D01*
X96807261Y-140523809D01*
X96759642Y-140714285D01*
X96712023Y-140809523D01*
X96616785Y-140904761D01*
X96473928Y-140952380D01*
X96235833Y-140952380D01*
X97712023Y-139952380D02*
X97235833Y-139952380D01*
X97188214Y-140428571D01*
X97235833Y-140380952D01*
X97331071Y-140333333D01*
X97569166Y-140333333D01*
X97664404Y-140380952D01*
X97712023Y-140428571D01*
X97759642Y-140523809D01*
X97759642Y-140761904D01*
X97712023Y-140857142D01*
X97664404Y-140904761D01*
X97569166Y-140952380D01*
X97331071Y-140952380D01*
X97235833Y-140904761D01*
X97188214Y-140857142D01*
X98140595Y-140047619D02*
X98188214Y-140000000D01*
X98283452Y-139952380D01*
X98521547Y-139952380D01*
X98616785Y-140000000D01*
X98664404Y-140047619D01*
X98712023Y-140142857D01*
X98712023Y-140238095D01*
X98664404Y-140380952D01*
X98092976Y-140952380D01*
X98712023Y-140952380D01*
D14*
X230540000Y-96250000D02*
X229770000Y-96250000D01*
X222460000Y-96250000D02*
X223230000Y-96250000D01*
X223230000Y-94880000D02*
X223230000Y-97620000D01*
X229770000Y-97620000D02*
X229770000Y-94880000D01*
X223230000Y-97620000D02*
X229770000Y-97620000D01*
X229770000Y-94880000D02*
X223230000Y-94880000D01*
X223230000Y-91380000D02*
X223230000Y-94120000D01*
X222460000Y-92750000D02*
X223230000Y-92750000D01*
X229770000Y-91380000D02*
X223230000Y-91380000D01*
X230540000Y-92750000D02*
X229770000Y-92750000D01*
X229770000Y-94120000D02*
X229770000Y-91380000D01*
X223230000Y-94120000D02*
X229770000Y-94120000D01*
D13*
X72476000Y-98380000D02*
X72476000Y-96856000D01*
X72476000Y-96856000D02*
X75524000Y-96856000D01*
D11*
X74762000Y-98380000D02*
X74762000Y-96856000D01*
D13*
X75524000Y-98380000D02*
X72476000Y-98380000D01*
X75524000Y-96856000D02*
X75524000Y-98380000D01*
D10*
X67000000Y-99000000D02*
X81000000Y-99000000D01*
X81000000Y-99000000D02*
X81000000Y-113000000D01*
X81000000Y-113000000D02*
X67000000Y-113000000D01*
X67000000Y-113000000D02*
X67000000Y-99000000D01*
D11*
X188762000Y-46130000D02*
X188762000Y-44606000D01*
D13*
X189524000Y-46130000D02*
X186476000Y-46130000D01*
X186476000Y-46130000D02*
X186476000Y-44606000D01*
X186476000Y-44606000D02*
X189524000Y-44606000D01*
X189524000Y-44606000D02*
X189524000Y-46130000D01*
D10*
X181000000Y-46750000D02*
X195000000Y-46750000D01*
X195000000Y-46750000D02*
X195000000Y-60750000D01*
X195000000Y-60750000D02*
X181000000Y-60750000D01*
X181000000Y-60750000D02*
X181000000Y-46750000D01*
D11*
X222512500Y-134550000D02*
X222512500Y-128450000D01*
X234612500Y-134550000D02*
X222512500Y-134550000D01*
X234612500Y-128450000D02*
X222512500Y-128450000D01*
X234612500Y-134550000D02*
X234612500Y-128450000D01*
D13*
X170524000Y-77856000D02*
X170524000Y-79380000D01*
X167476000Y-77856000D02*
X170524000Y-77856000D01*
X167476000Y-79380000D02*
X167476000Y-77856000D01*
D11*
X169762000Y-79380000D02*
X169762000Y-77856000D01*
D13*
X170524000Y-79380000D02*
X167476000Y-79380000D01*
D10*
X162000000Y-80000000D02*
X176000000Y-80000000D01*
X176000000Y-80000000D02*
X176000000Y-94000000D01*
X176000000Y-94000000D02*
X162000000Y-94000000D01*
X162000000Y-94000000D02*
X162000000Y-80000000D01*
D13*
X167476000Y-58856000D02*
X170524000Y-58856000D01*
X170524000Y-60380000D02*
X167476000Y-60380000D01*
D11*
X169762000Y-60380000D02*
X169762000Y-58856000D01*
D13*
X170524000Y-58856000D02*
X170524000Y-60380000D01*
X167476000Y-60380000D02*
X167476000Y-58856000D01*
D10*
X162000000Y-61000000D02*
X176000000Y-61000000D01*
X176000000Y-61000000D02*
X176000000Y-75000000D01*
X176000000Y-75000000D02*
X162000000Y-75000000D01*
X162000000Y-75000000D02*
X162000000Y-61000000D01*
D13*
X208524000Y-50880000D02*
X205476000Y-50880000D01*
X205476000Y-50880000D02*
X205476000Y-49356000D01*
X205476000Y-49356000D02*
X208524000Y-49356000D01*
D11*
X207762000Y-50880000D02*
X207762000Y-49356000D01*
D13*
X208524000Y-49356000D02*
X208524000Y-50880000D01*
D10*
X200000000Y-51500000D02*
X214000000Y-51500000D01*
X214000000Y-51500000D02*
X214000000Y-65500000D01*
X214000000Y-65500000D02*
X200000000Y-65500000D01*
X200000000Y-65500000D02*
X200000000Y-51500000D01*
D13*
X75524000Y-79380000D02*
X72476000Y-79380000D01*
D11*
X74762000Y-79380000D02*
X74762000Y-77856000D01*
D13*
X72476000Y-79380000D02*
X72476000Y-77856000D01*
X75524000Y-77856000D02*
X75524000Y-79380000D01*
X72476000Y-77856000D02*
X75524000Y-77856000D01*
D10*
X67000000Y-80000000D02*
X81000000Y-80000000D01*
X81000000Y-80000000D02*
X81000000Y-94000000D01*
X81000000Y-94000000D02*
X67000000Y-94000000D01*
X67000000Y-94000000D02*
X67000000Y-80000000D01*
D14*
X227900000Y-104700000D02*
X227900000Y-105300000D01*
X225100000Y-105300000D02*
X225100000Y-104700000D01*
X227200000Y-106000000D02*
X225800000Y-106000000D01*
X225800000Y-104000000D02*
X227200000Y-104000000D01*
X227200000Y-106000000D02*
G75*
G03*
X227900000Y-105300000I0J700000D01*
G01*
X225800000Y-104000000D02*
G75*
G03*
X225100000Y-104700000I-1J-699999D01*
G01*
X227900000Y-104700000D02*
G75*
G03*
X227200000Y-104000000I-700000J0D01*
G01*
X225100000Y-105300000D02*
G75*
G03*
X225800000Y-106000000I699999J-1D01*
G01*
D13*
X110476000Y-68356000D02*
X113524000Y-68356000D01*
D11*
X112762000Y-69880000D02*
X112762000Y-68356000D01*
D13*
X110476000Y-69880000D02*
X110476000Y-68356000D01*
X113524000Y-69880000D02*
X110476000Y-69880000D01*
X113524000Y-68356000D02*
X113524000Y-69880000D01*
D10*
X105000000Y-70500000D02*
X119000000Y-70500000D01*
X119000000Y-70500000D02*
X119000000Y-84500000D01*
X119000000Y-84500000D02*
X105000000Y-84500000D01*
X105000000Y-84500000D02*
X105000000Y-70500000D01*
D14*
X227200000Y-114000000D02*
X225800000Y-114000000D01*
X225800000Y-112000000D02*
X227200000Y-112000000D01*
X227900000Y-112700000D02*
X227900000Y-113300000D01*
X225100000Y-113300000D02*
X225100000Y-112700000D01*
X227900000Y-112700000D02*
G75*
G03*
X227200000Y-112000000I-700000J0D01*
G01*
X225800000Y-112000000D02*
G75*
G03*
X225100000Y-112700000I-1J-699999D01*
G01*
X227200000Y-114000000D02*
G75*
G03*
X227900000Y-113300000I0J700000D01*
G01*
X225100000Y-113300000D02*
G75*
G03*
X225800000Y-114000000I699999J-1D01*
G01*
D13*
X205476000Y-126880000D02*
X205476000Y-125356000D01*
X208524000Y-126880000D02*
X205476000Y-126880000D01*
D11*
X207762000Y-126880000D02*
X207762000Y-125356000D01*
D13*
X208524000Y-125356000D02*
X208524000Y-126880000D01*
X205476000Y-125356000D02*
X208524000Y-125356000D01*
D10*
X200000000Y-127500000D02*
X214000000Y-127500000D01*
X214000000Y-127500000D02*
X214000000Y-141500000D01*
X214000000Y-141500000D02*
X200000000Y-141500000D01*
X200000000Y-141500000D02*
X200000000Y-127500000D01*
D13*
X205536000Y-108012000D02*
X205536000Y-106488000D01*
D11*
X207822000Y-108012000D02*
X207822000Y-106488000D01*
D13*
X208584000Y-106488000D02*
X208584000Y-108012000D01*
D14*
X206500000Y-115500000D02*
X207500000Y-115500000D01*
X207000000Y-115000000D02*
X207000000Y-116000000D01*
D13*
X205536000Y-106488000D02*
X208584000Y-106488000D01*
X208584000Y-108012000D02*
X205536000Y-108012000D01*
D10*
X200400000Y-109300000D02*
X213600000Y-109300000D01*
X213600000Y-109300000D02*
X213600000Y-121700000D01*
X213600000Y-121700000D02*
X200400000Y-121700000D01*
X200400000Y-121700000D02*
X200400000Y-109300000D01*
D14*
X210000000Y-115500000D02*
G75*
G03*
X210000000Y-115500000I-3000000J0D01*
G01*
D13*
X167476000Y-39856000D02*
X170524000Y-39856000D01*
D11*
X169762000Y-41380000D02*
X169762000Y-39856000D01*
D13*
X167476000Y-41380000D02*
X167476000Y-39856000D01*
X170524000Y-41380000D02*
X167476000Y-41380000D01*
X170524000Y-39856000D02*
X170524000Y-41380000D01*
D10*
X162000000Y-42000000D02*
X176000000Y-42000000D01*
X176000000Y-42000000D02*
X176000000Y-56000000D01*
X176000000Y-56000000D02*
X162000000Y-56000000D01*
X162000000Y-56000000D02*
X162000000Y-42000000D01*
D14*
X227200000Y-102000000D02*
X225800000Y-102000000D01*
X225800000Y-100000000D02*
X227200000Y-100000000D01*
X227900000Y-100700000D02*
X227900000Y-101300000D01*
X225100000Y-101300000D02*
X225100000Y-100700000D01*
X227900000Y-100700000D02*
G75*
G03*
X227200000Y-100000000I-700000J0D01*
G01*
X225800000Y-100000000D02*
G75*
G03*
X225100000Y-100700000I-1J-699999D01*
G01*
X227200000Y-102000000D02*
G75*
G03*
X227900000Y-101300000I0J700000D01*
G01*
X225100000Y-101300000D02*
G75*
G03*
X225800000Y-102000000I699999J-1D01*
G01*
D13*
X72476000Y-117380000D02*
X72476000Y-115856000D01*
X75524000Y-117380000D02*
X72476000Y-117380000D01*
D11*
X74762000Y-117380000D02*
X74762000Y-115856000D01*
D13*
X72476000Y-115856000D02*
X75524000Y-115856000D01*
X75524000Y-115856000D02*
X75524000Y-117380000D01*
D10*
X67000000Y-118000000D02*
X81000000Y-118000000D01*
X81000000Y-118000000D02*
X81000000Y-132000000D01*
X81000000Y-132000000D02*
X67000000Y-132000000D01*
X67000000Y-132000000D02*
X67000000Y-118000000D01*
D11*
X150762000Y-74630000D02*
X150762000Y-73106000D01*
D13*
X148476000Y-74630000D02*
X148476000Y-73106000D01*
X151524000Y-74630000D02*
X148476000Y-74630000D01*
X151524000Y-73106000D02*
X151524000Y-74630000D01*
X148476000Y-73106000D02*
X151524000Y-73106000D01*
D10*
X143000000Y-75250000D02*
X157000000Y-75250000D01*
X157000000Y-75250000D02*
X157000000Y-89250000D01*
X157000000Y-89250000D02*
X143000000Y-89250000D01*
X143000000Y-89250000D02*
X143000000Y-75250000D01*
D13*
X132524000Y-79380000D02*
X129476000Y-79380000D01*
X129476000Y-77856000D02*
X132524000Y-77856000D01*
X129476000Y-79380000D02*
X129476000Y-77856000D01*
D11*
X131762000Y-79380000D02*
X131762000Y-77856000D01*
D13*
X132524000Y-77856000D02*
X132524000Y-79380000D01*
D10*
X124000000Y-80000000D02*
X138000000Y-80000000D01*
X138000000Y-80000000D02*
X138000000Y-94000000D01*
X138000000Y-94000000D02*
X124000000Y-94000000D01*
X124000000Y-94000000D02*
X124000000Y-80000000D01*
D13*
X91476000Y-87356000D02*
X94524000Y-87356000D01*
D11*
X93762000Y-88880000D02*
X93762000Y-87356000D01*
D13*
X94524000Y-87356000D02*
X94524000Y-88880000D01*
X91476000Y-88880000D02*
X91476000Y-87356000D01*
X94524000Y-88880000D02*
X91476000Y-88880000D01*
D10*
X86000000Y-89500000D02*
X100000000Y-89500000D01*
X100000000Y-89500000D02*
X100000000Y-103500000D01*
X100000000Y-103500000D02*
X86000000Y-103500000D01*
X86000000Y-103500000D02*
X86000000Y-89500000D01*
D13*
X132524000Y-58856000D02*
X132524000Y-60380000D01*
X129476000Y-60380000D02*
X129476000Y-58856000D01*
X132524000Y-60380000D02*
X129476000Y-60380000D01*
X129476000Y-58856000D02*
X132524000Y-58856000D01*
D11*
X131762000Y-60380000D02*
X131762000Y-58856000D01*
D10*
X124000000Y-61000000D02*
X138000000Y-61000000D01*
X138000000Y-61000000D02*
X138000000Y-75000000D01*
X138000000Y-75000000D02*
X124000000Y-75000000D01*
X124000000Y-75000000D02*
X124000000Y-61000000D01*
D14*
X74000000Y-48500000D02*
X74000000Y-49500000D01*
D13*
X72536000Y-41512000D02*
X72536000Y-39988000D01*
X75584000Y-39988000D02*
X75584000Y-41512000D01*
X75584000Y-41512000D02*
X72536000Y-41512000D01*
D11*
X74822000Y-41512000D02*
X74822000Y-39988000D01*
D13*
X72536000Y-39988000D02*
X75584000Y-39988000D01*
D14*
X73500000Y-49000000D02*
X74500000Y-49000000D01*
D10*
X67400000Y-42800000D02*
X80600000Y-42800000D01*
X80600000Y-42800000D02*
X80600000Y-55200000D01*
X80600000Y-55200000D02*
X67400000Y-55200000D01*
X67400000Y-55200000D02*
X67400000Y-42800000D01*
D14*
X77000000Y-49000000D02*
G75*
G03*
X77000000Y-49000000I-3000000J0D01*
G01*
D13*
X148476000Y-93630000D02*
X148476000Y-92106000D01*
X148476000Y-92106000D02*
X151524000Y-92106000D01*
X151524000Y-93630000D02*
X148476000Y-93630000D01*
D11*
X150762000Y-93630000D02*
X150762000Y-92106000D01*
D13*
X151524000Y-92106000D02*
X151524000Y-93630000D01*
D10*
X143000000Y-94250000D02*
X157000000Y-94250000D01*
X157000000Y-94250000D02*
X157000000Y-108250000D01*
X157000000Y-108250000D02*
X143000000Y-108250000D01*
X143000000Y-108250000D02*
X143000000Y-94250000D01*
D13*
X129476000Y-39856000D02*
X132524000Y-39856000D01*
X132524000Y-39856000D02*
X132524000Y-41380000D01*
X132524000Y-41380000D02*
X129476000Y-41380000D01*
D11*
X131762000Y-41380000D02*
X131762000Y-39856000D01*
D13*
X129476000Y-41380000D02*
X129476000Y-39856000D01*
D10*
X124000000Y-42000000D02*
X138000000Y-42000000D01*
X138000000Y-42000000D02*
X138000000Y-56000000D01*
X138000000Y-56000000D02*
X124000000Y-56000000D01*
X124000000Y-56000000D02*
X124000000Y-42000000D01*
D13*
X91476000Y-50880000D02*
X91476000Y-49356000D01*
D11*
X93762000Y-50880000D02*
X93762000Y-49356000D01*
D13*
X94524000Y-49356000D02*
X94524000Y-50880000D01*
X91476000Y-49356000D02*
X94524000Y-49356000D01*
X94524000Y-50880000D02*
X91476000Y-50880000D01*
D10*
X86000000Y-51500000D02*
X100000000Y-51500000D01*
X100000000Y-51500000D02*
X100000000Y-65500000D01*
X100000000Y-65500000D02*
X86000000Y-65500000D01*
X86000000Y-65500000D02*
X86000000Y-51500000D01*
D13*
X186476000Y-120606000D02*
X189524000Y-120606000D01*
X189524000Y-122130000D02*
X186476000Y-122130000D01*
D11*
X188762000Y-122130000D02*
X188762000Y-120606000D01*
D13*
X186476000Y-122130000D02*
X186476000Y-120606000D01*
X189524000Y-120606000D02*
X189524000Y-122130000D01*
D10*
X181000000Y-122750000D02*
X195000000Y-122750000D01*
X195000000Y-122750000D02*
X195000000Y-136750000D01*
X195000000Y-136750000D02*
X181000000Y-136750000D01*
X181000000Y-136750000D02*
X181000000Y-122750000D01*
D13*
X189524000Y-84130000D02*
X186476000Y-84130000D01*
X189524000Y-82606000D02*
X189524000Y-84130000D01*
D11*
X188762000Y-84130000D02*
X188762000Y-82606000D01*
D13*
X186476000Y-84130000D02*
X186476000Y-82606000D01*
X186476000Y-82606000D02*
X189524000Y-82606000D01*
D10*
X181000000Y-84750000D02*
X195000000Y-84750000D01*
X195000000Y-84750000D02*
X195000000Y-98750000D01*
X195000000Y-98750000D02*
X181000000Y-98750000D01*
X181000000Y-98750000D02*
X181000000Y-84750000D01*
D13*
X132524000Y-96856000D02*
X132524000Y-98380000D01*
X129476000Y-96856000D02*
X132524000Y-96856000D01*
D11*
X131762000Y-98380000D02*
X131762000Y-96856000D01*
D13*
X132524000Y-98380000D02*
X129476000Y-98380000D01*
X129476000Y-98380000D02*
X129476000Y-96856000D01*
D10*
X124000000Y-99000000D02*
X138000000Y-99000000D01*
X138000000Y-99000000D02*
X138000000Y-113000000D01*
X138000000Y-113000000D02*
X124000000Y-113000000D01*
X124000000Y-113000000D02*
X124000000Y-99000000D01*
D13*
X189524000Y-65130000D02*
X186476000Y-65130000D01*
X186476000Y-65130000D02*
X186476000Y-63606000D01*
X186476000Y-63606000D02*
X189524000Y-63606000D01*
D11*
X188762000Y-65130000D02*
X188762000Y-63606000D01*
D13*
X189524000Y-63606000D02*
X189524000Y-65130000D01*
D10*
X181000000Y-65750000D02*
X195000000Y-65750000D01*
X195000000Y-65750000D02*
X195000000Y-79750000D01*
X195000000Y-79750000D02*
X181000000Y-79750000D01*
X181000000Y-79750000D02*
X181000000Y-65750000D01*
D14*
X227200000Y-110000000D02*
X225800000Y-110000000D01*
X225100000Y-109300000D02*
X225100000Y-108700000D01*
X225800000Y-108000000D02*
X227200000Y-108000000D01*
X227900000Y-108700000D02*
X227900000Y-109300000D01*
X225800000Y-108000000D02*
G75*
G03*
X225100000Y-108700000I-1J-699999D01*
G01*
X225100000Y-109300000D02*
G75*
G03*
X225800000Y-110000000I699999J-1D01*
G01*
X227200000Y-110000000D02*
G75*
G03*
X227900000Y-109300000I0J700000D01*
G01*
X227900000Y-108700000D02*
G75*
G03*
X227200000Y-108000000I-700000J0D01*
G01*
D13*
X94524000Y-69880000D02*
X91476000Y-69880000D01*
X94524000Y-68356000D02*
X94524000Y-69880000D01*
X91476000Y-68356000D02*
X94524000Y-68356000D01*
D11*
X93762000Y-69880000D02*
X93762000Y-68356000D01*
D13*
X91476000Y-69880000D02*
X91476000Y-68356000D01*
D10*
X86000000Y-70500000D02*
X100000000Y-70500000D01*
X100000000Y-70500000D02*
X100000000Y-84500000D01*
X100000000Y-84500000D02*
X86000000Y-84500000D01*
X86000000Y-84500000D02*
X86000000Y-70500000D01*
D13*
X110476000Y-88880000D02*
X110476000Y-87356000D01*
X113524000Y-88880000D02*
X110476000Y-88880000D01*
X113524000Y-87356000D02*
X113524000Y-88880000D01*
D11*
X112762000Y-88880000D02*
X112762000Y-87356000D01*
D13*
X110476000Y-87356000D02*
X113524000Y-87356000D01*
D10*
X105000000Y-89500000D02*
X119000000Y-89500000D01*
X119000000Y-89500000D02*
X119000000Y-103500000D01*
X119000000Y-103500000D02*
X105000000Y-103500000D01*
X105000000Y-103500000D02*
X105000000Y-89500000D01*
D13*
X110476000Y-49356000D02*
X113524000Y-49356000D01*
X110476000Y-50880000D02*
X110476000Y-49356000D01*
X113524000Y-49356000D02*
X113524000Y-50880000D01*
X113524000Y-50880000D02*
X110476000Y-50880000D01*
D11*
X112762000Y-50880000D02*
X112762000Y-49356000D01*
D10*
X105000000Y-51500000D02*
X119000000Y-51500000D01*
X119000000Y-51500000D02*
X119000000Y-65500000D01*
X119000000Y-65500000D02*
X105000000Y-65500000D01*
X105000000Y-65500000D02*
X105000000Y-51500000D01*
D14*
X227900000Y-120700000D02*
X227900000Y-121300000D01*
X225800000Y-120000000D02*
X227200000Y-120000000D01*
X227200000Y-122000000D02*
X225800000Y-122000000D01*
X225100000Y-121300000D02*
X225100000Y-120700000D01*
X227900000Y-120700000D02*
G75*
G03*
X227200000Y-120000000I-700000J0D01*
G01*
X227200000Y-122000000D02*
G75*
G03*
X227900000Y-121300000I0J700000D01*
G01*
X225800000Y-120000000D02*
G75*
G03*
X225100000Y-120700000I-1J-699999D01*
G01*
X225100000Y-121300000D02*
G75*
G03*
X225800000Y-122000000I699999J-1D01*
G01*
D13*
X208524000Y-87356000D02*
X208524000Y-88880000D01*
D11*
X207762000Y-88880000D02*
X207762000Y-87356000D01*
D13*
X205476000Y-88880000D02*
X205476000Y-87356000D01*
X208524000Y-88880000D02*
X205476000Y-88880000D01*
X205476000Y-87356000D02*
X208524000Y-87356000D01*
D10*
X200000000Y-89500000D02*
X214000000Y-89500000D01*
X214000000Y-89500000D02*
X214000000Y-103500000D01*
X214000000Y-103500000D02*
X200000000Y-103500000D01*
X200000000Y-103500000D02*
X200000000Y-89500000D01*
D13*
X72476000Y-60380000D02*
X72476000Y-58856000D01*
D11*
X74762000Y-60380000D02*
X74762000Y-58856000D01*
D13*
X75524000Y-60380000D02*
X72476000Y-60380000D01*
X72476000Y-58856000D02*
X75524000Y-58856000D01*
X75524000Y-58856000D02*
X75524000Y-60380000D01*
D10*
X67000000Y-61000000D02*
X81000000Y-61000000D01*
X81000000Y-61000000D02*
X81000000Y-75000000D01*
X81000000Y-75000000D02*
X67000000Y-75000000D01*
X67000000Y-75000000D02*
X67000000Y-61000000D01*
D13*
X167476000Y-96856000D02*
X170524000Y-96856000D01*
D11*
X169762000Y-98380000D02*
X169762000Y-96856000D01*
D13*
X170524000Y-98380000D02*
X167476000Y-98380000D01*
X167476000Y-98380000D02*
X167476000Y-96856000D01*
X170524000Y-96856000D02*
X170524000Y-98380000D01*
D10*
X162000000Y-99000000D02*
X176000000Y-99000000D01*
X176000000Y-99000000D02*
X176000000Y-113000000D01*
X176000000Y-113000000D02*
X162000000Y-113000000D01*
X162000000Y-113000000D02*
X162000000Y-99000000D01*
D13*
X148476000Y-54106000D02*
X151524000Y-54106000D01*
X151524000Y-55630000D02*
X148476000Y-55630000D01*
D11*
X150762000Y-55630000D02*
X150762000Y-54106000D01*
D13*
X151524000Y-54106000D02*
X151524000Y-55630000D01*
X148476000Y-55630000D02*
X148476000Y-54106000D01*
D10*
X143000000Y-56250000D02*
X157000000Y-56250000D01*
X157000000Y-56250000D02*
X157000000Y-70250000D01*
X157000000Y-70250000D02*
X143000000Y-70250000D01*
X143000000Y-70250000D02*
X143000000Y-56250000D01*
D15*
X217860000Y-54206750D02*
X217860000Y-56746750D01*
X235640000Y-56746750D02*
X235640000Y-54206750D01*
X217860000Y-56746750D02*
X217860000Y-87226750D01*
X220400000Y-56746750D02*
X220400000Y-59286750D01*
X235640000Y-54206750D02*
X217860000Y-54206750D01*
X217860000Y-87226750D02*
X235640000Y-87226750D01*
X220400000Y-59286750D02*
X217860000Y-59286750D01*
X220400000Y-56746750D02*
X217860000Y-56746750D01*
X235640000Y-87226750D02*
X235640000Y-56746750D01*
G36*
X231681568Y-62926110D02*
G01*
X231581568Y-62926110D01*
X231581568Y-62626110D01*
X231681568Y-62626110D01*
X231681568Y-62926110D01*
G37*
D11*
X231681568Y-62926110D02*
X231581568Y-62926110D01*
X231581568Y-62626110D01*
X231681568Y-62626110D01*
X231681568Y-62926110D01*
G36*
X231681568Y-62726110D02*
G01*
X231181568Y-62726110D01*
X231181568Y-62626110D01*
X231681568Y-62626110D01*
X231681568Y-62726110D01*
G37*
X231681568Y-62726110D02*
X231181568Y-62726110D01*
X231181568Y-62626110D01*
X231681568Y-62626110D01*
X231681568Y-62726110D01*
G36*
X231681568Y-63426110D02*
G01*
X231581568Y-63426110D01*
X231581568Y-63226110D01*
X231681568Y-63226110D01*
X231681568Y-63426110D01*
G37*
X231681568Y-63426110D02*
X231581568Y-63426110D01*
X231581568Y-63226110D01*
X231681568Y-63226110D01*
X231681568Y-63426110D01*
G36*
X231481568Y-63126110D02*
G01*
X231381568Y-63126110D01*
X231381568Y-63026110D01*
X231481568Y-63026110D01*
X231481568Y-63126110D01*
G37*
X231481568Y-63126110D02*
X231381568Y-63126110D01*
X231381568Y-63026110D01*
X231481568Y-63026110D01*
X231481568Y-63126110D01*
G36*
X231281568Y-63426110D02*
G01*
X231181568Y-63426110D01*
X231181568Y-62626110D01*
X231281568Y-62626110D01*
X231281568Y-63426110D01*
G37*
X231281568Y-63426110D02*
X231181568Y-63426110D01*
X231181568Y-62626110D01*
X231281568Y-62626110D01*
X231281568Y-63426110D01*
D14*
X220500000Y-126770000D02*
X220500000Y-88770000D01*
X232500000Y-88770000D02*
X232500000Y-126770000D01*
X220500000Y-126770000D02*
X232500000Y-126770000D01*
X220500000Y-88770000D02*
X232500000Y-88770000D01*
D13*
X186476000Y-101606000D02*
X189524000Y-101606000D01*
X189524000Y-101606000D02*
X189524000Y-103130000D01*
D11*
X188762000Y-103130000D02*
X188762000Y-101606000D01*
D13*
X189524000Y-103130000D02*
X186476000Y-103130000D01*
X186476000Y-103130000D02*
X186476000Y-101606000D01*
D10*
X181000000Y-103750000D02*
X195000000Y-103750000D01*
X195000000Y-103750000D02*
X195000000Y-117750000D01*
X195000000Y-117750000D02*
X181000000Y-117750000D01*
X181000000Y-117750000D02*
X181000000Y-103750000D01*
D11*
X150762000Y-122130000D02*
X150762000Y-120606000D01*
D13*
X151524000Y-122130000D02*
X148476000Y-122130000D01*
X151524000Y-120606000D02*
X151524000Y-122130000D01*
X148476000Y-122130000D02*
X148476000Y-120606000D01*
X148476000Y-120606000D02*
X151524000Y-120606000D01*
D10*
X143000000Y-122750000D02*
X157000000Y-122750000D01*
X157000000Y-122750000D02*
X157000000Y-136750000D01*
X157000000Y-136750000D02*
X143000000Y-136750000D01*
X143000000Y-136750000D02*
X143000000Y-122750000D01*
D11*
X150762000Y-36630000D02*
X150762000Y-35106000D01*
D13*
X148476000Y-36630000D02*
X148476000Y-35106000D01*
X148476000Y-35106000D02*
X151524000Y-35106000D01*
X151524000Y-36630000D02*
X148476000Y-36630000D01*
X151524000Y-35106000D02*
X151524000Y-36630000D01*
D10*
X143000000Y-37250000D02*
X157000000Y-37250000D01*
X157000000Y-37250000D02*
X157000000Y-51250000D01*
X157000000Y-51250000D02*
X143000000Y-51250000D01*
X143000000Y-51250000D02*
X143000000Y-37250000D01*
D13*
X110476000Y-126880000D02*
X110476000Y-125356000D01*
D11*
X112762000Y-126880000D02*
X112762000Y-125356000D01*
D13*
X110476000Y-125356000D02*
X113524000Y-125356000D01*
X113524000Y-125356000D02*
X113524000Y-126880000D01*
X113524000Y-126880000D02*
X110476000Y-126880000D01*
D10*
X105000000Y-127500000D02*
X119000000Y-127500000D01*
X119000000Y-127500000D02*
X119000000Y-141500000D01*
X119000000Y-141500000D02*
X105000000Y-141500000D01*
X105000000Y-141500000D02*
X105000000Y-127500000D01*
D13*
X205476000Y-69880000D02*
X205476000Y-68356000D01*
X208524000Y-68356000D02*
X208524000Y-69880000D01*
X208524000Y-69880000D02*
X205476000Y-69880000D01*
X205476000Y-68356000D02*
X208524000Y-68356000D01*
D11*
X207762000Y-69880000D02*
X207762000Y-68356000D01*
D10*
X200000000Y-70500000D02*
X214000000Y-70500000D01*
X214000000Y-70500000D02*
X214000000Y-84500000D01*
X214000000Y-84500000D02*
X200000000Y-84500000D01*
X200000000Y-84500000D02*
X200000000Y-70500000D01*
D13*
X94524000Y-106356000D02*
X94524000Y-107880000D01*
X91476000Y-107880000D02*
X91476000Y-106356000D01*
X94524000Y-107880000D02*
X91476000Y-107880000D01*
D11*
X93762000Y-107880000D02*
X93762000Y-106356000D01*
D13*
X91476000Y-106356000D02*
X94524000Y-106356000D01*
D10*
X86000000Y-108500000D02*
X100000000Y-108500000D01*
X100000000Y-108500000D02*
X100000000Y-122500000D01*
X100000000Y-122500000D02*
X86000000Y-122500000D01*
X86000000Y-122500000D02*
X86000000Y-108500000D01*
D13*
X129536000Y-122262000D02*
X129536000Y-120738000D01*
D14*
X131000000Y-129250000D02*
X131000000Y-130250000D01*
X130500000Y-129750000D02*
X131500000Y-129750000D01*
D13*
X129536000Y-120738000D02*
X132584000Y-120738000D01*
X132584000Y-120738000D02*
X132584000Y-122262000D01*
X132584000Y-122262000D02*
X129536000Y-122262000D01*
D11*
X131822000Y-122262000D02*
X131822000Y-120738000D01*
D10*
X124400000Y-123550000D02*
X137600000Y-123550000D01*
X137600000Y-123550000D02*
X137600000Y-135950000D01*
X137600000Y-135950000D02*
X124400000Y-135950000D01*
X124400000Y-135950000D02*
X124400000Y-123550000D01*
D14*
X134000000Y-129750000D02*
G75*
G03*
X134000000Y-129750000I-3000000J0D01*
G01*
D13*
X110476000Y-106356000D02*
X113524000Y-106356000D01*
X113524000Y-107880000D02*
X110476000Y-107880000D01*
X113524000Y-106356000D02*
X113524000Y-107880000D01*
D11*
X112762000Y-107880000D02*
X112762000Y-106356000D01*
D13*
X110476000Y-107880000D02*
X110476000Y-106356000D01*
D10*
X105000000Y-108500000D02*
X119000000Y-108500000D01*
X119000000Y-108500000D02*
X119000000Y-122500000D01*
X119000000Y-122500000D02*
X105000000Y-122500000D01*
X105000000Y-122500000D02*
X105000000Y-108500000D01*
D13*
X170524000Y-122130000D02*
X167476000Y-122130000D01*
X170524000Y-120606000D02*
X170524000Y-122130000D01*
D11*
X169762000Y-122130000D02*
X169762000Y-120606000D01*
D13*
X167476000Y-120606000D02*
X170524000Y-120606000D01*
X167476000Y-122130000D02*
X167476000Y-120606000D01*
D10*
X162000000Y-122750000D02*
X176000000Y-122750000D01*
X176000000Y-122750000D02*
X176000000Y-136750000D01*
X176000000Y-136750000D02*
X162000000Y-136750000D01*
X162000000Y-136750000D02*
X162000000Y-122750000D01*
D14*
X227900000Y-116700000D02*
X227900000Y-117300000D01*
X225100000Y-117300000D02*
X225100000Y-116700000D01*
X227200000Y-118000000D02*
X225800000Y-118000000D01*
X225800000Y-116000000D02*
X227200000Y-116000000D01*
X227900000Y-116700000D02*
G75*
G03*
X227200000Y-116000000I-700000J0D01*
G01*
X225800000Y-116000000D02*
G75*
G03*
X225100000Y-116700000I-1J-699999D01*
G01*
X225100000Y-117300000D02*
G75*
G03*
X225800000Y-118000000I699999J-1D01*
G01*
X227200000Y-118000000D02*
G75*
G03*
X227900000Y-117300000I0J700000D01*
G01*
D13*
X94524000Y-126880000D02*
X91476000Y-126880000D01*
X91476000Y-126880000D02*
X91476000Y-125356000D01*
X91476000Y-125356000D02*
X94524000Y-125356000D01*
D11*
X93762000Y-126880000D02*
X93762000Y-125356000D01*
D13*
X94524000Y-125356000D02*
X94524000Y-126880000D01*
D10*
X86000000Y-127500000D02*
X100000000Y-127500000D01*
X100000000Y-127500000D02*
X100000000Y-141500000D01*
X100000000Y-141500000D02*
X86000000Y-141500000D01*
X86000000Y-141500000D02*
X86000000Y-127500000D01*
D16*
X70190000Y-103460000D03*
X76540000Y-100920000D03*
X184190000Y-51210000D03*
X190540000Y-48670000D03*
D17*
X228412500Y-133800000D03*
X231412500Y-133800000D03*
D16*
X165190000Y-84460000D03*
X171540000Y-81920000D03*
X165190000Y-65460000D03*
X171540000Y-62920000D03*
X203190000Y-55960000D03*
X209540000Y-53420000D03*
X70190000Y-84460000D03*
X76540000Y-81920000D03*
X108190000Y-74960000D03*
X114540000Y-72420000D03*
X203190000Y-131960000D03*
X209540000Y-129420000D03*
X165190000Y-46460000D03*
X171540000Y-43920000D03*
X70190000Y-122460000D03*
X76540000Y-119920000D03*
X146190000Y-79710000D03*
X152540000Y-77170000D03*
X127190000Y-84460000D03*
X133540000Y-81920000D03*
X89190000Y-93960000D03*
X95540000Y-91420000D03*
X127190000Y-65460000D03*
X133540000Y-62920000D03*
X146190000Y-98710000D03*
X152540000Y-96170000D03*
X127190000Y-46460000D03*
X133540000Y-43920000D03*
X89190000Y-55960000D03*
X95540000Y-53420000D03*
X184190000Y-127210000D03*
X190540000Y-124670000D03*
X184190000Y-89210000D03*
X190540000Y-86670000D03*
X127190000Y-103460000D03*
X133540000Y-100920000D03*
X184190000Y-70210000D03*
X190540000Y-67670000D03*
X89190000Y-74960000D03*
X95540000Y-72420000D03*
X108190000Y-93960000D03*
X114540000Y-91420000D03*
X108190000Y-55960000D03*
X114540000Y-53420000D03*
X203190000Y-93960000D03*
X209540000Y-91420000D03*
X70190000Y-65460000D03*
X76540000Y-62920000D03*
X165190000Y-103460000D03*
X171540000Y-100920000D03*
X146190000Y-60710000D03*
X152540000Y-58170000D03*
X184190000Y-108210000D03*
X190540000Y-105670000D03*
X146190000Y-127210000D03*
X152540000Y-124670000D03*
X146190000Y-41710000D03*
X152540000Y-39170000D03*
X108190000Y-131960000D03*
X114540000Y-129420000D03*
X203190000Y-74960000D03*
X209540000Y-72420000D03*
X89190000Y-112960000D03*
X95540000Y-110420000D03*
X108190000Y-112960000D03*
X114540000Y-110420000D03*
X165190000Y-127210000D03*
X171540000Y-124670000D03*
X89190000Y-131960000D03*
X95540000Y-129420000D03*
%LPC*%
D18*
X221420000Y-96250000D03*
D19*
X231580000Y-96250000D03*
D18*
X221420000Y-92750000D03*
D19*
X231580000Y-92750000D03*
D20*
X74000000Y-106000000D03*
D21*
X68920000Y-106000000D03*
X79080000Y-106000000D03*
D16*
X77810000Y-103460000D03*
X71460000Y-100920000D03*
D22*
X70190000Y-97618000D03*
D23*
X77810000Y-97618000D03*
D21*
X193080000Y-53750000D03*
D20*
X188000000Y-53750000D03*
D21*
X182920000Y-53750000D03*
D16*
X191810000Y-51210000D03*
X185460000Y-48670000D03*
D22*
X184190000Y-45368000D03*
D23*
X191810000Y-45368000D03*
D24*
X226012500Y-131500000D03*
X233012500Y-131500000D03*
D25*
X223862500Y-129200000D03*
X223862500Y-133800000D03*
D17*
X228412500Y-129220000D03*
X231412500Y-129220000D03*
D20*
X169000000Y-87000000D03*
D21*
X163920000Y-87000000D03*
X174080000Y-87000000D03*
D16*
X172810000Y-84460000D03*
X166460000Y-81920000D03*
D22*
X165190000Y-78618000D03*
D23*
X172810000Y-78618000D03*
D20*
X169000000Y-68000000D03*
D21*
X174080000Y-68000000D03*
X163920000Y-68000000D03*
D16*
X172810000Y-65460000D03*
X166460000Y-62920000D03*
D22*
X165190000Y-59618000D03*
D23*
X172810000Y-59618000D03*
D21*
X212080000Y-58500000D03*
D20*
X207000000Y-58500000D03*
D21*
X201920000Y-58500000D03*
D16*
X210810000Y-55960000D03*
X204460000Y-53420000D03*
D22*
X203190000Y-50118000D03*
D23*
X210810000Y-50118000D03*
D21*
X68920000Y-87000000D03*
D20*
X74000000Y-87000000D03*
D21*
X79080000Y-87000000D03*
D16*
X77810000Y-84460000D03*
X71460000Y-81920000D03*
D22*
X70190000Y-78618000D03*
D23*
X77810000Y-78618000D03*
D26*
X225850000Y-105000000D03*
D27*
X227150000Y-105000000D03*
D20*
X112000000Y-77500000D03*
D21*
X106920000Y-77500000D03*
X117080000Y-77500000D03*
D16*
X115810000Y-74960000D03*
X109460000Y-72420000D03*
D22*
X108190000Y-69118000D03*
D23*
X115810000Y-69118000D03*
D26*
X225850000Y-113000000D03*
D27*
X227150000Y-113000000D03*
D21*
X201920000Y-134500000D03*
D20*
X207000000Y-134500000D03*
D21*
X212080000Y-134500000D03*
D16*
X210810000Y-131960000D03*
X204460000Y-129420000D03*
D22*
X203190000Y-126118000D03*
D23*
X210810000Y-126118000D03*
D22*
X214000000Y-118000000D03*
X214000000Y-113000000D03*
X203250000Y-107250000D03*
D23*
X210870000Y-107250000D03*
D22*
X199500000Y-113000000D03*
X199500000Y-118000000D03*
D23*
X199500000Y-115500000D03*
D28*
X207000000Y-109900000D03*
X207000000Y-121100000D03*
D21*
X174080000Y-49000000D03*
X163920000Y-49000000D03*
D20*
X169000000Y-49000000D03*
D16*
X172810000Y-46460000D03*
X166460000Y-43920000D03*
D22*
X165190000Y-40618000D03*
D23*
X172810000Y-40618000D03*
D26*
X225850000Y-101000000D03*
D27*
X227150000Y-101000000D03*
D21*
X68920000Y-125000000D03*
D20*
X74000000Y-125000000D03*
D21*
X79080000Y-125000000D03*
D16*
X77810000Y-122460000D03*
X71460000Y-119920000D03*
D22*
X70190000Y-116618000D03*
D23*
X77810000Y-116618000D03*
D21*
X155080000Y-82250000D03*
D20*
X150000000Y-82250000D03*
D21*
X144920000Y-82250000D03*
D16*
X153810000Y-79710000D03*
X147460000Y-77170000D03*
D22*
X146190000Y-73868000D03*
D23*
X153810000Y-73868000D03*
D21*
X125920000Y-87000000D03*
X136080000Y-87000000D03*
D20*
X131000000Y-87000000D03*
D16*
X134810000Y-84460000D03*
X128460000Y-81920000D03*
D22*
X127190000Y-78618000D03*
D23*
X134810000Y-78618000D03*
D21*
X98080000Y-96500000D03*
X87920000Y-96500000D03*
D20*
X93000000Y-96500000D03*
D16*
X96810000Y-93960000D03*
X90460000Y-91420000D03*
D22*
X89190000Y-88118000D03*
D23*
X96810000Y-88118000D03*
D20*
X131000000Y-68000000D03*
D21*
X125920000Y-68000000D03*
X136080000Y-68000000D03*
D16*
X134810000Y-65460000D03*
X128460000Y-62920000D03*
D22*
X127190000Y-59618000D03*
D23*
X134810000Y-59618000D03*
D22*
X81000000Y-51500000D03*
X81000000Y-46500000D03*
X70250000Y-40750000D03*
D23*
X77870000Y-40750000D03*
D22*
X66500000Y-46500000D03*
X66500000Y-51500000D03*
D23*
X66500000Y-49000000D03*
D28*
X74000000Y-43400000D03*
X74000000Y-54600000D03*
D20*
X150000000Y-101250000D03*
D21*
X144920000Y-101250000D03*
X155080000Y-101250000D03*
D16*
X153810000Y-98710000D03*
X147460000Y-96170000D03*
D22*
X146190000Y-92868000D03*
D23*
X153810000Y-92868000D03*
D21*
X125920000Y-49000000D03*
X136080000Y-49000000D03*
D20*
X131000000Y-49000000D03*
D16*
X134810000Y-46460000D03*
X128460000Y-43920000D03*
D22*
X127190000Y-40618000D03*
D23*
X134810000Y-40618000D03*
D21*
X98080000Y-58500000D03*
D20*
X93000000Y-58500000D03*
D21*
X87920000Y-58500000D03*
D16*
X96810000Y-55960000D03*
X90460000Y-53420000D03*
D22*
X89190000Y-50118000D03*
D23*
X96810000Y-50118000D03*
D21*
X182920000Y-129750000D03*
X193080000Y-129750000D03*
D20*
X188000000Y-129750000D03*
D16*
X191810000Y-127210000D03*
X185460000Y-124670000D03*
D22*
X184190000Y-121368000D03*
D23*
X191810000Y-121368000D03*
D21*
X193080000Y-91750000D03*
X182920000Y-91750000D03*
D20*
X188000000Y-91750000D03*
D16*
X191810000Y-89210000D03*
X185460000Y-86670000D03*
D22*
X184190000Y-83368000D03*
D23*
X191810000Y-83368000D03*
D21*
X125920000Y-106000000D03*
X136080000Y-106000000D03*
D20*
X131000000Y-106000000D03*
D16*
X134810000Y-103460000D03*
X128460000Y-100920000D03*
D22*
X127190000Y-97618000D03*
D23*
X134810000Y-97618000D03*
D20*
X188000000Y-72750000D03*
D21*
X193080000Y-72750000D03*
X182920000Y-72750000D03*
D16*
X191810000Y-70210000D03*
X185460000Y-67670000D03*
D22*
X184190000Y-64368000D03*
D23*
X191810000Y-64368000D03*
D26*
X225850000Y-109000000D03*
D27*
X227150000Y-109000000D03*
D21*
X87920000Y-77500000D03*
X98080000Y-77500000D03*
D20*
X93000000Y-77500000D03*
D16*
X96810000Y-74960000D03*
X90460000Y-72420000D03*
D22*
X89190000Y-69118000D03*
D23*
X96810000Y-69118000D03*
D21*
X117080000Y-96500000D03*
D20*
X112000000Y-96500000D03*
D21*
X106920000Y-96500000D03*
D16*
X115810000Y-93960000D03*
X109460000Y-91420000D03*
D22*
X108190000Y-88118000D03*
D23*
X115810000Y-88118000D03*
D21*
X117080000Y-58500000D03*
X106920000Y-58500000D03*
D20*
X112000000Y-58500000D03*
D16*
X115810000Y-55960000D03*
X109460000Y-53420000D03*
D22*
X108190000Y-50118000D03*
D23*
X115810000Y-50118000D03*
D26*
X225850000Y-121000000D03*
D27*
X227150000Y-121000000D03*
D21*
X201920000Y-96500000D03*
D20*
X207000000Y-96500000D03*
D21*
X212080000Y-96500000D03*
D16*
X210810000Y-93960000D03*
X204460000Y-91420000D03*
D22*
X203190000Y-88118000D03*
D23*
X210810000Y-88118000D03*
D21*
X79080000Y-68000000D03*
D20*
X74000000Y-68000000D03*
D21*
X68920000Y-68000000D03*
D16*
X77810000Y-65460000D03*
X71460000Y-62920000D03*
D22*
X70190000Y-59618000D03*
D23*
X77810000Y-59618000D03*
D20*
X169000000Y-106000000D03*
D21*
X163920000Y-106000000D03*
X174080000Y-106000000D03*
D16*
X172810000Y-103460000D03*
X166460000Y-100920000D03*
D22*
X165190000Y-97618000D03*
D23*
X172810000Y-97618000D03*
D20*
X150000000Y-63250000D03*
D21*
X155080000Y-63250000D03*
X144920000Y-63250000D03*
D16*
X153810000Y-60710000D03*
X147460000Y-58170000D03*
D22*
X146190000Y-54868000D03*
D23*
X153810000Y-54868000D03*
D29*
X219130000Y-58016750D03*
D30*
X219130000Y-60556750D03*
X219130000Y-63096750D03*
X219130000Y-65636750D03*
X219130000Y-68176750D03*
X219130000Y-70716750D03*
X219130000Y-73256750D03*
X219130000Y-75796750D03*
X219130000Y-78336750D03*
X219130000Y-80876750D03*
X219130000Y-83416750D03*
X219130000Y-85956750D03*
X234370000Y-85956750D03*
X234370000Y-83416750D03*
X234370000Y-80876750D03*
X234370000Y-78336750D03*
X234370000Y-75796750D03*
X234370000Y-73256750D03*
X234370000Y-70716750D03*
X234370000Y-68176750D03*
X234370000Y-65636750D03*
X234370000Y-63096750D03*
X234370000Y-60556750D03*
X234370000Y-58016750D03*
X221670000Y-85956750D03*
X224210000Y-85956750D03*
X226750000Y-85956750D03*
X229290000Y-85956750D03*
X231830000Y-85956750D03*
D31*
X222690000Y-125500000D03*
X225230000Y-125500000D03*
X227770000Y-125500000D03*
X230310000Y-125500000D03*
D21*
X182920000Y-110750000D03*
D20*
X188000000Y-110750000D03*
D21*
X193080000Y-110750000D03*
D16*
X191810000Y-108210000D03*
X185460000Y-105670000D03*
D22*
X184190000Y-102368000D03*
D23*
X191810000Y-102368000D03*
D20*
X150000000Y-129750000D03*
D21*
X155080000Y-129750000D03*
X144920000Y-129750000D03*
D16*
X153810000Y-127210000D03*
X147460000Y-124670000D03*
D22*
X146190000Y-121368000D03*
D23*
X153810000Y-121368000D03*
D20*
X150000000Y-44250000D03*
D21*
X144920000Y-44250000D03*
X155080000Y-44250000D03*
D16*
X153810000Y-41710000D03*
X147460000Y-39170000D03*
D22*
X146190000Y-35868000D03*
D23*
X153810000Y-35868000D03*
D20*
X112000000Y-134500000D03*
D21*
X106920000Y-134500000D03*
X117080000Y-134500000D03*
D16*
X115810000Y-131960000D03*
X109460000Y-129420000D03*
D22*
X108190000Y-126118000D03*
D23*
X115810000Y-126118000D03*
D21*
X201920000Y-77500000D03*
X212080000Y-77500000D03*
D20*
X207000000Y-77500000D03*
D16*
X210810000Y-74960000D03*
X204460000Y-72420000D03*
D22*
X203190000Y-69118000D03*
D23*
X210810000Y-69118000D03*
D20*
X93000000Y-115500000D03*
D21*
X87920000Y-115500000D03*
X98080000Y-115500000D03*
D16*
X96810000Y-112960000D03*
X90460000Y-110420000D03*
D22*
X89190000Y-107118000D03*
D23*
X96810000Y-107118000D03*
D22*
X138000000Y-132250000D03*
X138000000Y-127250000D03*
X127250000Y-121500000D03*
D23*
X134870000Y-121500000D03*
D22*
X123500000Y-127250000D03*
X123500000Y-132250000D03*
D23*
X123500000Y-129750000D03*
D28*
X131000000Y-135350000D03*
X131000000Y-124150000D03*
D20*
X112000000Y-115500000D03*
D21*
X106920000Y-115500000D03*
X117080000Y-115500000D03*
D16*
X115810000Y-112960000D03*
X109460000Y-110420000D03*
D22*
X108190000Y-107118000D03*
D23*
X115810000Y-107118000D03*
D21*
X163920000Y-129750000D03*
D20*
X169000000Y-129750000D03*
D21*
X174080000Y-129750000D03*
D16*
X172810000Y-127210000D03*
X166460000Y-124670000D03*
D22*
X165190000Y-121368000D03*
D23*
X172810000Y-121368000D03*
D26*
X225850000Y-117000000D03*
D27*
X227150000Y-117000000D03*
D21*
X98080000Y-134500000D03*
X87920000Y-134500000D03*
D20*
X93000000Y-134500000D03*
D16*
X96810000Y-131960000D03*
X90460000Y-129420000D03*
D22*
X89190000Y-126118000D03*
D23*
X96810000Y-126118000D03*
D26*
X225850000Y-113000000D03*
D27*
X227150000Y-113000000D03*
D26*
X225850000Y-105000000D03*
D27*
X227150000Y-105000000D03*
D26*
X225850000Y-109000000D03*
D27*
X227150000Y-109000000D03*
D26*
X225850000Y-121000000D03*
D27*
X227150000Y-121000000D03*
D26*
X225850000Y-101000000D03*
D27*
X227150000Y-101000000D03*
D26*
X225850000Y-117000000D03*
D27*
X227150000Y-117000000D03*
M02*
