%TF.GenerationSoftware,KiCad,Pcbnew,(6.0.4-0)*%
%TF.CreationDate,2022-03-31T21:48:39+02:00*%
%TF.ProjectId,PCB,5043422e-6b69-4636-9164-5f7063625858,rev?*%
%TF.SameCoordinates,Original*%
%TF.FileFunction,Copper,L2,Bot*%
%TF.FilePolarity,Positive*%
%FSLAX46Y46*%
G04 Gerber Fmt 4.6, Leading zero omitted, Abs format (unit mm)*
G04 Created by KiCad (PCBNEW (6.0.4-0)) date 2022-03-31 21:48:39*
%MOMM*%
%LPD*%
G01*
G04 APERTURE LIST*
G04 Aperture macros list*
%AMFreePoly0*
4,1,22,0.500000,-0.750000,0.000000,-0.750000,0.000000,-0.745033,-0.079941,-0.743568,-0.215256,-0.701293,-0.333266,-0.622738,-0.424486,-0.514219,-0.481581,-0.384460,-0.499164,-0.250000,-0.500000,-0.250000,-0.500000,0.250000,-0.499164,0.250000,-0.499963,0.256109,-0.478152,0.396186,-0.417904,0.524511,-0.324060,0.630769,-0.204165,0.706417,-0.067858,0.745374,0.000000,0.744959,0.000000,0.750000,
0.500000,0.750000,0.500000,-0.750000,0.500000,-0.750000,$1*%
%AMFreePoly1*
4,1,20,0.000000,0.744959,0.073905,0.744508,0.209726,0.703889,0.328688,0.626782,0.421226,0.519385,0.479903,0.390333,0.500000,0.250000,0.500000,-0.250000,0.499851,-0.262216,0.476331,-0.402017,0.414519,-0.529596,0.319384,-0.634700,0.198574,-0.708877,0.061801,-0.746166,0.000000,-0.745033,0.000000,-0.750000,-0.500000,-0.750000,-0.500000,0.750000,0.000000,0.750000,0.000000,0.744959,
0.000000,0.744959,$1*%
G04 Aperture macros list end*
%TA.AperFunction,ComponentPad*%
%ADD10C,1.600000*%
%TD*%
%TA.AperFunction,ComponentPad*%
%ADD11O,1.600000X1.600000*%
%TD*%
%TA.AperFunction,ComponentPad*%
%ADD12O,2.500000X2.000000*%
%TD*%
%TA.AperFunction,ComponentPad*%
%ADD13C,2.000000*%
%TD*%
%TA.AperFunction,ComponentPad*%
%ADD14R,2.000000X2.000000*%
%TD*%
%TA.AperFunction,ComponentPad*%
%ADD15O,3.100000X1.600000*%
%TD*%
%TA.AperFunction,ComponentPad*%
%ADD16O,2.000000X1.600000*%
%TD*%
%TA.AperFunction,ComponentPad*%
%ADD17R,3.200000X2.000000*%
%TD*%
%TA.AperFunction,ComponentPad*%
%ADD18R,1.752600X1.752600*%
%TD*%
%TA.AperFunction,ComponentPad*%
%ADD19C,1.752600*%
%TD*%
%TA.AperFunction,ComponentPad*%
%ADD20C,1.397000*%
%TD*%
%TA.AperFunction,SMDPad,CuDef*%
%ADD21FreePoly0,0.000000*%
%TD*%
%TA.AperFunction,SMDPad,CuDef*%
%ADD22FreePoly1,0.000000*%
%TD*%
%TA.AperFunction,ViaPad*%
%ADD23C,0.800000*%
%TD*%
%TA.AperFunction,Conductor*%
%ADD24C,0.250000*%
%TD*%
G04 APERTURE END LIST*
D10*
X221420000Y-96250000D03*
D11*
X231580000Y-96250000D03*
D10*
X221420000Y-92750000D03*
D11*
X231580000Y-92750000D03*
D12*
X77810000Y-103460000D03*
X70190000Y-103460000D03*
X71460000Y-100920000D03*
X76540000Y-100920000D03*
D13*
X70190000Y-97618000D03*
D14*
X77810000Y-97618000D03*
D12*
X191810000Y-51210000D03*
X184190000Y-51210000D03*
X185460000Y-48670000D03*
X190540000Y-48670000D03*
D13*
X184190000Y-45368000D03*
D14*
X191810000Y-45368000D03*
D15*
X223862500Y-129200000D03*
X223862500Y-133800000D03*
D16*
X228412500Y-129220000D03*
X228412500Y-133800000D03*
X231412500Y-133800000D03*
X231412500Y-129220000D03*
D12*
X172810000Y-84460000D03*
X165190000Y-84460000D03*
X166460000Y-81920000D03*
X171540000Y-81920000D03*
D13*
X165190000Y-78618000D03*
D14*
X172810000Y-78618000D03*
D12*
X172810000Y-65460000D03*
X165190000Y-65460000D03*
X166460000Y-62920000D03*
X171540000Y-62920000D03*
D13*
X165190000Y-59618000D03*
D14*
X172810000Y-59618000D03*
D12*
X210810000Y-55960000D03*
X203190000Y-55960000D03*
X209540000Y-53420000D03*
X204460000Y-53420000D03*
D13*
X203190000Y-50118000D03*
D14*
X210810000Y-50118000D03*
D12*
X70190000Y-84460000D03*
X77810000Y-84460000D03*
X71460000Y-81920000D03*
X76540000Y-81920000D03*
D13*
X70190000Y-78618000D03*
D14*
X77810000Y-78618000D03*
D12*
X115810000Y-74960000D03*
X108190000Y-74960000D03*
X109460000Y-72420000D03*
X114540000Y-72420000D03*
D13*
X108190000Y-69118000D03*
D14*
X115810000Y-69118000D03*
D12*
X203190000Y-131960000D03*
X210810000Y-131960000D03*
X209540000Y-129420000D03*
X204460000Y-129420000D03*
D13*
X203190000Y-126118000D03*
D14*
X210810000Y-126118000D03*
D13*
X214000000Y-118000000D03*
X214000000Y-113000000D03*
X203250000Y-107250000D03*
D14*
X210870000Y-107250000D03*
D13*
X199500000Y-113000000D03*
X199500000Y-118000000D03*
D14*
X199500000Y-115500000D03*
D17*
X207000000Y-109900000D03*
X207000000Y-121100000D03*
D12*
X165190000Y-46460000D03*
X172810000Y-46460000D03*
X166460000Y-43920000D03*
X171540000Y-43920000D03*
D13*
X165190000Y-40618000D03*
D14*
X172810000Y-40618000D03*
D12*
X77810000Y-122460000D03*
X70190000Y-122460000D03*
X71460000Y-119920000D03*
X76540000Y-119920000D03*
D13*
X70190000Y-116618000D03*
D14*
X77810000Y-116618000D03*
D12*
X146190000Y-79710000D03*
X153810000Y-79710000D03*
X147460000Y-77170000D03*
X152540000Y-77170000D03*
D13*
X146190000Y-73868000D03*
D14*
X153810000Y-73868000D03*
D12*
X127190000Y-84460000D03*
X134810000Y-84460000D03*
X133540000Y-81920000D03*
X128460000Y-81920000D03*
D13*
X127190000Y-78618000D03*
D14*
X134810000Y-78618000D03*
D12*
X96810000Y-93960000D03*
X89190000Y-93960000D03*
X95540000Y-91420000D03*
X90460000Y-91420000D03*
D13*
X89190000Y-88118000D03*
D14*
X96810000Y-88118000D03*
D12*
X134810000Y-65460000D03*
X127190000Y-65460000D03*
X133540000Y-62920000D03*
X128460000Y-62920000D03*
D13*
X127190000Y-59618000D03*
D14*
X134810000Y-59618000D03*
D13*
X81000000Y-51500000D03*
X81000000Y-46500000D03*
X70250000Y-40750000D03*
D14*
X77870000Y-40750000D03*
D13*
X66500000Y-46500000D03*
X66500000Y-51500000D03*
D14*
X66500000Y-49000000D03*
D17*
X74000000Y-43400000D03*
X74000000Y-54600000D03*
D12*
X146190000Y-98710000D03*
X153810000Y-98710000D03*
X152540000Y-96170000D03*
X147460000Y-96170000D03*
D13*
X146190000Y-92868000D03*
D14*
X153810000Y-92868000D03*
D12*
X134810000Y-46460000D03*
X127190000Y-46460000D03*
X133540000Y-43920000D03*
X128460000Y-43920000D03*
D13*
X127190000Y-40618000D03*
D14*
X134810000Y-40618000D03*
D12*
X89190000Y-55960000D03*
X96810000Y-55960000D03*
X90460000Y-53420000D03*
X95540000Y-53420000D03*
D13*
X89190000Y-50118000D03*
D14*
X96810000Y-50118000D03*
D12*
X191810000Y-127210000D03*
X184190000Y-127210000D03*
X190540000Y-124670000D03*
X185460000Y-124670000D03*
D13*
X184190000Y-121368000D03*
D14*
X191810000Y-121368000D03*
D12*
X184190000Y-89210000D03*
X191810000Y-89210000D03*
X190540000Y-86670000D03*
X185460000Y-86670000D03*
D13*
X184190000Y-83368000D03*
D14*
X191810000Y-83368000D03*
D12*
X127190000Y-103460000D03*
X134810000Y-103460000D03*
X128460000Y-100920000D03*
X133540000Y-100920000D03*
D13*
X127190000Y-97618000D03*
D14*
X134810000Y-97618000D03*
D12*
X184190000Y-70210000D03*
X191810000Y-70210000D03*
X190540000Y-67670000D03*
X185460000Y-67670000D03*
D13*
X184190000Y-64368000D03*
D14*
X191810000Y-64368000D03*
D12*
X89190000Y-74960000D03*
X96810000Y-74960000D03*
X95540000Y-72420000D03*
X90460000Y-72420000D03*
D13*
X89190000Y-69118000D03*
D14*
X96810000Y-69118000D03*
D12*
X115810000Y-93960000D03*
X108190000Y-93960000D03*
X109460000Y-91420000D03*
X114540000Y-91420000D03*
D13*
X108190000Y-88118000D03*
D14*
X115810000Y-88118000D03*
D12*
X108190000Y-55960000D03*
X115810000Y-55960000D03*
X114540000Y-53420000D03*
X109460000Y-53420000D03*
D13*
X108190000Y-50118000D03*
D14*
X115810000Y-50118000D03*
D12*
X210810000Y-93960000D03*
X203190000Y-93960000D03*
X204460000Y-91420000D03*
X209540000Y-91420000D03*
D13*
X203190000Y-88118000D03*
D14*
X210810000Y-88118000D03*
D12*
X77810000Y-65460000D03*
X70190000Y-65460000D03*
X71460000Y-62920000D03*
X76540000Y-62920000D03*
D13*
X70190000Y-59618000D03*
D14*
X77810000Y-59618000D03*
D12*
X172810000Y-103460000D03*
X165190000Y-103460000D03*
X171540000Y-100920000D03*
X166460000Y-100920000D03*
D13*
X165190000Y-97618000D03*
D14*
X172810000Y-97618000D03*
D12*
X153810000Y-60710000D03*
X146190000Y-60710000D03*
X152540000Y-58170000D03*
X147460000Y-58170000D03*
D13*
X146190000Y-54868000D03*
D14*
X153810000Y-54868000D03*
D18*
X219130000Y-58016750D03*
D19*
X219130000Y-60556750D03*
X219130000Y-63096750D03*
X219130000Y-65636750D03*
X219130000Y-68176750D03*
X219130000Y-70716750D03*
X219130000Y-73256750D03*
X219130000Y-75796750D03*
X219130000Y-78336750D03*
X219130000Y-80876750D03*
X219130000Y-83416750D03*
X219130000Y-85956750D03*
X234370000Y-85956750D03*
X234370000Y-83416750D03*
X234370000Y-80876750D03*
X234370000Y-78336750D03*
X234370000Y-75796750D03*
X234370000Y-73256750D03*
X234370000Y-70716750D03*
X234370000Y-68176750D03*
X234370000Y-65636750D03*
X234370000Y-63096750D03*
X234370000Y-60556750D03*
X234370000Y-58016750D03*
X221670000Y-85956750D03*
X224210000Y-85956750D03*
X226750000Y-85956750D03*
X229290000Y-85956750D03*
X231830000Y-85956750D03*
D20*
X222690000Y-125500000D03*
X225230000Y-125500000D03*
X227770000Y-125500000D03*
X230310000Y-125500000D03*
D12*
X191810000Y-108210000D03*
X184190000Y-108210000D03*
X190540000Y-105670000D03*
X185460000Y-105670000D03*
D13*
X184190000Y-102368000D03*
D14*
X191810000Y-102368000D03*
D12*
X146190000Y-127210000D03*
X153810000Y-127210000D03*
X152540000Y-124670000D03*
X147460000Y-124670000D03*
D13*
X146190000Y-121368000D03*
D14*
X153810000Y-121368000D03*
D12*
X146190000Y-41710000D03*
X153810000Y-41710000D03*
X152540000Y-39170000D03*
X147460000Y-39170000D03*
D13*
X146190000Y-35868000D03*
D14*
X153810000Y-35868000D03*
D12*
X115810000Y-131960000D03*
X108190000Y-131960000D03*
X114540000Y-129420000D03*
X109460000Y-129420000D03*
D13*
X108190000Y-126118000D03*
D14*
X115810000Y-126118000D03*
D12*
X203190000Y-74960000D03*
X210810000Y-74960000D03*
X209540000Y-72420000D03*
X204460000Y-72420000D03*
D13*
X203190000Y-69118000D03*
D14*
X210810000Y-69118000D03*
D12*
X89190000Y-112960000D03*
X96810000Y-112960000D03*
X95540000Y-110420000D03*
X90460000Y-110420000D03*
D13*
X89190000Y-107118000D03*
D14*
X96810000Y-107118000D03*
D13*
X138000000Y-132250000D03*
X138000000Y-127250000D03*
X127250000Y-121500000D03*
D14*
X134870000Y-121500000D03*
D13*
X123500000Y-127250000D03*
X123500000Y-132250000D03*
D14*
X123500000Y-129750000D03*
D17*
X131000000Y-135350000D03*
X131000000Y-124150000D03*
D12*
X115810000Y-112960000D03*
X108190000Y-112960000D03*
X109460000Y-110420000D03*
X114540000Y-110420000D03*
D13*
X108190000Y-107118000D03*
D14*
X115810000Y-107118000D03*
D12*
X172810000Y-127210000D03*
X165190000Y-127210000D03*
X171540000Y-124670000D03*
X166460000Y-124670000D03*
D13*
X165190000Y-121368000D03*
D14*
X172810000Y-121368000D03*
D12*
X96810000Y-131960000D03*
X89190000Y-131960000D03*
X90460000Y-129420000D03*
X95540000Y-129420000D03*
D13*
X89190000Y-126118000D03*
D14*
X96810000Y-126118000D03*
D21*
X225850000Y-113000000D03*
D22*
X227150000Y-113000000D03*
D21*
X225850000Y-105000000D03*
D22*
X227150000Y-105000000D03*
D21*
X225850000Y-109000000D03*
D22*
X227150000Y-109000000D03*
D21*
X225850000Y-121000000D03*
D22*
X227150000Y-121000000D03*
D21*
X225850000Y-101000000D03*
D22*
X227150000Y-101000000D03*
D21*
X225850000Y-117000000D03*
D22*
X227150000Y-117000000D03*
D23*
X223250000Y-118500000D03*
X214750000Y-72525500D03*
X223262299Y-108987701D03*
X223250000Y-111750000D03*
X199500000Y-82750000D03*
X198250000Y-82750000D03*
X196000497Y-125750000D03*
X197000000Y-125750000D03*
X224500000Y-105000000D03*
X224500000Y-111750000D03*
X215000000Y-88750000D03*
X213101469Y-88750000D03*
X213000000Y-105750000D03*
X215000000Y-105750000D03*
X219000000Y-108250000D03*
X219000000Y-106250000D03*
X228500000Y-121000000D03*
X228500000Y-117000000D03*
X199290000Y-93960000D03*
X196426940Y-93960000D03*
X213825969Y-73500000D03*
X222250000Y-110500000D03*
X198000000Y-125750000D03*
X220250000Y-106250000D03*
X220250000Y-108250000D03*
X226000000Y-103000000D03*
X198000000Y-124000000D03*
X220250000Y-121000000D03*
X228500000Y-113000000D03*
X228500000Y-109000000D03*
X228500000Y-101000000D03*
X228500000Y-105000000D03*
D24*
X234900727Y-56750000D02*
X220396750Y-56750000D01*
X220396750Y-56750000D02*
X219130000Y-58016750D01*
X236149520Y-122611197D02*
X236149520Y-57998793D01*
X229540718Y-129220000D02*
X236149520Y-122611197D01*
X236149520Y-57998793D02*
X234900727Y-56750000D01*
X228412500Y-129220000D02*
X229540718Y-129220000D01*
X228412500Y-133800000D02*
X228412500Y-129220000D01*
X223250000Y-118500000D02*
X223250000Y-111750000D01*
X214781250Y-72525500D02*
X219130000Y-68176750D01*
X225050480Y-107199520D02*
X228300480Y-107199520D01*
X228300480Y-107199520D02*
X231580000Y-103920000D01*
X223262299Y-108987701D02*
X225050480Y-107199520D01*
X231580000Y-103920000D02*
X231580000Y-96250000D01*
X223274598Y-109000000D02*
X225850000Y-109000000D01*
X214750000Y-72525500D02*
X214781250Y-72525500D01*
X223262299Y-108987701D02*
X223274598Y-109000000D01*
X199357052Y-85507230D02*
X198050480Y-86813802D01*
X219130000Y-83416750D02*
X217039520Y-85507230D01*
X199350978Y-118000000D02*
X199500000Y-118000000D01*
X217039520Y-85507230D02*
X199357052Y-85507230D01*
X198050480Y-86813802D02*
X198050480Y-116699502D01*
X198050480Y-116699502D02*
X199350978Y-118000000D01*
X219130000Y-73256750D02*
X208677600Y-83709150D01*
X200459150Y-83709150D02*
X199500000Y-82750000D01*
X208677600Y-83709150D02*
X200459150Y-83709150D01*
X199658670Y-84158670D02*
X210768080Y-84158670D01*
X210768080Y-84158670D02*
X219130000Y-75796750D01*
X198250000Y-82750000D02*
X199658670Y-84158670D01*
X198984656Y-84608191D02*
X212858559Y-84608191D01*
X197151440Y-86441408D02*
X198984656Y-84608191D01*
X196000497Y-125750000D02*
X196000497Y-124339171D01*
X196000497Y-124339171D02*
X197151440Y-123188228D01*
X212858559Y-84608191D02*
X219130000Y-78336750D01*
X197151440Y-123188228D02*
X197151440Y-86441408D01*
X197000000Y-123975386D02*
X197600960Y-123374426D01*
X197600960Y-86627605D02*
X199170854Y-85057710D01*
X197000000Y-125750000D02*
X197000000Y-123975386D01*
X199170854Y-85057710D02*
X214949040Y-85057710D01*
X197600960Y-123374426D02*
X197600960Y-86627605D01*
X214949040Y-85057710D02*
X219130000Y-80876750D01*
X198500000Y-112000000D02*
X199500000Y-113000000D01*
X198500000Y-87000000D02*
X198500000Y-112000000D01*
X199543250Y-85956750D02*
X198500000Y-87000000D01*
X219130000Y-85956750D02*
X199543250Y-85956750D01*
X97413157Y-55960000D02*
X99404521Y-57951364D01*
X96810000Y-112960000D02*
X99349042Y-112960000D01*
X96810000Y-55960000D02*
X97413157Y-55960000D01*
X104568552Y-137124031D02*
X199492285Y-137124031D01*
X99404521Y-93845479D02*
X99404521Y-112904521D01*
X96810000Y-93960000D02*
X99290000Y-93960000D01*
X99404521Y-131960000D02*
X96810000Y-131960000D01*
X212556465Y-139122121D02*
X218048080Y-133630505D01*
X201490375Y-139122121D02*
X212556465Y-139122121D01*
X230921589Y-89405161D02*
X234370000Y-85956750D01*
X218048080Y-133630505D02*
X218048080Y-92766228D01*
X218048080Y-92766228D02*
X221409147Y-89405161D01*
X99404521Y-112904521D02*
X99404521Y-131960000D01*
X99290000Y-93960000D02*
X99404521Y-93845479D01*
X99404521Y-131960000D02*
X104568552Y-137124031D01*
X96810000Y-74960000D02*
X99290000Y-74960000D01*
X99404521Y-57951364D02*
X99404521Y-74845479D01*
X99349042Y-112960000D02*
X99404521Y-112904521D01*
X221409147Y-89405161D02*
X230921589Y-89405161D01*
X99290000Y-74960000D02*
X99404521Y-74845479D01*
X99404521Y-74845479D02*
X99404521Y-93845479D01*
X199492285Y-137124031D02*
X201490375Y-139122121D01*
X218497600Y-133816702D02*
X218497600Y-127500000D01*
X81000000Y-51500000D02*
X81000000Y-65500000D01*
X77810000Y-103460000D02*
X80960000Y-103460000D01*
X201304178Y-139571641D02*
X212742662Y-139571641D01*
X81000000Y-122460000D02*
X77810000Y-122460000D01*
X77810000Y-65460000D02*
X80960000Y-65460000D01*
X235700000Y-122424999D02*
X235700000Y-84746750D01*
X80960000Y-84460000D02*
X81000000Y-84500000D01*
X81000000Y-65500000D02*
X81000000Y-84500000D01*
X199306088Y-137573551D02*
X201304178Y-139571641D01*
X233874999Y-124250000D02*
X235700000Y-122424999D01*
X81000000Y-122460000D02*
X81000000Y-130750000D01*
X218497600Y-127500000D02*
X221747600Y-124250000D01*
X80960000Y-103460000D02*
X81000000Y-103500000D01*
X77810000Y-84460000D02*
X80960000Y-84460000D01*
X80960000Y-65460000D02*
X81000000Y-65500000D01*
X235700000Y-84746750D02*
X234370000Y-83416750D01*
X81000000Y-130750000D02*
X87823551Y-137573551D01*
X81000000Y-103500000D02*
X81000000Y-122460000D01*
X87823551Y-137573551D02*
X199306088Y-137573551D01*
X81000000Y-84500000D02*
X81000000Y-103500000D01*
X221747600Y-124250000D02*
X233874999Y-124250000D01*
X212742662Y-139571641D02*
X218497600Y-133816702D01*
X199678483Y-136674511D02*
X201676574Y-138672601D01*
X233169189Y-82077561D02*
X234370000Y-80876750D01*
X118404521Y-131960000D02*
X123119032Y-136674511D01*
X118404521Y-57054521D02*
X118404521Y-74904521D01*
X201676574Y-138672601D02*
X212370267Y-138672601D01*
X115810000Y-55960000D02*
X117310000Y-55960000D01*
X118404521Y-74904521D02*
X118404521Y-93904521D01*
X230529313Y-88955641D02*
X233169189Y-86315765D01*
X118349042Y-112960000D02*
X118404521Y-112904521D01*
X118349042Y-93960000D02*
X118404521Y-93904521D01*
X118404521Y-131960000D02*
X115810000Y-131960000D01*
X217598560Y-133444308D02*
X217598560Y-92580030D01*
X115810000Y-112960000D02*
X118349042Y-112960000D01*
X117310000Y-55960000D02*
X118404521Y-57054521D01*
X217598560Y-92580030D02*
X221222949Y-88955641D01*
X118404521Y-93904521D02*
X118404521Y-112904521D01*
X221222949Y-88955641D02*
X230529313Y-88955641D01*
X233169189Y-86315765D02*
X233169189Y-82077561D01*
X212370267Y-138672601D02*
X217598560Y-133444308D01*
X123119032Y-136674511D02*
X199678483Y-136674511D01*
X115810000Y-93960000D02*
X118349042Y-93960000D01*
X118404521Y-112904521D02*
X118404521Y-131960000D01*
X115810000Y-74960000D02*
X118349042Y-74960000D01*
X118349042Y-74960000D02*
X118404521Y-74904521D01*
X224500000Y-115650000D02*
X225850000Y-117000000D01*
X224500000Y-111750000D02*
X224500000Y-115650000D01*
X224500000Y-105000000D02*
X225850000Y-105000000D01*
X215000000Y-88750000D02*
X213101469Y-88750000D01*
X213000000Y-105750000D02*
X215000000Y-105750000D01*
X219000000Y-106250000D02*
X219000000Y-108250000D01*
X227150000Y-121000000D02*
X228500000Y-121000000D01*
X228500000Y-117000000D02*
X227150000Y-117000000D01*
X231412500Y-129220000D02*
X231412500Y-133800000D01*
X143299502Y-136224991D02*
X199864681Y-136224991D01*
X139324511Y-84425489D02*
X139324511Y-103425489D01*
X139324511Y-103425489D02*
X139324511Y-132250000D01*
X228438833Y-88506121D02*
X230629189Y-86315765D01*
X139324511Y-132250000D02*
X138000000Y-132250000D01*
X134810000Y-103460000D02*
X139290000Y-103460000D01*
X139324511Y-65324511D02*
X139324511Y-84425489D01*
X135413157Y-46460000D02*
X139324511Y-50371354D01*
X134810000Y-65460000D02*
X139189022Y-65460000D01*
X230629189Y-86315765D02*
X230629189Y-82077561D01*
X230629189Y-82077561D02*
X234370000Y-78336750D01*
X199864681Y-136224991D02*
X201862771Y-138223081D01*
X221036751Y-88506121D02*
X228438833Y-88506121D01*
X212184071Y-138223081D02*
X217149040Y-133258111D01*
X139189022Y-65460000D02*
X139324511Y-65324511D01*
X201862771Y-138223081D02*
X212184071Y-138223081D01*
X134810000Y-46460000D02*
X135413157Y-46460000D01*
X139290000Y-84460000D02*
X139324511Y-84425489D01*
X139324511Y-50371354D02*
X139324511Y-65324511D01*
X139324511Y-132250000D02*
X143299502Y-136224991D01*
X217149040Y-133258111D02*
X217149040Y-92393832D01*
X139290000Y-103460000D02*
X139324511Y-103425489D01*
X217149040Y-92393832D02*
X221036751Y-88506121D01*
X134810000Y-84460000D02*
X139290000Y-84460000D01*
X211997873Y-137773561D02*
X216699520Y-133071914D01*
X200050878Y-135775471D02*
X202048970Y-137773561D01*
X156404521Y-127210000D02*
X164969992Y-135775471D01*
X156349042Y-79710000D02*
X156404521Y-79654521D01*
X228089189Y-82077561D02*
X234370000Y-75796750D01*
X156404521Y-60654521D02*
X156404521Y-79654521D01*
X156404521Y-79654521D02*
X156404521Y-98654521D01*
X202048970Y-137773561D02*
X211997873Y-137773561D01*
X156349042Y-60710000D02*
X156404521Y-60654521D01*
X216699520Y-92207634D02*
X220850553Y-88056601D01*
X156349042Y-98710000D02*
X156404521Y-98654521D01*
X216699520Y-133071914D02*
X216699520Y-92207634D01*
X156404521Y-127210000D02*
X153810000Y-127210000D01*
X226348353Y-88056601D02*
X228089189Y-86315765D01*
X156404521Y-98654521D02*
X156404521Y-127210000D01*
X164969992Y-135775471D02*
X200050878Y-135775471D01*
X220850553Y-88056601D02*
X226348353Y-88056601D01*
X228089189Y-86315765D02*
X228089189Y-82077561D01*
X153810000Y-60710000D02*
X156349042Y-60710000D01*
X153810000Y-41710000D02*
X155310000Y-41710000D01*
X155310000Y-41710000D02*
X156404521Y-42804521D01*
X156404521Y-42804521D02*
X156404521Y-60654521D01*
X153810000Y-98710000D02*
X156349042Y-98710000D01*
X153810000Y-79710000D02*
X156349042Y-79710000D01*
X172810000Y-84460000D02*
X175290000Y-84460000D01*
X175404521Y-127210000D02*
X172810000Y-127210000D01*
X175404521Y-47554521D02*
X175404521Y-65404521D01*
X172810000Y-46460000D02*
X174310000Y-46460000D01*
X225549189Y-82077561D02*
X234370000Y-73256750D01*
X175404521Y-103345479D02*
X175404521Y-127210000D01*
X175404521Y-127210000D02*
X183520472Y-135325951D01*
X225549189Y-86315765D02*
X225549189Y-82077561D01*
X175404521Y-65404521D02*
X175404521Y-84345479D01*
X216250000Y-92021436D02*
X220664355Y-87607081D01*
X175290000Y-103460000D02*
X175404521Y-103345479D01*
X183520472Y-135325951D02*
X200237077Y-135325951D01*
X220664355Y-87607081D02*
X224257873Y-87607081D01*
X200237077Y-135325951D02*
X202235167Y-137324041D01*
X224257873Y-87607081D02*
X225549189Y-86315765D01*
X174310000Y-46460000D02*
X175404521Y-47554521D01*
X172810000Y-103460000D02*
X175290000Y-103460000D01*
X175349042Y-65460000D02*
X175404521Y-65404521D01*
X211811676Y-137324041D02*
X216250000Y-132885717D01*
X172810000Y-65460000D02*
X175349042Y-65460000D01*
X216250000Y-132885717D02*
X216250000Y-92021436D01*
X175404521Y-84345479D02*
X175404521Y-103345479D01*
X175290000Y-84460000D02*
X175404521Y-84345479D01*
X202235167Y-137324041D02*
X211811676Y-137324041D01*
X194404521Y-89154521D02*
X194404521Y-108154521D01*
X194404521Y-70095479D02*
X194404521Y-89154521D01*
X191810000Y-70210000D02*
X194290000Y-70210000D01*
X191810000Y-108210000D02*
X194349042Y-108210000D01*
X191810000Y-51210000D02*
X193310000Y-51210000D01*
X223000000Y-82086750D02*
X234370000Y-70716750D01*
X194404521Y-127210000D02*
X191810000Y-127210000D01*
X211625479Y-136874521D02*
X215774031Y-132725969D01*
X215774031Y-91861687D02*
X220478157Y-87157561D01*
X194404521Y-52304521D02*
X194404521Y-70095479D01*
X215774031Y-132725969D02*
X215774031Y-91861687D01*
X222342439Y-87157561D02*
X223000000Y-86500000D01*
X194404521Y-128857678D02*
X202421364Y-136874521D01*
X202421364Y-136874521D02*
X211625479Y-136874521D01*
X194349042Y-89210000D02*
X194404521Y-89154521D01*
X193310000Y-51210000D02*
X194404521Y-52304521D01*
X194404521Y-108154521D02*
X194404521Y-127210000D01*
X191810000Y-89210000D02*
X194349042Y-89210000D01*
X220478157Y-87157561D02*
X222342439Y-87157561D01*
X194290000Y-70210000D02*
X194404521Y-70095479D01*
X223000000Y-86444954D02*
X223000000Y-82086750D01*
X194404521Y-127210000D02*
X194404521Y-128857678D01*
X194349042Y-108210000D02*
X194404521Y-108154521D01*
X220469189Y-82077561D02*
X234370000Y-68176750D01*
X214000000Y-118000000D02*
X214000000Y-128770000D01*
X196426940Y-93960000D02*
X194918082Y-93960000D01*
X203190000Y-93960000D02*
X199290000Y-93960000D01*
X220469189Y-86530811D02*
X220469189Y-82077561D01*
X202586843Y-55960000D02*
X194854041Y-63692802D01*
X203190000Y-74960000D02*
X194960000Y-74960000D01*
X194918082Y-93960000D02*
X194854041Y-93895959D01*
X203190000Y-55960000D02*
X202586843Y-55960000D01*
X194960000Y-74960000D02*
X194854041Y-74854041D01*
X214000000Y-128770000D02*
X210810000Y-131960000D01*
X198142561Y-131960000D02*
X203190000Y-131960000D01*
X194854041Y-128671480D02*
X198142561Y-131960000D01*
X194854041Y-63692802D02*
X194854041Y-74854041D01*
X213040000Y-93960000D02*
X220469189Y-86530811D01*
X194854041Y-74854041D02*
X194854041Y-93895959D01*
X194854041Y-93895959D02*
X194854041Y-128671480D01*
X210810000Y-93960000D02*
X213040000Y-93960000D01*
X222250000Y-110500000D02*
X222250000Y-108975386D01*
X230250000Y-104500000D02*
X230250000Y-94080000D01*
X225850000Y-113000000D02*
X225850000Y-112075386D01*
X224475386Y-106750000D02*
X228000000Y-106750000D01*
X228000000Y-106750000D02*
X230250000Y-104500000D01*
X230250000Y-94080000D02*
X231580000Y-92750000D01*
X222250000Y-108975386D02*
X224475386Y-106750000D01*
X224274614Y-110500000D02*
X222250000Y-110500000D01*
X216346750Y-73500000D02*
X219130000Y-70716750D01*
X213825969Y-73500000D02*
X216346750Y-73500000D01*
X225850000Y-112075386D02*
X224274614Y-110500000D01*
X226000000Y-101150000D02*
X225850000Y-101000000D01*
X220250000Y-121000000D02*
X225850000Y-121000000D01*
X226000000Y-103000000D02*
X226000000Y-101150000D01*
X220250000Y-106250000D02*
X220250000Y-108250000D01*
X225500000Y-101000000D02*
X225850000Y-101000000D01*
X220250000Y-106250000D02*
X225500000Y-101000000D01*
X198000000Y-125750000D02*
X198000000Y-124000000D01*
X228500000Y-113000000D02*
X227150000Y-113000000D01*
X228500000Y-109000000D02*
X227150000Y-109000000D01*
X227150000Y-101000000D02*
X228500000Y-101000000D01*
X227150000Y-105000000D02*
X228500000Y-105000000D01*
M02*
