%FSLAX45Y45*%
G04 Gerber Fmt 4.5, Leading zero omitted, Abs format (unit mm)*
G04 Created by KiCad (PCBNEW (6.0.4-0)) date 2022-03-31 21:48:40*
%MOMM*%
%LPD*%
G01*
G04 APERTURE LIST*
%TA.AperFunction,Profile*%
%ADD10C,0.100000*%
%TD*%
%ADD11C,0.200000*%
%ADD12C,0.040000*%
%ADD13C,0.080000*%
%ADD14C,0.081280*%
%ADD15C,0.090000*%
%ADD16C,0.100000*%
%ADD17C,0.109220*%
%ADD18C,0.150000*%
G04 APERTURE END LIST*
D10*
X13950000Y-3375000D02*
X16050000Y-3375000D01*
X19650000Y-14025000D02*
X12250000Y-14025000D01*
X8250000Y-14500000D02*
X8250000Y-13550000D01*
X8450000Y-4800000D02*
X12050000Y-4800000D01*
X6350000Y-3850000D02*
X8450000Y-3850000D01*
X12250000Y-14025000D02*
X12250000Y-14500000D01*
X21750000Y-14500000D02*
X19650000Y-14500000D01*
X23650000Y-5275000D02*
X23650000Y-13550000D01*
X21750000Y-13550000D02*
X21750000Y-14500000D01*
X23650000Y-13550000D02*
X21750000Y-13550000D01*
X21725000Y-4800000D02*
X21750000Y-4800000D01*
X21750000Y-5275000D02*
X23650000Y-5275000D01*
X6350000Y-13550000D02*
X6350000Y-3850000D01*
X16050000Y-3375000D02*
X16050000Y-3850000D01*
X19850000Y-4800000D02*
X21725000Y-4800000D01*
X12050000Y-3850000D02*
X13950000Y-3850000D01*
X16050000Y-3850000D02*
X17950000Y-3850000D01*
X12050000Y-4800000D02*
X12050000Y-3850000D01*
X19850000Y-4325000D02*
X19850000Y-4800000D01*
X21750000Y-4800000D02*
X21750000Y-5275000D01*
X19650000Y-14500000D02*
X19650000Y-14025000D01*
X17950000Y-4325000D02*
X19850000Y-4325000D01*
X8250000Y-13550000D02*
X6350000Y-13550000D01*
X17950000Y-3850000D02*
X17950000Y-4325000D01*
X8450000Y-3850000D02*
X8450000Y-4800000D01*
X13950000Y-3850000D02*
X13950000Y-3375000D01*
X12250000Y-14500000D02*
X8250000Y-14500000D01*
D11*
D12*
X19580050Y-12555000D02*
X19620050Y-12595000D01*
X19620050Y-12555000D02*
X19580050Y-12595000D01*
X19622694Y-9376000D02*
X19662694Y-9416000D01*
X19662694Y-9376000D02*
X19622694Y-9416000D01*
X19680000Y-12555000D02*
X19720000Y-12595000D01*
X19720000Y-12555000D02*
X19680000Y-12595000D01*
X19780000Y-12380000D02*
X19820000Y-12420000D01*
X19820000Y-12380000D02*
X19780000Y-12420000D01*
X19780000Y-12555000D02*
X19820000Y-12595000D01*
X19820000Y-12555000D02*
X19780000Y-12595000D01*
X19805000Y-8255000D02*
X19845000Y-8295000D01*
X19845000Y-8255000D02*
X19805000Y-8295000D01*
X19909000Y-9376000D02*
X19949000Y-9416000D01*
X19949000Y-9376000D02*
X19909000Y-9416000D01*
X19930000Y-8255000D02*
X19970000Y-8295000D01*
X19970000Y-8255000D02*
X19930000Y-8295000D01*
X21280000Y-10555000D02*
X21320000Y-10595000D01*
X21320000Y-10555000D02*
X21280000Y-10595000D01*
X21290147Y-8855000D02*
X21330147Y-8895000D01*
X21330147Y-8855000D02*
X21290147Y-8895000D01*
X21362597Y-7330000D02*
X21402597Y-7370000D01*
X21402597Y-7330000D02*
X21362597Y-7370000D01*
X21455000Y-7232550D02*
X21495000Y-7272550D01*
X21495000Y-7232550D02*
X21455000Y-7272550D01*
X21480000Y-8855000D02*
X21520000Y-8895000D01*
X21520000Y-8855000D02*
X21480000Y-8895000D01*
X21480000Y-10555000D02*
X21520000Y-10595000D01*
X21520000Y-10555000D02*
X21480000Y-10595000D01*
X21880000Y-10605000D02*
X21920000Y-10645000D01*
X21920000Y-10605000D02*
X21880000Y-10645000D01*
X21880000Y-10805000D02*
X21920000Y-10845000D01*
X21920000Y-10805000D02*
X21880000Y-10845000D01*
X22005000Y-10605000D02*
X22045000Y-10645000D01*
X22045000Y-10605000D02*
X22005000Y-10645000D01*
X22005000Y-10805000D02*
X22045000Y-10845000D01*
X22045000Y-10805000D02*
X22005000Y-10845000D01*
X22005000Y-12080000D02*
X22045000Y-12120000D01*
X22045000Y-12080000D02*
X22005000Y-12120000D01*
X22205000Y-11030000D02*
X22245000Y-11070000D01*
X22245000Y-11030000D02*
X22205000Y-11070000D01*
X22305000Y-11155000D02*
X22345000Y-11195000D01*
X22345000Y-11155000D02*
X22305000Y-11195000D01*
X22305000Y-11830000D02*
X22345000Y-11870000D01*
X22345000Y-11830000D02*
X22305000Y-11870000D01*
X22306230Y-10878770D02*
X22346230Y-10918770D01*
X22346230Y-10878770D02*
X22306230Y-10918770D01*
X22430000Y-10480000D02*
X22470000Y-10520000D01*
X22470000Y-10480000D02*
X22430000Y-10520000D01*
X22430000Y-11155000D02*
X22470000Y-11195000D01*
X22470000Y-11155000D02*
X22430000Y-11195000D01*
X22580000Y-10280000D02*
X22620000Y-10320000D01*
X22620000Y-10280000D02*
X22580000Y-10320000D01*
X22830000Y-10080000D02*
X22870000Y-10120000D01*
X22870000Y-10080000D02*
X22830000Y-10120000D01*
X22830000Y-10480000D02*
X22870000Y-10520000D01*
X22870000Y-10480000D02*
X22830000Y-10520000D01*
X22830000Y-10880000D02*
X22870000Y-10920000D01*
X22870000Y-10880000D02*
X22830000Y-10920000D01*
X22830000Y-11280000D02*
X22870000Y-11320000D01*
X22870000Y-11280000D02*
X22830000Y-11320000D01*
X22830000Y-11680000D02*
X22870000Y-11720000D01*
X22870000Y-11680000D02*
X22830000Y-11720000D01*
X22830000Y-12080000D02*
X22870000Y-12120000D01*
X22870000Y-12080000D02*
X22830000Y-12120000D01*
D13*
X7059000Y-6546000D02*
G75*
G03*
X7059000Y-6546000I-40000J0D01*
G01*
D11*
X6999000Y-6576000D02*
X7039000Y-6576000D01*
X6999000Y-6516000D02*
X7039000Y-6516000D01*
X7039000Y-6576000D02*
G75*
G03*
X7039000Y-6516000I0J30000D01*
G01*
X6999000Y-6516000D02*
G75*
G03*
X6999000Y-6576000I0J-30000D01*
G01*
D13*
X7059000Y-8446000D02*
G75*
G03*
X7059000Y-8446000I-40000J0D01*
G01*
D11*
X6999000Y-8476000D02*
X7039000Y-8476000D01*
X6999000Y-8416000D02*
X7039000Y-8416000D01*
X7039000Y-8476000D02*
G75*
G03*
X7039000Y-8416000I0J30000D01*
G01*
X6999000Y-8416000D02*
G75*
G03*
X6999000Y-8476000I0J-30000D01*
G01*
D13*
X7059000Y-10346000D02*
G75*
G03*
X7059000Y-10346000I-40000J0D01*
G01*
D11*
X6999000Y-10376000D02*
X7039000Y-10376000D01*
X6999000Y-10316000D02*
X7039000Y-10316000D01*
X7039000Y-10376000D02*
G75*
G03*
X7039000Y-10316000I0J30000D01*
G01*
X6999000Y-10316000D02*
G75*
G03*
X6999000Y-10376000I0J-30000D01*
G01*
D13*
X7059000Y-12246000D02*
G75*
G03*
X7059000Y-12246000I-40000J0D01*
G01*
D11*
X6999000Y-12276000D02*
X7039000Y-12276000D01*
X6999000Y-12216000D02*
X7039000Y-12216000D01*
X7039000Y-12276000D02*
G75*
G03*
X7039000Y-12216000I0J30000D01*
G01*
X6999000Y-12216000D02*
G75*
G03*
X6999000Y-12276000I0J-30000D01*
G01*
D13*
X7186000Y-6292000D02*
G75*
G03*
X7186000Y-6292000I-40000J0D01*
G01*
D11*
X7126000Y-6322000D02*
X7166000Y-6322000D01*
X7126000Y-6262000D02*
X7166000Y-6262000D01*
X7166000Y-6322000D02*
G75*
G03*
X7166000Y-6262000I0J30000D01*
G01*
X7126000Y-6262000D02*
G75*
G03*
X7126000Y-6322000I0J-30000D01*
G01*
D13*
X7186000Y-8192000D02*
G75*
G03*
X7186000Y-8192000I-40000J0D01*
G01*
D11*
X7126000Y-8222000D02*
X7166000Y-8222000D01*
X7126000Y-8162000D02*
X7166000Y-8162000D01*
X7166000Y-8222000D02*
G75*
G03*
X7166000Y-8162000I0J30000D01*
G01*
X7126000Y-8162000D02*
G75*
G03*
X7126000Y-8222000I0J-30000D01*
G01*
D13*
X7186000Y-10092000D02*
G75*
G03*
X7186000Y-10092000I-40000J0D01*
G01*
D11*
X7126000Y-10122000D02*
X7166000Y-10122000D01*
X7126000Y-10062000D02*
X7166000Y-10062000D01*
X7166000Y-10122000D02*
G75*
G03*
X7166000Y-10062000I0J30000D01*
G01*
X7126000Y-10062000D02*
G75*
G03*
X7126000Y-10122000I0J-30000D01*
G01*
D13*
X7186000Y-11992000D02*
G75*
G03*
X7186000Y-11992000I-40000J0D01*
G01*
D11*
X7126000Y-12022000D02*
X7166000Y-12022000D01*
X7126000Y-11962000D02*
X7166000Y-11962000D01*
X7166000Y-12022000D02*
G75*
G03*
X7166000Y-11962000I0J30000D01*
G01*
X7126000Y-11962000D02*
G75*
G03*
X7126000Y-12022000I0J-30000D01*
G01*
D13*
X7694000Y-6292000D02*
G75*
G03*
X7694000Y-6292000I-40000J0D01*
G01*
D11*
X7634000Y-6322000D02*
X7674000Y-6322000D01*
X7634000Y-6262000D02*
X7674000Y-6262000D01*
X7674000Y-6322000D02*
G75*
G03*
X7674000Y-6262000I0J30000D01*
G01*
X7634000Y-6262000D02*
G75*
G03*
X7634000Y-6322000I0J-30000D01*
G01*
D13*
X7694000Y-8192000D02*
G75*
G03*
X7694000Y-8192000I-40000J0D01*
G01*
D11*
X7634000Y-8222000D02*
X7674000Y-8222000D01*
X7634000Y-8162000D02*
X7674000Y-8162000D01*
X7674000Y-8222000D02*
G75*
G03*
X7674000Y-8162000I0J30000D01*
G01*
X7634000Y-8162000D02*
G75*
G03*
X7634000Y-8222000I0J-30000D01*
G01*
D13*
X7694000Y-10092000D02*
G75*
G03*
X7694000Y-10092000I-40000J0D01*
G01*
D11*
X7634000Y-10122000D02*
X7674000Y-10122000D01*
X7634000Y-10062000D02*
X7674000Y-10062000D01*
X7674000Y-10122000D02*
G75*
G03*
X7674000Y-10062000I0J30000D01*
G01*
X7634000Y-10062000D02*
G75*
G03*
X7634000Y-10122000I0J-30000D01*
G01*
D13*
X7694000Y-11992000D02*
G75*
G03*
X7694000Y-11992000I-40000J0D01*
G01*
D11*
X7634000Y-12022000D02*
X7674000Y-12022000D01*
X7634000Y-11962000D02*
X7674000Y-11962000D01*
X7674000Y-12022000D02*
G75*
G03*
X7674000Y-11962000I0J30000D01*
G01*
X7634000Y-11962000D02*
G75*
G03*
X7634000Y-12022000I0J-30000D01*
G01*
D13*
X7821000Y-6546000D02*
G75*
G03*
X7821000Y-6546000I-40000J0D01*
G01*
D11*
X7761000Y-6576000D02*
X7801000Y-6576000D01*
X7761000Y-6516000D02*
X7801000Y-6516000D01*
X7801000Y-6576000D02*
G75*
G03*
X7801000Y-6516000I0J30000D01*
G01*
X7761000Y-6516000D02*
G75*
G03*
X7761000Y-6576000I0J-30000D01*
G01*
D13*
X7821000Y-8446000D02*
G75*
G03*
X7821000Y-8446000I-40000J0D01*
G01*
D11*
X7761000Y-8476000D02*
X7801000Y-8476000D01*
X7761000Y-8416000D02*
X7801000Y-8416000D01*
X7801000Y-8476000D02*
G75*
G03*
X7801000Y-8416000I0J30000D01*
G01*
X7761000Y-8416000D02*
G75*
G03*
X7761000Y-8476000I0J-30000D01*
G01*
D13*
X7821000Y-10346000D02*
G75*
G03*
X7821000Y-10346000I-40000J0D01*
G01*
D11*
X7761000Y-10376000D02*
X7801000Y-10376000D01*
X7761000Y-10316000D02*
X7801000Y-10316000D01*
X7801000Y-10376000D02*
G75*
G03*
X7801000Y-10316000I0J30000D01*
G01*
X7761000Y-10316000D02*
G75*
G03*
X7761000Y-10376000I0J-30000D01*
G01*
D13*
X7821000Y-12246000D02*
G75*
G03*
X7821000Y-12246000I-40000J0D01*
G01*
D11*
X7761000Y-12276000D02*
X7801000Y-12276000D01*
X7761000Y-12216000D02*
X7801000Y-12216000D01*
X7801000Y-12276000D02*
G75*
G03*
X7801000Y-12216000I0J30000D01*
G01*
X7761000Y-12216000D02*
G75*
G03*
X7761000Y-12276000I0J-30000D01*
G01*
D13*
X8959000Y-5596000D02*
G75*
G03*
X8959000Y-5596000I-40000J0D01*
G01*
D11*
X8899000Y-5626000D02*
X8939000Y-5626000D01*
X8899000Y-5566000D02*
X8939000Y-5566000D01*
X8939000Y-5626000D02*
G75*
G03*
X8939000Y-5566000I0J30000D01*
G01*
X8899000Y-5566000D02*
G75*
G03*
X8899000Y-5626000I0J-30000D01*
G01*
D13*
X8959000Y-7496000D02*
G75*
G03*
X8959000Y-7496000I-40000J0D01*
G01*
D11*
X8899000Y-7526000D02*
X8939000Y-7526000D01*
X8899000Y-7466000D02*
X8939000Y-7466000D01*
X8939000Y-7526000D02*
G75*
G03*
X8939000Y-7466000I0J30000D01*
G01*
X8899000Y-7466000D02*
G75*
G03*
X8899000Y-7526000I0J-30000D01*
G01*
D13*
X8959000Y-9396000D02*
G75*
G03*
X8959000Y-9396000I-40000J0D01*
G01*
D11*
X8899000Y-9426000D02*
X8939000Y-9426000D01*
X8899000Y-9366000D02*
X8939000Y-9366000D01*
X8939000Y-9426000D02*
G75*
G03*
X8939000Y-9366000I0J30000D01*
G01*
X8899000Y-9366000D02*
G75*
G03*
X8899000Y-9426000I0J-30000D01*
G01*
D13*
X8959000Y-11296000D02*
G75*
G03*
X8959000Y-11296000I-40000J0D01*
G01*
D11*
X8899000Y-11326000D02*
X8939000Y-11326000D01*
X8899000Y-11266000D02*
X8939000Y-11266000D01*
X8939000Y-11326000D02*
G75*
G03*
X8939000Y-11266000I0J30000D01*
G01*
X8899000Y-11266000D02*
G75*
G03*
X8899000Y-11326000I0J-30000D01*
G01*
D13*
X8959000Y-13196000D02*
G75*
G03*
X8959000Y-13196000I-40000J0D01*
G01*
D11*
X8899000Y-13226000D02*
X8939000Y-13226000D01*
X8899000Y-13166000D02*
X8939000Y-13166000D01*
X8939000Y-13226000D02*
G75*
G03*
X8939000Y-13166000I0J30000D01*
G01*
X8899000Y-13166000D02*
G75*
G03*
X8899000Y-13226000I0J-30000D01*
G01*
D13*
X9086000Y-5342000D02*
G75*
G03*
X9086000Y-5342000I-40000J0D01*
G01*
D11*
X9026000Y-5372000D02*
X9066000Y-5372000D01*
X9026000Y-5312000D02*
X9066000Y-5312000D01*
X9066000Y-5372000D02*
G75*
G03*
X9066000Y-5312000I0J30000D01*
G01*
X9026000Y-5312000D02*
G75*
G03*
X9026000Y-5372000I0J-30000D01*
G01*
D13*
X9086000Y-7242000D02*
G75*
G03*
X9086000Y-7242000I-40000J0D01*
G01*
D11*
X9026000Y-7272000D02*
X9066000Y-7272000D01*
X9026000Y-7212000D02*
X9066000Y-7212000D01*
X9066000Y-7272000D02*
G75*
G03*
X9066000Y-7212000I0J30000D01*
G01*
X9026000Y-7212000D02*
G75*
G03*
X9026000Y-7272000I0J-30000D01*
G01*
D13*
X9086000Y-9142000D02*
G75*
G03*
X9086000Y-9142000I-40000J0D01*
G01*
D11*
X9026000Y-9172000D02*
X9066000Y-9172000D01*
X9026000Y-9112000D02*
X9066000Y-9112000D01*
X9066000Y-9172000D02*
G75*
G03*
X9066000Y-9112000I0J30000D01*
G01*
X9026000Y-9112000D02*
G75*
G03*
X9026000Y-9172000I0J-30000D01*
G01*
D13*
X9086000Y-11042000D02*
G75*
G03*
X9086000Y-11042000I-40000J0D01*
G01*
D11*
X9026000Y-11072000D02*
X9066000Y-11072000D01*
X9026000Y-11012000D02*
X9066000Y-11012000D01*
X9066000Y-11072000D02*
G75*
G03*
X9066000Y-11012000I0J30000D01*
G01*
X9026000Y-11012000D02*
G75*
G03*
X9026000Y-11072000I0J-30000D01*
G01*
D13*
X9086000Y-12942000D02*
G75*
G03*
X9086000Y-12942000I-40000J0D01*
G01*
D11*
X9026000Y-12972000D02*
X9066000Y-12972000D01*
X9026000Y-12912000D02*
X9066000Y-12912000D01*
X9066000Y-12972000D02*
G75*
G03*
X9066000Y-12912000I0J30000D01*
G01*
X9026000Y-12912000D02*
G75*
G03*
X9026000Y-12972000I0J-30000D01*
G01*
D13*
X9594000Y-5342000D02*
G75*
G03*
X9594000Y-5342000I-40000J0D01*
G01*
D11*
X9534000Y-5372000D02*
X9574000Y-5372000D01*
X9534000Y-5312000D02*
X9574000Y-5312000D01*
X9574000Y-5372000D02*
G75*
G03*
X9574000Y-5312000I0J30000D01*
G01*
X9534000Y-5312000D02*
G75*
G03*
X9534000Y-5372000I0J-30000D01*
G01*
D13*
X9594000Y-7242000D02*
G75*
G03*
X9594000Y-7242000I-40000J0D01*
G01*
D11*
X9534000Y-7272000D02*
X9574000Y-7272000D01*
X9534000Y-7212000D02*
X9574000Y-7212000D01*
X9574000Y-7272000D02*
G75*
G03*
X9574000Y-7212000I0J30000D01*
G01*
X9534000Y-7212000D02*
G75*
G03*
X9534000Y-7272000I0J-30000D01*
G01*
D13*
X9594000Y-9142000D02*
G75*
G03*
X9594000Y-9142000I-40000J0D01*
G01*
D11*
X9534000Y-9172000D02*
X9574000Y-9172000D01*
X9534000Y-9112000D02*
X9574000Y-9112000D01*
X9574000Y-9172000D02*
G75*
G03*
X9574000Y-9112000I0J30000D01*
G01*
X9534000Y-9112000D02*
G75*
G03*
X9534000Y-9172000I0J-30000D01*
G01*
D13*
X9594000Y-11042000D02*
G75*
G03*
X9594000Y-11042000I-40000J0D01*
G01*
D11*
X9534000Y-11072000D02*
X9574000Y-11072000D01*
X9534000Y-11012000D02*
X9574000Y-11012000D01*
X9574000Y-11072000D02*
G75*
G03*
X9574000Y-11012000I0J30000D01*
G01*
X9534000Y-11012000D02*
G75*
G03*
X9534000Y-11072000I0J-30000D01*
G01*
D13*
X9594000Y-12942000D02*
G75*
G03*
X9594000Y-12942000I-40000J0D01*
G01*
D11*
X9534000Y-12972000D02*
X9574000Y-12972000D01*
X9534000Y-12912000D02*
X9574000Y-12912000D01*
X9574000Y-12972000D02*
G75*
G03*
X9574000Y-12912000I0J30000D01*
G01*
X9534000Y-12912000D02*
G75*
G03*
X9534000Y-12972000I0J-30000D01*
G01*
D13*
X9721000Y-5596000D02*
G75*
G03*
X9721000Y-5596000I-40000J0D01*
G01*
D11*
X9661000Y-5626000D02*
X9701000Y-5626000D01*
X9661000Y-5566000D02*
X9701000Y-5566000D01*
X9701000Y-5626000D02*
G75*
G03*
X9701000Y-5566000I0J30000D01*
G01*
X9661000Y-5566000D02*
G75*
G03*
X9661000Y-5626000I0J-30000D01*
G01*
D13*
X9721000Y-7496000D02*
G75*
G03*
X9721000Y-7496000I-40000J0D01*
G01*
D11*
X9661000Y-7526000D02*
X9701000Y-7526000D01*
X9661000Y-7466000D02*
X9701000Y-7466000D01*
X9701000Y-7526000D02*
G75*
G03*
X9701000Y-7466000I0J30000D01*
G01*
X9661000Y-7466000D02*
G75*
G03*
X9661000Y-7526000I0J-30000D01*
G01*
D13*
X9721000Y-9396000D02*
G75*
G03*
X9721000Y-9396000I-40000J0D01*
G01*
D11*
X9661000Y-9426000D02*
X9701000Y-9426000D01*
X9661000Y-9366000D02*
X9701000Y-9366000D01*
X9701000Y-9426000D02*
G75*
G03*
X9701000Y-9366000I0J30000D01*
G01*
X9661000Y-9366000D02*
G75*
G03*
X9661000Y-9426000I0J-30000D01*
G01*
D13*
X9721000Y-11296000D02*
G75*
G03*
X9721000Y-11296000I-40000J0D01*
G01*
D11*
X9661000Y-11326000D02*
X9701000Y-11326000D01*
X9661000Y-11266000D02*
X9701000Y-11266000D01*
X9701000Y-11326000D02*
G75*
G03*
X9701000Y-11266000I0J30000D01*
G01*
X9661000Y-11266000D02*
G75*
G03*
X9661000Y-11326000I0J-30000D01*
G01*
D13*
X9721000Y-13196000D02*
G75*
G03*
X9721000Y-13196000I-40000J0D01*
G01*
D11*
X9661000Y-13226000D02*
X9701000Y-13226000D01*
X9661000Y-13166000D02*
X9701000Y-13166000D01*
X9701000Y-13226000D02*
G75*
G03*
X9701000Y-13166000I0J30000D01*
G01*
X9661000Y-13166000D02*
G75*
G03*
X9661000Y-13226000I0J-30000D01*
G01*
D13*
X10859000Y-5596000D02*
G75*
G03*
X10859000Y-5596000I-40000J0D01*
G01*
D11*
X10799000Y-5626000D02*
X10839000Y-5626000D01*
X10799000Y-5566000D02*
X10839000Y-5566000D01*
X10839000Y-5626000D02*
G75*
G03*
X10839000Y-5566000I0J30000D01*
G01*
X10799000Y-5566000D02*
G75*
G03*
X10799000Y-5626000I0J-30000D01*
G01*
D13*
X10859000Y-7496000D02*
G75*
G03*
X10859000Y-7496000I-40000J0D01*
G01*
D11*
X10799000Y-7526000D02*
X10839000Y-7526000D01*
X10799000Y-7466000D02*
X10839000Y-7466000D01*
X10839000Y-7526000D02*
G75*
G03*
X10839000Y-7466000I0J30000D01*
G01*
X10799000Y-7466000D02*
G75*
G03*
X10799000Y-7526000I0J-30000D01*
G01*
D13*
X10859000Y-9396000D02*
G75*
G03*
X10859000Y-9396000I-40000J0D01*
G01*
D11*
X10799000Y-9426000D02*
X10839000Y-9426000D01*
X10799000Y-9366000D02*
X10839000Y-9366000D01*
X10839000Y-9426000D02*
G75*
G03*
X10839000Y-9366000I0J30000D01*
G01*
X10799000Y-9366000D02*
G75*
G03*
X10799000Y-9426000I0J-30000D01*
G01*
D13*
X10859000Y-11296000D02*
G75*
G03*
X10859000Y-11296000I-40000J0D01*
G01*
D11*
X10799000Y-11326000D02*
X10839000Y-11326000D01*
X10799000Y-11266000D02*
X10839000Y-11266000D01*
X10839000Y-11326000D02*
G75*
G03*
X10839000Y-11266000I0J30000D01*
G01*
X10799000Y-11266000D02*
G75*
G03*
X10799000Y-11326000I0J-30000D01*
G01*
D13*
X10859000Y-13196000D02*
G75*
G03*
X10859000Y-13196000I-40000J0D01*
G01*
D11*
X10799000Y-13226000D02*
X10839000Y-13226000D01*
X10799000Y-13166000D02*
X10839000Y-13166000D01*
X10839000Y-13226000D02*
G75*
G03*
X10839000Y-13166000I0J30000D01*
G01*
X10799000Y-13166000D02*
G75*
G03*
X10799000Y-13226000I0J-30000D01*
G01*
D13*
X10986000Y-5342000D02*
G75*
G03*
X10986000Y-5342000I-40000J0D01*
G01*
D11*
X10926000Y-5372000D02*
X10966000Y-5372000D01*
X10926000Y-5312000D02*
X10966000Y-5312000D01*
X10966000Y-5372000D02*
G75*
G03*
X10966000Y-5312000I0J30000D01*
G01*
X10926000Y-5312000D02*
G75*
G03*
X10926000Y-5372000I0J-30000D01*
G01*
D13*
X10986000Y-7242000D02*
G75*
G03*
X10986000Y-7242000I-40000J0D01*
G01*
D11*
X10926000Y-7272000D02*
X10966000Y-7272000D01*
X10926000Y-7212000D02*
X10966000Y-7212000D01*
X10966000Y-7272000D02*
G75*
G03*
X10966000Y-7212000I0J30000D01*
G01*
X10926000Y-7212000D02*
G75*
G03*
X10926000Y-7272000I0J-30000D01*
G01*
D13*
X10986000Y-9142000D02*
G75*
G03*
X10986000Y-9142000I-40000J0D01*
G01*
D11*
X10926000Y-9172000D02*
X10966000Y-9172000D01*
X10926000Y-9112000D02*
X10966000Y-9112000D01*
X10966000Y-9172000D02*
G75*
G03*
X10966000Y-9112000I0J30000D01*
G01*
X10926000Y-9112000D02*
G75*
G03*
X10926000Y-9172000I0J-30000D01*
G01*
D13*
X10986000Y-11042000D02*
G75*
G03*
X10986000Y-11042000I-40000J0D01*
G01*
D11*
X10926000Y-11072000D02*
X10966000Y-11072000D01*
X10926000Y-11012000D02*
X10966000Y-11012000D01*
X10966000Y-11072000D02*
G75*
G03*
X10966000Y-11012000I0J30000D01*
G01*
X10926000Y-11012000D02*
G75*
G03*
X10926000Y-11072000I0J-30000D01*
G01*
D13*
X10986000Y-12942000D02*
G75*
G03*
X10986000Y-12942000I-40000J0D01*
G01*
D11*
X10926000Y-12972000D02*
X10966000Y-12972000D01*
X10926000Y-12912000D02*
X10966000Y-12912000D01*
X10966000Y-12972000D02*
G75*
G03*
X10966000Y-12912000I0J30000D01*
G01*
X10926000Y-12912000D02*
G75*
G03*
X10926000Y-12972000I0J-30000D01*
G01*
D13*
X11494000Y-5342000D02*
G75*
G03*
X11494000Y-5342000I-40000J0D01*
G01*
D11*
X11434000Y-5372000D02*
X11474000Y-5372000D01*
X11434000Y-5312000D02*
X11474000Y-5312000D01*
X11474000Y-5372000D02*
G75*
G03*
X11474000Y-5312000I0J30000D01*
G01*
X11434000Y-5312000D02*
G75*
G03*
X11434000Y-5372000I0J-30000D01*
G01*
D13*
X11494000Y-7242000D02*
G75*
G03*
X11494000Y-7242000I-40000J0D01*
G01*
D11*
X11434000Y-7272000D02*
X11474000Y-7272000D01*
X11434000Y-7212000D02*
X11474000Y-7212000D01*
X11474000Y-7272000D02*
G75*
G03*
X11474000Y-7212000I0J30000D01*
G01*
X11434000Y-7212000D02*
G75*
G03*
X11434000Y-7272000I0J-30000D01*
G01*
D13*
X11494000Y-9142000D02*
G75*
G03*
X11494000Y-9142000I-40000J0D01*
G01*
D11*
X11434000Y-9172000D02*
X11474000Y-9172000D01*
X11434000Y-9112000D02*
X11474000Y-9112000D01*
X11474000Y-9172000D02*
G75*
G03*
X11474000Y-9112000I0J30000D01*
G01*
X11434000Y-9112000D02*
G75*
G03*
X11434000Y-9172000I0J-30000D01*
G01*
D13*
X11494000Y-11042000D02*
G75*
G03*
X11494000Y-11042000I-40000J0D01*
G01*
D11*
X11434000Y-11072000D02*
X11474000Y-11072000D01*
X11434000Y-11012000D02*
X11474000Y-11012000D01*
X11474000Y-11072000D02*
G75*
G03*
X11474000Y-11012000I0J30000D01*
G01*
X11434000Y-11012000D02*
G75*
G03*
X11434000Y-11072000I0J-30000D01*
G01*
D13*
X11494000Y-12942000D02*
G75*
G03*
X11494000Y-12942000I-40000J0D01*
G01*
D11*
X11434000Y-12972000D02*
X11474000Y-12972000D01*
X11434000Y-12912000D02*
X11474000Y-12912000D01*
X11474000Y-12972000D02*
G75*
G03*
X11474000Y-12912000I0J30000D01*
G01*
X11434000Y-12912000D02*
G75*
G03*
X11434000Y-12972000I0J-30000D01*
G01*
D13*
X11621000Y-5596000D02*
G75*
G03*
X11621000Y-5596000I-40000J0D01*
G01*
D11*
X11561000Y-5626000D02*
X11601000Y-5626000D01*
X11561000Y-5566000D02*
X11601000Y-5566000D01*
X11601000Y-5626000D02*
G75*
G03*
X11601000Y-5566000I0J30000D01*
G01*
X11561000Y-5566000D02*
G75*
G03*
X11561000Y-5626000I0J-30000D01*
G01*
D13*
X11621000Y-7496000D02*
G75*
G03*
X11621000Y-7496000I-40000J0D01*
G01*
D11*
X11561000Y-7526000D02*
X11601000Y-7526000D01*
X11561000Y-7466000D02*
X11601000Y-7466000D01*
X11601000Y-7526000D02*
G75*
G03*
X11601000Y-7466000I0J30000D01*
G01*
X11561000Y-7466000D02*
G75*
G03*
X11561000Y-7526000I0J-30000D01*
G01*
D13*
X11621000Y-9396000D02*
G75*
G03*
X11621000Y-9396000I-40000J0D01*
G01*
D11*
X11561000Y-9426000D02*
X11601000Y-9426000D01*
X11561000Y-9366000D02*
X11601000Y-9366000D01*
X11601000Y-9426000D02*
G75*
G03*
X11601000Y-9366000I0J30000D01*
G01*
X11561000Y-9366000D02*
G75*
G03*
X11561000Y-9426000I0J-30000D01*
G01*
D13*
X11621000Y-11296000D02*
G75*
G03*
X11621000Y-11296000I-40000J0D01*
G01*
D11*
X11561000Y-11326000D02*
X11601000Y-11326000D01*
X11561000Y-11266000D02*
X11601000Y-11266000D01*
X11601000Y-11326000D02*
G75*
G03*
X11601000Y-11266000I0J30000D01*
G01*
X11561000Y-11266000D02*
G75*
G03*
X11561000Y-11326000I0J-30000D01*
G01*
D13*
X11621000Y-13196000D02*
G75*
G03*
X11621000Y-13196000I-40000J0D01*
G01*
D11*
X11561000Y-13226000D02*
X11601000Y-13226000D01*
X11561000Y-13166000D02*
X11601000Y-13166000D01*
X11601000Y-13226000D02*
G75*
G03*
X11601000Y-13166000I0J30000D01*
G01*
X11561000Y-13166000D02*
G75*
G03*
X11561000Y-13226000I0J-30000D01*
G01*
D13*
X12759000Y-4646000D02*
G75*
G03*
X12759000Y-4646000I-40000J0D01*
G01*
D11*
X12699000Y-4676000D02*
X12739000Y-4676000D01*
X12699000Y-4616000D02*
X12739000Y-4616000D01*
X12739000Y-4676000D02*
G75*
G03*
X12739000Y-4616000I0J30000D01*
G01*
X12699000Y-4616000D02*
G75*
G03*
X12699000Y-4676000I0J-30000D01*
G01*
D13*
X12759000Y-6546000D02*
G75*
G03*
X12759000Y-6546000I-40000J0D01*
G01*
D11*
X12699000Y-6576000D02*
X12739000Y-6576000D01*
X12699000Y-6516000D02*
X12739000Y-6516000D01*
X12739000Y-6576000D02*
G75*
G03*
X12739000Y-6516000I0J30000D01*
G01*
X12699000Y-6516000D02*
G75*
G03*
X12699000Y-6576000I0J-30000D01*
G01*
D13*
X12759000Y-8446000D02*
G75*
G03*
X12759000Y-8446000I-40000J0D01*
G01*
D11*
X12699000Y-8476000D02*
X12739000Y-8476000D01*
X12699000Y-8416000D02*
X12739000Y-8416000D01*
X12739000Y-8476000D02*
G75*
G03*
X12739000Y-8416000I0J30000D01*
G01*
X12699000Y-8416000D02*
G75*
G03*
X12699000Y-8476000I0J-30000D01*
G01*
D13*
X12759000Y-10346000D02*
G75*
G03*
X12759000Y-10346000I-40000J0D01*
G01*
D11*
X12699000Y-10376000D02*
X12739000Y-10376000D01*
X12699000Y-10316000D02*
X12739000Y-10316000D01*
X12739000Y-10376000D02*
G75*
G03*
X12739000Y-10316000I0J30000D01*
G01*
X12699000Y-10316000D02*
G75*
G03*
X12699000Y-10376000I0J-30000D01*
G01*
D13*
X12886000Y-4392000D02*
G75*
G03*
X12886000Y-4392000I-40000J0D01*
G01*
D11*
X12826000Y-4422000D02*
X12866000Y-4422000D01*
X12826000Y-4362000D02*
X12866000Y-4362000D01*
X12866000Y-4422000D02*
G75*
G03*
X12866000Y-4362000I0J30000D01*
G01*
X12826000Y-4362000D02*
G75*
G03*
X12826000Y-4422000I0J-30000D01*
G01*
D13*
X12886000Y-6292000D02*
G75*
G03*
X12886000Y-6292000I-40000J0D01*
G01*
D11*
X12826000Y-6322000D02*
X12866000Y-6322000D01*
X12826000Y-6262000D02*
X12866000Y-6262000D01*
X12866000Y-6322000D02*
G75*
G03*
X12866000Y-6262000I0J30000D01*
G01*
X12826000Y-6262000D02*
G75*
G03*
X12826000Y-6322000I0J-30000D01*
G01*
D13*
X12886000Y-8192000D02*
G75*
G03*
X12886000Y-8192000I-40000J0D01*
G01*
D11*
X12826000Y-8222000D02*
X12866000Y-8222000D01*
X12826000Y-8162000D02*
X12866000Y-8162000D01*
X12866000Y-8222000D02*
G75*
G03*
X12866000Y-8162000I0J30000D01*
G01*
X12826000Y-8162000D02*
G75*
G03*
X12826000Y-8222000I0J-30000D01*
G01*
D13*
X12886000Y-10092000D02*
G75*
G03*
X12886000Y-10092000I-40000J0D01*
G01*
D11*
X12826000Y-10122000D02*
X12866000Y-10122000D01*
X12826000Y-10062000D02*
X12866000Y-10062000D01*
X12866000Y-10122000D02*
G75*
G03*
X12866000Y-10062000I0J30000D01*
G01*
X12826000Y-10062000D02*
G75*
G03*
X12826000Y-10122000I0J-30000D01*
G01*
D13*
X13394000Y-4392000D02*
G75*
G03*
X13394000Y-4392000I-40000J0D01*
G01*
D11*
X13334000Y-4422000D02*
X13374000Y-4422000D01*
X13334000Y-4362000D02*
X13374000Y-4362000D01*
X13374000Y-4422000D02*
G75*
G03*
X13374000Y-4362000I0J30000D01*
G01*
X13334000Y-4362000D02*
G75*
G03*
X13334000Y-4422000I0J-30000D01*
G01*
D13*
X13394000Y-6292000D02*
G75*
G03*
X13394000Y-6292000I-40000J0D01*
G01*
D11*
X13334000Y-6322000D02*
X13374000Y-6322000D01*
X13334000Y-6262000D02*
X13374000Y-6262000D01*
X13374000Y-6322000D02*
G75*
G03*
X13374000Y-6262000I0J30000D01*
G01*
X13334000Y-6262000D02*
G75*
G03*
X13334000Y-6322000I0J-30000D01*
G01*
D13*
X13394000Y-8192000D02*
G75*
G03*
X13394000Y-8192000I-40000J0D01*
G01*
D11*
X13334000Y-8222000D02*
X13374000Y-8222000D01*
X13334000Y-8162000D02*
X13374000Y-8162000D01*
X13374000Y-8222000D02*
G75*
G03*
X13374000Y-8162000I0J30000D01*
G01*
X13334000Y-8162000D02*
G75*
G03*
X13334000Y-8222000I0J-30000D01*
G01*
D13*
X13394000Y-10092000D02*
G75*
G03*
X13394000Y-10092000I-40000J0D01*
G01*
D11*
X13334000Y-10122000D02*
X13374000Y-10122000D01*
X13334000Y-10062000D02*
X13374000Y-10062000D01*
X13374000Y-10122000D02*
G75*
G03*
X13374000Y-10062000I0J30000D01*
G01*
X13334000Y-10062000D02*
G75*
G03*
X13334000Y-10122000I0J-30000D01*
G01*
D13*
X13521000Y-4646000D02*
G75*
G03*
X13521000Y-4646000I-40000J0D01*
G01*
D11*
X13461000Y-4676000D02*
X13501000Y-4676000D01*
X13461000Y-4616000D02*
X13501000Y-4616000D01*
X13501000Y-4676000D02*
G75*
G03*
X13501000Y-4616000I0J30000D01*
G01*
X13461000Y-4616000D02*
G75*
G03*
X13461000Y-4676000I0J-30000D01*
G01*
D13*
X13521000Y-6546000D02*
G75*
G03*
X13521000Y-6546000I-40000J0D01*
G01*
D11*
X13461000Y-6576000D02*
X13501000Y-6576000D01*
X13461000Y-6516000D02*
X13501000Y-6516000D01*
X13501000Y-6576000D02*
G75*
G03*
X13501000Y-6516000I0J30000D01*
G01*
X13461000Y-6516000D02*
G75*
G03*
X13461000Y-6576000I0J-30000D01*
G01*
D13*
X13521000Y-8446000D02*
G75*
G03*
X13521000Y-8446000I-40000J0D01*
G01*
D11*
X13461000Y-8476000D02*
X13501000Y-8476000D01*
X13461000Y-8416000D02*
X13501000Y-8416000D01*
X13501000Y-8476000D02*
G75*
G03*
X13501000Y-8416000I0J30000D01*
G01*
X13461000Y-8416000D02*
G75*
G03*
X13461000Y-8476000I0J-30000D01*
G01*
D13*
X13521000Y-10346000D02*
G75*
G03*
X13521000Y-10346000I-40000J0D01*
G01*
D11*
X13461000Y-10376000D02*
X13501000Y-10376000D01*
X13461000Y-10316000D02*
X13501000Y-10316000D01*
X13501000Y-10376000D02*
G75*
G03*
X13501000Y-10316000I0J30000D01*
G01*
X13461000Y-10316000D02*
G75*
G03*
X13461000Y-10376000I0J-30000D01*
G01*
D13*
X14659000Y-4171000D02*
G75*
G03*
X14659000Y-4171000I-40000J0D01*
G01*
D11*
X14599000Y-4201000D02*
X14639000Y-4201000D01*
X14599000Y-4141000D02*
X14639000Y-4141000D01*
X14639000Y-4201000D02*
G75*
G03*
X14639000Y-4141000I0J30000D01*
G01*
X14599000Y-4141000D02*
G75*
G03*
X14599000Y-4201000I0J-30000D01*
G01*
D13*
X14659000Y-6071000D02*
G75*
G03*
X14659000Y-6071000I-40000J0D01*
G01*
D11*
X14599000Y-6101000D02*
X14639000Y-6101000D01*
X14599000Y-6041000D02*
X14639000Y-6041000D01*
X14639000Y-6101000D02*
G75*
G03*
X14639000Y-6041000I0J30000D01*
G01*
X14599000Y-6041000D02*
G75*
G03*
X14599000Y-6101000I0J-30000D01*
G01*
D13*
X14659000Y-7971000D02*
G75*
G03*
X14659000Y-7971000I-40000J0D01*
G01*
D11*
X14599000Y-8001000D02*
X14639000Y-8001000D01*
X14599000Y-7941000D02*
X14639000Y-7941000D01*
X14639000Y-8001000D02*
G75*
G03*
X14639000Y-7941000I0J30000D01*
G01*
X14599000Y-7941000D02*
G75*
G03*
X14599000Y-8001000I0J-30000D01*
G01*
D13*
X14659000Y-9871000D02*
G75*
G03*
X14659000Y-9871000I-40000J0D01*
G01*
D11*
X14599000Y-9901000D02*
X14639000Y-9901000D01*
X14599000Y-9841000D02*
X14639000Y-9841000D01*
X14639000Y-9901000D02*
G75*
G03*
X14639000Y-9841000I0J30000D01*
G01*
X14599000Y-9841000D02*
G75*
G03*
X14599000Y-9901000I0J-30000D01*
G01*
D13*
X14659000Y-12721000D02*
G75*
G03*
X14659000Y-12721000I-40000J0D01*
G01*
D11*
X14599000Y-12751000D02*
X14639000Y-12751000D01*
X14599000Y-12691000D02*
X14639000Y-12691000D01*
X14639000Y-12751000D02*
G75*
G03*
X14639000Y-12691000I0J30000D01*
G01*
X14599000Y-12691000D02*
G75*
G03*
X14599000Y-12751000I0J-30000D01*
G01*
D13*
X14786000Y-3917000D02*
G75*
G03*
X14786000Y-3917000I-40000J0D01*
G01*
D11*
X14726000Y-3947000D02*
X14766000Y-3947000D01*
X14726000Y-3887000D02*
X14766000Y-3887000D01*
X14766000Y-3947000D02*
G75*
G03*
X14766000Y-3887000I0J30000D01*
G01*
X14726000Y-3887000D02*
G75*
G03*
X14726000Y-3947000I0J-30000D01*
G01*
D13*
X14786000Y-5817000D02*
G75*
G03*
X14786000Y-5817000I-40000J0D01*
G01*
D11*
X14726000Y-5847000D02*
X14766000Y-5847000D01*
X14726000Y-5787000D02*
X14766000Y-5787000D01*
X14766000Y-5847000D02*
G75*
G03*
X14766000Y-5787000I0J30000D01*
G01*
X14726000Y-5787000D02*
G75*
G03*
X14726000Y-5847000I0J-30000D01*
G01*
D13*
X14786000Y-7717000D02*
G75*
G03*
X14786000Y-7717000I-40000J0D01*
G01*
D11*
X14726000Y-7747000D02*
X14766000Y-7747000D01*
X14726000Y-7687000D02*
X14766000Y-7687000D01*
X14766000Y-7747000D02*
G75*
G03*
X14766000Y-7687000I0J30000D01*
G01*
X14726000Y-7687000D02*
G75*
G03*
X14726000Y-7747000I0J-30000D01*
G01*
D13*
X14786000Y-9617000D02*
G75*
G03*
X14786000Y-9617000I-40000J0D01*
G01*
D11*
X14726000Y-9647000D02*
X14766000Y-9647000D01*
X14726000Y-9587000D02*
X14766000Y-9587000D01*
X14766000Y-9647000D02*
G75*
G03*
X14766000Y-9587000I0J30000D01*
G01*
X14726000Y-9587000D02*
G75*
G03*
X14726000Y-9647000I0J-30000D01*
G01*
D13*
X14786000Y-12467000D02*
G75*
G03*
X14786000Y-12467000I-40000J0D01*
G01*
D11*
X14726000Y-12497000D02*
X14766000Y-12497000D01*
X14726000Y-12437000D02*
X14766000Y-12437000D01*
X14766000Y-12497000D02*
G75*
G03*
X14766000Y-12437000I0J30000D01*
G01*
X14726000Y-12437000D02*
G75*
G03*
X14726000Y-12497000I0J-30000D01*
G01*
D13*
X15294000Y-3917000D02*
G75*
G03*
X15294000Y-3917000I-40000J0D01*
G01*
D11*
X15234000Y-3947000D02*
X15274000Y-3947000D01*
X15234000Y-3887000D02*
X15274000Y-3887000D01*
X15274000Y-3947000D02*
G75*
G03*
X15274000Y-3887000I0J30000D01*
G01*
X15234000Y-3887000D02*
G75*
G03*
X15234000Y-3947000I0J-30000D01*
G01*
D13*
X15294000Y-5817000D02*
G75*
G03*
X15294000Y-5817000I-40000J0D01*
G01*
D11*
X15234000Y-5847000D02*
X15274000Y-5847000D01*
X15234000Y-5787000D02*
X15274000Y-5787000D01*
X15274000Y-5847000D02*
G75*
G03*
X15274000Y-5787000I0J30000D01*
G01*
X15234000Y-5787000D02*
G75*
G03*
X15234000Y-5847000I0J-30000D01*
G01*
D13*
X15294000Y-7717000D02*
G75*
G03*
X15294000Y-7717000I-40000J0D01*
G01*
D11*
X15234000Y-7747000D02*
X15274000Y-7747000D01*
X15234000Y-7687000D02*
X15274000Y-7687000D01*
X15274000Y-7747000D02*
G75*
G03*
X15274000Y-7687000I0J30000D01*
G01*
X15234000Y-7687000D02*
G75*
G03*
X15234000Y-7747000I0J-30000D01*
G01*
D13*
X15294000Y-9617000D02*
G75*
G03*
X15294000Y-9617000I-40000J0D01*
G01*
D11*
X15234000Y-9647000D02*
X15274000Y-9647000D01*
X15234000Y-9587000D02*
X15274000Y-9587000D01*
X15274000Y-9647000D02*
G75*
G03*
X15274000Y-9587000I0J30000D01*
G01*
X15234000Y-9587000D02*
G75*
G03*
X15234000Y-9647000I0J-30000D01*
G01*
D13*
X15294000Y-12467000D02*
G75*
G03*
X15294000Y-12467000I-40000J0D01*
G01*
D11*
X15234000Y-12497000D02*
X15274000Y-12497000D01*
X15234000Y-12437000D02*
X15274000Y-12437000D01*
X15274000Y-12497000D02*
G75*
G03*
X15274000Y-12437000I0J30000D01*
G01*
X15234000Y-12437000D02*
G75*
G03*
X15234000Y-12497000I0J-30000D01*
G01*
D13*
X15421000Y-4171000D02*
G75*
G03*
X15421000Y-4171000I-40000J0D01*
G01*
D11*
X15361000Y-4201000D02*
X15401000Y-4201000D01*
X15361000Y-4141000D02*
X15401000Y-4141000D01*
X15401000Y-4201000D02*
G75*
G03*
X15401000Y-4141000I0J30000D01*
G01*
X15361000Y-4141000D02*
G75*
G03*
X15361000Y-4201000I0J-30000D01*
G01*
D13*
X15421000Y-6071000D02*
G75*
G03*
X15421000Y-6071000I-40000J0D01*
G01*
D11*
X15361000Y-6101000D02*
X15401000Y-6101000D01*
X15361000Y-6041000D02*
X15401000Y-6041000D01*
X15401000Y-6101000D02*
G75*
G03*
X15401000Y-6041000I0J30000D01*
G01*
X15361000Y-6041000D02*
G75*
G03*
X15361000Y-6101000I0J-30000D01*
G01*
D13*
X15421000Y-7971000D02*
G75*
G03*
X15421000Y-7971000I-40000J0D01*
G01*
D11*
X15361000Y-8001000D02*
X15401000Y-8001000D01*
X15361000Y-7941000D02*
X15401000Y-7941000D01*
X15401000Y-8001000D02*
G75*
G03*
X15401000Y-7941000I0J30000D01*
G01*
X15361000Y-7941000D02*
G75*
G03*
X15361000Y-8001000I0J-30000D01*
G01*
D13*
X15421000Y-9871000D02*
G75*
G03*
X15421000Y-9871000I-40000J0D01*
G01*
D11*
X15361000Y-9901000D02*
X15401000Y-9901000D01*
X15361000Y-9841000D02*
X15401000Y-9841000D01*
X15401000Y-9901000D02*
G75*
G03*
X15401000Y-9841000I0J30000D01*
G01*
X15361000Y-9841000D02*
G75*
G03*
X15361000Y-9901000I0J-30000D01*
G01*
D13*
X15421000Y-12721000D02*
G75*
G03*
X15421000Y-12721000I-40000J0D01*
G01*
D11*
X15361000Y-12751000D02*
X15401000Y-12751000D01*
X15361000Y-12691000D02*
X15401000Y-12691000D01*
X15401000Y-12751000D02*
G75*
G03*
X15401000Y-12691000I0J30000D01*
G01*
X15361000Y-12691000D02*
G75*
G03*
X15361000Y-12751000I0J-30000D01*
G01*
D13*
X16559000Y-4646000D02*
G75*
G03*
X16559000Y-4646000I-40000J0D01*
G01*
D11*
X16499000Y-4676000D02*
X16539000Y-4676000D01*
X16499000Y-4616000D02*
X16539000Y-4616000D01*
X16539000Y-4676000D02*
G75*
G03*
X16539000Y-4616000I0J30000D01*
G01*
X16499000Y-4616000D02*
G75*
G03*
X16499000Y-4676000I0J-30000D01*
G01*
D13*
X16559000Y-6546000D02*
G75*
G03*
X16559000Y-6546000I-40000J0D01*
G01*
D11*
X16499000Y-6576000D02*
X16539000Y-6576000D01*
X16499000Y-6516000D02*
X16539000Y-6516000D01*
X16539000Y-6576000D02*
G75*
G03*
X16539000Y-6516000I0J30000D01*
G01*
X16499000Y-6516000D02*
G75*
G03*
X16499000Y-6576000I0J-30000D01*
G01*
D13*
X16559000Y-8446000D02*
G75*
G03*
X16559000Y-8446000I-40000J0D01*
G01*
D11*
X16499000Y-8476000D02*
X16539000Y-8476000D01*
X16499000Y-8416000D02*
X16539000Y-8416000D01*
X16539000Y-8476000D02*
G75*
G03*
X16539000Y-8416000I0J30000D01*
G01*
X16499000Y-8416000D02*
G75*
G03*
X16499000Y-8476000I0J-30000D01*
G01*
D13*
X16559000Y-10346000D02*
G75*
G03*
X16559000Y-10346000I-40000J0D01*
G01*
D11*
X16499000Y-10376000D02*
X16539000Y-10376000D01*
X16499000Y-10316000D02*
X16539000Y-10316000D01*
X16539000Y-10376000D02*
G75*
G03*
X16539000Y-10316000I0J30000D01*
G01*
X16499000Y-10316000D02*
G75*
G03*
X16499000Y-10376000I0J-30000D01*
G01*
D13*
X16559000Y-12721000D02*
G75*
G03*
X16559000Y-12721000I-40000J0D01*
G01*
D11*
X16499000Y-12751000D02*
X16539000Y-12751000D01*
X16499000Y-12691000D02*
X16539000Y-12691000D01*
X16539000Y-12751000D02*
G75*
G03*
X16539000Y-12691000I0J30000D01*
G01*
X16499000Y-12691000D02*
G75*
G03*
X16499000Y-12751000I0J-30000D01*
G01*
D13*
X16686000Y-4392000D02*
G75*
G03*
X16686000Y-4392000I-40000J0D01*
G01*
D11*
X16626000Y-4422000D02*
X16666000Y-4422000D01*
X16626000Y-4362000D02*
X16666000Y-4362000D01*
X16666000Y-4422000D02*
G75*
G03*
X16666000Y-4362000I0J30000D01*
G01*
X16626000Y-4362000D02*
G75*
G03*
X16626000Y-4422000I0J-30000D01*
G01*
D13*
X16686000Y-6292000D02*
G75*
G03*
X16686000Y-6292000I-40000J0D01*
G01*
D11*
X16626000Y-6322000D02*
X16666000Y-6322000D01*
X16626000Y-6262000D02*
X16666000Y-6262000D01*
X16666000Y-6322000D02*
G75*
G03*
X16666000Y-6262000I0J30000D01*
G01*
X16626000Y-6262000D02*
G75*
G03*
X16626000Y-6322000I0J-30000D01*
G01*
D13*
X16686000Y-8192000D02*
G75*
G03*
X16686000Y-8192000I-40000J0D01*
G01*
D11*
X16626000Y-8222000D02*
X16666000Y-8222000D01*
X16626000Y-8162000D02*
X16666000Y-8162000D01*
X16666000Y-8222000D02*
G75*
G03*
X16666000Y-8162000I0J30000D01*
G01*
X16626000Y-8162000D02*
G75*
G03*
X16626000Y-8222000I0J-30000D01*
G01*
D13*
X16686000Y-10092000D02*
G75*
G03*
X16686000Y-10092000I-40000J0D01*
G01*
D11*
X16626000Y-10122000D02*
X16666000Y-10122000D01*
X16626000Y-10062000D02*
X16666000Y-10062000D01*
X16666000Y-10122000D02*
G75*
G03*
X16666000Y-10062000I0J30000D01*
G01*
X16626000Y-10062000D02*
G75*
G03*
X16626000Y-10122000I0J-30000D01*
G01*
D13*
X16686000Y-12467000D02*
G75*
G03*
X16686000Y-12467000I-40000J0D01*
G01*
D11*
X16626000Y-12497000D02*
X16666000Y-12497000D01*
X16626000Y-12437000D02*
X16666000Y-12437000D01*
X16666000Y-12497000D02*
G75*
G03*
X16666000Y-12437000I0J30000D01*
G01*
X16626000Y-12437000D02*
G75*
G03*
X16626000Y-12497000I0J-30000D01*
G01*
D13*
X17194000Y-4392000D02*
G75*
G03*
X17194000Y-4392000I-40000J0D01*
G01*
D11*
X17134000Y-4422000D02*
X17174000Y-4422000D01*
X17134000Y-4362000D02*
X17174000Y-4362000D01*
X17174000Y-4422000D02*
G75*
G03*
X17174000Y-4362000I0J30000D01*
G01*
X17134000Y-4362000D02*
G75*
G03*
X17134000Y-4422000I0J-30000D01*
G01*
D13*
X17194000Y-6292000D02*
G75*
G03*
X17194000Y-6292000I-40000J0D01*
G01*
D11*
X17134000Y-6322000D02*
X17174000Y-6322000D01*
X17134000Y-6262000D02*
X17174000Y-6262000D01*
X17174000Y-6322000D02*
G75*
G03*
X17174000Y-6262000I0J30000D01*
G01*
X17134000Y-6262000D02*
G75*
G03*
X17134000Y-6322000I0J-30000D01*
G01*
D13*
X17194000Y-8192000D02*
G75*
G03*
X17194000Y-8192000I-40000J0D01*
G01*
D11*
X17134000Y-8222000D02*
X17174000Y-8222000D01*
X17134000Y-8162000D02*
X17174000Y-8162000D01*
X17174000Y-8222000D02*
G75*
G03*
X17174000Y-8162000I0J30000D01*
G01*
X17134000Y-8162000D02*
G75*
G03*
X17134000Y-8222000I0J-30000D01*
G01*
D13*
X17194000Y-10092000D02*
G75*
G03*
X17194000Y-10092000I-40000J0D01*
G01*
D11*
X17134000Y-10122000D02*
X17174000Y-10122000D01*
X17134000Y-10062000D02*
X17174000Y-10062000D01*
X17174000Y-10122000D02*
G75*
G03*
X17174000Y-10062000I0J30000D01*
G01*
X17134000Y-10062000D02*
G75*
G03*
X17134000Y-10122000I0J-30000D01*
G01*
D13*
X17194000Y-12467000D02*
G75*
G03*
X17194000Y-12467000I-40000J0D01*
G01*
D11*
X17134000Y-12497000D02*
X17174000Y-12497000D01*
X17134000Y-12437000D02*
X17174000Y-12437000D01*
X17174000Y-12497000D02*
G75*
G03*
X17174000Y-12437000I0J30000D01*
G01*
X17134000Y-12437000D02*
G75*
G03*
X17134000Y-12497000I0J-30000D01*
G01*
D13*
X17321000Y-4646000D02*
G75*
G03*
X17321000Y-4646000I-40000J0D01*
G01*
D11*
X17261000Y-4676000D02*
X17301000Y-4676000D01*
X17261000Y-4616000D02*
X17301000Y-4616000D01*
X17301000Y-4676000D02*
G75*
G03*
X17301000Y-4616000I0J30000D01*
G01*
X17261000Y-4616000D02*
G75*
G03*
X17261000Y-4676000I0J-30000D01*
G01*
D13*
X17321000Y-6546000D02*
G75*
G03*
X17321000Y-6546000I-40000J0D01*
G01*
D11*
X17261000Y-6576000D02*
X17301000Y-6576000D01*
X17261000Y-6516000D02*
X17301000Y-6516000D01*
X17301000Y-6576000D02*
G75*
G03*
X17301000Y-6516000I0J30000D01*
G01*
X17261000Y-6516000D02*
G75*
G03*
X17261000Y-6576000I0J-30000D01*
G01*
D13*
X17321000Y-8446000D02*
G75*
G03*
X17321000Y-8446000I-40000J0D01*
G01*
D11*
X17261000Y-8476000D02*
X17301000Y-8476000D01*
X17261000Y-8416000D02*
X17301000Y-8416000D01*
X17301000Y-8476000D02*
G75*
G03*
X17301000Y-8416000I0J30000D01*
G01*
X17261000Y-8416000D02*
G75*
G03*
X17261000Y-8476000I0J-30000D01*
G01*
D13*
X17321000Y-10346000D02*
G75*
G03*
X17321000Y-10346000I-40000J0D01*
G01*
D11*
X17261000Y-10376000D02*
X17301000Y-10376000D01*
X17261000Y-10316000D02*
X17301000Y-10316000D01*
X17301000Y-10376000D02*
G75*
G03*
X17301000Y-10316000I0J30000D01*
G01*
X17261000Y-10316000D02*
G75*
G03*
X17261000Y-10376000I0J-30000D01*
G01*
D13*
X17321000Y-12721000D02*
G75*
G03*
X17321000Y-12721000I-40000J0D01*
G01*
D11*
X17261000Y-12751000D02*
X17301000Y-12751000D01*
X17261000Y-12691000D02*
X17301000Y-12691000D01*
X17301000Y-12751000D02*
G75*
G03*
X17301000Y-12691000I0J30000D01*
G01*
X17261000Y-12691000D02*
G75*
G03*
X17261000Y-12751000I0J-30000D01*
G01*
D13*
X18459000Y-5121000D02*
G75*
G03*
X18459000Y-5121000I-40000J0D01*
G01*
D11*
X18399000Y-5151000D02*
X18439000Y-5151000D01*
X18399000Y-5091000D02*
X18439000Y-5091000D01*
X18439000Y-5151000D02*
G75*
G03*
X18439000Y-5091000I0J30000D01*
G01*
X18399000Y-5091000D02*
G75*
G03*
X18399000Y-5151000I0J-30000D01*
G01*
D13*
X18459000Y-7021000D02*
G75*
G03*
X18459000Y-7021000I-40000J0D01*
G01*
D11*
X18399000Y-7051000D02*
X18439000Y-7051000D01*
X18399000Y-6991000D02*
X18439000Y-6991000D01*
X18439000Y-7051000D02*
G75*
G03*
X18439000Y-6991000I0J30000D01*
G01*
X18399000Y-6991000D02*
G75*
G03*
X18399000Y-7051000I0J-30000D01*
G01*
D13*
X18459000Y-8921000D02*
G75*
G03*
X18459000Y-8921000I-40000J0D01*
G01*
D11*
X18399000Y-8951000D02*
X18439000Y-8951000D01*
X18399000Y-8891000D02*
X18439000Y-8891000D01*
X18439000Y-8951000D02*
G75*
G03*
X18439000Y-8891000I0J30000D01*
G01*
X18399000Y-8891000D02*
G75*
G03*
X18399000Y-8951000I0J-30000D01*
G01*
D13*
X18459000Y-10821000D02*
G75*
G03*
X18459000Y-10821000I-40000J0D01*
G01*
D11*
X18399000Y-10851000D02*
X18439000Y-10851000D01*
X18399000Y-10791000D02*
X18439000Y-10791000D01*
X18439000Y-10851000D02*
G75*
G03*
X18439000Y-10791000I0J30000D01*
G01*
X18399000Y-10791000D02*
G75*
G03*
X18399000Y-10851000I0J-30000D01*
G01*
D13*
X18459000Y-12721000D02*
G75*
G03*
X18459000Y-12721000I-40000J0D01*
G01*
D11*
X18399000Y-12751000D02*
X18439000Y-12751000D01*
X18399000Y-12691000D02*
X18439000Y-12691000D01*
X18439000Y-12751000D02*
G75*
G03*
X18439000Y-12691000I0J30000D01*
G01*
X18399000Y-12691000D02*
G75*
G03*
X18399000Y-12751000I0J-30000D01*
G01*
D13*
X18586000Y-4867000D02*
G75*
G03*
X18586000Y-4867000I-40000J0D01*
G01*
D11*
X18526000Y-4897000D02*
X18566000Y-4897000D01*
X18526000Y-4837000D02*
X18566000Y-4837000D01*
X18566000Y-4897000D02*
G75*
G03*
X18566000Y-4837000I0J30000D01*
G01*
X18526000Y-4837000D02*
G75*
G03*
X18526000Y-4897000I0J-30000D01*
G01*
D13*
X18586000Y-6767000D02*
G75*
G03*
X18586000Y-6767000I-40000J0D01*
G01*
D11*
X18526000Y-6797000D02*
X18566000Y-6797000D01*
X18526000Y-6737000D02*
X18566000Y-6737000D01*
X18566000Y-6797000D02*
G75*
G03*
X18566000Y-6737000I0J30000D01*
G01*
X18526000Y-6737000D02*
G75*
G03*
X18526000Y-6797000I0J-30000D01*
G01*
D13*
X18586000Y-8667000D02*
G75*
G03*
X18586000Y-8667000I-40000J0D01*
G01*
D11*
X18526000Y-8697000D02*
X18566000Y-8697000D01*
X18526000Y-8637000D02*
X18566000Y-8637000D01*
X18566000Y-8697000D02*
G75*
G03*
X18566000Y-8637000I0J30000D01*
G01*
X18526000Y-8637000D02*
G75*
G03*
X18526000Y-8697000I0J-30000D01*
G01*
D13*
X18586000Y-10567000D02*
G75*
G03*
X18586000Y-10567000I-40000J0D01*
G01*
D11*
X18526000Y-10597000D02*
X18566000Y-10597000D01*
X18526000Y-10537000D02*
X18566000Y-10537000D01*
X18566000Y-10597000D02*
G75*
G03*
X18566000Y-10537000I0J30000D01*
G01*
X18526000Y-10537000D02*
G75*
G03*
X18526000Y-10597000I0J-30000D01*
G01*
D13*
X18586000Y-12467000D02*
G75*
G03*
X18586000Y-12467000I-40000J0D01*
G01*
D11*
X18526000Y-12497000D02*
X18566000Y-12497000D01*
X18526000Y-12437000D02*
X18566000Y-12437000D01*
X18566000Y-12497000D02*
G75*
G03*
X18566000Y-12437000I0J30000D01*
G01*
X18526000Y-12437000D02*
G75*
G03*
X18526000Y-12497000I0J-30000D01*
G01*
D13*
X19094000Y-4867000D02*
G75*
G03*
X19094000Y-4867000I-40000J0D01*
G01*
D11*
X19034000Y-4897000D02*
X19074000Y-4897000D01*
X19034000Y-4837000D02*
X19074000Y-4837000D01*
X19074000Y-4897000D02*
G75*
G03*
X19074000Y-4837000I0J30000D01*
G01*
X19034000Y-4837000D02*
G75*
G03*
X19034000Y-4897000I0J-30000D01*
G01*
D13*
X19094000Y-6767000D02*
G75*
G03*
X19094000Y-6767000I-40000J0D01*
G01*
D11*
X19034000Y-6797000D02*
X19074000Y-6797000D01*
X19034000Y-6737000D02*
X19074000Y-6737000D01*
X19074000Y-6797000D02*
G75*
G03*
X19074000Y-6737000I0J30000D01*
G01*
X19034000Y-6737000D02*
G75*
G03*
X19034000Y-6797000I0J-30000D01*
G01*
D13*
X19094000Y-8667000D02*
G75*
G03*
X19094000Y-8667000I-40000J0D01*
G01*
D11*
X19034000Y-8697000D02*
X19074000Y-8697000D01*
X19034000Y-8637000D02*
X19074000Y-8637000D01*
X19074000Y-8697000D02*
G75*
G03*
X19074000Y-8637000I0J30000D01*
G01*
X19034000Y-8637000D02*
G75*
G03*
X19034000Y-8697000I0J-30000D01*
G01*
D13*
X19094000Y-10567000D02*
G75*
G03*
X19094000Y-10567000I-40000J0D01*
G01*
D11*
X19034000Y-10597000D02*
X19074000Y-10597000D01*
X19034000Y-10537000D02*
X19074000Y-10537000D01*
X19074000Y-10597000D02*
G75*
G03*
X19074000Y-10537000I0J30000D01*
G01*
X19034000Y-10537000D02*
G75*
G03*
X19034000Y-10597000I0J-30000D01*
G01*
D13*
X19094000Y-12467000D02*
G75*
G03*
X19094000Y-12467000I-40000J0D01*
G01*
D11*
X19034000Y-12497000D02*
X19074000Y-12497000D01*
X19034000Y-12437000D02*
X19074000Y-12437000D01*
X19074000Y-12497000D02*
G75*
G03*
X19074000Y-12437000I0J30000D01*
G01*
X19034000Y-12437000D02*
G75*
G03*
X19034000Y-12497000I0J-30000D01*
G01*
D13*
X19221000Y-5121000D02*
G75*
G03*
X19221000Y-5121000I-40000J0D01*
G01*
D11*
X19161000Y-5151000D02*
X19201000Y-5151000D01*
X19161000Y-5091000D02*
X19201000Y-5091000D01*
X19201000Y-5151000D02*
G75*
G03*
X19201000Y-5091000I0J30000D01*
G01*
X19161000Y-5091000D02*
G75*
G03*
X19161000Y-5151000I0J-30000D01*
G01*
D13*
X19221000Y-7021000D02*
G75*
G03*
X19221000Y-7021000I-40000J0D01*
G01*
D11*
X19161000Y-7051000D02*
X19201000Y-7051000D01*
X19161000Y-6991000D02*
X19201000Y-6991000D01*
X19201000Y-7051000D02*
G75*
G03*
X19201000Y-6991000I0J30000D01*
G01*
X19161000Y-6991000D02*
G75*
G03*
X19161000Y-7051000I0J-30000D01*
G01*
D13*
X19221000Y-8921000D02*
G75*
G03*
X19221000Y-8921000I-40000J0D01*
G01*
D11*
X19161000Y-8951000D02*
X19201000Y-8951000D01*
X19161000Y-8891000D02*
X19201000Y-8891000D01*
X19201000Y-8951000D02*
G75*
G03*
X19201000Y-8891000I0J30000D01*
G01*
X19161000Y-8891000D02*
G75*
G03*
X19161000Y-8951000I0J-30000D01*
G01*
D13*
X19221000Y-10821000D02*
G75*
G03*
X19221000Y-10821000I-40000J0D01*
G01*
D11*
X19161000Y-10851000D02*
X19201000Y-10851000D01*
X19161000Y-10791000D02*
X19201000Y-10791000D01*
X19201000Y-10851000D02*
G75*
G03*
X19201000Y-10791000I0J30000D01*
G01*
X19161000Y-10791000D02*
G75*
G03*
X19161000Y-10851000I0J-30000D01*
G01*
D13*
X19221000Y-12721000D02*
G75*
G03*
X19221000Y-12721000I-40000J0D01*
G01*
D11*
X19161000Y-12751000D02*
X19201000Y-12751000D01*
X19161000Y-12691000D02*
X19201000Y-12691000D01*
X19201000Y-12751000D02*
G75*
G03*
X19201000Y-12691000I0J30000D01*
G01*
X19161000Y-12691000D02*
G75*
G03*
X19161000Y-12751000I0J-30000D01*
G01*
D13*
X20359000Y-5596000D02*
G75*
G03*
X20359000Y-5596000I-40000J0D01*
G01*
D11*
X20299000Y-5626000D02*
X20339000Y-5626000D01*
X20299000Y-5566000D02*
X20339000Y-5566000D01*
X20339000Y-5626000D02*
G75*
G03*
X20339000Y-5566000I0J30000D01*
G01*
X20299000Y-5566000D02*
G75*
G03*
X20299000Y-5626000I0J-30000D01*
G01*
D13*
X20359000Y-7496000D02*
G75*
G03*
X20359000Y-7496000I-40000J0D01*
G01*
D11*
X20299000Y-7526000D02*
X20339000Y-7526000D01*
X20299000Y-7466000D02*
X20339000Y-7466000D01*
X20339000Y-7526000D02*
G75*
G03*
X20339000Y-7466000I0J30000D01*
G01*
X20299000Y-7466000D02*
G75*
G03*
X20299000Y-7526000I0J-30000D01*
G01*
D13*
X20359000Y-9396000D02*
G75*
G03*
X20359000Y-9396000I-40000J0D01*
G01*
D11*
X20299000Y-9426000D02*
X20339000Y-9426000D01*
X20299000Y-9366000D02*
X20339000Y-9366000D01*
X20339000Y-9426000D02*
G75*
G03*
X20339000Y-9366000I0J30000D01*
G01*
X20299000Y-9366000D02*
G75*
G03*
X20299000Y-9426000I0J-30000D01*
G01*
D13*
X20359000Y-13196000D02*
G75*
G03*
X20359000Y-13196000I-40000J0D01*
G01*
D11*
X20299000Y-13226000D02*
X20339000Y-13226000D01*
X20299000Y-13166000D02*
X20339000Y-13166000D01*
X20339000Y-13226000D02*
G75*
G03*
X20339000Y-13166000I0J30000D01*
G01*
X20299000Y-13166000D02*
G75*
G03*
X20299000Y-13226000I0J-30000D01*
G01*
D13*
X20486000Y-5342000D02*
G75*
G03*
X20486000Y-5342000I-40000J0D01*
G01*
D11*
X20426000Y-5372000D02*
X20466000Y-5372000D01*
X20426000Y-5312000D02*
X20466000Y-5312000D01*
X20466000Y-5372000D02*
G75*
G03*
X20466000Y-5312000I0J30000D01*
G01*
X20426000Y-5312000D02*
G75*
G03*
X20426000Y-5372000I0J-30000D01*
G01*
D13*
X20486000Y-7242000D02*
G75*
G03*
X20486000Y-7242000I-40000J0D01*
G01*
D11*
X20426000Y-7272000D02*
X20466000Y-7272000D01*
X20426000Y-7212000D02*
X20466000Y-7212000D01*
X20466000Y-7272000D02*
G75*
G03*
X20466000Y-7212000I0J30000D01*
G01*
X20426000Y-7212000D02*
G75*
G03*
X20426000Y-7272000I0J-30000D01*
G01*
D13*
X20486000Y-9142000D02*
G75*
G03*
X20486000Y-9142000I-40000J0D01*
G01*
D11*
X20426000Y-9172000D02*
X20466000Y-9172000D01*
X20426000Y-9112000D02*
X20466000Y-9112000D01*
X20466000Y-9172000D02*
G75*
G03*
X20466000Y-9112000I0J30000D01*
G01*
X20426000Y-9112000D02*
G75*
G03*
X20426000Y-9172000I0J-30000D01*
G01*
D13*
X20486000Y-12942000D02*
G75*
G03*
X20486000Y-12942000I-40000J0D01*
G01*
D11*
X20426000Y-12972000D02*
X20466000Y-12972000D01*
X20426000Y-12912000D02*
X20466000Y-12912000D01*
X20466000Y-12972000D02*
G75*
G03*
X20466000Y-12912000I0J30000D01*
G01*
X20426000Y-12912000D02*
G75*
G03*
X20426000Y-12972000I0J-30000D01*
G01*
D13*
X20994000Y-5342000D02*
G75*
G03*
X20994000Y-5342000I-40000J0D01*
G01*
D11*
X20934000Y-5372000D02*
X20974000Y-5372000D01*
X20934000Y-5312000D02*
X20974000Y-5312000D01*
X20974000Y-5372000D02*
G75*
G03*
X20974000Y-5312000I0J30000D01*
G01*
X20934000Y-5312000D02*
G75*
G03*
X20934000Y-5372000I0J-30000D01*
G01*
D13*
X20994000Y-7242000D02*
G75*
G03*
X20994000Y-7242000I-40000J0D01*
G01*
D11*
X20934000Y-7272000D02*
X20974000Y-7272000D01*
X20934000Y-7212000D02*
X20974000Y-7212000D01*
X20974000Y-7272000D02*
G75*
G03*
X20974000Y-7212000I0J30000D01*
G01*
X20934000Y-7212000D02*
G75*
G03*
X20934000Y-7272000I0J-30000D01*
G01*
D13*
X20994000Y-9142000D02*
G75*
G03*
X20994000Y-9142000I-40000J0D01*
G01*
D11*
X20934000Y-9172000D02*
X20974000Y-9172000D01*
X20934000Y-9112000D02*
X20974000Y-9112000D01*
X20974000Y-9172000D02*
G75*
G03*
X20974000Y-9112000I0J30000D01*
G01*
X20934000Y-9112000D02*
G75*
G03*
X20934000Y-9172000I0J-30000D01*
G01*
D13*
X20994000Y-12942000D02*
G75*
G03*
X20994000Y-12942000I-40000J0D01*
G01*
D11*
X20934000Y-12972000D02*
X20974000Y-12972000D01*
X20934000Y-12912000D02*
X20974000Y-12912000D01*
X20974000Y-12972000D02*
G75*
G03*
X20974000Y-12912000I0J30000D01*
G01*
X20934000Y-12912000D02*
G75*
G03*
X20934000Y-12972000I0J-30000D01*
G01*
D13*
X21121000Y-5596000D02*
G75*
G03*
X21121000Y-5596000I-40000J0D01*
G01*
D11*
X21061000Y-5626000D02*
X21101000Y-5626000D01*
X21061000Y-5566000D02*
X21101000Y-5566000D01*
X21101000Y-5626000D02*
G75*
G03*
X21101000Y-5566000I0J30000D01*
G01*
X21061000Y-5566000D02*
G75*
G03*
X21061000Y-5626000I0J-30000D01*
G01*
D13*
X21121000Y-7496000D02*
G75*
G03*
X21121000Y-7496000I-40000J0D01*
G01*
D11*
X21061000Y-7526000D02*
X21101000Y-7526000D01*
X21061000Y-7466000D02*
X21101000Y-7466000D01*
X21101000Y-7526000D02*
G75*
G03*
X21101000Y-7466000I0J30000D01*
G01*
X21061000Y-7466000D02*
G75*
G03*
X21061000Y-7526000I0J-30000D01*
G01*
D13*
X21121000Y-9396000D02*
G75*
G03*
X21121000Y-9396000I-40000J0D01*
G01*
D11*
X21061000Y-9426000D02*
X21101000Y-9426000D01*
X21061000Y-9366000D02*
X21101000Y-9366000D01*
X21101000Y-9426000D02*
G75*
G03*
X21101000Y-9366000I0J30000D01*
G01*
X21061000Y-9366000D02*
G75*
G03*
X21061000Y-9426000I0J-30000D01*
G01*
D13*
X21121000Y-13196000D02*
G75*
G03*
X21121000Y-13196000I-40000J0D01*
G01*
D11*
X21061000Y-13226000D02*
X21101000Y-13226000D01*
X21061000Y-13166000D02*
X21101000Y-13166000D01*
X21101000Y-13226000D02*
G75*
G03*
X21101000Y-13166000I0J30000D01*
G01*
X21061000Y-13166000D02*
G75*
G03*
X21061000Y-13226000I0J-30000D01*
G01*
D13*
X22182000Y-9275000D02*
G75*
G03*
X22182000Y-9275000I-40000J0D01*
G01*
X22182000Y-9625000D02*
G75*
G03*
X22182000Y-9625000I-40000J0D01*
G01*
X23198000Y-9275000D02*
G75*
G03*
X23198000Y-9275000I-40000J0D01*
G01*
X23198000Y-9625000D02*
G75*
G03*
X23198000Y-9625000I-40000J0D01*
G01*
D14*
X22269000Y-12509360D02*
X22269000Y-12590640D01*
X22228360Y-12550000D02*
X22309640Y-12550000D01*
X22523000Y-12509360D02*
X22523000Y-12590640D01*
X22482360Y-12550000D02*
X22563640Y-12550000D01*
X22777000Y-12509360D02*
X22777000Y-12590640D01*
X22736360Y-12550000D02*
X22817640Y-12550000D01*
X23031000Y-12509360D02*
X23031000Y-12590640D01*
X22990360Y-12550000D02*
X23071640Y-12550000D01*
D15*
X22418070Y-12951820D02*
X22418070Y-12888180D01*
X22354430Y-12888180D01*
X22354430Y-12951820D01*
X22418070Y-12951820D01*
D11*
X22461250Y-12885000D02*
X22311250Y-12885000D01*
X22461250Y-12955000D02*
X22311250Y-12955000D01*
X22311250Y-12885000D02*
G75*
G03*
X22311250Y-12955000I0J-35000D01*
G01*
X22461250Y-12955000D02*
G75*
G03*
X22461250Y-12885000I0J35000D01*
G01*
D15*
X22418070Y-13411820D02*
X22418070Y-13348180D01*
X22354430Y-13348180D01*
X22354430Y-13411820D01*
X22418070Y-13411820D01*
D11*
X22461250Y-13345000D02*
X22311250Y-13345000D01*
X22461250Y-13415000D02*
X22311250Y-13415000D01*
X22311250Y-13345000D02*
G75*
G03*
X22311250Y-13415000I0J-35000D01*
G01*
X22461250Y-13415000D02*
G75*
G03*
X22461250Y-13345000I0J35000D01*
G01*
D15*
X22873070Y-12953820D02*
X22873070Y-12890180D01*
X22809430Y-12890180D01*
X22809430Y-12953820D01*
X22873070Y-12953820D01*
D11*
X22861250Y-12887000D02*
X22821250Y-12887000D01*
X22861250Y-12957000D02*
X22821250Y-12957000D01*
X22821250Y-12887000D02*
G75*
G03*
X22821250Y-12957000I0J-35000D01*
G01*
X22861250Y-12957000D02*
G75*
G03*
X22861250Y-12887000I0J35000D01*
G01*
D15*
X22873070Y-13411820D02*
X22873070Y-13348180D01*
X22809430Y-13348180D01*
X22809430Y-13411820D01*
X22873070Y-13411820D01*
D11*
X22861250Y-13345000D02*
X22821250Y-13345000D01*
X22861250Y-13415000D02*
X22821250Y-13415000D01*
X22821250Y-13345000D02*
G75*
G03*
X22821250Y-13415000I0J-35000D01*
G01*
X22861250Y-13415000D02*
G75*
G03*
X22861250Y-13345000I0J35000D01*
G01*
D15*
X23173070Y-12953820D02*
X23173070Y-12890180D01*
X23109430Y-12890180D01*
X23109430Y-12953820D01*
X23173070Y-12953820D01*
D11*
X23161250Y-12887000D02*
X23121250Y-12887000D01*
X23161250Y-12957000D02*
X23121250Y-12957000D01*
X23121250Y-12887000D02*
G75*
G03*
X23121250Y-12957000I0J-35000D01*
G01*
X23161250Y-12957000D02*
G75*
G03*
X23161250Y-12887000I0J35000D01*
G01*
D15*
X23173070Y-13411820D02*
X23173070Y-13348180D01*
X23109430Y-13348180D01*
X23109430Y-13411820D01*
X23173070Y-13411820D01*
D11*
X23161250Y-13345000D02*
X23121250Y-13345000D01*
X23161250Y-13415000D02*
X23121250Y-13415000D01*
X23121250Y-13345000D02*
G75*
G03*
X23121250Y-13415000I0J-35000D01*
G01*
X23161250Y-13415000D02*
G75*
G03*
X23161250Y-13345000I0J35000D01*
G01*
D16*
X6650000Y-4700000D02*
X6700000Y-4650000D01*
X6650000Y-4600000D01*
X6600000Y-4650000D01*
X6650000Y-4700000D01*
X6650000Y-4950000D02*
X6700000Y-4900000D01*
X6650000Y-4850000D01*
X6600000Y-4900000D01*
X6650000Y-4950000D01*
X6650000Y-5200000D02*
X6700000Y-5150000D01*
X6650000Y-5100000D01*
X6600000Y-5150000D01*
X6650000Y-5200000D01*
X7019000Y-6011800D02*
X7069000Y-5961800D01*
X7019000Y-5911800D01*
X6969000Y-5961800D01*
X7019000Y-6011800D01*
X7019000Y-7911800D02*
X7069000Y-7861800D01*
X7019000Y-7811800D01*
X6969000Y-7861800D01*
X7019000Y-7911800D01*
X7019000Y-9811800D02*
X7069000Y-9761800D01*
X7019000Y-9711800D01*
X6969000Y-9761800D01*
X7019000Y-9811800D01*
X7019000Y-11711800D02*
X7069000Y-11661800D01*
X7019000Y-11611800D01*
X6969000Y-11661800D01*
X7019000Y-11711800D01*
X7025000Y-4125000D02*
X7075000Y-4075000D01*
X7025000Y-4025000D01*
X6975000Y-4075000D01*
X7025000Y-4125000D01*
X7781000Y-6011800D02*
X7831000Y-5961800D01*
X7781000Y-5911800D01*
X7731000Y-5961800D01*
X7781000Y-6011800D01*
X7781000Y-7911800D02*
X7831000Y-7861800D01*
X7781000Y-7811800D01*
X7731000Y-7861800D01*
X7781000Y-7911800D01*
X7781000Y-9811800D02*
X7831000Y-9761800D01*
X7781000Y-9711800D01*
X7731000Y-9761800D01*
X7781000Y-9811800D01*
X7781000Y-11711800D02*
X7831000Y-11661800D01*
X7781000Y-11611800D01*
X7731000Y-11661800D01*
X7781000Y-11711800D01*
X7787000Y-4125000D02*
X7837000Y-4075000D01*
X7787000Y-4025000D01*
X7737000Y-4075000D01*
X7787000Y-4125000D01*
X8100000Y-4700000D02*
X8150000Y-4650000D01*
X8100000Y-4600000D01*
X8050000Y-4650000D01*
X8100000Y-4700000D01*
X8100000Y-5200000D02*
X8150000Y-5150000D01*
X8100000Y-5100000D01*
X8050000Y-5150000D01*
X8100000Y-5200000D01*
X8919000Y-5061800D02*
X8969000Y-5011800D01*
X8919000Y-4961800D01*
X8869000Y-5011800D01*
X8919000Y-5061800D01*
X8919000Y-6961800D02*
X8969000Y-6911800D01*
X8919000Y-6861800D01*
X8869000Y-6911800D01*
X8919000Y-6961800D01*
X8919000Y-8861800D02*
X8969000Y-8811800D01*
X8919000Y-8761800D01*
X8869000Y-8811800D01*
X8919000Y-8861800D01*
X8919000Y-10761800D02*
X8969000Y-10711800D01*
X8919000Y-10661800D01*
X8869000Y-10711800D01*
X8919000Y-10761800D01*
X8919000Y-12661800D02*
X8969000Y-12611800D01*
X8919000Y-12561800D01*
X8869000Y-12611800D01*
X8919000Y-12661800D01*
X9681000Y-5061800D02*
X9731000Y-5011800D01*
X9681000Y-4961800D01*
X9631000Y-5011800D01*
X9681000Y-5061800D01*
X9681000Y-6961800D02*
X9731000Y-6911800D01*
X9681000Y-6861800D01*
X9631000Y-6911800D01*
X9681000Y-6961800D01*
X9681000Y-8861800D02*
X9731000Y-8811800D01*
X9681000Y-8761800D01*
X9631000Y-8811800D01*
X9681000Y-8861800D01*
X9681000Y-10761800D02*
X9731000Y-10711800D01*
X9681000Y-10661800D01*
X9631000Y-10711800D01*
X9681000Y-10761800D01*
X9681000Y-12661800D02*
X9731000Y-12611800D01*
X9681000Y-12561800D01*
X9631000Y-12611800D01*
X9681000Y-12661800D01*
X10819000Y-5061800D02*
X10869000Y-5011800D01*
X10819000Y-4961800D01*
X10769000Y-5011800D01*
X10819000Y-5061800D01*
X10819000Y-6961800D02*
X10869000Y-6911800D01*
X10819000Y-6861800D01*
X10769000Y-6911800D01*
X10819000Y-6961800D01*
X10819000Y-8861800D02*
X10869000Y-8811800D01*
X10819000Y-8761800D01*
X10769000Y-8811800D01*
X10819000Y-8861800D01*
X10819000Y-10761800D02*
X10869000Y-10711800D01*
X10819000Y-10661800D01*
X10769000Y-10711800D01*
X10819000Y-10761800D01*
X10819000Y-12661800D02*
X10869000Y-12611800D01*
X10819000Y-12561800D01*
X10769000Y-12611800D01*
X10819000Y-12661800D01*
X11581000Y-5061800D02*
X11631000Y-5011800D01*
X11581000Y-4961800D01*
X11531000Y-5011800D01*
X11581000Y-5061800D01*
X11581000Y-6961800D02*
X11631000Y-6911800D01*
X11581000Y-6861800D01*
X11531000Y-6911800D01*
X11581000Y-6961800D01*
X11581000Y-8861800D02*
X11631000Y-8811800D01*
X11581000Y-8761800D01*
X11531000Y-8811800D01*
X11581000Y-8861800D01*
X11581000Y-10761800D02*
X11631000Y-10711800D01*
X11581000Y-10661800D01*
X11531000Y-10711800D01*
X11581000Y-10761800D01*
X11581000Y-12661800D02*
X11631000Y-12611800D01*
X11581000Y-12561800D01*
X11531000Y-12611800D01*
X11581000Y-12661800D01*
X12350000Y-12775000D02*
X12400000Y-12725000D01*
X12350000Y-12675000D01*
X12300000Y-12725000D01*
X12350000Y-12775000D01*
X12350000Y-13025000D02*
X12400000Y-12975000D01*
X12350000Y-12925000D01*
X12300000Y-12975000D01*
X12350000Y-13025000D01*
X12350000Y-13275000D02*
X12400000Y-13225000D01*
X12350000Y-13175000D01*
X12300000Y-13225000D01*
X12350000Y-13275000D01*
X12719000Y-4111800D02*
X12769000Y-4061800D01*
X12719000Y-4011800D01*
X12669000Y-4061800D01*
X12719000Y-4111800D01*
X12719000Y-6011800D02*
X12769000Y-5961800D01*
X12719000Y-5911800D01*
X12669000Y-5961800D01*
X12719000Y-6011800D01*
X12719000Y-7911800D02*
X12769000Y-7861800D01*
X12719000Y-7811800D01*
X12669000Y-7861800D01*
X12719000Y-7911800D01*
X12719000Y-9811800D02*
X12769000Y-9761800D01*
X12719000Y-9711800D01*
X12669000Y-9761800D01*
X12719000Y-9811800D01*
X12725000Y-12200000D02*
X12775000Y-12150000D01*
X12725000Y-12100000D01*
X12675000Y-12150000D01*
X12725000Y-12200000D01*
X13481000Y-4111800D02*
X13531000Y-4061800D01*
X13481000Y-4011800D01*
X13431000Y-4061800D01*
X13481000Y-4111800D01*
X13481000Y-6011800D02*
X13531000Y-5961800D01*
X13481000Y-5911800D01*
X13431000Y-5961800D01*
X13481000Y-6011800D01*
X13481000Y-7911800D02*
X13531000Y-7861800D01*
X13481000Y-7811800D01*
X13431000Y-7861800D01*
X13481000Y-7911800D01*
X13481000Y-9811800D02*
X13531000Y-9761800D01*
X13481000Y-9711800D01*
X13431000Y-9761800D01*
X13481000Y-9811800D01*
X13487000Y-12200000D02*
X13537000Y-12150000D01*
X13487000Y-12100000D01*
X13437000Y-12150000D01*
X13487000Y-12200000D01*
X13800000Y-12775000D02*
X13850000Y-12725000D01*
X13800000Y-12675000D01*
X13750000Y-12725000D01*
X13800000Y-12775000D01*
X13800000Y-13275000D02*
X13850000Y-13225000D01*
X13800000Y-13175000D01*
X13750000Y-13225000D01*
X13800000Y-13275000D01*
X14619000Y-3636800D02*
X14669000Y-3586800D01*
X14619000Y-3536800D01*
X14569000Y-3586800D01*
X14619000Y-3636800D01*
X14619000Y-5536800D02*
X14669000Y-5486800D01*
X14619000Y-5436800D01*
X14569000Y-5486800D01*
X14619000Y-5536800D01*
X14619000Y-7436800D02*
X14669000Y-7386800D01*
X14619000Y-7336800D01*
X14569000Y-7386800D01*
X14619000Y-7436800D01*
X14619000Y-9336800D02*
X14669000Y-9286800D01*
X14619000Y-9236800D01*
X14569000Y-9286800D01*
X14619000Y-9336800D01*
X14619000Y-12186800D02*
X14669000Y-12136800D01*
X14619000Y-12086800D01*
X14569000Y-12136800D01*
X14619000Y-12186800D01*
X15381000Y-3636800D02*
X15431000Y-3586800D01*
X15381000Y-3536800D01*
X15331000Y-3586800D01*
X15381000Y-3636800D01*
X15381000Y-5536800D02*
X15431000Y-5486800D01*
X15381000Y-5436800D01*
X15331000Y-5486800D01*
X15381000Y-5536800D01*
X15381000Y-7436800D02*
X15431000Y-7386800D01*
X15381000Y-7336800D01*
X15331000Y-7386800D01*
X15381000Y-7436800D01*
X15381000Y-9336800D02*
X15431000Y-9286800D01*
X15381000Y-9236800D01*
X15331000Y-9286800D01*
X15381000Y-9336800D01*
X15381000Y-12186800D02*
X15431000Y-12136800D01*
X15381000Y-12086800D01*
X15331000Y-12136800D01*
X15381000Y-12186800D01*
X16519000Y-4111800D02*
X16569000Y-4061800D01*
X16519000Y-4011800D01*
X16469000Y-4061800D01*
X16519000Y-4111800D01*
X16519000Y-6011800D02*
X16569000Y-5961800D01*
X16519000Y-5911800D01*
X16469000Y-5961800D01*
X16519000Y-6011800D01*
X16519000Y-7911800D02*
X16569000Y-7861800D01*
X16519000Y-7811800D01*
X16469000Y-7861800D01*
X16519000Y-7911800D01*
X16519000Y-9811800D02*
X16569000Y-9761800D01*
X16519000Y-9711800D01*
X16469000Y-9761800D01*
X16519000Y-9811800D01*
X16519000Y-12186800D02*
X16569000Y-12136800D01*
X16519000Y-12086800D01*
X16469000Y-12136800D01*
X16519000Y-12186800D01*
X17281000Y-4111800D02*
X17331000Y-4061800D01*
X17281000Y-4011800D01*
X17231000Y-4061800D01*
X17281000Y-4111800D01*
X17281000Y-6011800D02*
X17331000Y-5961800D01*
X17281000Y-5911800D01*
X17231000Y-5961800D01*
X17281000Y-6011800D01*
X17281000Y-7911800D02*
X17331000Y-7861800D01*
X17281000Y-7811800D01*
X17231000Y-7861800D01*
X17281000Y-7911800D01*
X17281000Y-9811800D02*
X17331000Y-9761800D01*
X17281000Y-9711800D01*
X17231000Y-9761800D01*
X17281000Y-9811800D01*
X17281000Y-12186800D02*
X17331000Y-12136800D01*
X17281000Y-12086800D01*
X17231000Y-12136800D01*
X17281000Y-12186800D01*
X18419000Y-4586800D02*
X18469000Y-4536800D01*
X18419000Y-4486800D01*
X18369000Y-4536800D01*
X18419000Y-4586800D01*
X18419000Y-6486800D02*
X18469000Y-6436800D01*
X18419000Y-6386800D01*
X18369000Y-6436800D01*
X18419000Y-6486800D01*
X18419000Y-8386800D02*
X18469000Y-8336800D01*
X18419000Y-8286800D01*
X18369000Y-8336800D01*
X18419000Y-8386800D01*
X18419000Y-10286800D02*
X18469000Y-10236800D01*
X18419000Y-10186800D01*
X18369000Y-10236800D01*
X18419000Y-10286800D01*
X18419000Y-12186800D02*
X18469000Y-12136800D01*
X18419000Y-12086800D01*
X18369000Y-12136800D01*
X18419000Y-12186800D01*
X19181000Y-4586800D02*
X19231000Y-4536800D01*
X19181000Y-4486800D01*
X19131000Y-4536800D01*
X19181000Y-4586800D01*
X19181000Y-6486800D02*
X19231000Y-6436800D01*
X19181000Y-6386800D01*
X19131000Y-6436800D01*
X19181000Y-6486800D01*
X19181000Y-8386800D02*
X19231000Y-8336800D01*
X19181000Y-8286800D01*
X19131000Y-8336800D01*
X19181000Y-8386800D01*
X19181000Y-10286800D02*
X19231000Y-10236800D01*
X19181000Y-10186800D01*
X19131000Y-10236800D01*
X19181000Y-10286800D01*
X19181000Y-12186800D02*
X19231000Y-12136800D01*
X19181000Y-12086800D01*
X19131000Y-12136800D01*
X19181000Y-12186800D01*
X19950000Y-11350000D02*
X20000000Y-11300000D01*
X19950000Y-11250000D01*
X19900000Y-11300000D01*
X19950000Y-11350000D01*
X19950000Y-11600000D02*
X20000000Y-11550000D01*
X19950000Y-11500000D01*
X19900000Y-11550000D01*
X19950000Y-11600000D01*
X19950000Y-11850000D02*
X20000000Y-11800000D01*
X19950000Y-11750000D01*
X19900000Y-11800000D01*
X19950000Y-11850000D01*
X20319000Y-5061800D02*
X20369000Y-5011800D01*
X20319000Y-4961800D01*
X20269000Y-5011800D01*
X20319000Y-5061800D01*
X20319000Y-6961800D02*
X20369000Y-6911800D01*
X20319000Y-6861800D01*
X20269000Y-6911800D01*
X20319000Y-6961800D01*
X20319000Y-8861800D02*
X20369000Y-8811800D01*
X20319000Y-8761800D01*
X20269000Y-8811800D01*
X20319000Y-8861800D01*
X20319000Y-12661800D02*
X20369000Y-12611800D01*
X20319000Y-12561800D01*
X20269000Y-12611800D01*
X20319000Y-12661800D01*
X20325000Y-10775000D02*
X20375000Y-10725000D01*
X20325000Y-10675000D01*
X20275000Y-10725000D01*
X20325000Y-10775000D01*
X21081000Y-5061800D02*
X21131000Y-5011800D01*
X21081000Y-4961800D01*
X21031000Y-5011800D01*
X21081000Y-5061800D01*
X21081000Y-6961800D02*
X21131000Y-6911800D01*
X21081000Y-6861800D01*
X21031000Y-6911800D01*
X21081000Y-6961800D01*
X21081000Y-8861800D02*
X21131000Y-8811800D01*
X21081000Y-8761800D01*
X21031000Y-8811800D01*
X21081000Y-8861800D01*
X21081000Y-12661800D02*
X21131000Y-12611800D01*
X21081000Y-12561800D01*
X21031000Y-12611800D01*
X21081000Y-12661800D01*
X21087000Y-10775000D02*
X21137000Y-10725000D01*
X21087000Y-10675000D01*
X21037000Y-10725000D01*
X21087000Y-10775000D01*
X21400000Y-11350000D02*
X21450000Y-11300000D01*
X21400000Y-11250000D01*
X21350000Y-11300000D01*
X21400000Y-11350000D01*
X21400000Y-11850000D02*
X21450000Y-11800000D01*
X21400000Y-11750000D01*
X21350000Y-11800000D01*
X21400000Y-11850000D01*
D17*
X21858390Y-5747065D02*
X21967610Y-5856285D01*
X21967610Y-5747065D02*
X21858390Y-5856285D01*
X21967610Y-5801675D02*
G75*
G03*
X21967610Y-5801675I-54610J0D01*
G01*
X21858390Y-6001065D02*
X21967610Y-6110285D01*
X21967610Y-6001065D02*
X21858390Y-6110285D01*
X21967610Y-6055675D02*
G75*
G03*
X21967610Y-6055675I-54610J0D01*
G01*
X21858390Y-6255065D02*
X21967610Y-6364285D01*
X21967610Y-6255065D02*
X21858390Y-6364285D01*
X21967610Y-6309675D02*
G75*
G03*
X21967610Y-6309675I-54610J0D01*
G01*
X21858390Y-6509065D02*
X21967610Y-6618285D01*
X21967610Y-6509065D02*
X21858390Y-6618285D01*
X21967610Y-6563675D02*
G75*
G03*
X21967610Y-6563675I-54610J0D01*
G01*
X21858390Y-6763065D02*
X21967610Y-6872285D01*
X21967610Y-6763065D02*
X21858390Y-6872285D01*
X21967610Y-6817675D02*
G75*
G03*
X21967610Y-6817675I-54610J0D01*
G01*
X21858390Y-7017065D02*
X21967610Y-7126285D01*
X21967610Y-7017065D02*
X21858390Y-7126285D01*
X21967610Y-7071675D02*
G75*
G03*
X21967610Y-7071675I-54610J0D01*
G01*
X21858390Y-7271065D02*
X21967610Y-7380285D01*
X21967610Y-7271065D02*
X21858390Y-7380285D01*
X21967610Y-7325675D02*
G75*
G03*
X21967610Y-7325675I-54610J0D01*
G01*
X21858390Y-7525065D02*
X21967610Y-7634285D01*
X21967610Y-7525065D02*
X21858390Y-7634285D01*
X21967610Y-7579675D02*
G75*
G03*
X21967610Y-7579675I-54610J0D01*
G01*
X21858390Y-7779065D02*
X21967610Y-7888285D01*
X21967610Y-7779065D02*
X21858390Y-7888285D01*
X21967610Y-7833675D02*
G75*
G03*
X21967610Y-7833675I-54610J0D01*
G01*
X21858390Y-8033065D02*
X21967610Y-8142285D01*
X21967610Y-8033065D02*
X21858390Y-8142285D01*
X21967610Y-8087675D02*
G75*
G03*
X21967610Y-8087675I-54610J0D01*
G01*
X21858390Y-8287065D02*
X21967610Y-8396285D01*
X21967610Y-8287065D02*
X21858390Y-8396285D01*
X21967610Y-8341675D02*
G75*
G03*
X21967610Y-8341675I-54610J0D01*
G01*
X21858390Y-8541065D02*
X21967610Y-8650285D01*
X21967610Y-8541065D02*
X21858390Y-8650285D01*
X21967610Y-8595675D02*
G75*
G03*
X21967610Y-8595675I-54610J0D01*
G01*
X22112390Y-8541065D02*
X22221610Y-8650285D01*
X22221610Y-8541065D02*
X22112390Y-8650285D01*
X22221610Y-8595675D02*
G75*
G03*
X22221610Y-8595675I-54610J0D01*
G01*
X22366390Y-8541065D02*
X22475610Y-8650285D01*
X22475610Y-8541065D02*
X22366390Y-8650285D01*
X22475610Y-8595675D02*
G75*
G03*
X22475610Y-8595675I-54610J0D01*
G01*
X22620390Y-8541065D02*
X22729610Y-8650285D01*
X22729610Y-8541065D02*
X22620390Y-8650285D01*
X22729610Y-8595675D02*
G75*
G03*
X22729610Y-8595675I-54610J0D01*
G01*
X22874390Y-8541065D02*
X22983610Y-8650285D01*
X22983610Y-8541065D02*
X22874390Y-8650285D01*
X22983610Y-8595675D02*
G75*
G03*
X22983610Y-8595675I-54610J0D01*
G01*
X23128390Y-8541065D02*
X23237610Y-8650285D01*
X23237610Y-8541065D02*
X23128390Y-8650285D01*
X23237610Y-8595675D02*
G75*
G03*
X23237610Y-8595675I-54610J0D01*
G01*
X23382390Y-5747065D02*
X23491610Y-5856285D01*
X23491610Y-5747065D02*
X23382390Y-5856285D01*
X23491610Y-5801675D02*
G75*
G03*
X23491610Y-5801675I-54610J0D01*
G01*
X23382390Y-6001065D02*
X23491610Y-6110285D01*
X23491610Y-6001065D02*
X23382390Y-6110285D01*
X23491610Y-6055675D02*
G75*
G03*
X23491610Y-6055675I-54610J0D01*
G01*
X23382390Y-6255065D02*
X23491610Y-6364285D01*
X23491610Y-6255065D02*
X23382390Y-6364285D01*
X23491610Y-6309675D02*
G75*
G03*
X23491610Y-6309675I-54610J0D01*
G01*
X23382390Y-6509065D02*
X23491610Y-6618285D01*
X23491610Y-6509065D02*
X23382390Y-6618285D01*
X23491610Y-6563675D02*
G75*
G03*
X23491610Y-6563675I-54610J0D01*
G01*
X23382390Y-6763065D02*
X23491610Y-6872285D01*
X23491610Y-6763065D02*
X23382390Y-6872285D01*
X23491610Y-6817675D02*
G75*
G03*
X23491610Y-6817675I-54610J0D01*
G01*
X23382390Y-7017065D02*
X23491610Y-7126285D01*
X23491610Y-7017065D02*
X23382390Y-7126285D01*
X23491610Y-7071675D02*
G75*
G03*
X23491610Y-7071675I-54610J0D01*
G01*
X23382390Y-7271065D02*
X23491610Y-7380285D01*
X23491610Y-7271065D02*
X23382390Y-7380285D01*
X23491610Y-7325675D02*
G75*
G03*
X23491610Y-7325675I-54610J0D01*
G01*
X23382390Y-7525065D02*
X23491610Y-7634285D01*
X23491610Y-7525065D02*
X23382390Y-7634285D01*
X23491610Y-7579675D02*
G75*
G03*
X23491610Y-7579675I-54610J0D01*
G01*
X23382390Y-7779065D02*
X23491610Y-7888285D01*
X23491610Y-7779065D02*
X23382390Y-7888285D01*
X23491610Y-7833675D02*
G75*
G03*
X23491610Y-7833675I-54610J0D01*
G01*
X23382390Y-8033065D02*
X23491610Y-8142285D01*
X23491610Y-8033065D02*
X23382390Y-8142285D01*
X23491610Y-8087675D02*
G75*
G03*
X23491610Y-8087675I-54610J0D01*
G01*
X23382390Y-8287065D02*
X23491610Y-8396285D01*
X23491610Y-8287065D02*
X23382390Y-8396285D01*
X23491610Y-8341675D02*
G75*
G03*
X23491610Y-8341675I-54610J0D01*
G01*
X23382390Y-8541065D02*
X23491610Y-8650285D01*
X23491610Y-8541065D02*
X23382390Y-8650285D01*
X23491610Y-8595675D02*
G75*
G03*
X23491610Y-8595675I-54610J0D01*
G01*
D18*
X7325000Y-4265000D02*
X7475000Y-4415000D01*
X7475000Y-4265000D02*
X7325000Y-4415000D01*
X7400000Y-4265000D02*
X7400000Y-4415000D01*
X7325000Y-4340000D02*
X7475000Y-4340000D01*
D11*
X7335000Y-4405000D02*
X7465000Y-4405000D01*
X7335000Y-4275000D02*
X7465000Y-4275000D01*
X7465000Y-4405000D02*
G75*
G03*
X7465000Y-4275000I0J65000D01*
G01*
X7335000Y-4275000D02*
G75*
G03*
X7335000Y-4405000I0J-65000D01*
G01*
D18*
X7325000Y-5385000D02*
X7475000Y-5535000D01*
X7475000Y-5385000D02*
X7325000Y-5535000D01*
X7400000Y-5385000D02*
X7400000Y-5535000D01*
X7325000Y-5460000D02*
X7475000Y-5460000D01*
D11*
X7335000Y-5525000D02*
X7465000Y-5525000D01*
X7335000Y-5395000D02*
X7465000Y-5395000D01*
X7465000Y-5525000D02*
G75*
G03*
X7465000Y-5395000I0J65000D01*
G01*
X7335000Y-5395000D02*
G75*
G03*
X7335000Y-5525000I0J-65000D01*
G01*
D18*
X13025000Y-12340000D02*
X13175000Y-12490000D01*
X13175000Y-12340000D02*
X13025000Y-12490000D01*
X13100000Y-12340000D02*
X13100000Y-12490000D01*
X13025000Y-12415000D02*
X13175000Y-12415000D01*
D11*
X13035000Y-12480000D02*
X13165000Y-12480000D01*
X13035000Y-12350000D02*
X13165000Y-12350000D01*
X13165000Y-12480000D02*
G75*
G03*
X13165000Y-12350000I0J65000D01*
G01*
X13035000Y-12350000D02*
G75*
G03*
X13035000Y-12480000I0J-65000D01*
G01*
D18*
X13025000Y-13460000D02*
X13175000Y-13610000D01*
X13175000Y-13460000D02*
X13025000Y-13610000D01*
X13100000Y-13460000D02*
X13100000Y-13610000D01*
X13025000Y-13535000D02*
X13175000Y-13535000D01*
D11*
X13035000Y-13600000D02*
X13165000Y-13600000D01*
X13035000Y-13470000D02*
X13165000Y-13470000D01*
X13165000Y-13600000D02*
G75*
G03*
X13165000Y-13470000I0J65000D01*
G01*
X13035000Y-13470000D02*
G75*
G03*
X13035000Y-13600000I0J-65000D01*
G01*
D18*
X20625000Y-10915000D02*
X20775000Y-11065000D01*
X20775000Y-10915000D02*
X20625000Y-11065000D01*
X20700000Y-10915000D02*
X20700000Y-11065000D01*
X20625000Y-10990000D02*
X20775000Y-10990000D01*
D11*
X20635000Y-11055000D02*
X20765000Y-11055000D01*
X20635000Y-10925000D02*
X20765000Y-10925000D01*
X20765000Y-11055000D02*
G75*
G03*
X20765000Y-10925000I0J65000D01*
G01*
X20635000Y-10925000D02*
G75*
G03*
X20635000Y-11055000I0J-65000D01*
G01*
D18*
X20625000Y-12035000D02*
X20775000Y-12185000D01*
X20775000Y-12035000D02*
X20625000Y-12185000D01*
X20700000Y-12035000D02*
X20700000Y-12185000D01*
X20625000Y-12110000D02*
X20775000Y-12110000D01*
D11*
X20635000Y-12175000D02*
X20765000Y-12175000D01*
X20635000Y-12045000D02*
X20765000Y-12045000D01*
X20765000Y-12175000D02*
G75*
G03*
X20765000Y-12045000I0J65000D01*
G01*
X20635000Y-12045000D02*
G75*
G03*
X20635000Y-12175000I0J-65000D01*
G01*
X6602619Y-14815476D02*
X6602619Y-14615476D01*
X6650238Y-14615476D01*
X6678809Y-14625000D01*
X6697857Y-14644048D01*
X6707381Y-14663095D01*
X6716905Y-14701190D01*
X6716905Y-14729762D01*
X6707381Y-14767857D01*
X6697857Y-14786905D01*
X6678809Y-14805952D01*
X6650238Y-14815476D01*
X6602619Y-14815476D01*
X6802619Y-14815476D02*
X6802619Y-14682143D01*
X6802619Y-14720238D02*
X6812143Y-14701190D01*
X6821667Y-14691667D01*
X6840714Y-14682143D01*
X6859762Y-14682143D01*
X6926428Y-14815476D02*
X6926428Y-14682143D01*
X6926428Y-14615476D02*
X6916905Y-14625000D01*
X6926428Y-14634524D01*
X6935952Y-14625000D01*
X6926428Y-14615476D01*
X6926428Y-14634524D01*
X7050238Y-14815476D02*
X7031190Y-14805952D01*
X7021667Y-14786905D01*
X7021667Y-14615476D01*
X7155000Y-14815476D02*
X7135952Y-14805952D01*
X7126428Y-14786905D01*
X7126428Y-14615476D01*
X7383571Y-14815476D02*
X7383571Y-14615476D01*
X7450238Y-14758333D01*
X7516905Y-14615476D01*
X7516905Y-14815476D01*
X7697857Y-14815476D02*
X7697857Y-14710714D01*
X7688333Y-14691667D01*
X7669286Y-14682143D01*
X7631190Y-14682143D01*
X7612143Y-14691667D01*
X7697857Y-14805952D02*
X7678809Y-14815476D01*
X7631190Y-14815476D01*
X7612143Y-14805952D01*
X7602619Y-14786905D01*
X7602619Y-14767857D01*
X7612143Y-14748809D01*
X7631190Y-14739286D01*
X7678809Y-14739286D01*
X7697857Y-14729762D01*
X7793095Y-14682143D02*
X7793095Y-14882143D01*
X7793095Y-14691667D02*
X7812143Y-14682143D01*
X7850238Y-14682143D01*
X7869286Y-14691667D01*
X7878809Y-14701190D01*
X7888333Y-14720238D01*
X7888333Y-14777381D01*
X7878809Y-14796428D01*
X7869286Y-14805952D01*
X7850238Y-14815476D01*
X7812143Y-14815476D01*
X7793095Y-14805952D01*
X7974048Y-14796428D02*
X7983571Y-14805952D01*
X7974048Y-14815476D01*
X7964524Y-14805952D01*
X7974048Y-14796428D01*
X7974048Y-14815476D01*
X7974048Y-14691667D02*
X7983571Y-14701190D01*
X7974048Y-14710714D01*
X7964524Y-14701190D01*
X7974048Y-14691667D01*
X7974048Y-14710714D01*
D12*
X6305000Y-15125000D02*
X6345000Y-15165000D01*
X6345000Y-15125000D02*
X6305000Y-15165000D01*
D11*
X6640714Y-15035476D02*
X6659762Y-15035476D01*
X6678809Y-15045000D01*
X6688333Y-15054524D01*
X6697857Y-15073571D01*
X6707381Y-15111667D01*
X6707381Y-15159286D01*
X6697857Y-15197381D01*
X6688333Y-15216428D01*
X6678809Y-15225952D01*
X6659762Y-15235476D01*
X6640714Y-15235476D01*
X6621667Y-15225952D01*
X6612143Y-15216428D01*
X6602619Y-15197381D01*
X6593095Y-15159286D01*
X6593095Y-15111667D01*
X6602619Y-15073571D01*
X6612143Y-15054524D01*
X6621667Y-15045000D01*
X6640714Y-15035476D01*
X6793095Y-15216428D02*
X6802619Y-15225952D01*
X6793095Y-15235476D01*
X6783571Y-15225952D01*
X6793095Y-15216428D01*
X6793095Y-15235476D01*
X6974048Y-15102143D02*
X6974048Y-15235476D01*
X6926428Y-15025952D02*
X6878809Y-15168809D01*
X7002619Y-15168809D01*
X7116905Y-15035476D02*
X7135952Y-15035476D01*
X7155000Y-15045000D01*
X7164524Y-15054524D01*
X7174048Y-15073571D01*
X7183571Y-15111667D01*
X7183571Y-15159286D01*
X7174048Y-15197381D01*
X7164524Y-15216428D01*
X7155000Y-15225952D01*
X7135952Y-15235476D01*
X7116905Y-15235476D01*
X7097857Y-15225952D01*
X7088333Y-15216428D01*
X7078809Y-15197381D01*
X7069286Y-15159286D01*
X7069286Y-15111667D01*
X7078809Y-15073571D01*
X7088333Y-15054524D01*
X7097857Y-15045000D01*
X7116905Y-15035476D01*
X7307381Y-15035476D02*
X7326428Y-15035476D01*
X7345476Y-15045000D01*
X7355000Y-15054524D01*
X7364524Y-15073571D01*
X7374048Y-15111667D01*
X7374048Y-15159286D01*
X7364524Y-15197381D01*
X7355000Y-15216428D01*
X7345476Y-15225952D01*
X7326428Y-15235476D01*
X7307381Y-15235476D01*
X7288333Y-15225952D01*
X7278809Y-15216428D01*
X7269286Y-15197381D01*
X7259762Y-15159286D01*
X7259762Y-15111667D01*
X7269286Y-15073571D01*
X7278809Y-15054524D01*
X7288333Y-15045000D01*
X7307381Y-15035476D01*
X7459762Y-15235476D02*
X7459762Y-15102143D01*
X7459762Y-15121190D02*
X7469286Y-15111667D01*
X7488333Y-15102143D01*
X7516905Y-15102143D01*
X7535952Y-15111667D01*
X7545476Y-15130714D01*
X7545476Y-15235476D01*
X7545476Y-15130714D02*
X7555000Y-15111667D01*
X7574048Y-15102143D01*
X7602619Y-15102143D01*
X7621667Y-15111667D01*
X7631190Y-15130714D01*
X7631190Y-15235476D01*
X7726428Y-15235476D02*
X7726428Y-15102143D01*
X7726428Y-15121190D02*
X7735952Y-15111667D01*
X7755000Y-15102143D01*
X7783571Y-15102143D01*
X7802619Y-15111667D01*
X7812143Y-15130714D01*
X7812143Y-15235476D01*
X7812143Y-15130714D02*
X7821667Y-15111667D01*
X7840714Y-15102143D01*
X7869286Y-15102143D01*
X7888333Y-15111667D01*
X7897857Y-15130714D01*
X7897857Y-15235476D01*
X8288333Y-15025952D02*
X8116905Y-15283095D01*
X8545476Y-15035476D02*
X8564524Y-15035476D01*
X8583571Y-15045000D01*
X8593095Y-15054524D01*
X8602619Y-15073571D01*
X8612143Y-15111667D01*
X8612143Y-15159286D01*
X8602619Y-15197381D01*
X8593095Y-15216428D01*
X8583571Y-15225952D01*
X8564524Y-15235476D01*
X8545476Y-15235476D01*
X8526429Y-15225952D01*
X8516905Y-15216428D01*
X8507381Y-15197381D01*
X8497857Y-15159286D01*
X8497857Y-15111667D01*
X8507381Y-15073571D01*
X8516905Y-15054524D01*
X8526429Y-15045000D01*
X8545476Y-15035476D01*
X8697857Y-15216428D02*
X8707381Y-15225952D01*
X8697857Y-15235476D01*
X8688333Y-15225952D01*
X8697857Y-15216428D01*
X8697857Y-15235476D01*
X8831190Y-15035476D02*
X8850238Y-15035476D01*
X8869286Y-15045000D01*
X8878810Y-15054524D01*
X8888333Y-15073571D01*
X8897857Y-15111667D01*
X8897857Y-15159286D01*
X8888333Y-15197381D01*
X8878810Y-15216428D01*
X8869286Y-15225952D01*
X8850238Y-15235476D01*
X8831190Y-15235476D01*
X8812143Y-15225952D01*
X8802619Y-15216428D01*
X8793095Y-15197381D01*
X8783571Y-15159286D01*
X8783571Y-15111667D01*
X8793095Y-15073571D01*
X8802619Y-15054524D01*
X8812143Y-15045000D01*
X8831190Y-15035476D01*
X9088333Y-15235476D02*
X8974048Y-15235476D01*
X9031190Y-15235476D02*
X9031190Y-15035476D01*
X9012143Y-15064048D01*
X8993095Y-15083095D01*
X8974048Y-15092619D01*
X9269286Y-15035476D02*
X9174048Y-15035476D01*
X9164524Y-15130714D01*
X9174048Y-15121190D01*
X9193095Y-15111667D01*
X9240714Y-15111667D01*
X9259762Y-15121190D01*
X9269286Y-15130714D01*
X9278810Y-15149762D01*
X9278810Y-15197381D01*
X9269286Y-15216428D01*
X9259762Y-15225952D01*
X9240714Y-15235476D01*
X9193095Y-15235476D01*
X9174048Y-15225952D01*
X9164524Y-15216428D01*
X9345476Y-15035476D02*
X9478810Y-15035476D01*
X9393095Y-15235476D01*
X9545476Y-15035476D02*
X9545476Y-15073571D01*
X9621667Y-15035476D02*
X9621667Y-15073571D01*
X9916905Y-15311667D02*
X9907381Y-15302143D01*
X9888333Y-15273571D01*
X9878810Y-15254524D01*
X9869286Y-15225952D01*
X9859762Y-15178333D01*
X9859762Y-15140238D01*
X9869286Y-15092619D01*
X9878810Y-15064048D01*
X9888333Y-15045000D01*
X9907381Y-15016428D01*
X9916905Y-15006905D01*
X9974048Y-15035476D02*
X10097857Y-15035476D01*
X10031190Y-15111667D01*
X10059762Y-15111667D01*
X10078810Y-15121190D01*
X10088333Y-15130714D01*
X10097857Y-15149762D01*
X10097857Y-15197381D01*
X10088333Y-15216428D01*
X10078810Y-15225952D01*
X10059762Y-15235476D01*
X10002619Y-15235476D01*
X9983571Y-15225952D01*
X9974048Y-15216428D01*
X10174048Y-15054524D02*
X10183571Y-15045000D01*
X10202619Y-15035476D01*
X10250238Y-15035476D01*
X10269286Y-15045000D01*
X10278810Y-15054524D01*
X10288333Y-15073571D01*
X10288333Y-15092619D01*
X10278810Y-15121190D01*
X10164524Y-15235476D01*
X10288333Y-15235476D01*
X10526429Y-15235476D02*
X10526429Y-15035476D01*
X10612143Y-15235476D02*
X10612143Y-15130714D01*
X10602619Y-15111667D01*
X10583571Y-15102143D01*
X10555000Y-15102143D01*
X10535952Y-15111667D01*
X10526429Y-15121190D01*
X10735952Y-15235476D02*
X10716905Y-15225952D01*
X10707381Y-15216428D01*
X10697857Y-15197381D01*
X10697857Y-15140238D01*
X10707381Y-15121190D01*
X10716905Y-15111667D01*
X10735952Y-15102143D01*
X10764524Y-15102143D01*
X10783571Y-15111667D01*
X10793095Y-15121190D01*
X10802619Y-15140238D01*
X10802619Y-15197381D01*
X10793095Y-15216428D01*
X10783571Y-15225952D01*
X10764524Y-15235476D01*
X10735952Y-15235476D01*
X10916905Y-15235476D02*
X10897857Y-15225952D01*
X10888333Y-15206905D01*
X10888333Y-15035476D01*
X11069286Y-15225952D02*
X11050238Y-15235476D01*
X11012143Y-15235476D01*
X10993095Y-15225952D01*
X10983571Y-15206905D01*
X10983571Y-15130714D01*
X10993095Y-15111667D01*
X11012143Y-15102143D01*
X11050238Y-15102143D01*
X11069286Y-15111667D01*
X11078810Y-15130714D01*
X11078810Y-15149762D01*
X10983571Y-15168809D01*
X11155000Y-15225952D02*
X11174048Y-15235476D01*
X11212143Y-15235476D01*
X11231190Y-15225952D01*
X11240714Y-15206905D01*
X11240714Y-15197381D01*
X11231190Y-15178333D01*
X11212143Y-15168809D01*
X11183571Y-15168809D01*
X11164524Y-15159286D01*
X11155000Y-15140238D01*
X11155000Y-15130714D01*
X11164524Y-15111667D01*
X11183571Y-15102143D01*
X11212143Y-15102143D01*
X11231190Y-15111667D01*
X11307381Y-15311667D02*
X11316905Y-15302143D01*
X11335952Y-15273571D01*
X11345476Y-15254524D01*
X11355000Y-15225952D01*
X11364524Y-15178333D01*
X11364524Y-15140238D01*
X11355000Y-15092619D01*
X11345476Y-15064048D01*
X11335952Y-15045000D01*
X11316905Y-15016428D01*
X11307381Y-15006905D01*
D13*
X6345000Y-15409000D02*
G75*
G03*
X6345000Y-15409000I-40000J0D01*
G01*
D11*
X6640714Y-15299476D02*
X6659762Y-15299476D01*
X6678809Y-15309000D01*
X6688333Y-15318524D01*
X6697857Y-15337571D01*
X6707381Y-15375667D01*
X6707381Y-15423286D01*
X6697857Y-15461381D01*
X6688333Y-15480428D01*
X6678809Y-15489952D01*
X6659762Y-15499476D01*
X6640714Y-15499476D01*
X6621667Y-15489952D01*
X6612143Y-15480428D01*
X6602619Y-15461381D01*
X6593095Y-15423286D01*
X6593095Y-15375667D01*
X6602619Y-15337571D01*
X6612143Y-15318524D01*
X6621667Y-15309000D01*
X6640714Y-15299476D01*
X6793095Y-15480428D02*
X6802619Y-15489952D01*
X6793095Y-15499476D01*
X6783571Y-15489952D01*
X6793095Y-15480428D01*
X6793095Y-15499476D01*
X6916905Y-15385190D02*
X6897857Y-15375667D01*
X6888333Y-15366143D01*
X6878809Y-15347095D01*
X6878809Y-15337571D01*
X6888333Y-15318524D01*
X6897857Y-15309000D01*
X6916905Y-15299476D01*
X6955000Y-15299476D01*
X6974048Y-15309000D01*
X6983571Y-15318524D01*
X6993095Y-15337571D01*
X6993095Y-15347095D01*
X6983571Y-15366143D01*
X6974048Y-15375667D01*
X6955000Y-15385190D01*
X6916905Y-15385190D01*
X6897857Y-15394714D01*
X6888333Y-15404238D01*
X6878809Y-15423286D01*
X6878809Y-15461381D01*
X6888333Y-15480428D01*
X6897857Y-15489952D01*
X6916905Y-15499476D01*
X6955000Y-15499476D01*
X6974048Y-15489952D01*
X6983571Y-15480428D01*
X6993095Y-15461381D01*
X6993095Y-15423286D01*
X6983571Y-15404238D01*
X6974048Y-15394714D01*
X6955000Y-15385190D01*
X7116905Y-15299476D02*
X7135952Y-15299476D01*
X7155000Y-15309000D01*
X7164524Y-15318524D01*
X7174048Y-15337571D01*
X7183571Y-15375667D01*
X7183571Y-15423286D01*
X7174048Y-15461381D01*
X7164524Y-15480428D01*
X7155000Y-15489952D01*
X7135952Y-15499476D01*
X7116905Y-15499476D01*
X7097857Y-15489952D01*
X7088333Y-15480428D01*
X7078809Y-15461381D01*
X7069286Y-15423286D01*
X7069286Y-15375667D01*
X7078809Y-15337571D01*
X7088333Y-15318524D01*
X7097857Y-15309000D01*
X7116905Y-15299476D01*
X7307381Y-15299476D02*
X7326428Y-15299476D01*
X7345476Y-15309000D01*
X7355000Y-15318524D01*
X7364524Y-15337571D01*
X7374048Y-15375667D01*
X7374048Y-15423286D01*
X7364524Y-15461381D01*
X7355000Y-15480428D01*
X7345476Y-15489952D01*
X7326428Y-15499476D01*
X7307381Y-15499476D01*
X7288333Y-15489952D01*
X7278809Y-15480428D01*
X7269286Y-15461381D01*
X7259762Y-15423286D01*
X7259762Y-15375667D01*
X7269286Y-15337571D01*
X7278809Y-15318524D01*
X7288333Y-15309000D01*
X7307381Y-15299476D01*
X7459762Y-15499476D02*
X7459762Y-15366143D01*
X7459762Y-15385190D02*
X7469286Y-15375667D01*
X7488333Y-15366143D01*
X7516905Y-15366143D01*
X7535952Y-15375667D01*
X7545476Y-15394714D01*
X7545476Y-15499476D01*
X7545476Y-15394714D02*
X7555000Y-15375667D01*
X7574048Y-15366143D01*
X7602619Y-15366143D01*
X7621667Y-15375667D01*
X7631190Y-15394714D01*
X7631190Y-15499476D01*
X7726428Y-15499476D02*
X7726428Y-15366143D01*
X7726428Y-15385190D02*
X7735952Y-15375667D01*
X7755000Y-15366143D01*
X7783571Y-15366143D01*
X7802619Y-15375667D01*
X7812143Y-15394714D01*
X7812143Y-15499476D01*
X7812143Y-15394714D02*
X7821667Y-15375667D01*
X7840714Y-15366143D01*
X7869286Y-15366143D01*
X7888333Y-15375667D01*
X7897857Y-15394714D01*
X7897857Y-15499476D01*
X8288333Y-15289952D02*
X8116905Y-15547095D01*
X8545476Y-15299476D02*
X8564524Y-15299476D01*
X8583571Y-15309000D01*
X8593095Y-15318524D01*
X8602619Y-15337571D01*
X8612143Y-15375667D01*
X8612143Y-15423286D01*
X8602619Y-15461381D01*
X8593095Y-15480428D01*
X8583571Y-15489952D01*
X8564524Y-15499476D01*
X8545476Y-15499476D01*
X8526429Y-15489952D01*
X8516905Y-15480428D01*
X8507381Y-15461381D01*
X8497857Y-15423286D01*
X8497857Y-15375667D01*
X8507381Y-15337571D01*
X8516905Y-15318524D01*
X8526429Y-15309000D01*
X8545476Y-15299476D01*
X8697857Y-15480428D02*
X8707381Y-15489952D01*
X8697857Y-15499476D01*
X8688333Y-15489952D01*
X8697857Y-15480428D01*
X8697857Y-15499476D01*
X8831190Y-15299476D02*
X8850238Y-15299476D01*
X8869286Y-15309000D01*
X8878810Y-15318524D01*
X8888333Y-15337571D01*
X8897857Y-15375667D01*
X8897857Y-15423286D01*
X8888333Y-15461381D01*
X8878810Y-15480428D01*
X8869286Y-15489952D01*
X8850238Y-15499476D01*
X8831190Y-15499476D01*
X8812143Y-15489952D01*
X8802619Y-15480428D01*
X8793095Y-15461381D01*
X8783571Y-15423286D01*
X8783571Y-15375667D01*
X8793095Y-15337571D01*
X8802619Y-15318524D01*
X8812143Y-15309000D01*
X8831190Y-15299476D01*
X8964524Y-15299476D02*
X9088333Y-15299476D01*
X9021667Y-15375667D01*
X9050238Y-15375667D01*
X9069286Y-15385190D01*
X9078810Y-15394714D01*
X9088333Y-15413762D01*
X9088333Y-15461381D01*
X9078810Y-15480428D01*
X9069286Y-15489952D01*
X9050238Y-15499476D01*
X8993095Y-15499476D01*
X8974048Y-15489952D01*
X8964524Y-15480428D01*
X9278810Y-15499476D02*
X9164524Y-15499476D01*
X9221667Y-15499476D02*
X9221667Y-15299476D01*
X9202619Y-15328048D01*
X9183571Y-15347095D01*
X9164524Y-15356619D01*
X9459762Y-15299476D02*
X9364524Y-15299476D01*
X9355000Y-15394714D01*
X9364524Y-15385190D01*
X9383571Y-15375667D01*
X9431190Y-15375667D01*
X9450238Y-15385190D01*
X9459762Y-15394714D01*
X9469286Y-15413762D01*
X9469286Y-15461381D01*
X9459762Y-15480428D01*
X9450238Y-15489952D01*
X9431190Y-15499476D01*
X9383571Y-15499476D01*
X9364524Y-15489952D01*
X9355000Y-15480428D01*
X9545476Y-15299476D02*
X9545476Y-15337571D01*
X9621667Y-15299476D02*
X9621667Y-15337571D01*
X9916905Y-15575667D02*
X9907381Y-15566143D01*
X9888333Y-15537571D01*
X9878810Y-15518524D01*
X9869286Y-15489952D01*
X9859762Y-15442333D01*
X9859762Y-15404238D01*
X9869286Y-15356619D01*
X9878810Y-15328048D01*
X9888333Y-15309000D01*
X9907381Y-15280428D01*
X9916905Y-15270905D01*
X10078810Y-15366143D02*
X10078810Y-15499476D01*
X10031190Y-15289952D02*
X9983571Y-15432809D01*
X10107381Y-15432809D01*
X10335952Y-15499476D02*
X10335952Y-15299476D01*
X10421667Y-15499476D02*
X10421667Y-15394714D01*
X10412143Y-15375667D01*
X10393095Y-15366143D01*
X10364524Y-15366143D01*
X10345476Y-15375667D01*
X10335952Y-15385190D01*
X10545476Y-15499476D02*
X10526429Y-15489952D01*
X10516905Y-15480428D01*
X10507381Y-15461381D01*
X10507381Y-15404238D01*
X10516905Y-15385190D01*
X10526429Y-15375667D01*
X10545476Y-15366143D01*
X10574048Y-15366143D01*
X10593095Y-15375667D01*
X10602619Y-15385190D01*
X10612143Y-15404238D01*
X10612143Y-15461381D01*
X10602619Y-15480428D01*
X10593095Y-15489952D01*
X10574048Y-15499476D01*
X10545476Y-15499476D01*
X10726429Y-15499476D02*
X10707381Y-15489952D01*
X10697857Y-15470905D01*
X10697857Y-15299476D01*
X10878810Y-15489952D02*
X10859762Y-15499476D01*
X10821667Y-15499476D01*
X10802619Y-15489952D01*
X10793095Y-15470905D01*
X10793095Y-15394714D01*
X10802619Y-15375667D01*
X10821667Y-15366143D01*
X10859762Y-15366143D01*
X10878810Y-15375667D01*
X10888333Y-15394714D01*
X10888333Y-15413762D01*
X10793095Y-15432809D01*
X10964524Y-15489952D02*
X10983571Y-15499476D01*
X11021667Y-15499476D01*
X11040714Y-15489952D01*
X11050238Y-15470905D01*
X11050238Y-15461381D01*
X11040714Y-15442333D01*
X11021667Y-15432809D01*
X10993095Y-15432809D01*
X10974048Y-15423286D01*
X10964524Y-15404238D01*
X10964524Y-15394714D01*
X10974048Y-15375667D01*
X10993095Y-15366143D01*
X11021667Y-15366143D01*
X11040714Y-15375667D01*
X11288333Y-15423286D02*
X11440714Y-15423286D01*
X11364524Y-15499476D02*
X11364524Y-15347095D01*
X11793095Y-15499476D02*
X11678809Y-15499476D01*
X11735952Y-15499476D02*
X11735952Y-15299476D01*
X11716905Y-15328048D01*
X11697857Y-15347095D01*
X11678809Y-15356619D01*
X11964524Y-15366143D02*
X11964524Y-15499476D01*
X11916905Y-15289952D02*
X11869286Y-15432809D01*
X11993095Y-15432809D01*
X12097857Y-15385190D02*
X12078809Y-15375667D01*
X12069286Y-15366143D01*
X12059762Y-15347095D01*
X12059762Y-15337571D01*
X12069286Y-15318524D01*
X12078809Y-15309000D01*
X12097857Y-15299476D01*
X12135952Y-15299476D01*
X12155000Y-15309000D01*
X12164524Y-15318524D01*
X12174048Y-15337571D01*
X12174048Y-15347095D01*
X12164524Y-15366143D01*
X12155000Y-15375667D01*
X12135952Y-15385190D01*
X12097857Y-15385190D01*
X12078809Y-15394714D01*
X12069286Y-15404238D01*
X12059762Y-15423286D01*
X12059762Y-15461381D01*
X12069286Y-15480428D01*
X12078809Y-15489952D01*
X12097857Y-15499476D01*
X12135952Y-15499476D01*
X12155000Y-15489952D01*
X12164524Y-15480428D01*
X12174048Y-15461381D01*
X12174048Y-15423286D01*
X12164524Y-15404238D01*
X12155000Y-15394714D01*
X12135952Y-15385190D01*
X12402619Y-15489952D02*
X12421667Y-15499476D01*
X12459762Y-15499476D01*
X12478809Y-15489952D01*
X12488333Y-15470905D01*
X12488333Y-15461381D01*
X12478809Y-15442333D01*
X12459762Y-15432809D01*
X12431190Y-15432809D01*
X12412143Y-15423286D01*
X12402619Y-15404238D01*
X12402619Y-15394714D01*
X12412143Y-15375667D01*
X12431190Y-15366143D01*
X12459762Y-15366143D01*
X12478809Y-15375667D01*
X12602619Y-15499476D02*
X12583571Y-15489952D01*
X12574048Y-15470905D01*
X12574048Y-15299476D01*
X12707381Y-15499476D02*
X12688333Y-15489952D01*
X12678809Y-15480428D01*
X12669286Y-15461381D01*
X12669286Y-15404238D01*
X12678809Y-15385190D01*
X12688333Y-15375667D01*
X12707381Y-15366143D01*
X12735952Y-15366143D01*
X12755000Y-15375667D01*
X12764524Y-15385190D01*
X12774048Y-15404238D01*
X12774048Y-15461381D01*
X12764524Y-15480428D01*
X12755000Y-15489952D01*
X12735952Y-15499476D01*
X12707381Y-15499476D01*
X12831190Y-15366143D02*
X12907381Y-15366143D01*
X12859762Y-15299476D02*
X12859762Y-15470905D01*
X12869286Y-15489952D01*
X12888333Y-15499476D01*
X12907381Y-15499476D01*
X12964524Y-15489952D02*
X12983571Y-15499476D01*
X13021667Y-15499476D01*
X13040714Y-15489952D01*
X13050238Y-15470905D01*
X13050238Y-15461381D01*
X13040714Y-15442333D01*
X13021667Y-15432809D01*
X12993095Y-15432809D01*
X12974048Y-15423286D01*
X12964524Y-15404238D01*
X12964524Y-15394714D01*
X12974048Y-15375667D01*
X12993095Y-15366143D01*
X13021667Y-15366143D01*
X13040714Y-15375667D01*
X13116905Y-15575667D02*
X13126428Y-15566143D01*
X13145476Y-15537571D01*
X13155000Y-15518524D01*
X13164524Y-15489952D01*
X13174048Y-15442333D01*
X13174048Y-15404238D01*
X13164524Y-15356619D01*
X13155000Y-15328048D01*
X13145476Y-15309000D01*
X13126428Y-15280428D01*
X13116905Y-15270905D01*
D14*
X6304360Y-15632360D02*
X6304360Y-15713640D01*
X6263720Y-15673000D02*
X6345000Y-15673000D01*
D11*
X6640714Y-15563476D02*
X6659762Y-15563476D01*
X6678809Y-15573000D01*
X6688333Y-15582524D01*
X6697857Y-15601571D01*
X6707381Y-15639667D01*
X6707381Y-15687286D01*
X6697857Y-15725381D01*
X6688333Y-15744428D01*
X6678809Y-15753952D01*
X6659762Y-15763476D01*
X6640714Y-15763476D01*
X6621667Y-15753952D01*
X6612143Y-15744428D01*
X6602619Y-15725381D01*
X6593095Y-15687286D01*
X6593095Y-15639667D01*
X6602619Y-15601571D01*
X6612143Y-15582524D01*
X6621667Y-15573000D01*
X6640714Y-15563476D01*
X6793095Y-15744428D02*
X6802619Y-15753952D01*
X6793095Y-15763476D01*
X6783571Y-15753952D01*
X6793095Y-15744428D01*
X6793095Y-15763476D01*
X6916905Y-15649190D02*
X6897857Y-15639667D01*
X6888333Y-15630143D01*
X6878809Y-15611095D01*
X6878809Y-15601571D01*
X6888333Y-15582524D01*
X6897857Y-15573000D01*
X6916905Y-15563476D01*
X6955000Y-15563476D01*
X6974048Y-15573000D01*
X6983571Y-15582524D01*
X6993095Y-15601571D01*
X6993095Y-15611095D01*
X6983571Y-15630143D01*
X6974048Y-15639667D01*
X6955000Y-15649190D01*
X6916905Y-15649190D01*
X6897857Y-15658714D01*
X6888333Y-15668238D01*
X6878809Y-15687286D01*
X6878809Y-15725381D01*
X6888333Y-15744428D01*
X6897857Y-15753952D01*
X6916905Y-15763476D01*
X6955000Y-15763476D01*
X6974048Y-15753952D01*
X6983571Y-15744428D01*
X6993095Y-15725381D01*
X6993095Y-15687286D01*
X6983571Y-15668238D01*
X6974048Y-15658714D01*
X6955000Y-15649190D01*
X7183571Y-15763476D02*
X7069286Y-15763476D01*
X7126428Y-15763476D02*
X7126428Y-15563476D01*
X7107381Y-15592048D01*
X7088333Y-15611095D01*
X7069286Y-15620619D01*
X7250238Y-15563476D02*
X7374048Y-15563476D01*
X7307381Y-15639667D01*
X7335952Y-15639667D01*
X7355000Y-15649190D01*
X7364524Y-15658714D01*
X7374048Y-15677762D01*
X7374048Y-15725381D01*
X7364524Y-15744428D01*
X7355000Y-15753952D01*
X7335952Y-15763476D01*
X7278809Y-15763476D01*
X7259762Y-15753952D01*
X7250238Y-15744428D01*
X7459762Y-15763476D02*
X7459762Y-15630143D01*
X7459762Y-15649190D02*
X7469286Y-15639667D01*
X7488333Y-15630143D01*
X7516905Y-15630143D01*
X7535952Y-15639667D01*
X7545476Y-15658714D01*
X7545476Y-15763476D01*
X7545476Y-15658714D02*
X7555000Y-15639667D01*
X7574048Y-15630143D01*
X7602619Y-15630143D01*
X7621667Y-15639667D01*
X7631190Y-15658714D01*
X7631190Y-15763476D01*
X7726428Y-15763476D02*
X7726428Y-15630143D01*
X7726428Y-15649190D02*
X7735952Y-15639667D01*
X7755000Y-15630143D01*
X7783571Y-15630143D01*
X7802619Y-15639667D01*
X7812143Y-15658714D01*
X7812143Y-15763476D01*
X7812143Y-15658714D02*
X7821667Y-15639667D01*
X7840714Y-15630143D01*
X7869286Y-15630143D01*
X7888333Y-15639667D01*
X7897857Y-15658714D01*
X7897857Y-15763476D01*
X8288333Y-15553952D02*
X8116905Y-15811095D01*
X8545476Y-15563476D02*
X8564524Y-15563476D01*
X8583571Y-15573000D01*
X8593095Y-15582524D01*
X8602619Y-15601571D01*
X8612143Y-15639667D01*
X8612143Y-15687286D01*
X8602619Y-15725381D01*
X8593095Y-15744428D01*
X8583571Y-15753952D01*
X8564524Y-15763476D01*
X8545476Y-15763476D01*
X8526429Y-15753952D01*
X8516905Y-15744428D01*
X8507381Y-15725381D01*
X8497857Y-15687286D01*
X8497857Y-15639667D01*
X8507381Y-15601571D01*
X8516905Y-15582524D01*
X8526429Y-15573000D01*
X8545476Y-15563476D01*
X8697857Y-15744428D02*
X8707381Y-15753952D01*
X8697857Y-15763476D01*
X8688333Y-15753952D01*
X8697857Y-15744428D01*
X8697857Y-15763476D01*
X8831190Y-15563476D02*
X8850238Y-15563476D01*
X8869286Y-15573000D01*
X8878810Y-15582524D01*
X8888333Y-15601571D01*
X8897857Y-15639667D01*
X8897857Y-15687286D01*
X8888333Y-15725381D01*
X8878810Y-15744428D01*
X8869286Y-15753952D01*
X8850238Y-15763476D01*
X8831190Y-15763476D01*
X8812143Y-15753952D01*
X8802619Y-15744428D01*
X8793095Y-15725381D01*
X8783571Y-15687286D01*
X8783571Y-15639667D01*
X8793095Y-15601571D01*
X8802619Y-15582524D01*
X8812143Y-15573000D01*
X8831190Y-15563476D01*
X8964524Y-15563476D02*
X9088333Y-15563476D01*
X9021667Y-15639667D01*
X9050238Y-15639667D01*
X9069286Y-15649190D01*
X9078810Y-15658714D01*
X9088333Y-15677762D01*
X9088333Y-15725381D01*
X9078810Y-15744428D01*
X9069286Y-15753952D01*
X9050238Y-15763476D01*
X8993095Y-15763476D01*
X8974048Y-15753952D01*
X8964524Y-15744428D01*
X9164524Y-15582524D02*
X9174048Y-15573000D01*
X9193095Y-15563476D01*
X9240714Y-15563476D01*
X9259762Y-15573000D01*
X9269286Y-15582524D01*
X9278810Y-15601571D01*
X9278810Y-15620619D01*
X9269286Y-15649190D01*
X9155000Y-15763476D01*
X9278810Y-15763476D01*
X9402619Y-15563476D02*
X9421667Y-15563476D01*
X9440714Y-15573000D01*
X9450238Y-15582524D01*
X9459762Y-15601571D01*
X9469286Y-15639667D01*
X9469286Y-15687286D01*
X9459762Y-15725381D01*
X9450238Y-15744428D01*
X9440714Y-15753952D01*
X9421667Y-15763476D01*
X9402619Y-15763476D01*
X9383571Y-15753952D01*
X9374048Y-15744428D01*
X9364524Y-15725381D01*
X9355000Y-15687286D01*
X9355000Y-15639667D01*
X9364524Y-15601571D01*
X9374048Y-15582524D01*
X9383571Y-15573000D01*
X9402619Y-15563476D01*
X9545476Y-15563476D02*
X9545476Y-15601571D01*
X9621667Y-15563476D02*
X9621667Y-15601571D01*
X9916905Y-15839667D02*
X9907381Y-15830143D01*
X9888333Y-15801571D01*
X9878810Y-15782524D01*
X9869286Y-15753952D01*
X9859762Y-15706333D01*
X9859762Y-15668238D01*
X9869286Y-15620619D01*
X9878810Y-15592048D01*
X9888333Y-15573000D01*
X9907381Y-15544428D01*
X9916905Y-15534905D01*
X10078810Y-15630143D02*
X10078810Y-15763476D01*
X10031190Y-15553952D02*
X9983571Y-15696809D01*
X10107381Y-15696809D01*
X10335952Y-15763476D02*
X10335952Y-15563476D01*
X10421667Y-15763476D02*
X10421667Y-15658714D01*
X10412143Y-15639667D01*
X10393095Y-15630143D01*
X10364524Y-15630143D01*
X10345476Y-15639667D01*
X10335952Y-15649190D01*
X10545476Y-15763476D02*
X10526429Y-15753952D01*
X10516905Y-15744428D01*
X10507381Y-15725381D01*
X10507381Y-15668238D01*
X10516905Y-15649190D01*
X10526429Y-15639667D01*
X10545476Y-15630143D01*
X10574048Y-15630143D01*
X10593095Y-15639667D01*
X10602619Y-15649190D01*
X10612143Y-15668238D01*
X10612143Y-15725381D01*
X10602619Y-15744428D01*
X10593095Y-15753952D01*
X10574048Y-15763476D01*
X10545476Y-15763476D01*
X10726429Y-15763476D02*
X10707381Y-15753952D01*
X10697857Y-15734905D01*
X10697857Y-15563476D01*
X10878810Y-15753952D02*
X10859762Y-15763476D01*
X10821667Y-15763476D01*
X10802619Y-15753952D01*
X10793095Y-15734905D01*
X10793095Y-15658714D01*
X10802619Y-15639667D01*
X10821667Y-15630143D01*
X10859762Y-15630143D01*
X10878810Y-15639667D01*
X10888333Y-15658714D01*
X10888333Y-15677762D01*
X10793095Y-15696809D01*
X10964524Y-15753952D02*
X10983571Y-15763476D01*
X11021667Y-15763476D01*
X11040714Y-15753952D01*
X11050238Y-15734905D01*
X11050238Y-15725381D01*
X11040714Y-15706333D01*
X11021667Y-15696809D01*
X10993095Y-15696809D01*
X10974048Y-15687286D01*
X10964524Y-15668238D01*
X10964524Y-15658714D01*
X10974048Y-15639667D01*
X10993095Y-15630143D01*
X11021667Y-15630143D01*
X11040714Y-15639667D01*
X11116905Y-15839667D02*
X11126429Y-15830143D01*
X11145476Y-15801571D01*
X11155000Y-15782524D01*
X11164524Y-15753952D01*
X11174048Y-15706333D01*
X11174048Y-15668238D01*
X11164524Y-15620619D01*
X11155000Y-15592048D01*
X11145476Y-15573000D01*
X11126429Y-15544428D01*
X11116905Y-15534905D01*
D15*
X6331820Y-15968820D02*
X6331820Y-15905180D01*
X6268180Y-15905180D01*
X6268180Y-15968820D01*
X6331820Y-15968820D01*
D11*
X6640714Y-15827476D02*
X6659762Y-15827476D01*
X6678809Y-15837000D01*
X6688333Y-15846524D01*
X6697857Y-15865571D01*
X6707381Y-15903667D01*
X6707381Y-15951286D01*
X6697857Y-15989381D01*
X6688333Y-16008428D01*
X6678809Y-16017952D01*
X6659762Y-16027476D01*
X6640714Y-16027476D01*
X6621667Y-16017952D01*
X6612143Y-16008428D01*
X6602619Y-15989381D01*
X6593095Y-15951286D01*
X6593095Y-15903667D01*
X6602619Y-15865571D01*
X6612143Y-15846524D01*
X6621667Y-15837000D01*
X6640714Y-15827476D01*
X6793095Y-16008428D02*
X6802619Y-16017952D01*
X6793095Y-16027476D01*
X6783571Y-16017952D01*
X6793095Y-16008428D01*
X6793095Y-16027476D01*
X6897857Y-16027476D02*
X6935952Y-16027476D01*
X6955000Y-16017952D01*
X6964524Y-16008428D01*
X6983571Y-15979857D01*
X6993095Y-15941762D01*
X6993095Y-15865571D01*
X6983571Y-15846524D01*
X6974048Y-15837000D01*
X6955000Y-15827476D01*
X6916905Y-15827476D01*
X6897857Y-15837000D01*
X6888333Y-15846524D01*
X6878809Y-15865571D01*
X6878809Y-15913190D01*
X6888333Y-15932238D01*
X6897857Y-15941762D01*
X6916905Y-15951286D01*
X6955000Y-15951286D01*
X6974048Y-15941762D01*
X6983571Y-15932238D01*
X6993095Y-15913190D01*
X7116905Y-15827476D02*
X7135952Y-15827476D01*
X7155000Y-15837000D01*
X7164524Y-15846524D01*
X7174048Y-15865571D01*
X7183571Y-15903667D01*
X7183571Y-15951286D01*
X7174048Y-15989381D01*
X7164524Y-16008428D01*
X7155000Y-16017952D01*
X7135952Y-16027476D01*
X7116905Y-16027476D01*
X7097857Y-16017952D01*
X7088333Y-16008428D01*
X7078809Y-15989381D01*
X7069286Y-15951286D01*
X7069286Y-15903667D01*
X7078809Y-15865571D01*
X7088333Y-15846524D01*
X7097857Y-15837000D01*
X7116905Y-15827476D01*
X7307381Y-15827476D02*
X7326428Y-15827476D01*
X7345476Y-15837000D01*
X7355000Y-15846524D01*
X7364524Y-15865571D01*
X7374048Y-15903667D01*
X7374048Y-15951286D01*
X7364524Y-15989381D01*
X7355000Y-16008428D01*
X7345476Y-16017952D01*
X7326428Y-16027476D01*
X7307381Y-16027476D01*
X7288333Y-16017952D01*
X7278809Y-16008428D01*
X7269286Y-15989381D01*
X7259762Y-15951286D01*
X7259762Y-15903667D01*
X7269286Y-15865571D01*
X7278809Y-15846524D01*
X7288333Y-15837000D01*
X7307381Y-15827476D01*
X7459762Y-16027476D02*
X7459762Y-15894143D01*
X7459762Y-15913190D02*
X7469286Y-15903667D01*
X7488333Y-15894143D01*
X7516905Y-15894143D01*
X7535952Y-15903667D01*
X7545476Y-15922714D01*
X7545476Y-16027476D01*
X7545476Y-15922714D02*
X7555000Y-15903667D01*
X7574048Y-15894143D01*
X7602619Y-15894143D01*
X7621667Y-15903667D01*
X7631190Y-15922714D01*
X7631190Y-16027476D01*
X7726428Y-16027476D02*
X7726428Y-15894143D01*
X7726428Y-15913190D02*
X7735952Y-15903667D01*
X7755000Y-15894143D01*
X7783571Y-15894143D01*
X7802619Y-15903667D01*
X7812143Y-15922714D01*
X7812143Y-16027476D01*
X7812143Y-15922714D02*
X7821667Y-15903667D01*
X7840714Y-15894143D01*
X7869286Y-15894143D01*
X7888333Y-15903667D01*
X7897857Y-15922714D01*
X7897857Y-16027476D01*
X8288333Y-15817952D02*
X8116905Y-16075095D01*
X8545476Y-15827476D02*
X8564524Y-15827476D01*
X8583571Y-15837000D01*
X8593095Y-15846524D01*
X8602619Y-15865571D01*
X8612143Y-15903667D01*
X8612143Y-15951286D01*
X8602619Y-15989381D01*
X8593095Y-16008428D01*
X8583571Y-16017952D01*
X8564524Y-16027476D01*
X8545476Y-16027476D01*
X8526429Y-16017952D01*
X8516905Y-16008428D01*
X8507381Y-15989381D01*
X8497857Y-15951286D01*
X8497857Y-15903667D01*
X8507381Y-15865571D01*
X8516905Y-15846524D01*
X8526429Y-15837000D01*
X8545476Y-15827476D01*
X8697857Y-16008428D02*
X8707381Y-16017952D01*
X8697857Y-16027476D01*
X8688333Y-16017952D01*
X8697857Y-16008428D01*
X8697857Y-16027476D01*
X8831190Y-15827476D02*
X8850238Y-15827476D01*
X8869286Y-15837000D01*
X8878810Y-15846524D01*
X8888333Y-15865571D01*
X8897857Y-15903667D01*
X8897857Y-15951286D01*
X8888333Y-15989381D01*
X8878810Y-16008428D01*
X8869286Y-16017952D01*
X8850238Y-16027476D01*
X8831190Y-16027476D01*
X8812143Y-16017952D01*
X8802619Y-16008428D01*
X8793095Y-15989381D01*
X8783571Y-15951286D01*
X8783571Y-15903667D01*
X8793095Y-15865571D01*
X8802619Y-15846524D01*
X8812143Y-15837000D01*
X8831190Y-15827476D01*
X8964524Y-15827476D02*
X9088333Y-15827476D01*
X9021667Y-15903667D01*
X9050238Y-15903667D01*
X9069286Y-15913190D01*
X9078810Y-15922714D01*
X9088333Y-15941762D01*
X9088333Y-15989381D01*
X9078810Y-16008428D01*
X9069286Y-16017952D01*
X9050238Y-16027476D01*
X8993095Y-16027476D01*
X8974048Y-16017952D01*
X8964524Y-16008428D01*
X9269286Y-15827476D02*
X9174048Y-15827476D01*
X9164524Y-15922714D01*
X9174048Y-15913190D01*
X9193095Y-15903667D01*
X9240714Y-15903667D01*
X9259762Y-15913190D01*
X9269286Y-15922714D01*
X9278810Y-15941762D01*
X9278810Y-15989381D01*
X9269286Y-16008428D01*
X9259762Y-16017952D01*
X9240714Y-16027476D01*
X9193095Y-16027476D01*
X9174048Y-16017952D01*
X9164524Y-16008428D01*
X9450238Y-15894143D02*
X9450238Y-16027476D01*
X9402619Y-15817952D02*
X9355000Y-15960809D01*
X9478810Y-15960809D01*
X9545476Y-15827476D02*
X9545476Y-15865571D01*
X9621667Y-15827476D02*
X9621667Y-15865571D01*
X9916905Y-16103667D02*
X9907381Y-16094143D01*
X9888333Y-16065571D01*
X9878810Y-16046524D01*
X9869286Y-16017952D01*
X9859762Y-15970333D01*
X9859762Y-15932238D01*
X9869286Y-15884619D01*
X9878810Y-15856048D01*
X9888333Y-15837000D01*
X9907381Y-15808428D01*
X9916905Y-15798905D01*
X10031190Y-15827476D02*
X10050238Y-15827476D01*
X10069286Y-15837000D01*
X10078810Y-15846524D01*
X10088333Y-15865571D01*
X10097857Y-15903667D01*
X10097857Y-15951286D01*
X10088333Y-15989381D01*
X10078810Y-16008428D01*
X10069286Y-16017952D01*
X10050238Y-16027476D01*
X10031190Y-16027476D01*
X10012143Y-16017952D01*
X10002619Y-16008428D01*
X9993095Y-15989381D01*
X9983571Y-15951286D01*
X9983571Y-15903667D01*
X9993095Y-15865571D01*
X10002619Y-15846524D01*
X10012143Y-15837000D01*
X10031190Y-15827476D01*
X10335952Y-16027476D02*
X10335952Y-15827476D01*
X10421667Y-16027476D02*
X10421667Y-15922714D01*
X10412143Y-15903667D01*
X10393095Y-15894143D01*
X10364524Y-15894143D01*
X10345476Y-15903667D01*
X10335952Y-15913190D01*
X10545476Y-16027476D02*
X10526429Y-16017952D01*
X10516905Y-16008428D01*
X10507381Y-15989381D01*
X10507381Y-15932238D01*
X10516905Y-15913190D01*
X10526429Y-15903667D01*
X10545476Y-15894143D01*
X10574048Y-15894143D01*
X10593095Y-15903667D01*
X10602619Y-15913190D01*
X10612143Y-15932238D01*
X10612143Y-15989381D01*
X10602619Y-16008428D01*
X10593095Y-16017952D01*
X10574048Y-16027476D01*
X10545476Y-16027476D01*
X10726429Y-16027476D02*
X10707381Y-16017952D01*
X10697857Y-15998905D01*
X10697857Y-15827476D01*
X10878810Y-16017952D02*
X10859762Y-16027476D01*
X10821667Y-16027476D01*
X10802619Y-16017952D01*
X10793095Y-15998905D01*
X10793095Y-15922714D01*
X10802619Y-15903667D01*
X10821667Y-15894143D01*
X10859762Y-15894143D01*
X10878810Y-15903667D01*
X10888333Y-15922714D01*
X10888333Y-15941762D01*
X10793095Y-15960809D01*
X10964524Y-16017952D02*
X10983571Y-16027476D01*
X11021667Y-16027476D01*
X11040714Y-16017952D01*
X11050238Y-15998905D01*
X11050238Y-15989381D01*
X11040714Y-15970333D01*
X11021667Y-15960809D01*
X10993095Y-15960809D01*
X10974048Y-15951286D01*
X10964524Y-15932238D01*
X10964524Y-15922714D01*
X10974048Y-15903667D01*
X10993095Y-15894143D01*
X11021667Y-15894143D01*
X11040714Y-15903667D01*
X11288333Y-15951286D02*
X11440714Y-15951286D01*
X11364524Y-16027476D02*
X11364524Y-15875095D01*
X11774048Y-15827476D02*
X11735952Y-15827476D01*
X11716905Y-15837000D01*
X11707381Y-15846524D01*
X11688333Y-15875095D01*
X11678809Y-15913190D01*
X11678809Y-15989381D01*
X11688333Y-16008428D01*
X11697857Y-16017952D01*
X11716905Y-16027476D01*
X11755000Y-16027476D01*
X11774048Y-16017952D01*
X11783571Y-16008428D01*
X11793095Y-15989381D01*
X11793095Y-15941762D01*
X11783571Y-15922714D01*
X11774048Y-15913190D01*
X11755000Y-15903667D01*
X11716905Y-15903667D01*
X11697857Y-15913190D01*
X11688333Y-15922714D01*
X11678809Y-15941762D01*
X12021667Y-16017952D02*
X12040714Y-16027476D01*
X12078809Y-16027476D01*
X12097857Y-16017952D01*
X12107381Y-15998905D01*
X12107381Y-15989381D01*
X12097857Y-15970333D01*
X12078809Y-15960809D01*
X12050238Y-15960809D01*
X12031190Y-15951286D01*
X12021667Y-15932238D01*
X12021667Y-15922714D01*
X12031190Y-15903667D01*
X12050238Y-15894143D01*
X12078809Y-15894143D01*
X12097857Y-15903667D01*
X12221667Y-16027476D02*
X12202619Y-16017952D01*
X12193095Y-15998905D01*
X12193095Y-15827476D01*
X12326428Y-16027476D02*
X12307381Y-16017952D01*
X12297857Y-16008428D01*
X12288333Y-15989381D01*
X12288333Y-15932238D01*
X12297857Y-15913190D01*
X12307381Y-15903667D01*
X12326428Y-15894143D01*
X12355000Y-15894143D01*
X12374048Y-15903667D01*
X12383571Y-15913190D01*
X12393095Y-15932238D01*
X12393095Y-15989381D01*
X12383571Y-16008428D01*
X12374048Y-16017952D01*
X12355000Y-16027476D01*
X12326428Y-16027476D01*
X12450238Y-15894143D02*
X12526428Y-15894143D01*
X12478809Y-15827476D02*
X12478809Y-15998905D01*
X12488333Y-16017952D01*
X12507381Y-16027476D01*
X12526428Y-16027476D01*
X12583571Y-16017952D02*
X12602619Y-16027476D01*
X12640714Y-16027476D01*
X12659762Y-16017952D01*
X12669286Y-15998905D01*
X12669286Y-15989381D01*
X12659762Y-15970333D01*
X12640714Y-15960809D01*
X12612143Y-15960809D01*
X12593095Y-15951286D01*
X12583571Y-15932238D01*
X12583571Y-15922714D01*
X12593095Y-15903667D01*
X12612143Y-15894143D01*
X12640714Y-15894143D01*
X12659762Y-15903667D01*
X12735952Y-16103667D02*
X12745476Y-16094143D01*
X12764524Y-16065571D01*
X12774048Y-16046524D01*
X12783571Y-16017952D01*
X12793095Y-15970333D01*
X12793095Y-15932238D01*
X12783571Y-15884619D01*
X12774048Y-15856048D01*
X12764524Y-15837000D01*
X12745476Y-15808428D01*
X12735952Y-15798905D01*
D16*
X6295000Y-16251000D02*
X6345000Y-16201000D01*
X6295000Y-16151000D01*
X6245000Y-16201000D01*
X6295000Y-16251000D01*
D11*
X6707381Y-16291476D02*
X6593095Y-16291476D01*
X6650238Y-16291476D02*
X6650238Y-16091476D01*
X6631190Y-16120048D01*
X6612143Y-16139095D01*
X6593095Y-16148619D01*
X6793095Y-16272428D02*
X6802619Y-16281952D01*
X6793095Y-16291476D01*
X6783571Y-16281952D01*
X6793095Y-16272428D01*
X6793095Y-16291476D01*
X6926428Y-16091476D02*
X6945476Y-16091476D01*
X6964524Y-16101000D01*
X6974048Y-16110524D01*
X6983571Y-16129571D01*
X6993095Y-16167667D01*
X6993095Y-16215286D01*
X6983571Y-16253381D01*
X6974048Y-16272428D01*
X6964524Y-16281952D01*
X6945476Y-16291476D01*
X6926428Y-16291476D01*
X6907381Y-16281952D01*
X6897857Y-16272428D01*
X6888333Y-16253381D01*
X6878809Y-16215286D01*
X6878809Y-16167667D01*
X6888333Y-16129571D01*
X6897857Y-16110524D01*
X6907381Y-16101000D01*
X6926428Y-16091476D01*
X7116905Y-16091476D02*
X7135952Y-16091476D01*
X7155000Y-16101000D01*
X7164524Y-16110524D01*
X7174048Y-16129571D01*
X7183571Y-16167667D01*
X7183571Y-16215286D01*
X7174048Y-16253381D01*
X7164524Y-16272428D01*
X7155000Y-16281952D01*
X7135952Y-16291476D01*
X7116905Y-16291476D01*
X7097857Y-16281952D01*
X7088333Y-16272428D01*
X7078809Y-16253381D01*
X7069286Y-16215286D01*
X7069286Y-16167667D01*
X7078809Y-16129571D01*
X7088333Y-16110524D01*
X7097857Y-16101000D01*
X7116905Y-16091476D01*
X7307381Y-16091476D02*
X7326428Y-16091476D01*
X7345476Y-16101000D01*
X7355000Y-16110524D01*
X7364524Y-16129571D01*
X7374048Y-16167667D01*
X7374048Y-16215286D01*
X7364524Y-16253381D01*
X7355000Y-16272428D01*
X7345476Y-16281952D01*
X7326428Y-16291476D01*
X7307381Y-16291476D01*
X7288333Y-16281952D01*
X7278809Y-16272428D01*
X7269286Y-16253381D01*
X7259762Y-16215286D01*
X7259762Y-16167667D01*
X7269286Y-16129571D01*
X7278809Y-16110524D01*
X7288333Y-16101000D01*
X7307381Y-16091476D01*
X7459762Y-16291476D02*
X7459762Y-16158143D01*
X7459762Y-16177190D02*
X7469286Y-16167667D01*
X7488333Y-16158143D01*
X7516905Y-16158143D01*
X7535952Y-16167667D01*
X7545476Y-16186714D01*
X7545476Y-16291476D01*
X7545476Y-16186714D02*
X7555000Y-16167667D01*
X7574048Y-16158143D01*
X7602619Y-16158143D01*
X7621667Y-16167667D01*
X7631190Y-16186714D01*
X7631190Y-16291476D01*
X7726428Y-16291476D02*
X7726428Y-16158143D01*
X7726428Y-16177190D02*
X7735952Y-16167667D01*
X7755000Y-16158143D01*
X7783571Y-16158143D01*
X7802619Y-16167667D01*
X7812143Y-16186714D01*
X7812143Y-16291476D01*
X7812143Y-16186714D02*
X7821667Y-16167667D01*
X7840714Y-16158143D01*
X7869286Y-16158143D01*
X7888333Y-16167667D01*
X7897857Y-16186714D01*
X7897857Y-16291476D01*
X8288333Y-16081952D02*
X8116905Y-16339095D01*
X8545476Y-16091476D02*
X8564524Y-16091476D01*
X8583571Y-16101000D01*
X8593095Y-16110524D01*
X8602619Y-16129571D01*
X8612143Y-16167667D01*
X8612143Y-16215286D01*
X8602619Y-16253381D01*
X8593095Y-16272428D01*
X8583571Y-16281952D01*
X8564524Y-16291476D01*
X8545476Y-16291476D01*
X8526429Y-16281952D01*
X8516905Y-16272428D01*
X8507381Y-16253381D01*
X8497857Y-16215286D01*
X8497857Y-16167667D01*
X8507381Y-16129571D01*
X8516905Y-16110524D01*
X8526429Y-16101000D01*
X8545476Y-16091476D01*
X8697857Y-16272428D02*
X8707381Y-16281952D01*
X8697857Y-16291476D01*
X8688333Y-16281952D01*
X8697857Y-16272428D01*
X8697857Y-16291476D01*
X8831190Y-16091476D02*
X8850238Y-16091476D01*
X8869286Y-16101000D01*
X8878810Y-16110524D01*
X8888333Y-16129571D01*
X8897857Y-16167667D01*
X8897857Y-16215286D01*
X8888333Y-16253381D01*
X8878810Y-16272428D01*
X8869286Y-16281952D01*
X8850238Y-16291476D01*
X8831190Y-16291476D01*
X8812143Y-16281952D01*
X8802619Y-16272428D01*
X8793095Y-16253381D01*
X8783571Y-16215286D01*
X8783571Y-16167667D01*
X8793095Y-16129571D01*
X8802619Y-16110524D01*
X8812143Y-16101000D01*
X8831190Y-16091476D01*
X8964524Y-16091476D02*
X9088333Y-16091476D01*
X9021667Y-16167667D01*
X9050238Y-16167667D01*
X9069286Y-16177190D01*
X9078810Y-16186714D01*
X9088333Y-16205762D01*
X9088333Y-16253381D01*
X9078810Y-16272428D01*
X9069286Y-16281952D01*
X9050238Y-16291476D01*
X8993095Y-16291476D01*
X8974048Y-16281952D01*
X8964524Y-16272428D01*
X9183571Y-16291476D02*
X9221667Y-16291476D01*
X9240714Y-16281952D01*
X9250238Y-16272428D01*
X9269286Y-16243857D01*
X9278810Y-16205762D01*
X9278810Y-16129571D01*
X9269286Y-16110524D01*
X9259762Y-16101000D01*
X9240714Y-16091476D01*
X9202619Y-16091476D01*
X9183571Y-16101000D01*
X9174048Y-16110524D01*
X9164524Y-16129571D01*
X9164524Y-16177190D01*
X9174048Y-16196238D01*
X9183571Y-16205762D01*
X9202619Y-16215286D01*
X9240714Y-16215286D01*
X9259762Y-16205762D01*
X9269286Y-16196238D01*
X9278810Y-16177190D01*
X9450238Y-16158143D02*
X9450238Y-16291476D01*
X9402619Y-16081952D02*
X9355000Y-16224809D01*
X9478810Y-16224809D01*
X9545476Y-16091476D02*
X9545476Y-16129571D01*
X9621667Y-16091476D02*
X9621667Y-16129571D01*
X9916905Y-16367667D02*
X9907381Y-16358143D01*
X9888333Y-16329571D01*
X9878810Y-16310524D01*
X9869286Y-16281952D01*
X9859762Y-16234333D01*
X9859762Y-16196238D01*
X9869286Y-16148619D01*
X9878810Y-16120048D01*
X9888333Y-16101000D01*
X9907381Y-16072428D01*
X9916905Y-16062905D01*
X10002619Y-16291476D02*
X10040714Y-16291476D01*
X10059762Y-16281952D01*
X10069286Y-16272428D01*
X10088333Y-16243857D01*
X10097857Y-16205762D01*
X10097857Y-16129571D01*
X10088333Y-16110524D01*
X10078810Y-16101000D01*
X10059762Y-16091476D01*
X10021667Y-16091476D01*
X10002619Y-16101000D01*
X9993095Y-16110524D01*
X9983571Y-16129571D01*
X9983571Y-16177190D01*
X9993095Y-16196238D01*
X10002619Y-16205762D01*
X10021667Y-16215286D01*
X10059762Y-16215286D01*
X10078810Y-16205762D01*
X10088333Y-16196238D01*
X10097857Y-16177190D01*
X10278810Y-16091476D02*
X10183571Y-16091476D01*
X10174048Y-16186714D01*
X10183571Y-16177190D01*
X10202619Y-16167667D01*
X10250238Y-16167667D01*
X10269286Y-16177190D01*
X10278810Y-16186714D01*
X10288333Y-16205762D01*
X10288333Y-16253381D01*
X10278810Y-16272428D01*
X10269286Y-16281952D01*
X10250238Y-16291476D01*
X10202619Y-16291476D01*
X10183571Y-16281952D01*
X10174048Y-16272428D01*
X10526429Y-16291476D02*
X10526429Y-16091476D01*
X10612143Y-16291476D02*
X10612143Y-16186714D01*
X10602619Y-16167667D01*
X10583571Y-16158143D01*
X10555000Y-16158143D01*
X10535952Y-16167667D01*
X10526429Y-16177190D01*
X10735952Y-16291476D02*
X10716905Y-16281952D01*
X10707381Y-16272428D01*
X10697857Y-16253381D01*
X10697857Y-16196238D01*
X10707381Y-16177190D01*
X10716905Y-16167667D01*
X10735952Y-16158143D01*
X10764524Y-16158143D01*
X10783571Y-16167667D01*
X10793095Y-16177190D01*
X10802619Y-16196238D01*
X10802619Y-16253381D01*
X10793095Y-16272428D01*
X10783571Y-16281952D01*
X10764524Y-16291476D01*
X10735952Y-16291476D01*
X10916905Y-16291476D02*
X10897857Y-16281952D01*
X10888333Y-16262905D01*
X10888333Y-16091476D01*
X11069286Y-16281952D02*
X11050238Y-16291476D01*
X11012143Y-16291476D01*
X10993095Y-16281952D01*
X10983571Y-16262905D01*
X10983571Y-16186714D01*
X10993095Y-16167667D01*
X11012143Y-16158143D01*
X11050238Y-16158143D01*
X11069286Y-16167667D01*
X11078810Y-16186714D01*
X11078810Y-16205762D01*
X10983571Y-16224809D01*
X11155000Y-16281952D02*
X11174048Y-16291476D01*
X11212143Y-16291476D01*
X11231190Y-16281952D01*
X11240714Y-16262905D01*
X11240714Y-16253381D01*
X11231190Y-16234333D01*
X11212143Y-16224809D01*
X11183571Y-16224809D01*
X11164524Y-16215286D01*
X11155000Y-16196238D01*
X11155000Y-16186714D01*
X11164524Y-16167667D01*
X11183571Y-16158143D01*
X11212143Y-16158143D01*
X11231190Y-16167667D01*
X11307381Y-16367667D02*
X11316905Y-16358143D01*
X11335952Y-16329571D01*
X11345476Y-16310524D01*
X11355000Y-16281952D01*
X11364524Y-16234333D01*
X11364524Y-16196238D01*
X11355000Y-16148619D01*
X11345476Y-16120048D01*
X11335952Y-16101000D01*
X11316905Y-16072428D01*
X11307381Y-16062905D01*
D17*
X6235780Y-16410390D02*
X6345000Y-16519610D01*
X6345000Y-16410390D02*
X6235780Y-16519610D01*
X6345000Y-16465000D02*
G75*
G03*
X6345000Y-16465000I-54610J0D01*
G01*
D11*
X6707381Y-16555476D02*
X6593095Y-16555476D01*
X6650238Y-16555476D02*
X6650238Y-16355476D01*
X6631190Y-16384048D01*
X6612143Y-16403095D01*
X6593095Y-16412619D01*
X6793095Y-16536428D02*
X6802619Y-16545952D01*
X6793095Y-16555476D01*
X6783571Y-16545952D01*
X6793095Y-16536428D01*
X6793095Y-16555476D01*
X6926428Y-16355476D02*
X6945476Y-16355476D01*
X6964524Y-16365000D01*
X6974048Y-16374524D01*
X6983571Y-16393571D01*
X6993095Y-16431667D01*
X6993095Y-16479286D01*
X6983571Y-16517381D01*
X6974048Y-16536428D01*
X6964524Y-16545952D01*
X6945476Y-16555476D01*
X6926428Y-16555476D01*
X6907381Y-16545952D01*
X6897857Y-16536428D01*
X6888333Y-16517381D01*
X6878809Y-16479286D01*
X6878809Y-16431667D01*
X6888333Y-16393571D01*
X6897857Y-16374524D01*
X6907381Y-16365000D01*
X6926428Y-16355476D01*
X7088333Y-16555476D02*
X7126428Y-16555476D01*
X7145476Y-16545952D01*
X7155000Y-16536428D01*
X7174048Y-16507857D01*
X7183571Y-16469762D01*
X7183571Y-16393571D01*
X7174048Y-16374524D01*
X7164524Y-16365000D01*
X7145476Y-16355476D01*
X7107381Y-16355476D01*
X7088333Y-16365000D01*
X7078809Y-16374524D01*
X7069286Y-16393571D01*
X7069286Y-16441190D01*
X7078809Y-16460238D01*
X7088333Y-16469762D01*
X7107381Y-16479286D01*
X7145476Y-16479286D01*
X7164524Y-16469762D01*
X7174048Y-16460238D01*
X7183571Y-16441190D01*
X7259762Y-16374524D02*
X7269286Y-16365000D01*
X7288333Y-16355476D01*
X7335952Y-16355476D01*
X7355000Y-16365000D01*
X7364524Y-16374524D01*
X7374048Y-16393571D01*
X7374048Y-16412619D01*
X7364524Y-16441190D01*
X7250238Y-16555476D01*
X7374048Y-16555476D01*
X7459762Y-16555476D02*
X7459762Y-16422143D01*
X7459762Y-16441190D02*
X7469286Y-16431667D01*
X7488333Y-16422143D01*
X7516905Y-16422143D01*
X7535952Y-16431667D01*
X7545476Y-16450714D01*
X7545476Y-16555476D01*
X7545476Y-16450714D02*
X7555000Y-16431667D01*
X7574048Y-16422143D01*
X7602619Y-16422143D01*
X7621667Y-16431667D01*
X7631190Y-16450714D01*
X7631190Y-16555476D01*
X7726428Y-16555476D02*
X7726428Y-16422143D01*
X7726428Y-16441190D02*
X7735952Y-16431667D01*
X7755000Y-16422143D01*
X7783571Y-16422143D01*
X7802619Y-16431667D01*
X7812143Y-16450714D01*
X7812143Y-16555476D01*
X7812143Y-16450714D02*
X7821667Y-16431667D01*
X7840714Y-16422143D01*
X7869286Y-16422143D01*
X7888333Y-16431667D01*
X7897857Y-16450714D01*
X7897857Y-16555476D01*
X8288333Y-16345952D02*
X8116905Y-16603095D01*
X8545476Y-16355476D02*
X8564524Y-16355476D01*
X8583571Y-16365000D01*
X8593095Y-16374524D01*
X8602619Y-16393571D01*
X8612143Y-16431667D01*
X8612143Y-16479286D01*
X8602619Y-16517381D01*
X8593095Y-16536428D01*
X8583571Y-16545952D01*
X8564524Y-16555476D01*
X8545476Y-16555476D01*
X8526429Y-16545952D01*
X8516905Y-16536428D01*
X8507381Y-16517381D01*
X8497857Y-16479286D01*
X8497857Y-16431667D01*
X8507381Y-16393571D01*
X8516905Y-16374524D01*
X8526429Y-16365000D01*
X8545476Y-16355476D01*
X8697857Y-16536428D02*
X8707381Y-16545952D01*
X8697857Y-16555476D01*
X8688333Y-16545952D01*
X8697857Y-16536428D01*
X8697857Y-16555476D01*
X8831190Y-16355476D02*
X8850238Y-16355476D01*
X8869286Y-16365000D01*
X8878810Y-16374524D01*
X8888333Y-16393571D01*
X8897857Y-16431667D01*
X8897857Y-16479286D01*
X8888333Y-16517381D01*
X8878810Y-16536428D01*
X8869286Y-16545952D01*
X8850238Y-16555476D01*
X8831190Y-16555476D01*
X8812143Y-16545952D01*
X8802619Y-16536428D01*
X8793095Y-16517381D01*
X8783571Y-16479286D01*
X8783571Y-16431667D01*
X8793095Y-16393571D01*
X8802619Y-16374524D01*
X8812143Y-16365000D01*
X8831190Y-16355476D01*
X9069286Y-16422143D02*
X9069286Y-16555476D01*
X9021667Y-16345952D02*
X8974048Y-16488809D01*
X9097857Y-16488809D01*
X9155000Y-16355476D02*
X9278810Y-16355476D01*
X9212143Y-16431667D01*
X9240714Y-16431667D01*
X9259762Y-16441190D01*
X9269286Y-16450714D01*
X9278810Y-16469762D01*
X9278810Y-16517381D01*
X9269286Y-16536428D01*
X9259762Y-16545952D01*
X9240714Y-16555476D01*
X9183571Y-16555476D01*
X9164524Y-16545952D01*
X9155000Y-16536428D01*
X9402619Y-16355476D02*
X9421667Y-16355476D01*
X9440714Y-16365000D01*
X9450238Y-16374524D01*
X9459762Y-16393571D01*
X9469286Y-16431667D01*
X9469286Y-16479286D01*
X9459762Y-16517381D01*
X9450238Y-16536428D01*
X9440714Y-16545952D01*
X9421667Y-16555476D01*
X9402619Y-16555476D01*
X9383571Y-16545952D01*
X9374048Y-16536428D01*
X9364524Y-16517381D01*
X9355000Y-16479286D01*
X9355000Y-16431667D01*
X9364524Y-16393571D01*
X9374048Y-16374524D01*
X9383571Y-16365000D01*
X9402619Y-16355476D01*
X9545476Y-16355476D02*
X9545476Y-16393571D01*
X9621667Y-16355476D02*
X9621667Y-16393571D01*
X9916905Y-16631667D02*
X9907381Y-16622143D01*
X9888333Y-16593571D01*
X9878810Y-16574524D01*
X9869286Y-16545952D01*
X9859762Y-16498333D01*
X9859762Y-16460238D01*
X9869286Y-16412619D01*
X9878810Y-16384048D01*
X9888333Y-16365000D01*
X9907381Y-16336428D01*
X9916905Y-16326905D01*
X9983571Y-16374524D02*
X9993095Y-16365000D01*
X10012143Y-16355476D01*
X10059762Y-16355476D01*
X10078810Y-16365000D01*
X10088333Y-16374524D01*
X10097857Y-16393571D01*
X10097857Y-16412619D01*
X10088333Y-16441190D01*
X9974048Y-16555476D01*
X10097857Y-16555476D01*
X10193095Y-16555476D02*
X10231190Y-16555476D01*
X10250238Y-16545952D01*
X10259762Y-16536428D01*
X10278810Y-16507857D01*
X10288333Y-16469762D01*
X10288333Y-16393571D01*
X10278810Y-16374524D01*
X10269286Y-16365000D01*
X10250238Y-16355476D01*
X10212143Y-16355476D01*
X10193095Y-16365000D01*
X10183571Y-16374524D01*
X10174048Y-16393571D01*
X10174048Y-16441190D01*
X10183571Y-16460238D01*
X10193095Y-16469762D01*
X10212143Y-16479286D01*
X10250238Y-16479286D01*
X10269286Y-16469762D01*
X10278810Y-16460238D01*
X10288333Y-16441190D01*
X10526429Y-16555476D02*
X10526429Y-16355476D01*
X10612143Y-16555476D02*
X10612143Y-16450714D01*
X10602619Y-16431667D01*
X10583571Y-16422143D01*
X10555000Y-16422143D01*
X10535952Y-16431667D01*
X10526429Y-16441190D01*
X10735952Y-16555476D02*
X10716905Y-16545952D01*
X10707381Y-16536428D01*
X10697857Y-16517381D01*
X10697857Y-16460238D01*
X10707381Y-16441190D01*
X10716905Y-16431667D01*
X10735952Y-16422143D01*
X10764524Y-16422143D01*
X10783571Y-16431667D01*
X10793095Y-16441190D01*
X10802619Y-16460238D01*
X10802619Y-16517381D01*
X10793095Y-16536428D01*
X10783571Y-16545952D01*
X10764524Y-16555476D01*
X10735952Y-16555476D01*
X10916905Y-16555476D02*
X10897857Y-16545952D01*
X10888333Y-16526905D01*
X10888333Y-16355476D01*
X11069286Y-16545952D02*
X11050238Y-16555476D01*
X11012143Y-16555476D01*
X10993095Y-16545952D01*
X10983571Y-16526905D01*
X10983571Y-16450714D01*
X10993095Y-16431667D01*
X11012143Y-16422143D01*
X11050238Y-16422143D01*
X11069286Y-16431667D01*
X11078810Y-16450714D01*
X11078810Y-16469762D01*
X10983571Y-16488809D01*
X11155000Y-16545952D02*
X11174048Y-16555476D01*
X11212143Y-16555476D01*
X11231190Y-16545952D01*
X11240714Y-16526905D01*
X11240714Y-16517381D01*
X11231190Y-16498333D01*
X11212143Y-16488809D01*
X11183571Y-16488809D01*
X11164524Y-16479286D01*
X11155000Y-16460238D01*
X11155000Y-16450714D01*
X11164524Y-16431667D01*
X11183571Y-16422143D01*
X11212143Y-16422143D01*
X11231190Y-16431667D01*
X11307381Y-16631667D02*
X11316905Y-16622143D01*
X11335952Y-16593571D01*
X11345476Y-16574524D01*
X11355000Y-16545952D01*
X11364524Y-16498333D01*
X11364524Y-16460238D01*
X11355000Y-16412619D01*
X11345476Y-16384048D01*
X11335952Y-16365000D01*
X11316905Y-16336428D01*
X11307381Y-16326905D01*
D18*
X6195000Y-16654000D02*
X6345000Y-16804000D01*
X6345000Y-16654000D02*
X6195000Y-16804000D01*
X6270000Y-16654000D02*
X6270000Y-16804000D01*
X6195000Y-16729000D02*
X6345000Y-16729000D01*
D11*
X6707381Y-16819476D02*
X6593095Y-16819476D01*
X6650238Y-16819476D02*
X6650238Y-16619476D01*
X6631190Y-16648048D01*
X6612143Y-16667095D01*
X6593095Y-16676619D01*
X6793095Y-16800429D02*
X6802619Y-16809952D01*
X6793095Y-16819476D01*
X6783571Y-16809952D01*
X6793095Y-16800429D01*
X6793095Y-16819476D01*
X6983571Y-16619476D02*
X6888333Y-16619476D01*
X6878809Y-16714714D01*
X6888333Y-16705190D01*
X6907381Y-16695667D01*
X6955000Y-16695667D01*
X6974048Y-16705190D01*
X6983571Y-16714714D01*
X6993095Y-16733762D01*
X6993095Y-16781381D01*
X6983571Y-16800429D01*
X6974048Y-16809952D01*
X6955000Y-16819476D01*
X6907381Y-16819476D01*
X6888333Y-16809952D01*
X6878809Y-16800429D01*
X7116905Y-16619476D02*
X7135952Y-16619476D01*
X7155000Y-16629000D01*
X7164524Y-16638524D01*
X7174048Y-16657571D01*
X7183571Y-16695667D01*
X7183571Y-16743286D01*
X7174048Y-16781381D01*
X7164524Y-16800429D01*
X7155000Y-16809952D01*
X7135952Y-16819476D01*
X7116905Y-16819476D01*
X7097857Y-16809952D01*
X7088333Y-16800429D01*
X7078809Y-16781381D01*
X7069286Y-16743286D01*
X7069286Y-16695667D01*
X7078809Y-16657571D01*
X7088333Y-16638524D01*
X7097857Y-16629000D01*
X7116905Y-16619476D01*
X7307381Y-16619476D02*
X7326428Y-16619476D01*
X7345476Y-16629000D01*
X7355000Y-16638524D01*
X7364524Y-16657571D01*
X7374048Y-16695667D01*
X7374048Y-16743286D01*
X7364524Y-16781381D01*
X7355000Y-16800429D01*
X7345476Y-16809952D01*
X7326428Y-16819476D01*
X7307381Y-16819476D01*
X7288333Y-16809952D01*
X7278809Y-16800429D01*
X7269286Y-16781381D01*
X7259762Y-16743286D01*
X7259762Y-16695667D01*
X7269286Y-16657571D01*
X7278809Y-16638524D01*
X7288333Y-16629000D01*
X7307381Y-16619476D01*
X7459762Y-16819476D02*
X7459762Y-16686143D01*
X7459762Y-16705190D02*
X7469286Y-16695667D01*
X7488333Y-16686143D01*
X7516905Y-16686143D01*
X7535952Y-16695667D01*
X7545476Y-16714714D01*
X7545476Y-16819476D01*
X7545476Y-16714714D02*
X7555000Y-16695667D01*
X7574048Y-16686143D01*
X7602619Y-16686143D01*
X7621667Y-16695667D01*
X7631190Y-16714714D01*
X7631190Y-16819476D01*
X7726428Y-16819476D02*
X7726428Y-16686143D01*
X7726428Y-16705190D02*
X7735952Y-16695667D01*
X7755000Y-16686143D01*
X7783571Y-16686143D01*
X7802619Y-16695667D01*
X7812143Y-16714714D01*
X7812143Y-16819476D01*
X7812143Y-16714714D02*
X7821667Y-16695667D01*
X7840714Y-16686143D01*
X7869286Y-16686143D01*
X7888333Y-16695667D01*
X7897857Y-16714714D01*
X7897857Y-16819476D01*
X8288333Y-16609952D02*
X8116905Y-16867095D01*
X8545476Y-16619476D02*
X8564524Y-16619476D01*
X8583571Y-16629000D01*
X8593095Y-16638524D01*
X8602619Y-16657571D01*
X8612143Y-16695667D01*
X8612143Y-16743286D01*
X8602619Y-16781381D01*
X8593095Y-16800429D01*
X8583571Y-16809952D01*
X8564524Y-16819476D01*
X8545476Y-16819476D01*
X8526429Y-16809952D01*
X8516905Y-16800429D01*
X8507381Y-16781381D01*
X8497857Y-16743286D01*
X8497857Y-16695667D01*
X8507381Y-16657571D01*
X8516905Y-16638524D01*
X8526429Y-16629000D01*
X8545476Y-16619476D01*
X8697857Y-16800429D02*
X8707381Y-16809952D01*
X8697857Y-16819476D01*
X8688333Y-16809952D01*
X8697857Y-16800429D01*
X8697857Y-16819476D01*
X8831190Y-16619476D02*
X8850238Y-16619476D01*
X8869286Y-16629000D01*
X8878810Y-16638524D01*
X8888333Y-16657571D01*
X8897857Y-16695667D01*
X8897857Y-16743286D01*
X8888333Y-16781381D01*
X8878810Y-16800429D01*
X8869286Y-16809952D01*
X8850238Y-16819476D01*
X8831190Y-16819476D01*
X8812143Y-16809952D01*
X8802619Y-16800429D01*
X8793095Y-16781381D01*
X8783571Y-16743286D01*
X8783571Y-16695667D01*
X8793095Y-16657571D01*
X8802619Y-16638524D01*
X8812143Y-16629000D01*
X8831190Y-16619476D01*
X9078810Y-16619476D02*
X8983571Y-16619476D01*
X8974048Y-16714714D01*
X8983571Y-16705190D01*
X9002619Y-16695667D01*
X9050238Y-16695667D01*
X9069286Y-16705190D01*
X9078810Y-16714714D01*
X9088333Y-16733762D01*
X9088333Y-16781381D01*
X9078810Y-16800429D01*
X9069286Y-16809952D01*
X9050238Y-16819476D01*
X9002619Y-16819476D01*
X8983571Y-16809952D01*
X8974048Y-16800429D01*
X9183571Y-16819476D02*
X9221667Y-16819476D01*
X9240714Y-16809952D01*
X9250238Y-16800429D01*
X9269286Y-16771857D01*
X9278810Y-16733762D01*
X9278810Y-16657571D01*
X9269286Y-16638524D01*
X9259762Y-16629000D01*
X9240714Y-16619476D01*
X9202619Y-16619476D01*
X9183571Y-16629000D01*
X9174048Y-16638524D01*
X9164524Y-16657571D01*
X9164524Y-16705190D01*
X9174048Y-16724238D01*
X9183571Y-16733762D01*
X9202619Y-16743286D01*
X9240714Y-16743286D01*
X9259762Y-16733762D01*
X9269286Y-16724238D01*
X9278810Y-16705190D01*
X9469286Y-16819476D02*
X9355000Y-16819476D01*
X9412143Y-16819476D02*
X9412143Y-16619476D01*
X9393095Y-16648048D01*
X9374048Y-16667095D01*
X9355000Y-16676619D01*
X9545476Y-16619476D02*
X9545476Y-16657571D01*
X9621667Y-16619476D02*
X9621667Y-16657571D01*
X9916905Y-16895667D02*
X9907381Y-16886143D01*
X9888333Y-16857571D01*
X9878810Y-16838524D01*
X9869286Y-16809952D01*
X9859762Y-16762333D01*
X9859762Y-16724238D01*
X9869286Y-16676619D01*
X9878810Y-16648048D01*
X9888333Y-16629000D01*
X9907381Y-16600428D01*
X9916905Y-16590905D01*
X10031190Y-16619476D02*
X10050238Y-16619476D01*
X10069286Y-16629000D01*
X10078810Y-16638524D01*
X10088333Y-16657571D01*
X10097857Y-16695667D01*
X10097857Y-16743286D01*
X10088333Y-16781381D01*
X10078810Y-16800429D01*
X10069286Y-16809952D01*
X10050238Y-16819476D01*
X10031190Y-16819476D01*
X10012143Y-16809952D01*
X10002619Y-16800429D01*
X9993095Y-16781381D01*
X9983571Y-16743286D01*
X9983571Y-16695667D01*
X9993095Y-16657571D01*
X10002619Y-16638524D01*
X10012143Y-16629000D01*
X10031190Y-16619476D01*
X10335952Y-16819476D02*
X10335952Y-16619476D01*
X10421667Y-16819476D02*
X10421667Y-16714714D01*
X10412143Y-16695667D01*
X10393095Y-16686143D01*
X10364524Y-16686143D01*
X10345476Y-16695667D01*
X10335952Y-16705190D01*
X10545476Y-16819476D02*
X10526429Y-16809952D01*
X10516905Y-16800429D01*
X10507381Y-16781381D01*
X10507381Y-16724238D01*
X10516905Y-16705190D01*
X10526429Y-16695667D01*
X10545476Y-16686143D01*
X10574048Y-16686143D01*
X10593095Y-16695667D01*
X10602619Y-16705190D01*
X10612143Y-16724238D01*
X10612143Y-16781381D01*
X10602619Y-16800429D01*
X10593095Y-16809952D01*
X10574048Y-16819476D01*
X10545476Y-16819476D01*
X10726429Y-16819476D02*
X10707381Y-16809952D01*
X10697857Y-16790905D01*
X10697857Y-16619476D01*
X10878810Y-16809952D02*
X10859762Y-16819476D01*
X10821667Y-16819476D01*
X10802619Y-16809952D01*
X10793095Y-16790905D01*
X10793095Y-16714714D01*
X10802619Y-16695667D01*
X10821667Y-16686143D01*
X10859762Y-16686143D01*
X10878810Y-16695667D01*
X10888333Y-16714714D01*
X10888333Y-16733762D01*
X10793095Y-16752809D01*
X10964524Y-16809952D02*
X10983571Y-16819476D01*
X11021667Y-16819476D01*
X11040714Y-16809952D01*
X11050238Y-16790905D01*
X11050238Y-16781381D01*
X11040714Y-16762333D01*
X11021667Y-16752809D01*
X10993095Y-16752809D01*
X10974048Y-16743286D01*
X10964524Y-16724238D01*
X10964524Y-16714714D01*
X10974048Y-16695667D01*
X10993095Y-16686143D01*
X11021667Y-16686143D01*
X11040714Y-16695667D01*
X11288333Y-16743286D02*
X11440714Y-16743286D01*
X11364524Y-16819476D02*
X11364524Y-16667095D01*
X11774048Y-16619476D02*
X11735952Y-16619476D01*
X11716905Y-16629000D01*
X11707381Y-16638524D01*
X11688333Y-16667095D01*
X11678809Y-16705190D01*
X11678809Y-16781381D01*
X11688333Y-16800429D01*
X11697857Y-16809952D01*
X11716905Y-16819476D01*
X11755000Y-16819476D01*
X11774048Y-16809952D01*
X11783571Y-16800429D01*
X11793095Y-16781381D01*
X11793095Y-16733762D01*
X11783571Y-16714714D01*
X11774048Y-16705190D01*
X11755000Y-16695667D01*
X11716905Y-16695667D01*
X11697857Y-16705190D01*
X11688333Y-16714714D01*
X11678809Y-16733762D01*
X12021667Y-16809952D02*
X12040714Y-16819476D01*
X12078809Y-16819476D01*
X12097857Y-16809952D01*
X12107381Y-16790905D01*
X12107381Y-16781381D01*
X12097857Y-16762333D01*
X12078809Y-16752809D01*
X12050238Y-16752809D01*
X12031190Y-16743286D01*
X12021667Y-16724238D01*
X12021667Y-16714714D01*
X12031190Y-16695667D01*
X12050238Y-16686143D01*
X12078809Y-16686143D01*
X12097857Y-16695667D01*
X12221667Y-16819476D02*
X12202619Y-16809952D01*
X12193095Y-16790905D01*
X12193095Y-16619476D01*
X12326428Y-16819476D02*
X12307381Y-16809952D01*
X12297857Y-16800429D01*
X12288333Y-16781381D01*
X12288333Y-16724238D01*
X12297857Y-16705190D01*
X12307381Y-16695667D01*
X12326428Y-16686143D01*
X12355000Y-16686143D01*
X12374048Y-16695667D01*
X12383571Y-16705190D01*
X12393095Y-16724238D01*
X12393095Y-16781381D01*
X12383571Y-16800429D01*
X12374048Y-16809952D01*
X12355000Y-16819476D01*
X12326428Y-16819476D01*
X12450238Y-16686143D02*
X12526428Y-16686143D01*
X12478809Y-16619476D02*
X12478809Y-16790905D01*
X12488333Y-16809952D01*
X12507381Y-16819476D01*
X12526428Y-16819476D01*
X12583571Y-16809952D02*
X12602619Y-16819476D01*
X12640714Y-16819476D01*
X12659762Y-16809952D01*
X12669286Y-16790905D01*
X12669286Y-16781381D01*
X12659762Y-16762333D01*
X12640714Y-16752809D01*
X12612143Y-16752809D01*
X12593095Y-16743286D01*
X12583571Y-16724238D01*
X12583571Y-16714714D01*
X12593095Y-16695667D01*
X12612143Y-16686143D01*
X12640714Y-16686143D01*
X12659762Y-16695667D01*
X12735952Y-16895667D02*
X12745476Y-16886143D01*
X12764524Y-16857571D01*
X12774048Y-16838524D01*
X12783571Y-16809952D01*
X12793095Y-16762333D01*
X12793095Y-16724238D01*
X12783571Y-16676619D01*
X12774048Y-16648048D01*
X12764524Y-16629000D01*
X12745476Y-16600428D01*
X12735952Y-16590905D01*
M02*
